<?xml version="1.0" encoding="utf-8"?>
<svg version="1.1" id="Layer_1" xmlns="http://www.w3.org/2000/svg" xmlns:xlink="http://www.w3.org/1999/xlink" x="0px" y="0px"
	 viewBox="0 0 2160 2592" style="enable-background:new 0 0 2160 2592;" xml:space="preserve">
<style type="text/css">.st2{fill:#997256;}.st10{fill:#997256;}</style>
<g>
<path class="st2" d="M1273.6,415.7c-2.7-0.4-6.1-0.8-9.3-1.5c-10,0.7-19.6,2.5-28.4,5c-3.2,0.9-6.2,2-9.2,3.1
		c0.3,0.1,0.5,0.1,0.8,0.2c6.7,2,11.8,3.8,15.3,5c2.6,0.9,4.2,1.6,4.9,1.8c-0.7-0.2-2.4-0.7-5.1-1.4c-3.6-0.9-8.8-2.4-15.6-3.9
		c-1-0.2-2-0.4-3.2-0.7c-3.7-0.8-7.7-1.5-12.1-2.1c-0.8-0.1-1.5-0.2-2.3-0.3c-2.3-0.3-4.8-0.5-7.3-0.6c-4.9-0.3-10.1-0.2-15.5,0.5
		c-5.4,0.7-11,2-16.5,4.4c-11,4.7-21.1,13.8-27.9,26.2c-0.7,1.2-1.3,2.4-1.9,3.6c-1.5,3.1-2.9,6.3-4.2,9.7
		c-1.9,5.2-3.5,10.7-4.7,16.5c0.4,0.1,0.7,0.1,0.7,0.2h-0.8c-0.9,4.4-1.7,9-2.3,13.6c-0.1,0.7-0.1,1.3-0.2,2c-0.3,3-0.6,6.1-0.8,9.2
		c-0.4,5.4-0.6,10.8-0.6,16.4c0,2.5,0,5,0,7.5c0.3,16.8,2.1,34.3,5.6,51.8c0.3,1.2,0.5,2.5,0.8,3.7c1.1,5.1,2.3,10.2,3.7,15.3
		c0.4,1.5,0.9,3,1.3,4.5l0.7,2.5c0.7,2.4,1.4,4.9,2.2,7.3c1.1,3.6,2.3,7.1,3.6,10.5c5.6,15.5,12.4,29.7,21.6,41c3,3.7,6.3,7,9.7,10
		c-0.3-0.3-0.5-0.7-0.8-1c-4.6-5.7-7.7-12.7-10.2-19.8c-0.4-1.1-0.8-2.1-1.1-3.2c-8.7-25.6-14.3-53.4-7.7-79.7
		c0.3,8.3,1.6,16.5,3.6,24.6c3.7,14.1,9.9,27.6,18.3,39.5c1.5,2.1,3,3.9,4.6,5.7c-0.8-4.1-1-7.6-0.9-10.3c0-2,0.2-3.6,0.3-4.6
		c0.1-1,0.2-1.6,0.2-1.6s0.1,0.6,0.2,1.6c0.1,1,0.4,2.5,0.8,4.4c0.9,3.8,2.6,9.2,5.9,14.9c3.3,5.8,8.4,11.9,15.4,16.6
		c3.2,2.1,6.8,4,10.6,5.3c-0.8-3.7-1.4-7.3-1.8-10.8c-1.2-9.6-0.6-18.4,0.3-25.5c0.6-3.6,1-6.8,1.8-9.5c0.7-2.8,1.3-5.1,2-7
		c1.3-3.7,2.1-5.8,2.1-5.8s-0.2,2.2-0.5,6.1c-0.2,1.9-0.2,4.4-0.3,7.1c-0.2,2.7,0,5.9,0.1,9.4c0.3,7.3,1.4,15.9,3.6,25.2
		c0-5.4,0.7-10.7,2.1-15.9c2.9,17.3,13.8,33,28.8,41.6c11.9,6.8,25.9,9.3,37.2,17c15.8,10.7,24.1,31.6,20.1,50.5
		c-0.2,1-0.5,2-0.7,2.9c-0.1,0.5-0.3,1-0.4,1.4v0c-0.9,3.1-1.9,6.2-3,9.2c-0.4,1.2-0.8,2.4-1.1,3.6c-0.1,0.3-0.2,0.6-0.3,0.9
		c-0.4,1.3-0.7,2.7-1.1,4c4.3,2,8.8,3.9,13.5,5.5c2.2,0.7,4.5,1.4,6.8,2c1.9-1.9,3.9-3.9,5.8-6.1c1.3-1.5,2.7-3.1,4.1-4.7
		c1.4-1.7,2.8-3.4,4.2-5.3c1.3-1.7,2.6-3.4,3.9-5.2c2.9-4.1,5.9-8.6,8.6-13.2c6.4-10.6,12-20.8,15.8-28.8c1.8-4,3.5-7.3,4.4-9.6
		c1-2.2,1.6-3.4,1.7-3.4c0,1.8,0.1,4.1,0,7c-0.2,2.9-0.5,6.4-1.3,10.4c0-0.2,0.1-0.4,0.1-0.7c0.7-0.8,1.4-1.6,2-2.5
		c3.9-5.9,6.4-12.8,7.3-19.8c-0.2,16.8-3.6,33.5-9.9,49.1c9-9.3,16.3-18.5,21.7-26.5c2.3-3.5,4.5-6.6,6.1-9.5
		c1.7-2.8,3.3-5.3,4.4-7.4c2.3-4.2,3.5-6.5,3.5-6.5s-0.7,2.6-2,7.2c-0.6,2.3-1.7,5-2.9,8.3c-1.1,3.2-2.8,6.7-4.6,10.7
		c-1.4,2.8-2.9,5.7-4.6,8.8c2.8-3,5.4-6.2,7.9-9.5c2-2.6,3.9-5.2,5.7-7.9c-6.5,22.3-16.6,43.6-29.8,62.7c-1.6,2.4-3.4,4.8-5.5,6.7
		c-2.3,0.2-4.6,0.4-6.8,0.5c5.8-0.2,11.6-0.9,17.5-2c1.8-2.5,3.6-5.2,5.6-8c0.9-1.3,1.8-2.6,2.7-4c0.6-0.9,1.2-1.9,1.8-2.8
		c0.9-1.5,1.9-3,2.9-4.6c1-1.7,2-3.4,3-5.2c1-1.7,2-3.5,3-5.3c0.2-0.3,0.3-0.6,0.5-1c8.6-16.1,16.7-35.5,22.5-57.1
		c3.2-11.3,5.3-22.5,7.3-32.7c0.8-5.2,1.6-10.2,2.2-14.8c0.5-4.7,1-9.1,1.4-13.1c0.3-4.1,0.5-7.8,0.7-11c0.3-3.3,0.2-6.1,0.3-8.3
		c0.2-4.4,0.3-6.9,0.4-6.9c0.7,3.2,1.6,7.3,2.5,12.5c0.5,2.6,0.7,5.5,1.1,8.6c0.3,3.2,0.7,6.6,0.8,10.3c0.2,4.1,0.2,8.6,0.1,13.5
		c3.5-10.6,5.4-21.7,5.5-32.8c6,24.9,5.5,51.4-1.4,76c4.9-5.6,9.2-11.8,12.6-18.4c-6.9,31.3-14.3,63.9-34.4,88.6
		c-0.5,0.6-1.1,1.2-1.6,1.9c9.7-5.7,18.6-12.5,26.4-20.3c4.9-4.6,9.1-9.8,13.1-15.1c1.4-2,2.8-4,4.1-6c1.6-2.4,3.1-4.8,4.5-7.2
		c-0.7,1.2-1.4,2.4-2.1,3.6c-7,5.2-14.5,10-20.9,16c33.7-76.9,30.2-169.6-9.2-243.6c-1-1.9-2.2-3.7-3.4-5.5
		c-3.6-3.4-7.4-6.6-11.1-9.3c-5.9-4.3-11.8-7.8-17.5-10.6c-5.7-2.7-11.1-4.6-16-6.1c0,0-0.1,0-0.1,0c3.6,4.1,6.5,7.8,8.8,10.9
		c2.5,3.2,4.2,5.7,5.4,7.4c0.9,1.3,1.5,2.2,1.7,2.5c-0.3-0.3-1-1-2.1-2.2c-1.4-1.5-3.5-3.8-6.3-6.6c-3.6-3.7-8.3-8.3-14.1-13.6
		c-0.6-0.5-1.2-1-1.8-1.6c-2.7-2.4-5.6-4.9-8.7-7.4c0.9,0.7,1.8,1.4,2.6,2.2c7.1,10.6,12.3,22.4,16.2,34.6
		c5.7,18,8.6,36.7,11.5,55.4c-11.5-23.6-23-47.4-38.3-68.8c-15.2-21.3-34.5-40.3-58.1-51.4c-9.4-4.4-19.4-7.6-29.6-10
		C1276.5,416.1,1275.2,415.9,1273.6,415.7"/>
<path class="st2" d="M1019.5,1384.2c12.3-4.3,24.3-9.3,36.1-14.8c0.1-0.1,0.1-0.1,0.2-0.2c-9.1,1.6-18.9,3.8-29.3,6.4
		c-13.6,3.3-28.4,7.3-44.9,10.2c-16.4,2.8-34.9,4.5-54.4,1.1c-19.4-3.3-38.7-10.8-59.1-17.1c-10.2-3.1-20.8-5.8-31.8-7.1
		c-10.9-1.2-22.3-0.9-33.9,1.3c-23.2,4.1-46.6,14.5-70.3,27.3c-4.1,2.2-8.2,4.4-12.2,6.7c6,2.8,12,5.5,18,8
		c-2.8-1.2-5.6-2.4-8.4-3.6c15.5-10.9,31.8-20.6,49.4-27.1c20.9-7.7,44-10.7,65.6-5.5c17.7,4.3,33.7,13.8,50.8,19.8
		c27.7,9.7,57.9,10.2,86.7,4.8C994.7,1392,1007.2,1388.5,1019.5,1384.2"/>
<path class="st2" d="M1464.5,783.5c-1.5,1.1-3.1,2.2-4.8,3.2c-0.2,0.1-0.4,0.2-0.6,0.4c-1.8,0.9-3.7,1.7-5.6,2.4
		c1.2,2.8,2.4,5.6,3.6,8.4c0.7,1.4,1.5,2.8,2.4,4.2c1.7,2.7,3.6,5.4,6,7.9c0.9,1,1.9,1.9,2.9,2.8c2.5,2.2,5.3,4.1,8.4,5.6v0
		c-0.5-5.7,1.4-11.3,4.1-16.4c0.4-0.7,0.8-1.4,1.2-2.1c3.6-6.1,8-11.7,10.5-18.3c3.3-10.1,2.1-18.5,0.5-27.6
		C1486.3,766,1476.4,776.5,1464.5,783.5"/>
<path class="st2" d="M1107.1,497.7c3.7-0.2,7-0.1,10.2-0.1c0.9,0,1.7,0,2.6-0.1c0.1-1.2,0.3-2.4,0.5-3.6c0.7-4.3,1.5-8.5,2.4-12.5
		c0.1-0.5,0.2-1.1,0.4-1.6c1.3-5.4,3-10.6,4.9-15.6c-0.5,1.3-1,2.7-1.4,4.1c-11.8,2.9-21.7,13.8-22.8,26.2c-0.1,1.2-0.1,2.4,0.1,3.5
		c-0.7,0.1-1.4,0.1-2.2,0.2C1103.7,497.9,1105.4,497.8,1107.1,497.7"/>
<path class="st2" d="M1501.5,693.2c2.5,1.9,5.5,3.2,8.6,3.9c4.6-6,6.8-13.9,5.5-21.4c-1.7-9.7-9.2-18-18.5-20.9
		c-0.3,9.2-1.2,18.5-2.9,27.9c0,0.1,0,0.2,0,0.2C1495.6,686.9,1498.2,690.6,1501.5,693.2"/>
<path class="st2" d="M392.1,1359c2.2-0.1,4.4-0.1,6.6-0.2c1.1,0,2.2-0.1,3.3-0.2l4-0.3c4.5-0.4,9-0.8,13.4-1.2l6.8-0.6
		c-1.1,1.8-2.5,3.8-3.7,5.7c-6.6,9.8-13.3,19.7-20,29.7c-14.7,21.8-29.3,42.5-42.8,61.5c8.5-2.4,17.6-5.2,27-8.5
		c29.1-21.2,52.9-49.5,80.8-72.5c32-26.3,74.4-46.1,113.6-33.5c21.8,7,39.4,23,57.2,37.6c55.2,45.5,119.3,81.5,189.1,95.4
		c67.8,13.5,141.4,4.4,200-32.5c0,0.4-0.1,0.8-0.1,1.2c0.1-1.4,0.2-2.8,0.4-4.2c-2.9,4-7.8,6.3-12.3,8.2c-30.4,12.9-61.9,23-94,30.2
		c22-10.5,43.5-22.1,64.4-34.8c-41.1,16.8-86.2,23.5-130.3,19.3c36.1-2.3,71.2-11.2,105.6-22.8c-14.7,3.1-30.5,5.7-47.5,7.2
		c-18.8,1.7-39,2-60.4,0.4c-35.7-2.5-75-10.7-115.4-26.8c-3.7-1.5-7.4-3-11.1-4.6c-4.3-1.9-8.7-3.8-13.1-5.9
		c-1.7-0.8-3.4-1.6-5.1-2.5c-3.7-1.8-7.4-3.7-11-5.7c-29.4-15.8-56.2-35-79.8-56.4c-6.9-6.3-13.4-12.6-20.4-17.9
		c-6.9-5.3-14.2-9.5-22.1-11.8c-4-1.1-8-1.8-12.1-2.2c-4.1-0.3-8.2-0.4-12.4-0.1c-8.3,0.5-16.5,2-24.7,3.7
		c-8.2,1.8-16.3,3.9-24.4,5.6c-4,0.9-8.1,1.8-12.1,2.6c-4,0.8-8,1.5-12,2.3c-15.8,3-31.3,5.3-46.3,7.2c-30,3.7-58.2,5.1-83.9,5.2
		c-31.4,0.1-59-1.9-82.2-4.5c1,0.5,2,1,3,1.4c2.9,1.3,6,2.5,9.1,3.9c6.1,2.7,12.8,4.8,19.5,7.3c13.8,4.4,28.7,8.2,44.6,10.8
		C357.7,1358.3,374.6,1359.5,392.1,1359"/>
<path class="st2" d="M1227.9,726.9c2.6-0.3,5.3-0.8,7.9-1.3c1.4-2.8,2.9-5.4,4.2-7.9c-0.2-0.5-0.4-1-0.6-1.5
		c-0.2-0.3-0.3-0.7-0.4-1c-2.5-2.7-5-5.8-7.4-9.4c-2.1-3-4.1-6.4-6.1-10.1c-1.2,0.3-2.4,0.6-3.6,0.8c-4.8,1-9.9,1.4-15.5,1
		c-16.9-1.2-35.4-11.1-49.1-28.3c-6.9-8.5-12.6-18.6-17.4-29.7c-1-2.4-2.1-4.8-3-7.3c-1.3-3.3-2.5-6.6-3.8-10.1
		c-1.3-3.7-2.5-7.4-3.6-11.3c-0.5-1.6-1-3.3-1.4-4.9c-0.2-0.8-0.4-1.6-0.7-2.4c-1.3-4.8-2.5-9.6-3.5-14.4c-0.4-1.8-0.7-3.6-1.1-5.4
		c0-0.1,0-0.1,0-0.2c0-0.1,0-0.2,0-0.2c-1.8-9.1-3-18.1-3.8-27c-1.2,1.3-2.5,2.5-3.7,3.7c-3.5,3.3-7.2,6.7-9.2,11.2
		c-3.1,6.8-1.7,14.9,0.9,21.8c2.7,7,6.6,13.5,8.7,20.6c4.5,15-0.1,32-10.5,43.4c-1.6,1.8-3.3,3.5-5,5.1c2.5-0.2,4.9-0.2,7.2-0.1
		c6.7,0.5,12.9,2.3,18.3,4.8c1.9,0.9,3.6,1.9,5.2,3c0.4,0.3,0.9,0.6,1.3,0.9c3.2,2.2,5.9,4.7,8.1,7.3c1.2,1.3,2.2,2.6,3.2,3.9
		c1,1.3,1.8,2.6,2.6,3.9c-0.1,0.6-0.2,1.2-0.3,1.8l-0.4,2.1c-0.6,3.1-1.5,6.2-2.4,9.3c0.1,1.2,0.3,2.5,0.6,3.7
		c1,3.6,2.8,7.1,5.4,9.8c6,6.4,14.6,9.4,23,11.4c7.8,1.9,15.8,3.2,23.8,3.8c2.7,0.2,5.3,0.3,8,0.4c5.3,0.1,10.7,0,16.1-0.4
		C1222.6,727.5,1225.3,727.3,1227.9,726.9"/>
<path class="st2" d="M1112.2,535.3c2-1.4,3.9-2.8,5.7-4.2c0-7.9,0.3-15.7,0.9-23.3c0,0.7-0.1,1.4-0.1,2c-1.1,1-2.4,1.8-3.6,2.4
		c-5.1,2.4-10.4,4.7-14.3,8.8c-3.9,4.1-5.8,10.8-2.8,15.6c1.3,2,3.2,3.4,5.5,4.2c-1.6,0.9-3.2,1.9-4.8,2.7
		C1103.4,541,1108,538.2,1112.2,535.3"/>
<path class="st2" d="M1373.4,795.7c-2,0.2-4,0.3-6,0.4c-1.3,0-2.5,0.1-3.8,0.1c-7.8,0.1-15.4-0.5-22.9-1.7c1.5,5,3.3,10.5,5.5,16.1
		c1.9,4.9,4.2,9.9,6.8,15.1c2.6,5.2,5.5,10.5,9.3,15.1c-0.4-0.4-0.6-0.9-1-1.3c8.9-2.4,15.8-10.3,19.1-19.2
		c3.2-8.7,2.7-17.2,3.7-26.1c-2.3,0.4-4.6,0.8-6.9,1c-0.2,0.1-0.3,0.1-0.5,0.2l0.2-0.2C1375.6,795.5,1374.5,795.6,1373.4,795.7"/>
<path class="st2" d="M1609.1,803.9c0.2-10.5-8.3-19.2-17.2-24.6c-7.2-4.4-15.1-7.6-23.2-9.5c-3-0.7-7.6-0.7-11.8-1.1
		c-4.8,2.7-9.4,5.6-13.8,8.9c-4.5,3.4-8.8,7.1-12.6,11.3c-0.7,0.8-1.5,2-2.4,3.2c-0.5,3.4-1.4,6.8-2.6,10c6.6,4.3,14.3,8.5,23,12
		c5,2.1,9.8,3.7,14.4,5.4c2.3,0.7,4.5,1.5,6.6,2.1c2.1,0.6,4.1,1.2,5.9,1.7c1.9,0.5,3.6,0.9,5.1,1.3c1.5,0.4,2.8,0.6,3.9,0.9
		c2.1,0.5,3.3,0.8,3.3,0.9c-1.5,0.5-3.5,1-6,1.6c-1.2,0.3-2.6,0.4-4.2,0.6c-1.5,0.2-3.2,0.4-5,0.4c-7.2,0.3-16.8-0.7-27.9-5.2
		c-9.1-3.6-16.8-8.7-22.9-14.1c-3.1,5-7.1,9-11.6,12.2c2.8,2.7,5.2,6.3,7.3,9.5l4.1-0.9c2.1-1,4.7-1.4,7-1.5l-7,1.5
		c-1.3,0.6-2.3,1.5-2.9,2.6c0.3,0.5,0.7,1,1,1.4c13.5,5.3,29.6,2.3,44,6.1c18.2,4.7,32.5,20.8,37.2,39.2c4.7,18.4,0.4,38.6-9.7,54.6
		c4.3-14.5,2.6-30.4-3.6-44.3c1.5,5.8,2.3,11.7,2.4,17.3c0.2,8.7-0.8,16.8-2.2,23.9c-2.9,14.1-6.7,24.5-8.7,30.1l-1.2,3.4l2.1-3.1
		c1.6-2.5,2.6-3.9,2.7-3.8c-0.3,0.9-0.6,1.9-1.6,4.3l-3.7,9c10.9-7.3,22.3-18.3,31.9-32.4c4.9-7.3,9.1-15.6,12.6-24.5
		c3.5-8.9,5.5-18.6,6.6-28.6c1.2-13.7,0.1-27.1-3.5-38.6c-0.8-2.4-1.6-4.7-2.6-6.9c-1.1-2.7-2.5-5.3-3.9-7.7c-3-5.1-6.4-9.4-10-13
		c-6.7-6.8-13.7-10.7-18.7-12.8c-5-2.1-8.1-2.7-7.8-2.7c3.9,0.1,9.1,0.7,15.2,3c4,1.5,8.5,3.7,13,6.9c-9.1-10.1-22.2-16.5-35.7-17.1
		C1586,792.8,1599.8,795.6,1609.1,803.9"/>
<path class="st2" d="M1455.8,756.2c-8.6,8.7-18.4,16.2-29.2,22.4c5.5,1.9,11.8,2.8,18.2,1.9c1.3-0.2,2.6-0.4,3.8-0.8
		c0.3,0,0.5-0.1,0.7-0.2c4.4-1.3,8.4-3.6,11.8-6.5c0.4-0.4,0.8-0.7,1.2-1.1c0.6-0.6,1.3-1.2,1.9-1.9c3.8-4.2,6.7-9.3,8.8-14.4
		c3.7-9.2,4.5-18.6,4.2-27.1c-2.3,3.9-4.8,7.6-7.4,11.3C1465.5,745.5,1461,751.2,1455.8,756.2"/>
<path class="st2" d="M1398.3,851.1c-1.4,1.9-3.3,3.7-5.3,5.2c0.5,11.2,1.1,25.3,1.7,41.5c0.4,11.2,0.8,23.4,1.2,36.5
		c0.1,2.7,0.2,5.5,0.3,8.2c8.9-4.4,15.8-12.9,19.7-22.3c5-11.9,6-25.2,6.3-38.2c0.3-9.7,0.4-19.4,0-29c-0.5-16.8-2.1-33.6-5.3-50.1
		c-0.9-4.4-4-11.8-4-17.5c-3.9,1.7-7.9,3.3-11.9,4.6c0.1,0.1,0.1,0.3,0.1,0.4c1.8,6.4,3.2,13.5,3.9,21.4c0.4,3.9,0.5,8,0.4,12.2
		c0,4.2-0.4,8.7-1.3,13.2C1403.2,841.9,1401.6,846.7,1398.3,851.1"/>
<path class="st2" d="M1463.6,1039.6c-8.5-8.9-20.1-18.4-34.4-25.7c0.9,1.8,1.9,3.8,2.8,5.8c4.9,4.4,10,9.4,15.2,15
		c2.9,3.1,5.8,6.3,8.8,9.7C1458.6,1042.6,1461.1,1041,1463.6,1039.6"/>
<path class="st2" d="M1424.6,977.1c0.2,0.2,0.4,0.5,0.5,0.7c2.1-1.7,6.3-2.1,9.9-2.3c7.2-0.6,14.6,0.7,21.4,2.9
		c11.4,3.7,21.8,9.9,32.5,15.1c10.7,5.3,22.3,9.7,34.3,9.3c-9.7,7.9-23.3,8.7-35.8,8.4c-10.3-0.3-21.1-1-30.9,1.6
		c2.6,2.4,5.3,4.7,8.2,7.1c5.4,4.4,10.7,8.7,15.8,12.5c-1.2-0.9-2.3-1.7-3.5-2.6c8.8-2.2,17.5-5,25.9-8.5
		c12.8-5.3,26-13.2,30.5-26.5c-10.5-10.7-24.6-17.6-39.3-19.5c8.5-5.7,21.3-2.2,28.8-9.2c4.7-4.4,5.5-11.5,6.1-17.9
		c1.5-16.9,2.6-35.6-7.3-49.2c-4.8-6.6-11.6-11.2-17.4-16.9c-1.3-1.3-2.8-2.9-4.1-4.7c0.2-2,0.5-3.9,0.9-5.9
		c-1.6,8.2-1.9,16.6-2.1,25c1.2,2.3,2.5,4.6,3.6,6.6c1.7,2.9,3.2,5.5,4.6,7.8c1.4,2.3,2.7,4.2,3.6,5.8c1.9,3,2.9,4.8,2.9,4.9
		c-2.1-1.7-4.6-4-7.8-6.9c-1.6-1.5-3.1-3.3-4.9-5.2c-1.8-1.9-3.7-4-5.6-6.4c-7.7-9.5-16.6-22.9-24.1-41.8
		c-5.5-13.8-8.8-27.7-10.5-40.4c-0.5-3.3-0.8-6.5-1.1-9.6c-1.5-2.2-2.7-4.4-3.8-6.6c-5.2-1.9-11.6-0.7-15.5,3.3
		c-2.2,2.2-3.4,4.8-3.9,7.4c3.5,9.3,6.9,19.6,9.8,30.9c4.5,18.3,7.9,39.2,8.1,63.1c0,8.8-0.9,17.6-3,26.2c-2.1,8.5-5.6,16.9-10.7,24
		c-4.6,6.5-10.5,12.2-17.4,16.1C1423.9,976.1,1424.2,976.6,1424.6,977.1"/>
<path class="st2" d="M1257.1,746c-5.1-6.5-9.5-13.3-13-20c-2.3,6.7-5.2,14.4-8.6,23C1242.5,746.9,1249.8,745.9,1257.1,746"/>
<path class="st2" d="M1327.4,806.3c2.2-3.9,4-7.9,5.5-11.9c-0.1-0.5-0.2-1-0.2-1.4c-0.8-0.2-1.6-0.4-2.4-0.6
		c-2.9-0.7-5.7-1.5-8.5-2.3c-1-0.3-1.9-0.6-2.9-0.9c-0.6-0.2-1.2-0.4-1.7-0.6c-2.6-0.9-5.2-1.9-7.7-3c-1.8-0.8-3.6-1.6-5.4-2.5
		c0,0.7,0.1,1.5,0.2,2.2C1305.9,796.7,1316.3,805.9,1327.4,806.3"/>
<path class="st2" d="M1673.2,1180.8c3.5-11.4,7.9-22.9,8.8-33.9c0.6-7.6-0.9-14.5-4.6-20.7c-3.7-6.2-9.3-11.4-15.3-16.3
		c-5.9-4.8-12.4-9.3-18.5-14.1c-6.1-4.8-12-9.6-17.7-14.5c-22.5-19.6-40.9-39.6-55-57.5c-2.2-2.7-4.3-5.4-6.2-8.1
		c-0.6-0.8-1.2-1.5-1.7-2.3c-0.1,0-0.1,0.1-0.2,0.1c-3.1,1.4-6.4,2.9-9.9,4.5c5.5,14.1,10.4,25.6,20.9,36.9
		c11.5,12.6,24.9,23.7,34.4,37.9c12.8,19.2,17.7,43.2,15.3,66.3c3.5,14.3,5.8,29,6.8,43.8c0.6,8.8,0.8,17.7,0.5,26.5
		c-1.3,38.7-11,78.3-34.3,108.9c-18.8,24.6-47.4,42.5-77.6,45.6c-0.7-2.8-1.4-5.7-2.1-8.7c0.8,3.2,1.5,6.3,2.3,9.3h0.5
		c8.5,0,18.6,1,30.1,1.3c6.3,0.1,12.9-0.1,19.7-1.5c6.8-1.3,13.5-4.2,19.5-8.8c5.9-4.8,10.7-11.3,14.7-18.9
		c4.1-7.5,7.6-15.9,11.5-24.5c7.7-17.3,15.6-35.8,23.5-55.5c7.9-19.7,15.7-40.6,23.4-62.4
		C1665.7,1203.3,1669.5,1192.2,1673.2,1180.8"/>
<path class="st2" d="M1437.3,1032.8c2.3,6.5,4.5,13.9,6.3,22.2c2.3-2.5,4.8-4.7,7.2-6.7C1446.3,1042.9,1441.8,1037.7,1437.3,1032.8
		"/>
<path class="st2" d="M1545.6,888.9c-6.7-8.9-14.3-17-22.3-24.8c5.2,6.3,10.8,13.2,16.4,21.3c5.7,8.3,10.7,17.1,14.2,26.2
		c3.5,9.1,5.5,18.3,6.7,27c1.2,8.7,1.8,16.9,2.2,24.5c0.2,5.8,0.5,11.2,0.7,16.3c-0.1-1.9-0.1-3.8-0.2-5.8c0,0.1,0,0.1,0,0.2
		c0.2,1.7,0.5,3.5,0.7,5.3c3.8-1.9,7.9-4.2,12.1-7c0.3-0.2,0.7-0.4,1-0.7v0l0.7-10c0.4-6,1.6-15.5,2.6-28.6
		c0.4-6.5,0.7-13.9,0.1-22.1c-0.6-8.2-2.2-17-6.1-26c-3.1-7.2-7.3-13.5-12.4-18.4c-2.6-2.4-5.4-4.5-8.3-6.2c-2.9-1.7-6-3-9.2-4.3
		c10.7,10.3,17.8,24.2,21.5,38.8c4.2,16.4,4.3,33.6,3,50.5C1567.3,924.5,1558,905.2,1545.6,888.9"/>
<path class="st10" d="M1304.3,785.4c-0.1-0.7-0.2-1.5-0.2-2.2c-2.6-1.2-5.1-2.5-7.6-3.9c-1.5-0.8-3-1.6-4.4-2.5
		c-0.1-0.1-0.2-0.1-0.3-0.2c0.1,1.9,0.2,3.8,0.3,5.8c0,0.7,0.1,1.3,0.1,2c0.3,4.6,0.9,9.5,1.7,14.6c0.1,0.8,0.3,1.6,0.4,2.4
		c0.3,1.7,0.6,3.4,1,5.2c0.1,0.6,0.3,1.2,0.4,1.8c0.5,2.2,1.1,4.3,1.7,6.4c1.2,3.7,2.8,6.8,4.8,8.4c0.8,0.6,1.7,1,2.7,1.3
		c0.2,0,0.5,0.1,0.8,0.1c0.2,0,0.3,0,0.5,0.1c0.6,0,1.1,0,1.7,0c0.5-0.1,1-0.1,1.6-0.3c0,0,0,0,0.1,0h0c2.1-0.6,4.3-1.8,6.3-3.4
		c0.7-0.5,1.3-1.1,1.9-1.7c2.4-2.3,4.7-5.3,6.7-8.1c1-1.6,2-3.1,2.9-4.7C1316.3,805.9,1305.9,796.7,1304.3,785.4"/>
<path class="st2" d="M1189.9,763.4c-7-1.2-15.1-2.9-23.9-5.5c-8.7-2.6-18-6.1-27.3-10.4c-27.4-12.6-47.8-31.9-60.3-47.5
		c-6.3-7.8-10.7-14.7-13.6-19.6c-1.5-2.4-2.5-4.3-3.3-5.6c-0.7-1.3-1.1-2-1.1-2s0.3,0.7,0.8,2.1c0.6,1.4,1.4,3.5,2.6,6
		c2.3,5.2,6.1,12.6,11.8,21.1c5.7,8.5,13.4,18.1,23.5,27.3c10,9.2,22.4,17.9,36.7,24.5c19.5,9,36.4,11.9,49.2,12.9
		c12.9,1,21.9-0.1,27.5-0.9c0.2,0-2-0.2-5.9-0.5C1202.6,765.1,1196.9,764.6,1189.9,763.4"/>
<path class="st2" d="M1194,798.7c-30.9-3.8-57.1-16.3-74.3-27.6c-8.7-5.7-15.2-11-19.6-14.8c-2.2-1.9-3.9-3.5-5-4.5
		c-1.1-1-1.7-1.6-1.7-1.6s0.5,0.6,1.5,1.8c1,1.2,2.4,2.9,4.5,5.1c4,4.3,10,10.4,18.4,16.9c8.3,6.5,18.9,13.4,31.7,19.2
		c12.7,5.8,27.6,10.5,43.7,12.5c21.9,2.8,39.5,0.5,52.5-2.4c13-3,21.6-6.8,27-9.2c0.2-0.1-2,0.4-6,1.3c-4,0.8-9.9,2.1-17.1,3.1
		c-7.2,1-15.9,1.8-25.3,1.9C1214.7,800.5,1204.5,800,1194,798.7"/>
<path class="st2" d="M1269.8,821.9c-9,2.8-21.4,5.9-34.7,8.1c-19.6,3.4-37.9,3.1-51,1.6c-3.3-0.4-6.3-0.7-8.8-1.2
		c-2.6-0.4-4.9-0.8-6.7-1.2c-3.7-0.8-5.7-1.2-5.7-1.2s1.9,0.8,5.4,2.3c1.7,0.8,3.9,1.4,6.5,2.3c2.5,0.9,5.5,1.7,8.7,2.5
		c13.1,3.4,32.1,5.5,52.7,1.9c14-2.4,24.6-6.5,32.3-10.3c3.9-1.8,7-3.8,9.6-5.3c2.5-1.7,4.5-3.1,6.1-4.2c0.1-0.1-1.3,0.4-3.8,1.2
		C1278,819.3,1274.3,820.4,1269.8,821.9"/>
<path class="st10" d="M1267.6,757.8c-3.8-3.8-7.3-7.8-10.5-11.8c-1.8,0-3.6,0-5.4,0.1c-5.5,0.3-10.9,1.3-16.2,2.9
		c-0.6,1.4-1.1,2.8-1.7,4.3c-0.7,1.6-1.3,3.3-2,5c-0.8,1.9-1.6,3.9-2.4,5.9c-0.1,0.2-0.2,0.4-0.3,0.6c-0.4,0.9-0.7,1.8-1.1,2.6
		c-0.2,0.6-0.5,1.1-0.7,1.7l-0.1,0c-0.1,0.1,0,0.1,0.1,0.2h0.1l0.2-0.1l0.5-0.1c0.6-0.2,1.3-0.5,1.9-0.8c1.3-0.6,2.6-1.3,4-2.1
		c2.8-1.6,5.8-3.4,9.4-4.6c0.9-0.3,1.9-0.6,2.9-0.7c2.8-0.5,5.8-0.4,8.3,0.1c3.4,0.7,6.2,1.9,8.8,3c2.6,1.1,5,2.1,7.2,2.7
		c2.2,0.6,4.4,1,6.6,1.1c0.7,0,1.3,0,2,0c0,0-0.1,0-0.1-0.1C1274.9,764.7,1271.1,761.3,1267.6,757.8"/>
<path class="st2" d="M1347.2,1015.7c-1.4,3.3-2.4,6.1-3.2,8.2c0,0.1,1-1.2,2.7-3.9c1.9-2.6,4.3-6.6,7.1-11.6
		c5.6-10,12.2-24.6,16.2-41.2c6-24.3,6.9-47.2,6-63.4c-0.4-8.1-1.3-14.7-1.9-19.2c-0.7-4.5-1.1-7-1.1-7s0,2.5,0.1,7
		c0,4.5,0,11.1-0.5,19.1c-0.8,16.1-3.4,38.1-9.3,61.7c-4,16.1-8.2,28.5-11.6,38C1350,1008.3,1348.4,1012.3,1347.2,1015.7"/>
<path class="st2" d="M1375.7,1039.8c2.7,8.5,6.9,18.4,12.6,28.8c5.6,10.4,12.7,21.3,20.4,32.3c10.6,15,19,26.6,25.1,35.9
		c6.1,9.2,10,15.9,12.5,20.2c0.1,0.1-0.4-1.7-1.5-5c-1.2-3.3-3-8.1-5.6-13.8c-5.2-11.5-14.2-26.4-24.7-41.4c-7.7-11-15-21.4-21-31.2
		c-6.1-9.8-10.9-19-14.4-27c-3.5-8-5.7-14.8-6.9-19.6c-0.7-2.4-1.1-4.3-1.4-5.5c-0.3-1.3-0.5-1.9-0.5-1.9s0.1,0.7,0.1,2
		c0.1,1.3,0.2,3.2,0.6,5.7C1371.6,1024.1,1373,1031.2,1375.7,1039.8"/>
<path class="st2" d="M1448.2,1125.8c-0.1-0.5-0.2-1-0.3-1.5c-0.2-0.6-0.4-1.3-0.5-2c-0.1-0.5-0.3-1.1-0.5-1.7
		c-0.1-0.5-0.2-0.9-0.4-1.4c-0.7-2.6-1.7-5.6-2.9-9c-4.1-11.8-11.5-27.2-20.4-42.9c-6.5-11.6-12.5-22.5-17.3-32.8
		c-4.8-10.3-8.4-19.9-10.7-28.2c-2.3-8.3-3.4-15.2-3.9-20.1c-0.3-2.4-0.4-4.3-0.5-5.6c-0.1-1.3-0.1-2-0.1-2s-0.1,0.7-0.2,2
		c-0.1,1.3-0.3,3.2-0.3,5.7c-0.1,4.9,0.1,12.1,1.6,20.8c1.5,8.7,4.3,19,8.7,29.8c4.3,10.9,10.1,22.3,16.6,33.9
		c8.9,15.8,16.2,28,21.3,37.6c2.9,5.3,5.2,9.8,7,13.5c0.4,0.9,0.9,1.8,1.3,2.6c0.9,1.8,1.7,3.5,2.3,4.8c0,0.1-0.2-1-0.6-3.2
		C1448.3,1126,1448.3,1125.9,1448.2,1125.8"/>
<path class="st10" d="M1396.1,791.6c-1.9,0.5-3.8,1-5.7,1.4c-0.3,0.1-0.7,0.1-1,0.2c-1.6,0.3-3.1,0.7-4.7,0.9
		c-0.3,0-0.5,0.1-0.8,0.1c-1,8.9-0.4,17.4-3.7,26.1c-0.4,1.1-0.9,2.2-1.4,3.3c-0.4,0.7-0.8,1.4-1.2,2.1c-0.2,0.3-0.3,0.7-0.5,1
		c-0.6,1-1.3,1.9-2,2.9v0c-3.5,4.6-8.2,8.3-13.7,9.8c-0.1,0-0.2,0.1-0.3,0.1c0.3,0.4,0.6,0.9,1,1.3c2.8,3.3,5.9,6,9.4,7.5
		c3.5,1.6,7.3,2.3,10.7,1.8c2.5-0.4,4.8-1.5,6.7-3.1c0.6-0.5,1.2-1.1,1.7-1.8l0,0c0.6-0.7,1.1-1.4,1.5-2.1c1.4-2.3,2.5-5,3.3-7.8
		c1-3.8,1.6-7.6,1.9-11.5c0.3-3.9,0.5-7.7,0.5-11.4c-0.1-7.4-0.8-14.3-1.9-20.6C1396.2,791.7,1396.1,791.6,1396.1,791.6"/>
<path class="st2" d="M1035.7,590.7c12,1.9,21.3,4.3,28.5,6.4c3.6,1,6.6,2,9.2,2.8c2.5,0.9,4.6,1.5,6.2,2c0.1,0-0.9-0.8-2.8-2.2
		c-1.9-1.4-4.9-3.3-8.6-5.4c-7.5-4.2-18.7-8.8-31.3-10.7c-18.5-2.9-35.6-1-47.4,2c-5.9,1.4-10.6,3-13.7,4.2c-3.1,1.3-4.9,2-4.9,2
		s1.9-0.3,5.2-0.9c3.3-0.6,8.1-1.3,14-1.8C1001.7,588.1,1018.1,588,1035.7,590.7"/>
<path class="st10" d="M1415.9,920.3c-0.5,1.2-1,2.3-1.6,3.4c-0.4,0.7-0.8,1.5-1.2,2.2c-0.2,0.4-0.4,0.8-0.6,1.1c-0.6,1-1.3,2-2,3
		c0,0.1-0.1,0.1-0.1,0.2c-3.7,5.1-8.4,9.4-13.9,12.2c-0.1,0.1-0.2,0.1-0.3,0.2c0.1,4,0.2,8,0.4,12.1c0.1,3.5,0,7.1,0.6,10
		c0.5,3,1.6,4.9,3.4,5.9c1.8,1.1,4.7,1.3,7.7,0.8c0.1,0,0.2-0.1,0.2-0.1c2.2-0.4,4.6-1.2,6.9-2.3c0.7-0.3,1.4-0.7,2.1-1.1
		c0.2-0.1,0.4-0.2,0.7-0.4c5.7-3.3,10.7-8.1,14.6-13.9c8.4-12.1,11.3-28,11.3-44.4c-0.1-22.6-2.9-44.7-7.3-64.5
		c-4.3-19.8-10.3-37.4-16.1-52c-1.1-2.6-2.1-5.2-3.2-7.6c-0.5-0.3-1.1-0.6-1.6-0.9c-0.9,0.5-1.9,0.8-2.9,1.2v0.1
		c0,5.6,3.1,13,4,17.4c3.2,16.5,4.8,33.3,5.3,50.1c0.3,9.7,0.3,19.3,0,29C1421.9,895.1,1421,908.4,1415.9,920.3"/>
<path class="st2" d="M950.9,607.5c-2.8-1.5-5.3-2.7-7.2-3.9c-3.9-2.2-6.1-3.5-6.1-3.5s2,1.6,5.5,4.4c1.8,1.4,4.1,3,6.7,4.9
		c2.6,1.9,5.8,3.8,9.2,6c13.9,8.5,34.7,18.1,59.3,22.8c16.7,3.3,30.2,3.6,40.5,3c5.1-0.2,9.5-0.8,13.1-1.2c3.6-0.6,6.5-1.1,8.7-1.6
		c0.2,0-1.6-0.2-4.8-0.3c-3.2-0.1-7.8-0.4-13.5-0.8c-11.3-0.9-26.6-2.8-42.8-6c-23.7-4.6-44.5-12.2-59-19
		C957,610.5,953.7,609,950.9,607.5"/>
<path class="st2" d="M1335.3,982.7c-1.4,4.8-2.9,8.8-4,12.2c-1.2,3.3-2.2,6.1-2.9,8.2c-0.1,0.1,0.9-1.3,2.6-3.9
		c1.8-2.6,4-6.6,6.7-11.7c1.3-2.6,2.5-5.4,3.9-8.5c1.3-3.1,2.5-6.4,3.8-9.9c2.3-7.1,4.6-14.9,5.9-23.3c4.2-24.4,2.8-47.1,0.1-63
		c-1.4-8-3-14.3-4.2-18.6c-1.3-4.3-2-6.7-2-6.7s0.3,2.5,0.9,6.9c0.6,4.4,1.3,10.8,1.8,18.7c1,15.8,0.6,37.7-3.5,61.4
		C1341.7,960.8,1338.3,973.3,1335.3,982.7"/>
<path class="st10" d="M1503,1021.2c-2.1,0.9-4.2,1.7-6.3,2.5c-2,0.7-3.9,1.4-5.9,2.1c-0.2,0-0.3,0.1-0.4,0.1
		c-4.3,1.4-8.6,2.6-13,3.7c-0.1,0-0.2,0-0.3,0.1c1.2,0.9,2.3,1.8,3.5,2.7c0.6,0.4,1.1,0.8,1.7,1.2c0.4,0.3,0.7,0.5,1.1,0.8
		c3.7,2.7,7.3,5.3,10.5,7.9c0-0.1,0.1-0.1,0.2-0.2c1.9-2.5,4.3-4.8,6.9-7c0.9-0.7,1.8-1.4,2.7-2.2c0.6-0.4,1.2-0.9,1.7-1.3
		c1.3-1,2.7-1.9,4.1-2.8c4.4-2.8,9.1-5.3,13.9-8c4.8-2.6,9.9-5.3,15.2-7.9c6.3-3.1,12.6-5.6,18.7-7.5c1.4-0.4,2.8-0.9,4.1-1.3
		c0-0.1-0.1-0.2-0.1-0.3c-0.8-5.5-1.8-12-2.8-19.2c0-0.1,0-0.1,0-0.2c-0.2-0.9-0.3-1.9-0.5-2.9c-3.9-25.3-4.4-60.7-26.9-90.3
		c-7.4-10.7-15.3-20.8-22.3-30.5c-0.2-0.3-0.4-0.6-0.7-0.9c-1,0.4-2.1,0.9-2.9,1.7c-2.5,2.5-3.5,6.1-4.1,9.6c-0.4,2-0.7,3.9-0.9,5.9
		c0.7,1,1.5,1.8,2.2,2.7c0.7,0.7,1.3,1.4,1.9,2c5.7,5.7,12.6,10.3,17.4,16.9c10,13.7,8.9,32.3,7.3,49.2c-0.6,6.5-1.5,13.5-6.1,17.9
		c-7.5,7.1-20.3,3.5-28.8,9.2c14.8,1.9,28.8,8.8,39.3,19.5C1529.1,1008,1515.8,1016,1503,1021.2"/>
<path class="st10" d="M1306.8,426.3c23.6,11.1,42.9,30.1,58.1,51.4c15.2,21.3,26.8,45.1,38.3,68.8c-2.9-18.7-5.7-37.4-11.4-55.4
		c-3.9-12.2-9.2-24.1-16.2-34.6c-0.9-0.7-1.7-1.4-2.6-2.2c-10.9-8.8-24.5-18.5-41-26.3c-16.4-7.8-35.7-13.9-56.3-14.1
		c-3.8-0.1-7.6,0-11.3,0.3c5.2,1.1,10.9,1.6,13,2.1C1287.4,418.7,1297.4,421.8,1306.8,426.3"/>
<path class="st10" d="M1381.9,699.3c-0.9,7-3.4,13.9-7.3,19.8c-0.5,0.8-1.1,1.4-1.7,2.1c-0.1,0.1-0.2,0.3-0.4,0.4
		c0,0.2-0.1,0.4-0.1,0.7c-1.5,8-4.8,18.3-11.6,29.9c-4.4,7.4-9.4,13.8-14.7,19.2c1.2-0.9,2.4-1.8,3.6-2.8
		c8.3-6.5,15.7-13.4,22.2-20.2C1378.3,732.9,1381.7,716.1,1381.9,699.3"/>
<path class="st10" d="M1229,677.7c5,6.3,10.7,12.1,16.6,17.6c10.8,10.1,22.2,19.6,31,31.5c8.3,11.1,14.1,24.9,13.2,38.7
		c0.3,0.2,0.6,0.4,0.9,0.6c0.1,0,0.2-0.1,0.3-0.1c0.2,0,0.3-0.1,0.5-0.1v0.7c0.7,0.5,1.5,1,2.3,1.4c0.2,0,0.3-0.1,0.5-0.2
		c0,0,0,0,0,0.1c0,0.2,0.1,0.3,0.1,0.5c3.4,1.9,6.9,3.8,10.6,5.5l0-0.2c1.4-6.3,4-12.4,5.7-18.8c0-0.1,0.1-0.2,0.1-0.4
		c0.2-0.9,0.5-1.8,0.7-2.8c4-18.8-4.3-39.7-20.1-50.5c-11.3-7.7-25.4-10.2-37.3-17c-15-8.6-25.9-24.4-28.8-41.6
		c-0.3,1.2-0.6,2.4-0.9,3.7c-0.2,0.9-0.3,1.8-0.4,2.8c-0.1,0.3-0.1,0.6-0.1,0.9c-0.2,1.2-0.3,2.4-0.4,3.6c0,0,0,0.1,0,0.1
		c-0.1,1.6-0.2,3.2-0.2,4.9c1,4.3,2.2,8.8,3.8,13.4C1227.6,673.8,1228.3,675.7,1229,677.7"/>
<path class="st10" d="M1160.2,746c12.2,3,24.5,5,35.8,6.1c8.5,0.9,16.5,1.3,23.7,1.4c0.9,0,1.9,0,2.8,0c0,0,0,0,0-0.1
		c4.4-10.1,9-19.6,13.3-27.8c-21.1,3.9-42.9,3.4-63.8-1.7c-8.4-2.1-17.1-5.1-23-11.4c-0.8-0.9-1.5-1.8-2.2-2.7c0,0,0-0.1,0-0.1
		c-0.6-1-1.2-2-1.7-3.1l0-0.1c-1-2.2-1.7-4.5-1.9-6.8c0-0.2-0.1-0.4-0.1-0.7c-1.1,4-2.3,7.9-3.2,11.9c-1.7,7.6-2.1,16.1,1.1,22.6
		C1144,740.1,1151.4,743.8,1160.2,746"/>
<path class="st10" d="M1165.7,655.8c2.7,7.5,5.9,15,11.1,20.9c4.5,3.9,9.4,7.1,14.4,9.6c2.3,1.1,4.6,2.1,6.8,2.8
		c0.9,0.2,1.9,0.4,2.8,0.6c0,0.1,0.1,0.2,0.2,0.2c5.7,1.5,11.4,2,16.8,1.7c1.2-0.1,2.3-0.2,3.5-0.4c0.7-0.1,1.3-0.2,2-0.3
		c0,0,0,0,0,0c-0.1-0.1-0.1-0.2-0.2-0.4c-0.3-0.6-0.6-1.2-0.8-1.8c-0.2-0.5-0.5-1.1-0.7-1.6c-0.9-2-1.6-4.1-2.3-6.1
		c-7.4-2-14-5.6-19.2-10c-7.8-6.5-12.4-14.5-14.8-21.5c-0.8-2.4-1.4-4.6-1.8-6.7c-1.6-1.8-3.1-3.6-4.6-5.7
		c-8.4-11.9-14.6-25.3-18.2-39.5c-2.1-8-3.3-16.3-3.6-24.6c-6.6,26.2-1,54.1,7.7,79.7C1165,653.8,1165.3,654.8,1165.7,655.8"/>
<path class="st10" d="M1098.6,498.7c0.3-0.1,0.7-0.1,1-0.2c0.1,0,0.2,0,0.2-0.1c0.2,0,0.3-0.1,0.5-0.1c0.9-0.2,1.7-0.2,2.6-0.4
		c0.4,0,0.8-0.1,1.2-0.1v-0.1c-0.2-1.1-0.3-2.3-0.1-3.5c1.1-12.4,11-23.3,22.8-26.2c0.5-1.4,0.9-2.8,1.4-4.1
		c-2.1-0.3-4.1-0.6-6.1-0.8c-0.9-0.1-1.8-0.2-2.7-0.3c-0.2,0-0.4,0-0.7-0.1c-1.8-0.2-3.4-0.2-5-0.1c-0.2,0-0.4,0-0.6,0
		c-1.9,0.1-3.7,0.5-5.1,1.1c-3.6,1.4-6,4.8-7.7,9c-0.2,0.5-0.4,1.1-0.6,1.6c-0.2,0.6-0.4,1.2-0.6,1.7c0,0.2-0.1,0.3-0.2,0.5
		c-0.4,1.4-0.7,2.9-1.1,4.4c-0.3,1.7-0.6,3.4-0.9,5c-0.7,4.3-1,8.5-1.2,12.3c0,0.3,0,0.7,0,1c0.1,0,0.2-0.1,0.3-0.1
		C1096.9,499.1,1097.8,498.9,1098.6,498.7"/>
<path class="st10" d="M1447.3,740c6.4-5.9,13.9-10.7,20.9-16c0.7-1.2,1.4-2.4,2.1-3.6c0.6-1.1,1.3-2.3,1.8-3.4
		c1.1-2.1,2.2-4.2,3.1-6.4c0.8-1.7,1.6-3.5,2.2-5.2c3.3-8,5.6-16.3,7.4-24.6c2.4-12.4,3.6-24.9,3.5-37.2c0-5.9-0.2-11.7-0.7-17.4
		c-0.1-1.1-0.2-2.2-0.3-3.3c-0.4-5.1-1-10.1-1.7-15.1c-1.6-11.5-3.7-22.7-6.4-33.4c-5.3-21.3-12.9-40.3-22.5-56.2
		c-6.6-10.8-14.1-20-22.1-27.4c1.2,1.8,2.4,3.6,3.4,5.5C1477.5,570.4,1481,663.1,1447.3,740"/>
<path class="st10" d="M1401,724.6c-2.1,2.8-4.4,5.4-6.7,8c-0.2,0.2-0.4,0.5-0.7,0.8c-2.1,3.7-4.4,7.5-7.1,11.3
		c-0.2,0.3-0.5,0.7-0.7,1c-1.1,1.5-2.3,3.1-3.5,4.7c-7,9.1-15.7,18.3-26.1,26.5c-3.8,3-7.7,5.7-11.6,8.1c6.6,0.8,13.5,1.1,20.5,0.8
		c1.3,0,2.6-0.2,3.8-0.3c0.4,0,0.8-0.1,1.2-0.1c0.6-0.1,1.2-0.1,1.8-0.1c0,0,0,0,0-0.1c0,0,0,0,0,0c2.1-2,3.8-4.3,5.4-6.6
		c13.2-19.1,23.3-40.3,29.8-62.7c-1,1.5-2,2.9-3,4.4c-0.9,1.2-1.7,2.4-2.7,3.5C1401.3,724.2,1401.2,724.4,1401,724.6"/>
<path class="st10" d="M1494.6,770.7c0,0.6-0.1,1.2-0.2,1.8c-0.1,0.6-0.1,1.1-0.2,1.7c-0.1,0.7-0.2,1.5-0.4,2.2
		c-0.1,0.4-0.1,0.9-0.2,1.4c-0.3,1.2-0.6,2.4-1,3.7c-2.6,6.6-7,12.2-10.5,18.3c-0.4,0.7-0.8,1.4-1.2,2.1c-2.7,5.1-4.6,10.8-4.1,16.5
		c1.3,0.6,2.6,1.1,3.9,1.5c0.1,0,0.2,0.1,0.3,0.1c1.4,0.4,2.9,0.7,4.3,0.8c2.5,0.2,5,0,7.5-0.5h0c1.2-0.3,2.4-0.6,3.6-1
		c1.2-0.4,2.4-1,3.5-1.6c0.5-0.3,1.1-0.6,1.6-0.9c0.8-0.4,1.5-0.9,2.2-1.5c4.3-3.2,8.1-7.6,10.5-12.7c0.2-0.3,0.3-0.7,0.5-1
		c0.8-1.8,1.5-3.7,2-5.7c1.5-5.8,1.9-12.2,1.2-18.6c-0.5-4.9-1.5-9.7-2.9-14.2c-0.4-1.3-0.8-2.5-1.2-3.7c-1.8-5.2-4-10.3-6.3-15
		c-1-2.1-2.1-4.2-3.1-6.2c-1.1-2.1-2.2-4.1-3.2-6.1c-1.6,7.7-4.4,15-8.2,21.9c0,0.1,0,0.2,0.1,0.4c0.2,1.1,0.4,2.2,0.5,3.3
		c0,0.3,0.1,0.6,0.1,0.8c0.1,0.8,0.3,1.6,0.4,2.5c0,0.4,0.1,0.8,0.1,1.1c0.1,0.7,0.2,1.4,0.2,2.2c0,0.4,0.1,0.9,0.1,1.3
		c0,0.7,0.1,1.3,0.1,2c0,0.5,0,1,0,1.5C1494.6,769.5,1494.6,770.1,1494.6,770.7"/>
<path class="st10" d="M1405.9,761.6c-0.2,0.2-0.3,0.5-0.5,0.7c-0.2,0.4-0.3,0.9-0.5,1.3c0.5-0.5,0.9-0.9,1.3-1.4
		c0.5-0.6,1-1.1,1.5-1.7c11.8-13,20.7-26.3,26.5-36.9c1.6-3,3.2-5.7,4.3-8.2c1.2-2.5,2.3-4.6,3-6.4c1.4-3.1,2.3-5,2.5-5.4
		c0,0.1-0.1,0.3-0.1,0.5c0,0.1,0,0.2,0,0.3c-0.2,1-0.4,2.7-0.8,5.1c-0.2,1.9-0.8,4.3-1.5,7c-0.3,1.6-0.8,3.4-1.4,5.2
		c-0.4,1.3-0.8,2.6-1.2,4c-4,12.4-12,28.9-25.2,43.7c-0.5,0.6-1.1,1.2-1.6,1.8c-0.2,0.3-0.5,0.6-0.8,0.8c-0.3,0.4-0.7,0.7-1.1,1.1
		c-1.1,1.2-2.3,2.3-3.4,3.4c0.1,0,0.3-0.1,0.4-0.2c1.7-0.7,3.4-1.5,5.2-2.3c0.8-0.4,1.6-0.8,2.4-1.2c0.3-0.1,0.6-0.3,0.9-0.5
		c0.1,0,0.1,0,0.1-0.1c2.1-1.1,4.3-2.3,6.3-3.5c0.5-0.6,1.1-1.2,1.6-1.9c20.1-24.7,27.5-57.3,34.4-88.6c-3.4,6.7-7.6,12.9-12.6,18.4
		c7-24.6,7.5-51.1,1.4-76c0,1.4,0,2.7-0.1,4.1c0,0.8-0.1,1.5-0.1,2.3c0,0.6-0.1,1.2-0.1,1.8c-0.1,1-0.2,2-0.3,3c0,0.3-0.1,0.7-0.1,1
		c-0.1,1.2-0.3,2.3-0.5,3.5c0,0.1,0,0.3-0.1,0.5c-0.2,1.3-0.4,2.6-0.7,3.8c0,0,0,0.1,0,0.1c-0.8,3.9-1.8,7.9-3.1,11.7
		c-0.1,0.4-0.2,0.7-0.3,1.1c-0.4,12.6-2.2,27.6-6.8,44.8c-4.7,17.4-11.4,33.3-18.9,46.9c-2.8,5.1-5.7,9.8-8.6,14.3
		C1406.7,760.3,1406.3,761,1405.9,761.6"/>
<path class="st10" d="M665.6,1436.6c-1.1-0.8-2.2-1.6-3.4-2.4c-27.8,19.5-53.5,40.4-76.8,62.1c-0.3,0.3-0.5,0.6-0.8,0.9
		c0,0,0,0,0,0.1c-2.9,3.4-5.8,6.8-8.7,10.3c-2.9,3.5-5.8,7.1-8.6,10.7c-20.4,26.2-38.8,55.8-45.8,88c0-0.1,0.1-0.1,0.1-0.1
		c0,0.1,0.1,0.1,0.1,0.2c2.1,5.2,4.2,10.5,6.2,15.7c1.1,2.8,2.1,5.5,3.1,8.2c2.1,5.4,4.1,10.8,6.1,16c1.2,3.2,2.4,6.5,3.5,9.6
		c0-0.2,0.1-0.4,0.1-0.6c0.3-1.8,0.6-3.7,1-5.5c0.4-1.9,0.7-3.8,1.1-5.7c1.4-8.1,3.8-16.4,6-24.9c2.7-8.4,5.3-17.1,8.9-25.8
		c6.9-17.4,15.7-35.5,27.4-53.1c11.5-17.7,25.8-34.8,42.3-51.3c16.1-16.2,33.4-30.5,50.9-43.5
		C674.1,1442.7,669.8,1439.6,665.6,1436.6"/>
<path class="st10" d="M1091.5,540.3c0.6,2.1,1.1,4.1,1.7,5.9c1.9-0.8,3.6-1.7,5.4-2.6c1.7-0.9,3.2-1.8,4.8-2.7
		c-2.2-0.8-4.2-2.2-5.5-4.2c-3-4.8-1-11.5,2.8-15.6c3.9-4.1,9.2-6.4,14.3-8.8c1.2-0.6,2.5-1.4,3.6-2.4c0.1-0.7,0.1-1.4,0.1-2
		c-0.4,0-0.7,0.1-1.1,0.1c-3.3,0.3-6.8,0.3-10.1,0.5c-1,0-1.9,0.1-2.8,0.2c-0.4,0-0.7,0.1-1,0.1c-0.6,0.1-1.1,0.1-1.7,0.2
		c-0.4,0.1-0.8,0.1-1.1,0.2c-0.7,0.1-1.5,0.3-2.2,0.5c-1,0.3-1.9,0.6-2.7,0.9c-0.3,0.1-0.6,0.2-0.8,0.4c-0.7,0.4-1.3,0.8-1.8,1.2
		c-2,1.6-3.3,3.8-3.9,6.5c-0.9,3.5-0.7,7.5-0.2,11.2C1089.8,533.4,1090.7,537,1091.5,540.3"/>
<path class="st10" d="M540,1358.1c0.2-0.1,0.4-0.2,0.6-0.3c1.3-0.7,2.6-1.3,3.9-1.9c0.2-0.1,0.5-0.2,0.7-0.3
		c1.4-0.6,2.7-1.1,4.2-1.5c0.2-0.1,0.4-0.1,0.6-0.2c1.5-0.5,3-0.9,4.6-1.2c1-0.2,1.9-0.3,2.9-0.5c7.9-1.1,16.2,0.3,23.5,3.2
		c7.4,2.9,14,7.3,20.2,12c6.1,4.8,11.8,10.1,17.3,15.5c5.5,5.5,11.1,10.5,16.7,15.7c2.8,2.6,5.7,5.2,8.5,7.8c3,2.4,6,4.8,9.1,7.3
		c3,2.5,6,4.9,9.1,7.4c0.1,0.1,0.3,0.2,0.4,0.3c2.9,2.3,6,4.3,9,6.5c0,0,0.1,0,0.1,0.1c5.3,3.7,10.5,7.6,16,11
		c1.2,0.7,2.5,1.5,3.7,2.3c2,1.2,3.9,2.4,5.8,3.5c35.1,21.2,71.9,36.9,107.2,46.5c37.2,10.3,72.3,14.8,101.9,15.7
		c3.7,0.1,7.3,0.2,10.9,0.2c3.5,0,7,0.3,10.4,0c4.3-0.2,8.5-0.4,12.5-0.5c0,0,0-0.1,0.1-0.1c3.2-2.9,6.4-5.8,9.7-8.5
		c0.2-0.1,0.3-0.2,0.4-0.4c1.5-1.2,3-2.5,4.6-3.6c1.7-1.3,3.4-2.6,5.1-3.8c7.9-5.7,16-10.7,24.2-15c8.2-4.3,16.6-7.8,24.9-10.6
		c2.9-0.9,5.7-1.8,8.6-2.5c2.6-0.7,5.2-1.3,7.7-1.9c0,0,0.1,0,0.1,0c0.3-3.5,0.8-6.9,1.5-10.2c0.1-3,0.3-6.2,0.5-9.4
		c0-0.4,0.1-0.8,0.1-1.2c-58.7,36.9-132.2,46-200,32.5c-69.8-13.9-133.9-49.9-189.1-95.4c-17.8-14.6-35.4-30.6-57.2-37.6
		c-39.2-12.6-81.7,7.2-113.6,33.5c-27.9,23-51.8,51.3-80.8,72.5c7.3-2.6,14.8-5.4,22.6-8.6c19.5-8,40.3-18,61.5-30.6
		c10.7-6.3,21.3-13.3,32.1-20.9c5.3-3.9,10.7-7.9,16.1-12c5.4-4.2,11-8.6,17.2-12.4C537.4,1359.6,538.7,1358.8,540,1358.1"/>
<path class="st2" d="M809.8,754.4c-2.8,3.8-5.1,7.1-7.2,9.6c-4.1,5.1-6.4,8-6.4,8s2.6-2.6,7.2-7.3c2.4-2.3,5-5.4,8.1-8.9
		c3.2-3.5,6.4-7.7,10.1-12.4c7.1-9.5,15.2-21.3,22.4-35.3c7.3-14,14.1-30.1,19.1-47.7c6.9-24,9-43.8,9.5-58.9
		c0.2-3.8,0.1-7.3,0.1-10.5c-0.1-3.2-0.1-6.2-0.2-8.8c-0.4-5.4-0.8-9.6-1.2-13c0-0.2-0.2,2.3-0.5,7c-0.2,2.3-0.2,5.2-0.6,8.5
		c-0.3,3.3-0.7,7.1-1.1,11.2c-0.6,4.1-1.2,8.7-1.8,13.5c-0.8,4.8-1.7,9.9-2.6,15.2c-2.2,10.6-4.7,22.1-8.2,33.7
		c-9.9,34.3-24.8,63.4-37.7,83C815.6,746.2,812.7,750.7,809.8,754.4"/>
<path class="st10" d="M1497.1,654.8c0.1,0,0.2,0.1,0.3,0.1c4.6,1.5,8.7,4.3,11.9,7.9c0.1,0.1,0.1,0.2,0.2,0.2
		c0.7,0.8,1.4,1.7,2,2.6c0.2,0.2,0.3,0.5,0.5,0.8c0.5,0.8,1,1.5,1.4,2.3c0.3,0.5,0.4,1.1,0.7,1.6c0.2,0.6,0.5,1.2,0.7,1.8
		c0.4,1.2,0.7,2.3,0.9,3.5c0.2,0.9,0.3,1.9,0.3,2.8c0,0.5,0,1,0,1.4c0,0.5,0,0.9,0,1.4c0,0.7-0.1,1.4-0.2,2.1c0,0.2,0,0.4-0.1,0.7
		c-0.1,0.8-0.3,1.7-0.5,2.5c0,0.1,0,0.2,0,0.2c-1,3.6-2.6,7.1-4.9,10.1l-0.1,0.1c2.4,0.6,5,0.7,7.5,0.4c0.4,0,0.8-0.1,1.2-0.1
		c1.5-0.2,3-0.5,4.4-1c2.2-2.6,3.9-5.4,4.9-8.3c1-3.1,1.3-6.3,0.9-9.5c-0.4-3.2-1.5-6.4-3-9.4c-2.9-6.1-7.2-11.4-11.4-16.2
		c-4.3-4.9-8.5-9.3-12.4-13.2c-0.9-0.9-1.8-1.7-2.6-2.6c-0.9-0.9-1.9-1.8-2.8-2.7c0.2,3,0.3,6,0.4,9
		C1497.3,647.2,1497.2,651,1497.1,654.8"/>
<path class="st2" d="M637.9,744.6c2.3-9.2,6.3-22.3,13.6-37.4c3.6-7.6,8-15.6,13.4-23.8c5.3-8.3,11.6-16.7,18.7-25
		c14.2-16.8,32.3-33,53.4-46.9c28.8-19,54.3-29.4,73.9-36.7c10.7-3.9,19.7-6.8,27.2-9.1c6.4-1.9,11.7-3.4,15.8-4.6
		c0.3-0.1-3.2,0.4-9.7,1.5c-1.1,0.2-2.2,0.4-3.5,0.7l-0.4,0.1c-6.2,1.2-14.2,2.8-23.5,5.3c-11.4,3.1-24.9,7.3-39.3,13.3
		c-14.3,6-29.6,13.8-44.3,23.6c-10.8,7.2-20.8,14.9-29.9,23.2c-9.1,8.3-17.1,17-24.2,25.8c-7.1,8.8-13.2,17.6-18.2,26.3
		c-5.1,8.6-9.3,17-12.5,24.9c-6.6,15.8-9.8,29.3-11.5,38.6c-0.9,4.7-1.3,8.3-1.6,10.8c-0.3,2.5-0.4,3.8-0.4,3.8s0.3-1.3,0.7-3.7
		C636,752.8,636.6,749.2,637.9,744.6"/>
<path class="st10" d="M1082.3,575.1c1.7,2.6,4,5.4,6.6,8.3c0.5,0.6,1,1.2,1.5,1.8c0.9,1.1,1.8,2.2,2.7,3.4c0.5,0.6,1,1.3,1.4,2
		c0.4,0.5,0.7,1,1,1.5c0.6,0.8,1,1.7,1.5,2.5c0.7,1.4,1.4,2.8,2,4.2c1.3,2.9,2.2,5.8,2.9,8.7c0.2,1,0.4,1.9,0.6,2.9
		c0.6,3.1,0.9,6.2,1,9.3c0.2,4.6-0.2,9-0.8,13.2c-1,6.8-2.8,13.1-4.7,18.8c-0.3,0.9-0.6,1.7-0.9,2.5c-0.6,1.6-1.1,3.1-1.7,4.6
		l-0.1,0.2l-0.4,0.9c-0.2,0.4-0.3,0.9-0.3,0.8l-0.2,0.5c-0.2,0.3-0.4,0.7-0.5,1l-0.3,0.6c-0.1,0.2-0.3,0.6-0.1,0.4
		c0.4-0.1,0.8-0.2,1.3-0.3c0,0,0,0,0,0c0.8-0.1,1.5-0.2,2.2-0.3c1.1-0.1,2.1-0.2,3.2-0.3c0,0,0,0,0,0c0.1-0.1,0.1-0.1,0.1-0.1
		c0.8-0.8,1.6-1.6,2.3-2.3c0.8-0.9,1.7-1.7,2.5-2.6c10.4-11.4,15-28.4,10.5-43.4c-2.2-7.2-6.1-13.6-8.8-20.6c-2.7-7-4-15-0.9-21.8
		c2-4.4,5.7-7.8,9.2-11.2c1.3-1.2,2.5-2.4,3.7-3.7c-0.3-3.1-0.5-6.1-0.7-9.2c-0.1-2.5-0.2-5.1-0.3-7.6c-3.6,3.2-7.6,6.3-12.1,9.4
		c-2.4,1.6-4.9,3.2-7.6,4.7c-0.7,0.4-1.5,0.8-2.2,1.2c-0.6,0.3-1.1,0.6-1.6,0.9c-1.5,0.8-3,1.5-4.4,2.3c-2.6,1.4-5.2,2.8-7,4.5
		c-1.9,1.7-2.8,3.5-2.9,5.6C1079.8,570.1,1080.6,572.4,1082.3,575.1"/>
<path class="st2" d="M1061.5,537.4c-13.2-1.9-31.7-3.9-51.6-2c-14.5,1.4-28.3,4.6-40.2,9.2c-11.9,4.5-21.9,10.4-29.6,16.2
		c-7.7,5.8-13,11.6-16.4,15.7c-1.7,2-2.9,3.8-3.7,4.9c-0.8,1.1-1.2,1.7-1.2,1.7s0.5-0.5,1.5-1.5c1-1,2.3-2.6,4.3-4.3
		c3.8-3.7,9.6-8.6,17.6-13.5c7.9-4.9,17.9-9.8,29.5-13.5c11.6-3.8,24.8-6.5,38.9-7.8c19.2-1.8,34.6-1.4,46.5-1.4
		c11.9,0.1,20.2,0.2,25.5,0.1c0.2,0-1.8-0.4-5.5-1.2C1073.5,539.4,1068.1,538.4,1061.5,537.4"/>
<path class="st2" d="M891.7,528c4.4-4.8,11-11.5,20-18.8c9-7.3,20.3-15,33.9-21.6c13.5-6.6,29.2-12.1,46.3-15
		c23.3-3.9,42.2-2.7,56.4-0.8c14.3,2,24.1,4.8,30.3,6.6c0.2,0.1-2-1-6.1-2.9c-4.2-1.7-10.4-4.4-18.4-6.5c-8-2.2-17.7-4.2-28.5-4.9
		c-10.8-0.7-22.8-0.4-34.9,1.7c-17.8,3-34.1,9.2-47.8,16.7c-13.7,7.4-24.9,16.1-33.5,24.2c-8.6,8.1-14.6,15.5-18.5,20.8
		c-2,2.6-3.4,4.7-4.4,6.1c-1,1.4-1.5,2.2-1.5,2.2s0.6-0.7,1.7-2C887.8,532.3,889.4,530.4,891.7,528"/>
<path class="st2" d="M865.7,707.1c-0.1,0.1,1-1,2.9-3.3c2-2.2,4.5-5.6,7.5-9.9c1.5-2.2,2.9-4.7,4.6-7.3c1.5-2.7,3-5.6,4.6-8.7
		c2.9-6.3,5.7-13.3,7.6-21c6-22.3,5.9-43.5,4-58.3c-0.5-3.7-1-7.1-1.6-10c-0.6-2.9-1.1-5.4-1.7-7.4c-1.1-4-1.7-6.2-1.7-6.2
		s0.2,2.3,0.6,6.4c0.3,2.1,0.4,4.6,0.5,7.5c0.2,2.9,0.2,6.2,0.3,9.9c0.2,14.7-1.5,34.8-7.2,56.2c-3.9,14.5-8.3,25.7-12,34.1
		c-1.8,4.2-3.6,7.7-4.9,10.7C867.7,702.8,866.5,705.2,865.7,707.1"/>
<path class="st10" d="M744.8,1401.8c6.5-4,13.1-7.8,19.6-11.6c6.5-3.8,13.2-7.4,20.1-10.5c1.5-0.7,3.1-1.3,4.7-1.9
		c0.5-0.2,1-0.4,1.5-0.6c1.1-0.4,2.2-0.8,3.4-1.1c0.6-0.2,1.1-0.4,1.7-0.5c1.4-0.4,2.7-0.8,4.1-1.1c0.3-0.1,0.6-0.2,0.9-0.2
		c1.8-0.4,3.6-0.8,5.5-1c7.5-1.1,15.2-0.6,22.3,1.1c14.3,3.5,26.2,10.6,37.6,16.2c11.4,6,22.9,9.8,34.4,12.7
		c2.9,0.6,5.8,1.2,8.6,1.8c2.9,0.5,5.7,0.8,8.5,1.2c1.4,0.2,2.8,0.4,4.2,0.6c1.4,0.1,2.8,0.2,4.2,0.3c2.8,0.2,5.5,0.3,8.2,0.5
		c21.8,0.5,41.5-2.2,58.5-5.5c4.4-0.9,8.6-1.8,12.6-2.7h0c2.7-0.6,5.2-1.2,7.8-1.9c0.5-0.1,1-0.2,1.5-0.4c5-1.2,9.6-2.5,14-3.7
		c0.5-0.1,1.1-0.3,1.6-0.4c2.1-0.6,4.1-1.1,6-1.7c0.1,0,0.2-0.1,0.4-0.1c2-1.1,3.9-2.3,5.8-3.5c1.7-3,3.5-6,5.7-9
		c2.3-3.2,4.8-6.4,7.6-9.4c-23.6,11-48.1,20.2-73.5,25c-28.8,5.4-59,4.9-86.7-4.8c-17.2-6-33.2-15.6-50.8-19.8
		c-21.7-5.2-44.7-2.2-65.6,5.5c-2.2,0.8-4.4,1.7-6.6,2.6c-1,0.4-2,0.9-3,1.3c-1.1,0.5-2.3,1-3.4,1.5c-1.3,0.6-2.7,1.3-4,2
		c-0.8,0.4-1.6,0.7-2.3,1.2c-1.6,0.8-3.1,1.6-4.6,2.5c-0.5,0.3-1.1,0.6-1.6,0.8c-1.7,1-3.4,2-5.1,3c-0.3,0.2-0.6,0.4-0.9,0.6
		c-1.8,1.1-3.6,2.2-5.4,3.4c-0.2,0.1-0.4,0.2-0.6,0.4c-1.9,1.2-3.8,2.5-5.7,3.8c0,0-0.1,0.1-0.2,0.1c-2,1.4-4,2.7-6,4.1
		c2.8,1.2,5.6,2.4,8.4,3.6C740.2,1404.6,742.5,1403.1,744.8,1401.8"/>
<path class="st2" d="M835.9,640.1c2.2-3.3,4.1-6.1,5.5-8.5c2.8-4.8,4.4-7.4,4.4-7.4s-1.9,2.4-5.3,6.7c-1.7,2.2-3.9,4.7-6.4,7.8
		c-2.4,3-5.4,6.3-8.7,10c-13.1,14.6-32.6,33.3-56.7,50.6c-16.4,11.8-30.2,19.9-41,25.8c-2.7,1.5-5.2,2.8-7.5,4
		c-2.3,1.2-4.5,2.3-6.4,3.4c-3.9,1.9-7.1,3.5-9.5,4.8c-0.2,0.1,1.9-0.4,5.6-1.5c1.9-0.6,4.2-1.2,6.8-2.1c2.6-0.9,5.6-2,8.9-3.1
		c3.2-1.3,6.8-2.8,10.5-4.4c3.7-1.7,7.6-3.6,11.7-5.7c8-4.3,16.7-9.4,25-15.5c24.7-17.7,43.5-38.2,55.4-54.1
		C831.1,647,833.8,643.4,835.9,640.1"/>
<path class="st2" d="M697.5,877.8c0.6-3.6,1.6-7.6,2.7-12.1c4.4-17.8,13-41.7,27.2-65.5c9.6-16.2,18.9-27.9,26.4-36.6
		c1.8-2.2,3.6-4.2,5.3-6c1.7-1.8,3.1-3.5,4.5-5c2.9-2.9,5.2-5.3,6.9-7.2c0.1-0.1-1.5,0.9-4.5,3c-1.5,1-3.4,2.3-5.4,3.9
		c-2,1.7-4.3,3.5-6.9,5.6c-2.5,2.1-5,4.6-7.8,7.3c-2.7,2.7-5.5,5.7-8.4,8.9c-5.5,6.6-11.3,14-16.2,22.5
		c-14.7,24.6-21.9,50-24.6,68.4c-0.6,4.6-1.3,8.8-1.5,12.5c-0.3,3.7-0.6,6.8-0.6,9.5c-0.1,5.2-0.1,8.1-0.1,8.1s0.4-2.8,1.2-8
		C696.1,884.5,696.8,881.4,697.5,877.8"/>
<path class="st2" d="M811.8,606.1c-5.3,2.6-11,6.1-17.3,10c-12.4,8-27,18.2-41.4,31.7c-14.5,13.3-29.2,29.5-42.3,48.2
		c-17.9,25.5-28.2,48.2-34.6,66c-1.7,4.4-3,8.6-4.2,12.5c-1.1,3.9-2.3,7.4-3.1,10.6c-1.5,6.5-2.7,11.8-3.6,15.9c0,0.3,1.1-2.7,3-8.2
		c1-2.7,2.1-6.2,3.7-10.1c1.6-3.9,3.4-8.3,5.3-13.1c2.1-4.8,4.6-9.9,7.1-15.5c2.7-5.5,5.8-11.2,8.9-17.2
		c6.8-11.7,14.2-24.5,23.1-36.8c12.8-18.3,26.8-34.4,40.6-48c13.7-13.7,27.5-24.4,39.3-33.1c6-4.2,11.4-8.1,16.4-11
		c5-3.1,9.2-5.8,12.9-7.7c7.2-4,11.2-6.2,11.2-6.2s-4.2,1.8-11.7,5.2C821.4,601,817,603.4,811.8,606.1"/>
<path class="st2" d="M822.9,687c0.2-0.2-2.1,1.8-6.3,5.6c-4,3.9-10,9.7-16.5,17.7c-6.5,7.9-13.7,17.8-20.4,29.5
		c-6.7,11.6-13.1,24.9-18.5,39.1c-7.9,20.9-13.2,41.5-17.1,60.3c-3.9,18.8-6.3,36-8.1,50.4c-1.8,14.4-2.9,26.1-3.7,34.1
		c-0.7,8.1-1.1,12.6-1.1,12.6s3.2-17.7,8.3-46.1c2.6-14.2,5.9-31.1,10.4-49.6c4.5-18.5,10.1-38.7,17.8-59.1
		c10.6-27.8,22-48.5,31.8-63.6C809.4,702.7,817.7,693.1,822.9,687"/>
<path class="st10" d="M1519.5,834.7c0.2,0.2,0.3,0.5,0.5,0.7c2.6,2,5.4,3.8,8.5,5.4c5.3,2.7,11.7,4.3,18.7,6.5
		c3.5,1.1,7.2,2.4,11,4.3c3.7,1.9,7.3,4.3,10.6,7.2c6.5,5.8,11.7,13.4,15.3,21.7c1.4,3.2,2.5,6.5,3.4,9.9c0.3,0.7,0.5,1.3,0.8,2
		c0.7,1.7,1.3,3.4,1.9,5.1c0.5,1.7,1,3.4,1.4,5.2c0,0.1,0,0.1,0,0.2c0.4,1.7,0.7,3.3,1,5c0,0.2,0.1,0.4,0.1,0.6
		c0.2,1.6,0.4,3.1,0.5,4.7c0,0.4,0,0.8,0.1,1.2c0.1,1.4,0.1,2.8,0.1,4.2c0,0.7-0.1,1.3-0.1,1.9c0,1.2-0.1,2.3-0.2,3.5
		c-0.1,1-0.3,1.9-0.4,2.9c-0.1,0.8-0.2,1.7-0.4,2.5c-0.3,1.8-0.8,3.6-1.3,5.4c10.1-16,14.4-36.2,9.7-54.6
		c-4.7-18.4-19-34.5-37.2-39.2c-0.9-0.2-1.8-0.4-2.7-0.6c-0.2,0-0.5-0.1-0.7-0.1c-0.7-0.1-1.4-0.3-2-0.4c-0.2,0-0.3,0-0.5-0.1
		c-0.8-0.1-1.6-0.2-2.3-0.3h0c-11.9-1.4-24.4-0.3-35.3-4.4C1519.8,834.8,1519.7,834.7,1519.5,834.7"/>
<path class="st10" d="M1623.5,1159.2c0,0.4-0.1,0.9-0.1,1.3c-0.1-1.3-0.3-2.5-0.5-3.8c-2.8-10.8-6.3-21.4-10.6-31.6
		c-1.8-3.5-3.8-6.9-6-10.2c-1.6-2.6-3.4-5-5.2-7.5c-0.2-0.3-0.4-0.6-0.7-0.9c-1.7-2.3-3.5-4.6-5.3-6.8c-0.3-0.4-0.6-0.7-0.9-1.1
		c-1.8-2.2-3.7-4.4-5.6-6.6c-0.3-0.3-0.5-0.6-0.8-0.9c-2-2.3-4-4.5-6-6.7c-1-1.2-2.1-2.3-3.1-3.5c13.5,15.8,20.3,36.5,25.8,57.1
		c0.8,2.9,1.5,5.8,2.3,8.7c-0.8-2.9-1.6-5.7-2.5-8.6c-0.4-1.2-0.9-2.3-1.2-3.4c-0.6-1.6-1.2-3.3-1.8-4.9c-0.6-1.6-1.3-3.1-2-4.6
		c-0.5-1.2-1-2.4-1.6-3.6c-0.8-1.8-1.8-3.5-2.6-5.3c-0.5-0.9-0.9-1.8-1.3-2.6c-1-1.9-2.2-3.8-3.3-5.7c-0.4-0.6-0.7-1.3-1.1-2
		c-1.3-2.1-2.6-4.1-4-6.2c-0.3-0.4-0.6-0.9-0.8-1.3c-1.5-2.2-3.1-4.3-4.7-6.4c-0.2-0.2-0.4-0.5-0.6-0.7c-1.7-2.2-3.6-4.4-5.4-6.6
		l-0.2-0.2c-15.7-18-35.4-32.4-57.4-41.4c0.9,0.8,1.9,1.7,2.8,2.5c8.3,7.3,17.6,15.8,27.2,26c9.6,10.1,19.6,21.8,29.1,35.4
		c4.8,6.7,9.4,14,13.9,21.6c4.4,7.7,8.6,15.8,12.4,24.4c3.7,8.6,7.2,17.6,10,27.1c2.8,9.5,5.1,19.3,6.6,29.5
		c1.5,10.2,2.3,20.7,2.3,31.3c0,10.7-1,21.5-3,32.3c-5.2,29.4-17.9,56.7-36.2,76c-9.1,9.7-19.8,17.2-30.9,21.6
		c-2.8,1.1-5.5,2-8.3,2.7c-1.9,0.5-3.7,0.9-5.5,1.2c-0.5,0.1-0.9,0.1-1.4,0.2c-3.7,0.6-7.2,0.8-10.8,0.8c-0.4,0-0.9,0-1.3,0
		c-1.7-0.1-3.4-0.1-5.1-0.3c-0.5-0.1-1-0.1-1.6-0.2c0.7,3,1.4,5.8,2.1,8.7c0.1,0,0.2,0,0.3,0h0c16.9-1.8,33.3-8.2,47.8-17.8
		c0,0,0,0,0,0c1.6-1.1,3.2-2.2,4.7-3.3c0.2-0.1,0.3-0.3,0.5-0.4c1.4-1,2.8-2.1,4.1-3.2c0.3-0.3,0.6-0.5,0.9-0.7c1.2-1,2.4-2,3.5-3
		c0.4-0.4,0.8-0.8,1.3-1.2c1-0.9,2-1.8,3-2.8c0.6-0.6,1.2-1.3,1.8-1.9c0.7-0.8,1.5-1.5,2.2-2.3c0.8-0.8,1.5-1.7,2.2-2.5
		c0.5-0.6,1.1-1.2,1.6-1.8c1.2-1.5,2.5-3,3.6-4.5c23.4-30.6,33-70.2,34.3-108.9c0.1-2.9,0.2-5.8,0.2-8.7c0-1.7,0-3.5-0.1-5.2
		c0-1.2,0-2.4-0.1-3.6c-0.1-2.4-0.2-4.9-0.4-7.3c0-0.5,0-0.9-0.1-1.4c-0.2-2.9-0.4-5.7-0.7-8.5c0-0.1,0-0.1,0-0.2
		c-1.2-11.9-3.2-23.7-6-35.2C1623.5,1159.2,1623.5,1159.2,1623.5,1159.2"/>
<path class="st10" d="M1566.1,769.4c0.9,0.1,1.8,0.2,2.5,0.4c8.2,1.9,16.1,5.1,23.3,9.5c8.9,5.5,17.4,14.1,17.2,24.6
		c-9.3-8.3-23.1-11.1-34.8-7.1c1.7,0.1,3.3,0.2,5,0.5c0.8,0.1,1.6,0.3,2.5,0.5c0.8,0.1,1.6,0.3,2.4,0.5c1.1,0.3,2.2,0.7,3.4,1
		c0.4,0.2,0.9,0.3,1.3,0.4c1.3,0.5,2.6,1,3.9,1.6c0.2,0.1,0.4,0.2,0.6,0.3c1.4,0.7,2.8,1.4,4.2,2.2c0,0,0.1,0.1,0.1,0.1
		c4.2,2.5,8.1,5.6,11.5,9.2c0.3,0.3,0.6,0.6,0.9,0.9c2.2,1.6,4.5,3.4,6.7,5.5c1.7,1.6,3.3,3.3,4.9,5.2c0.8-1.8,1.5-3.7,2.2-5.6
		c0.7-1.8,1.3-3.7,1.9-5.7c1.5-5,2.6-10.3,2.9-15.9c0.2-5.5-0.6-11.2-3.1-16.4c-1.9-3.8-4.6-6.9-7.9-9.4c-3.3-2.5-7.2-4.3-11.2-5.6
		c-8.2-2.6-16.7-2.9-25-2.1c-1.8,0.2-3.6,0.3-5.4,0.6c-0.5,0.1-1,0.1-1.4,0.2c-1.3,0.2-2.6,0.3-3.9,0.5c-0.2,0-0.4,0.1-0.6,0.1
		c-3.2,0.5-6.3,0.9-9.4,1.4c-0.1,0-0.3,0.1-0.4,0.1c-1.2,0.6-2.3,1.3-3.5,2c3.1,0.3,6.3,0.4,9,0.7
		C1565.9,769.3,1566,769.3,1566.1,769.4"/>
</g>
</svg>
