  0
SECTION
  2
HEADER
  9
$ACADVER
  1
AC1024
  9
$ACADMAINTVER
 70
6
  9
$DWGCODEPAGE
  3
ANSI_1252
  9
$LASTSAVEDBY
  1
ezdxf
  9
$INSBASE
 10
0.0
 20
0.0
 30
0.0
  9
$EXTMIN
 10
1e+20
 20
1e+20
 30
1e+20
  9
$EXTMAX
 10
-1e+20
 20
-1e+20
 30
-1e+20
  9
$LIMMIN
 10
0.0
 20
0.0
  9
$LIMMAX
 10
420.0
 20
297.0
  9
$ORTHOMODE
 70
0
  9
$REGENMODE
 70
1
  9
$FILLMODE
 70
1
  9
$QTEXTMODE
 70
0
  9
$MIRRTEXT
 70
1
  9
$LTSCALE
 40
1.0
  9
$ATTMODE
 70
1
  9
$TEXTSIZE
 40
2.5
  9
$TRACEWID
 40
1.0
  9
$TEXTSTYLE
  7
Standard
  9
$CLAYER
  8
0
  9
$CELTYPE
  6
ByLayer
  9
$CECOLOR
 62
256
  9
$CELTSCALE
 40
1.0
  9
$DISPSILH
 70
0
  9
$DIMSCALE
 40
1.0
  9
$DIMASZ
 40
2.5
  9
$DIMEXO
 40
0.625
  9
$DIMDLI
 40
3.75
  9
$DIMRND
 40
0.0
  9
$DIMDLE
 40
0.0
  9
$DIMEXE
 40
1.25
  9
$DIMTP
 40
0.0
  9
$DIMTM
 40
0.0
  9
$DIMTXT
 40
2.5
  9
$DIMCEN
 40
2.5
  9
$DIMTSZ
 40
0.0
  9
$DIMTOL
 70
0
  9
$DIMLIM
 70
0
  9
$DIMTIH
 70
0
  9
$DIMTOH
 70
0
  9
$DIMSE1
 70
0
  9
$DIMSE2
 70
0
  9
$DIMTAD
 70
1
  9
$DIMZIN
 70
8
  9
$DIMBLK
  1

  9
$DIMASO
 70
1
  9
$DIMSHO
 70
1
  9
$DIMPOST
  1

  9
$DIMAPOST
  1

  9
$DIMALT
 70
0
  9
$DIMALTD
 70
3
  9
$DIMALTF
 40
0.03937007874
  9
$DIMLFAC
 40
1.0
  9
$DIMTOFL
 70
1
  9
$DIMTVP
 40
0.0
  9
$DIMTIX
 70
0
  9
$DIMSOXD
 70
0
  9
$DIMSAH
 70
0
  9
$DIMBLK1
  1

  9
$DIMBLK2
  1

  9
$DIMSTYLE
  2
ISO-25
  9
$DIMCLRD
 70
0
  9
$DIMCLRE
 70
0
  9
$DIMCLRT
 70
0
  9
$DIMTFAC
 40
1.0
  9
$DIMGAP
 40
0.625
  9
$DIMJUST
 70
0
  9
$DIMSD1
 70
0
  9
$DIMSD2
 70
0
  9
$DIMTOLJ
 70
0
  9
$DIMTZIN
 70
8
  9
$DIMALTZ
 70
0
  9
$DIMALTTZ
 70
0
  9
$DIMUPT
 70
0
  9
$DIMDEC
 70
2
  9
$DIMTDEC
 70
2
  9
$DIMALTU
 70
2
  9
$DIMALTTD
 70
3
  9
$DIMTXSTY
  7
Standard
  9
$DIMAUNIT
 70
0
  9
$DIMADEC
 70
0
  9
$DIMALTRND
 40
0.0
  9
$DIMAZIN
 70
0
  9
$DIMDSEP
 70
44
  9
$DIMATFIT
 70
3
  9
$DIMFRAC
 70
0
  9
$DIMLDRBLK
  1

  9
$DIMLUNIT
 70
2
  9
$DIMLWD
 70
-2
  9
$DIMLWE
 70
-2
  9
$DIMTMOVE
 70
0
  9
$DIMFXL
 40
1.0
  9
$DIMFXLON
 70
0
  9
$DIMJOGANG
 40
0.785398163397
  9
$DIMTFILL
 70
0
  9
$DIMTFILLCLR
 70
0
  9
$DIMARCSYM
 70
0
  9
$DIMLTYPE
  6

  9
$DIMLTEX1
  6

  9
$DIMLTEX2
  6

  9
$DIMTXTDIRECTION
 70
0
  9
$LUNITS
 70
2
  9
$LUPREC
 70
4
  9
$SKETCHINC
 40
1.0
  9
$FILLETRAD
 40
10.0
  9
$AUNITS
 70
0
  9
$AUPREC
 70
2
  9
$MENU
  1
.
  9
$ELEVATION
 40
0.0
  9
$PELEVATION
 40
0.0
  9
$THICKNESS
 40
0.0
  9
$LIMCHECK
 70
0
  9
$CHAMFERA
 40
0.0
  9
$CHAMFERB
 40
0.0
  9
$CHAMFERC
 40
0.0
  9
$CHAMFERD
 40
0.0
  9
$SKPOLY
 70
0
  9
$TDCREATE
 40
2461297.7068055556
  9
$TDUCREATE
 40
2458532.153996898
  9
$TDUPDATE
 40
2461297.7068171296
  9
$TDUUPDATE
 40
2458532.1544311
  9
$TDINDWG
 40
0.0
  9
$TDUSRTIMER
 40
0.0
  9
$USRTIMER
 70
1
  9
$ANGBASE
 50
0.0
  9
$ANGDIR
 70
0
  9
$PDMODE
 70
0
  9
$PDSIZE
 40
0.0
  9
$PLINEWID
 40
0.0
  9
$SPLFRAME
 70
0
  9
$SPLINETYPE
 70
6
  9
$SPLINESEGS
 70
8
  9
$HANDSEED
  5
66
  9
$SURFTAB1
 70
6
  9
$SURFTAB2
 70
6
  9
$SURFTYPE
 70
6
  9
$SURFU
 70
6
  9
$SURFV
 70
6
  9
$UCSBASE
  2

  9
$UCSNAME
  2

  9
$UCSORG
 10
0.0
 20
0.0
 30
0.0
  9
$UCSXDIR
 10
1.0
 20
0.0
 30
0.0
  9
$UCSYDIR
 10
0.0
 20
1.0
 30
0.0
  9
$UCSORTHOREF
  2

  9
$UCSORTHOVIEW
 70
0
  9
$UCSORGTOP
 10
0.0
 20
0.0
 30
0.0
  9
$UCSORGBOTTOM
 10
0.0
 20
0.0
 30
0.0
  9
$UCSORGLEFT
 10
0.0
 20
0.0
 30
0.0
  9
$UCSORGRIGHT
 10
0.0
 20
0.0
 30
0.0
  9
$UCSORGFRONT
 10
0.0
 20
0.0
 30
0.0
  9
$UCSORGBACK
 10
0.0
 20
0.0
 30
0.0
  9
$PUCSBASE
  2

  9
$PUCSNAME
  2

  9
$PUCSORG
 10
0.0
 20
0.0
 30
0.0
  9
$PUCSXDIR
 10
1.0
 20
0.0
 30
0.0
  9
$PUCSYDIR
 10
0.0
 20
1.0
 30
0.0
  9
$PUCSORTHOREF
  2

  9
$PUCSORTHOVIEW
 70
0
  9
$PUCSORGTOP
 10
0.0
 20
0.0
 30
0.0
  9
$PUCSORGBOTTOM
 10
0.0
 20
0.0
 30
0.0
  9
$PUCSORGLEFT
 10
0.0
 20
0.0
 30
0.0
  9
$PUCSORGRIGHT
 10
0.0
 20
0.0
 30
0.0
  9
$PUCSORGFRONT
 10
0.0
 20
0.0
 30
0.0
  9
$PUCSORGBACK
 10
0.0
 20
0.0
 30
0.0
  9
$USERI1
 70
0
  9
$USERI2
 70
0
  9
$USERI3
 70
0
  9
$USERI4
 70
0
  9
$USERI5
 70
0
  9
$USERR1
 40
0.0
  9
$USERR2
 40
0.0
  9
$USERR3
 40
0.0
  9
$USERR4
 40
0.0
  9
$USERR5
 40
0.0
  9
$WORLDVIEW
 70
1
  9
$SHADEDGE
 70
3
  9
$SHADEDIF
 70
70
  9
$TILEMODE
 70
1
  9
$MAXACTVP
 70
64
  9
$PINSBASE
 10
0.0
 20
0.0
 30
0.0
  9
$PLIMCHECK
 70
0
  9
$PEXTMIN
 10
1e+20
 20
1e+20
 30
1e+20
  9
$PEXTMAX
 10
-1e+20
 20
-1e+20
 30
-1e+20
  9
$PLIMMIN
 10
0.0
 20
0.0
  9
$PLIMMAX
 10
420.0
 20
297.0
  9
$UNITMODE
 70
0
  9
$VISRETAIN
 70
1
  9
$PLINEGEN
 70
0
  9
$PSLTSCALE
 70
1
  9
$TREEDEPTH
 70
3020
  9
$CMLSTYLE
  2
Standard
  9
$CMLJUST
 70
0
  9
$CMLSCALE
 40
20.0
  9
$PROXYGRAPHICS
 70
1
  9
$MEASUREMENT
 70
1
  9
$CELWEIGHT
370
-1
  9
$ENDCAPS
280
0
  9
$JOINSTYLE
280
0
  9
$LWDISPLAY
290
0
  9
$INSUNITS
 70
4
  9
$HYPERLINKBASE
  1

  9
$STYLESHEET
  1

  9
$XEDIT
290
1
  9
$CEPSNTYPE
380
0
  9
$PSTYLEMODE
290
1
  9
$FINGERPRINTGUID
  2
{337B28B0-8FDD-44EC-9914-CAF819C2D149}
  9
$VERSIONGUID
  2
{51926F05-7003-4CB8-9421-23FAE30F4D10}
  9
$EXTNAMES
290
1
  9
$PSVPSCALE
 40
0.0
  9
$OLESTARTUP
290
0
  9
$SORTENTS
280
127
  9
$INDEXCTL
280
0
  9
$HIDETEXT
280
1
  9
$XCLIPFRAME
280
1
  9
$HALOGAP
280
0
  9
$OBSCOLOR
 70
257
  9
$OBSLTYPE
280
0
  9
$INTERSECTIONDISPLAY
280
0
  9
$INTERSECTIONCOLOR
 70
257
  9
$DIMASSOC
280
2
  9
$PROJECTNAME
  1

  9
$CAMERADISPLAY
290
0
  9
$LENSLENGTH
 40
50.0
  9
$CAMERAHEIGHT
 40
0.0
  9
$STEPSPERSEC
 40
24.0
  9
$STEPSIZE
 40
100.0
  9
$3DDWFPREC
 40
2.0
  9
$PSOLWIDTH
 40
0.005
  9
$PSOLHEIGHT
 40
0.08
  9
$LOFTANG1
 40
1.570796326795
  9
$LOFTANG2
 40
1.570796326795
  9
$LOFTMAG1
 40
0.0
  9
$LOFTMAG2
 40
0.0
  9
$LOFTPARAM
 70
7
  9
$LOFTNORMALS
280
1
  9
$LATITUDE
 40
37.795
  9
$LONGITUDE
 40
-122.394
  9
$NORTHDIRECTION
 40
0.0
  9
$TIMEZONE
 70
-8000
  9
$LIGHTGLYPHDISPLAY
280
1
  9
$TILEMODELIGHTSYNCH
280
1
  9
$CMATERIAL
347
20
  9
$SOLIDHIST
280
0
  9
$SHOWHIST
280
1
  9
$DWFFRAME
280
2
  9
$DGNFRAME
280
2
  9
$REALWORLDSCALE
290
1
  9
$INTERFERECOLOR
 62
256
  9
$CSHADOW
280
0
  9
$SHADOWPLANELOCATION
 40
0.0
  0
ENDSEC
  0
SECTION
  2
CLASSES
  0
CLASS
  1
ACDBDICTIONARYWDFLT
  2
AcDbDictionaryWithDefault
  3
ObjectDBX Classes
 90
0
 91
0
280
0
281
0
  0
CLASS
  1
SUN
  2
AcDbSun
  3
SCENEOE
 90
1153
 91
0
280
0
281
0
  0
CLASS
  1
VISUALSTYLE
  2
AcDbVisualStyle
  3
ObjectDBX Classes
 90
4095
 91
0
280
0
281
0
  0
CLASS
  1
MATERIAL
  2
AcDbMaterial
  3
ObjectDBX Classes
 90
1153
 91
0
280
0
281
0
  0
CLASS
  1
SCALE
  2
AcDbScale
  3
ObjectDBX Classes
 90
1153
 91
0
280
0
281
0
  0
CLASS
  1
TABLESTYLE
  2
AcDbTableStyle
  3
ObjectDBX Classes
 90
4095
 91
0
280
0
281
0
  0
CLASS
  1
MLEADERSTYLE
  2
AcDbMLeaderStyle
  3
ACDB_MLEADERSTYLE_CLASS
 90
4095
 91
0
280
0
281
0
  0
CLASS
  1
DICTIONARYVAR
  2
AcDbDictionaryVar
  3
ObjectDBX Classes
 90
0
 91
0
280
0
281
0
  0
CLASS
  1
CELLSTYLEMAP
  2
AcDbCellStyleMap
  3
ObjectDBX Classes
 90
1152
 91
0
280
0
281
0
  0
CLASS
  1
MENTALRAYRENDERSETTINGS
  2
AcDbMentalRayRenderSettings
  3
SCENEOE
 90
1024
 91
0
280
0
281
0
  0
CLASS
  1
ACDBDETAILVIEWSTYLE
  2
AcDbDetailViewStyle
  3
ObjectDBX Classes
 90
1025
 91
0
280
0
281
0
  0
CLASS
  1
ACDBSECTIONVIEWSTYLE
  2
AcDbSectionViewStyle
  3
ObjectDBX Classes
 90
1025
 91
0
280
0
281
0
  0
CLASS
  1
RASTERVARIABLES
  2
AcDbRasterVariables
  3
ISM
 90
0
 91
0
280
0
281
0
  0
CLASS
  1
ACDBPLACEHOLDER
  2
AcDbPlaceHolder
  3
ObjectDBX Classes
 90
0
 91
0
280
0
281
0
  0
CLASS
  1
LAYOUT
  2
AcDbLayout
  3
ObjectDBX Classes
 90
0
 91
0
280
0
281
0
  0
ENDSEC
  0
SECTION
  2
TABLES
  0
TABLE
  2
VPORT
  5
8
330
0
100
AcDbSymbolTable
 70
1
  0
VPORT
  5
23
330
8
100
AcDbSymbolTableRecord
100
AcDbViewportTableRecord
  2
*Active
 70
0
 10
0.0
 20
0.0
 11
1.0
 21
1.0
 12
0.0
 22
0.0
 13
0.0
 23
0.0
 14
0.5
 24
0.5
 15
0.5
 25
0.5
 16
0.0
 26
0.0
 36
1.0
 17
0.0
 27
0.0
 37
0.0
 40
1000.0
 41
1.34
 42
50.0
 43
0.0
 44
0.0
 50
0.0
 51
0.0
 71
0
 72
1000
 73
1
 74
3
 75
0
 76
0
 77
0
 78
0
281
0
 65
0
146
0.0
  0
ENDTAB
  0
TABLE
  2
LTYPE
  5
2
330
0
100
AcDbSymbolTable
 70
3
  0
LTYPE
  5
24
330
2
100
AcDbSymbolTableRecord
100
AcDbLinetypeTableRecord
  2
ByBlock
 70
0
  3

 72
65
 73
0
 40
0.0
  0
LTYPE
  5
25
330
2
100
AcDbSymbolTableRecord
100
AcDbLinetypeTableRecord
  2
ByLayer
 70
0
  3

 72
65
 73
0
 40
0.0
  0
LTYPE
  5
26
330
2
100
AcDbSymbolTableRecord
100
AcDbLinetypeTableRecord
  2
Continuous
 70
0
  3

 72
65
 73
0
 40
0.0
  0
ENDTAB
  0
TABLE
  2
LAYER
  5
1
330
0
100
AcDbSymbolTable
 70
3
  0
LAYER
  5
27
330
1
100
AcDbSymbolTableRecord
100
AcDbLayerTableRecord
  2
0
 70
0
 62
7
  6
Continuous
370
-3
390
13
347
21
  0
LAYER
  5
28
330
1
100
AcDbSymbolTableRecord
100
AcDbLayerTableRecord
  2
Defpoints
 70
0
 62
7
  6
Continuous
290
0
370
-3
390
13
347
21
  0
LAYER
  5
2F
330
1
100
AcDbSymbolTableRecord
100
AcDbLayerTableRecord
  2
C01_120203
 70
0
 62
7
420
1180163
  6
Continuous
370
-3
390
13
347
21
  0
ENDTAB
  0
TABLE
  2
STYLE
  5
5
330
0
100
AcDbSymbolTable
 70
1
  0
STYLE
  5
29
330
5
100
AcDbSymbolTableRecord
100
AcDbTextStyleTableRecord
  2
Standard
 70
0
 40
0.0
 41
1.0
 50
0.0
 71
0
 42
2.5
  3
txt
  4

  0
ENDTAB
  0
TABLE
  2
VIEW
  5
7
330
0
100
AcDbSymbolTable
 70
0
  0
ENDTAB
  0
TABLE
  2
UCS
  5
6
330
0
100
AcDbSymbolTable
 70
0
  0
ENDTAB
  0
TABLE
  2
APPID
  5
3
330
0
100
AcDbSymbolTable
 70
3
  0
APPID
  5
2A
330
3
100
AcDbSymbolTableRecord
100
AcDbRegAppTableRecord
  2
ACAD
 70
0
  0
APPID
  5
63
330
3
100
AcDbSymbolTableRecord
100
AcDbRegAppTableRecord
  2
HATCHBACKGROUNDCOLOR
 70
0
  0
APPID
  5
64
330
3
100
AcDbSymbolTableRecord
100
AcDbRegAppTableRecord
  2
EZDXF
 70
0
  0
ENDTAB
  0
TABLE
  2
DIMSTYLE
  5
4
330
0
100
AcDbSymbolTable
 70
1
100
AcDbDimStyleTable
  0
DIMSTYLE
105
2B
330
4
100
AcDbSymbolTableRecord
100
AcDbDimStyleTableRecord
  2
Standard
 70
0
 40
1.0
 41
2.5
 42
0.625
 43
3.75
 44
1.25
 45
0.0
 46
0.0
 47
0.0
 48
0.0
 49
2.5
140
2.5
141
2.5
142
0.0
143
0.03937007874
144
1.0
145
0.0
146
1.0
147
0.625
148
0.0
 69
0
 70
0
 71
0
 72
0
 73
0
 74
0
 75
0
 76
0
 77
1
 78
8
 79
3
170
0
171
3
172
1
173
0
174
0
175
0
176
0
177
0
178
0
179
2
271
2
272
2
273
2
274
3
275
0
276
0
277
2
278
44
279
0
280
0
281
0
282
0
283
0
284
8
285
0
286
0
288
0
289
3
290
0
371
-2
372
-2
  0
ENDTAB
  0
TABLE
  2
BLOCK_RECORD
  5
9
330
0
100
AcDbSymbolTable
 70
2
  0
BLOCK_RECORD
  5
17
330
9
100
AcDbSymbolTableRecord
100
AcDbBlockTableRecord
  2
*Model_Space
340
1A
 70
0
280
1
281
0
  0
BLOCK_RECORD
  5
1B
330
9
100
AcDbSymbolTableRecord
100
AcDbBlockTableRecord
  2
*Paper_Space
340
1E
 70
0
280
1
281
0
  0
ENDTAB
  0
ENDSEC
  0
SECTION
  2
BLOCKS
  0
BLOCK
  5
18
330
17
100
AcDbEntity
  8
0
100
AcDbBlockBegin
  2
*Model_Space
 70
0
 10
0.0
 20
0.0
 30
0.0
  3
*Model_Space
  1

  0
ENDBLK
  5
19
330
17
100
AcDbEntity
  8
0
100
AcDbBlockEnd
  0
BLOCK
  5
1C
330
1B
100
AcDbEntity
  8
0
100
AcDbBlockBegin
  2
*Paper_Space
 70
0
 10
0.0
 20
0.0
 30
0.0
  3
*Paper_Space
  1

  0
ENDBLK
  5
1D
330
1B
100
AcDbEntity
  8
0
100
AcDbBlockEnd
  0
ENDSEC
  0
SECTION
  2
ENTITIES
  0
LWPOLYLINE
  5
30
330
17
100
AcDbEntity
  8
C01_120203
100
AcDbPolyline
 90
106
 70
1
 10
25.684066082363326
 20
0.711026348318569
 10
25.395109080174073
 20
0.9519968330595696
 10
25.150990597722664
 20
1.1564139476381996
 10
24.977432644258997
 20
1.3026812886321033
 10
24.900157229032974
 20
1.3692024526189244
 10
24.893528521702134
 20
1.3968140585814122
 10
24.912325465972867
 20
1.4371395336674782
 10
24.952892232168367
 20
1.4847626867025099
 10
25.011572990611832
 20
1.5342673265118947
 10
25.10725314227777
 20
1.6099251404437114
 10
25.248560830613677
 20
1.7287574309408245
 10
25.416454339652212
 20
1.8744724294707744
 10
25.59189195342603
 20
2.0307783675011026
 10
26.01095238369435
 20
2.409374290579149
 10
25.902955950270474
 20
4.779687145289574
 10
25.873952534567483
 20
5.459934666696048
 10
25.845948255910002
 20
6.2007755801563835
 10
25.793878813435114
 20
7.814560463584839
 10
25.712088313770472
 20
11.222802618896242
 10
25.686134071394903
 20
12.818551412163973
 10
25.677716192811914
 20
13.545865258003765
 10
25.672651710533298
 20
14.209579696762908
 10
25.67117605048495
 20
14.797275448527952
 10
25.673524638592745
 20
15.29653323338544
 10
25.679932900782585
 20
15.694933771421923
 10
25.690636262980345
 20
15.980057782723954
 10
25.75
 20
17.010115565447894
 10
26.5
 20
17.611249836164394
 10
26.931187155980766
 20
17.9428037814455
 10
27.46396522341807
 20
18.32926821451878
 10
28.080885184522778
 20
18.759027377056245
 10
28.764498021505766
 20
19.22046551072991
 10
30.26200625195006
 20
20.191915658173897
 10
31.816897772437915
 20
21.150692590226868
 10
33.48379554487583
 20
22.150000000000002
 10
33.73822719335717
 20
23.091924323895025
 10
33.992658841838505
 20
24.033848647790048
 10
33.596329420919254
 20
25.047529230604006
 10
33.44244213795295
 20
25.445912266619835
 10
33.31642176739503
 20
25.781272745728803
 10
33.23127286836941
 20
26.018357445755406
 10
33.208089145407435
 20
26.089029746682975
 10
33.2
 20
26.12191314452414
 10
33.22810075000597
 20
26.147209186839152
 10
33.30842509168895
 20
26.200937989621224
 10
33.435006162546564
 20
26.279708839546423
 10
33.601877100076415
 20
26.380131023290836
 10
34.03262112514327
 20
26.632366538941596
 10
34.55292226687043
 20
26.930518829982127
 10
35.67125630022923
 20
27.556070911866946
 10
36.173819391822676
 20
27.829219289528474
 10
36.575
 20
28.03978161621424
 10
36.7613079066426
 20
28.13053001745925
 10
36.85796813923787
 20
28.153444838779343
 10
36.8943943022142
 20
28.102283216448903
 10
36.9
 20
27.970802286742323
 10
36.88269503638938
 20
27.897334467288843
 10
36.833098513888125
 20
27.77777062150129
 10
36.754687984992145
 20
27.618376165064642
 10
36.65094100219737
 20
27.425416513663873
 10
36.38134788489505
 20
26.963863288709888
 10
36.05213958194849
 20
26.443234272119163
 10
35.7227624526138
 20
25.930934902626635
 10
35.45270965950224
 20
25.492061409870715
 10
35.348645709342634
 20
25.314740464717424
 10
35.269871827613805
 20
25.173273305686426
 10
35.21987434244076
 20
25.073492371757087
 10
35.202139581948494
 20
25.021230101908795
 10
35.22935543859585
 20
24.898609234837245
 10
35.30503966745974
 20
24.659931453367527
 10
35.41759952426162
 20
24.33962123822917
 10
35.55544226472295
 20
23.972103070151707
 10
35.91088452944589
 20
23.05174593648583
 10
35.6905166982474
 20
22.079815955816116
 10
35.47014886704891
 20
21.107885975146417
 10
34.26007443352446
 20
20.388664758320363
 10
33.557183404251816
 20
19.960945115713926
 10
32.77095898977636
 20
19.465741251965323
 10
31.107799664572063
 20
18.379214241588006
 10
30.310509583520748
 20
17.841057785232497
 10
29.589175776621673
 20
17.341750488281217
 10
28.9836206587136
 20
16.907875695870768
 10
28.736704612768307
 20
16.723782784223545
 10
28.5336666446353
 20
16.566016753137752
 10
27.717333289270602
 20
15.913208372278895
 10
27.64382813112123
 20
15.231604186139453
 10
27.63025211256136
 20
15.03405916452547
 10
27.62047628828184
 20
14.734621910251308
 10
27.614374860412816
 20
14.341398345045198
 10
27.611822031084447
 20
13.862494390635371
 10
27.612692002426886
 20
13.306015968750057
 10
27.616858976570285
 20
12.680069001117484
 10
27.624197155644797
 20
11.992759409465886
 10
27.634580741780574
 20
11.25219311552349
 10
27.663980943756552
 20
9.643714107679232
 10
27.704053199539445
 20
7.9194793514105495
 10
27.812188340690888
 20
4.38313208890329
 10
27.922625887805044
 20
1.3162641778065791
 10
27.286312943902523
 20
0.7116146700944
 10
27.030096647964353
 20
0.4765658060059222
 10
26.80286133896559
 20
0.2835579470477896
 10
26.6292901170505
 20
0.15254542738713983
 10
26.534066082363324
 20
0.10348258119111052
 10
26.43112871409448
 20
0.15034415801001286
 10
26.236555841338202
 20
0.28051199804346966
 10
25.978238089094482
 20
0.47405107143261155
  0
LWPOLYLINE
  5
31
330
17
100
AcDbEntity
  8
C01_120203
100
AcDbPolyline
 90
33
 70
1
 10
22.311347213943876
 20
1.4854314206652703
 10
21.857637677654132
 20
1.6436384569351663
 10
21.48978403889231
 20
1.77671789875774
 10
21.198927968728796
 20
1.8887319770919306
 10
20.97621113823398
 20
1.983742922896677
 10
20.812775218478244
 20
2.0658129671309178
 10
20.69976188053197
 20
2.139004340753593
 10
20.58956963434936
 20
2.275
 10
20.5596028168287
 20
2.362363281249998
 10
20.539458560188894
 20
2.4339062499999984
 10
20.530904226309424
 20
2.4822460937499993
 10
20.535707177069778
 20
2.5
 10
20.605145688117812
 20
2.480246909617809
 10
20.772579265912725
 20
2.4264637427356064
 10
21.012897118551006
 20
2.3468646557499477
 10
21.300988454129143
 20
2.249663805057389
 10
22.037007394929702
 20
1.9993276101147786
 10
22.326227326025492
 20
2.3502015311785955
 10
22.615447257121282
 20
2.701075452242424
 10
23.354278054993372
 20
2.0899357026499046
 10
23.67324463014932
 20
1.8249617336546877
 10
23.911927289279653
 20
1.6214094944826885
 10
24.078657922813697
 20
1.4683085961035032
 10
24.18176842118077
 20
1.3546886494867283
 10
24.229590674810193
 20
1.2695792656019598
 10
24.230456574131285
 20
1.202010055418794
 10
24.12464687156576
 20
1.0756106000356567
 10
23.984359104262015
 20
1.0076275613778671
 10
23.87513498524778
 20
1.007390811168391
 10
23.718961881905
 20
1.034379796016863
 10
23.500168173668445
 20
1.092136432657035
 10
23.203082239972893
 20
1.184202637822659
 10
22.81203246025311
 20
1.314120328247487
  0
LWPOLYLINE
  5
32
330
17
100
AcDbEntity
  8
C01_120203
100
AcDbPolyline
 90
101
 70
1
 10
42.19457806775472
 20
5.985909580380349
 10
42.00407288535749
 20
6.1164355220811295
 10
41.814017289560425
 20
6.260474234185752
 10
41.646435848609045
 20
6.40053015291832
 10
41.52335313074885
 20
6.519107714502934
 10
41.2967062614977
 20
6.76639626824516
 10
41.54559436745896
 20
6.879797278333445
 10
41.64606667343932
 20
6.941851019308898
 10
41.73564366287761
 20
7.026979493096353
 10
41.80456447414668
 20
7.123967325971708
 10
41.8430682456194
 20
7.22159914421086
 10
41.84825419424474
 20
7.278587732364674
 10
41.853759028468524
 20
7.400146073933348
 10
41.85953445408655
 20
7.582824549337497
 10
41.8655321768946
 20
7.823173538997739
 10
41.87170390268845
 20
8.117743423334687
 10
41.878001337263896
 20
8.46308458276896
 10
41.884376186416716
 20
8.855747397721174
 10
41.8907801559427
 20
9.292282248611942
 10
41.90348227929729
 20
10.28316957989161
 10
41.91572135369395
 20
11.408149619972889
 10
41.92711102549895
 20
12.63962541222071
 10
41.93726494107859
 20
13.950000000000001
 10
41.952380912783106
 20
15.669128283146753
 10
41.973295861295334
 20
17.253013112593006
 10
42.00106238328087
 20
18.714312638529563
 10
42.03673307540529
 20
20.06568501114722
 10
42.08136053433419
 20
21.31978838063678
 10
42.13599735673317
 20
22.48928089718904
 10
42.20169613926781
 20
23.586820710994807
 10
42.279509478603714
 20
24.625065972244883
 10
42.47569021434167
 20
26.574305437841137
 10
42.73296033727175
 20
28.438264495504214
 10
43.0597406207187
 20
30.31820834676052
 10
43.25182856429998
 20
31.29581994546313
 10
43.46445183800725
 20
32.31540219313646
 10
43.48705253501917
 20
32.46082175370423
 10
43.46190422511683
 20
32.539304004523714
 10
43.36831187181472
 20
32.56985148638346
 10
43.18558043862729
 20
32.57146674007206
 10
43.03453074846787
 20
32.5814567826653
 10
42.871328864360635
 20
32.61556008684959
 10
42.71561477306086
 20
32.66842108005821
 10
42.587028461323804
 20
32.73468418972444
 10
42.32405692264761
 20
32.907239285577695
 10
42.6815906965478
 20
33.764589906098834
 10
43.03912447044799
 20
34.62194052661996
 10
43.30461499693449
 20
33.77026155154537
 10
43.4833167815854
 20
33.25165802061315
 10
43.67571152913228
 20
32.796842723870974
 10
43.880531826089516
 20
32.407467378079396
 10
44.09651025897152
 20
32.08518369999897
 10
44.3223794142927
 20
31.83164340639026
 10
44.55687187856745
 20
31.64849821401382
 10
44.79872023831019
 20
31.537399839630215
 10
45.04665708003531
 20
31.5
 10
45.37796910368175
 20
31.5
 10
45.04334545391401
 20
30.725
 10
44.766730042361054
 20
30.029539869374677
 10
44.535844781900124
 20
29.327119655994743
 10
44.34942490615012
 20
28.609928742290457
 10
44.206205648729934
 20
27.870156510692084
 10
44.10492224325847
 20
27.09999234362988
 10
44.04430992335462
 20
26.29162562353411
 10
44.023103922637276
 20
25.437245732835027
 10
44.04003947472534
 20
24.529042053962897
 10
44.05424790297465
 20
24.153916103759318
 10
44.066504329673926
 20
23.823747394235895
 10
44.08489537366967
 20
23.274911013427197
 10
44.09468099720727
 20
22.835791543932167
 10
44.09532959078142
 20
22.459647618146178
 10
44.06708925001811
 20
21.709320927282796
 10
44.03713709667003
 20
21.24165542699614
 10
43.99592147533727
 20
20.650000000000002
 10
43.98487969317823
 20
20.463067759794644
 10
43.973549183629146
 20
20.214407347062686
 10
43.962014120283136
 20
19.908160723630306
 10
43.95035867673329
 20
19.54846985132368
 10
43.93866702657271
 20
19.139476691968987
 10
43.92702334339451
 20
18.6853232073924
 10
43.904216572357626
 20
17.658103109878255
 10
43.882611752367445
 20
16.499945253390656
 10
43.86288227216879
 20
15.24398533253902
 10
43.83174288612531
 20
12.571202076181283
 10
43.82140657247502
 20
11.422091351821852
 10
43.812002454181496
 20
10.414983854396965
 10
43.80314839935859
 20
9.540273127402344
 10
43.794462276120186
 20
8.788352714333717
 10
43.78556195258013
 20
8.149616158686808
 10
43.7760652968523
 20
7.614457003957339
 10
43.765590177050555
 20
7.173268793641036
 10
43.75375446128876
 20
6.816445071233622
 10
43.740176017680774
 20
6.534379380230824
 10
43.72447271434047
 20
6.317465264128364
 10
43.70626241938171
 20
6.156096266421967
 10
43.68516300091836
 20
6.040665930607357
 10
43.63276826593333
 20
5.909195418636399
 10
43.5642314542963
 20
5.8462020761812825
 10
43.278921868940095
 20
5.724447122333299
 10
42.93993545726175
 20
5.708738734845003
 10
42.570683697465284
 20
5.796688894074612
  0
LWPOLYLINE
  5
33
330
17
100
AcDbEntity
  8
C01_120203
100
AcDbPolyline
 90
21
 70
1
 10
37.800000000000004
 20
8.7883368636039
 10
37.809231238386516
 20
8.98572354407403
 10
37.84336663569737
 20
9.113447254819745
 10
37.91206871515954
 20
9.190774402875224
 10
38.025
 20
9.236971395274656
 10
38.24877661524042
 20
9.285707872850875
 10
38.39688289275128
 20
9.27425025471303
 10
38.50990753572649
 20
9.18730305662142
 10
38.62843924736001
 20
9.009570794336355
 10
38.74694998573012
 20
8.796285097104086
 10
38.79073878742425
 20
8.67626670382654
 10
38.76102443470753
 20
8.635601124772814
 10
38.659025709845054
 20
8.660373870211993
 10
38.58029582418894
 20
8.668971831376764
 10
38.470145075508356
 20
8.652391917584051
 10
38.34317614216823
 20
8.614018360196843
 10
38.21399170253347
 20
8.557235390578127
 10
38.07813104422857
 20
8.487969814289865
 10
37.97581201802812
 20
8.441439441808729
 10
37.85277942372497
 20
8.427201478034432
 10
37.8068550431927
 20
8.535755838788424
  0
LWPOLYLINE
  5
34
330
17
100
AcDbEntity
  8
C01_120203
100
AcDbPolyline
 90
72
 70
1
 10
127.05000000000001
 20
12.84195384726404
 10
128.55
 20
14.294057502702742
 10
129.5
 20
14.590507415275898
 10
130.4605480833402
 20
14.885574580162993
 10
131.47306722951484
 20
15.187702627303741
 10
132.5340918358966
 20
15.49609778840605
 10
133.64015629985826
 20
15.809966295177837
 10
135.97354239001217
 20
16.450948272561494
 10
138.44550067895844
 20
17.10429841311801
 10
141.0283063456789
 20
17.76366657051069
 10
143.69423456915553
 20
18.422702598402836
 10
149.1645594023046
 20
19.71437768033875
 10
154.63467661026067
 20
20.92852248823217
 10
157.300345302246
 20
21.4906456735712
 10
159.88278762487874
 20
22.014335851389525
 10
162.35427875714075
 20
22.49324287535044
 10
163.53975362031454
 20
22.71391828390415
 10
164.68709387801388
 20
22.921016599117245
 10
165.79283392761147
 20
23.11374405269764
 10
166.85350816648003
 20
23.291306876353246
 10
167.8656509919923
 20
23.452911301791982
 10
168.82579680152108
 20
23.597763560721752
 10
170.20159360304214
 20
23.798622136643885
 10
171.0742534776715
 20
23.345854392171216
 10
171.42027202685625
 20
23.162872084148926
 10
171.7173030480077
 20
22.999353638758432
 10
171.93372619637535
 20
22.87314169022938
 10
172.03792112720882
 20
22.802078872791427
 10
172.06333402111733
 20
22.731535483462775
 10
171.98789984171447
 20
22.6974221125025
 10
171.81439448870256
 20
22.656161107971556
 10
171.5133348950534
 20
22.60181258283991
 10
171.30575879954353
 20
22.567874285351937
 10
171.05523799373873
 20
22.52843665007753
 10
170.7580870942605
 20
22.48275719113793
 10
170.41062071773035
 20
22.430093422654387
 10
170.00915348076967
 20
22.36970285874815
 10
169.55
 20
22.300843013540455
 10
168.32463710029964
 20
22.11030641451589
 10
167.0147291250826
 20
21.89377371354353
 10
165.6294746733796
 20
21.65315199380339
 10
164.17807234422136
 20
21.390348338475473
 10
162.66972073663862
 20
21.10726983073979
 10
161.11361844966214
 20
20.805823553776346
 10
157.89495623365073
 20
20.155456024886217
 10
151.28936200625475
 20
18.71821939629324
 10
148.0496075793618
 20
17.961863627470528
 10
146.47768613422414
 20
17.580926170557646
 10
144.95000000000002
 20
17.200691776217095
 10
143.18521617238565
 20
16.75230668570529
 10
141.51353427578076
 20
16.321447666787304
 10
139.93149772004372
 20
15.90708751808943
 10
138.4356499150329
 20
15.508199038237956
 10
137.02253427060674
 20
15.123755025859168
 10
135.68869419662354
 20
14.752728279579358
 10
134.4306731029417
 20
14.394091598024815
 10
133.24501439941963
 20
14.046817779821822
 10
132.1282614959157
 20
13.709879623596674
 10
131.0769578022883
 20
13.382249927975657
 10
130.08764672839578
 20
13.06290149158506
 10
129.15687168409653
 20
12.750807113051172
 10
128.28117607924895
 20
12.444939591000281
 10
127.45710332371144
 20
12.144271724058676
 10
126.68119682734232
 20
11.847776310852645
 10
125.95
 20
11.554426150008476
 10
125.84616324362852
 20
11.518240058140444
 10
125.79657817897436
 20
11.521167978276287
 10
125.80859563966048
 20
11.57181391213192
 10
125.88956645930989
 20
11.678781861423262
 10
126.04684147154558
 20
11.85067582786623
 10
126.28777150999049
 20
12.096099813176737
 10
126.61970740826764
 20
12.423657819070701
  0
LWPOLYLINE
  5
35
330
17
100
AcDbEntity
  8
C01_120203
100
AcDbPolyline
 90
142
 70
1
 10
54.2
 20
12.784252949755047
 10
54.2
 20
13.768505899510092
 10
54.53423072174875
 20
13.948501026427493
 10
54.868461443497495
 20
14.128496153344896
 10
55.61813293515211
 20
13.564248076672449
 10
55.913553692742816
 20
13.345161128151977
 10
56.16373548078025
 20
13.165747872522534
 10
56.34227604308498
 20
13.044522699799936
 10
56.42277312347758
 20
13.0
 10
56.44965625204278
 20
13.029529749028601
 10
56.48221823263923
 20
13.109932531037165
 10
56.5163517197484
 20
13.228928648409841
 10
56.54794936785177
 20
13.374238403530775
 10
56.58070153559724
 20
13.54313300198248
 10
56.61094826134456
 20
13.669242385749515
 10
56.68782291995749
 20
13.81218352945373
 10
56.82636840991606
 20
13.841217875091706
 10
57.07437979744573
 20
13.794501463111727
 10
57.22499063937843
 20
13.767153472035883
 10
57.357528409504496
 20
13.75528683409696
 10
57.45766423534503
 20
13.759380251995399
 10
57.51106924442115
 20
13.779912428431636
 10
57.51843233619942
 20
13.81740181789377
 10
57.527794954015036
 20
13.913390957212508
 10
57.53901459398993
 20
14.064844645240317
 10
57.55194875224605
 20
14.268727680829667
 10
57.566454924905315
 20
14.52200486283302
 10
57.58239060808966
 20
14.82164099010285
 10
57.59961329792104
 20
15.164600861491618
 10
57.61798049052136
 20
15.547849275851796
 10
57.65757836851662
 20
16.423070928896244
 10
57.7000442110509
 20
17.42302434005594
 10
57.744237987099694
 20
18.523427900150608
 10
57.78901966563847
 20
19.700000000000003
 10
57.8336013026609
 20
20.88356805367658
 10
57.87722175398103
 20
22.00402221828075
 10
57.918781188304905
 20
23.03567499917415
 10
57.95717977433855
 20
23.952838901718433
 10
57.99131768078799
 20
24.729826431275235
 10
58.006445181889276
 20
25.05772671410885
 10
58.020095076359276
 20
25.340950093206207
 10
58.03212988528624
 20
25.57628563173752
 10
58.04241212975842
 20
25.760522392872986
 10
58.050804330864075
 20
25.89044943978282
 10
58.057169009691464
 20
25.96285583563722
 10
58.10861232008504
 20
26.37571167127444
 10
59.0032782745323
 20
26.695741832226386
 10
59.353577005996215
 20
26.825299257490144
 10
59.64599437558688
 20
26.941477871900627
 10
59.849961264731185
 20
27.031574507564684
 10
59.93490855485601
 20
27.082885996589166
 10
59.93966586942017
 20
27.19179666822603
 10
59.92529371619632
 20
27.43872276149807
 10
59.89456930308212
 20
27.787008973168366
 10
59.850269837975226
 20
28.200000000000003
 10
59.80577636342966
 20
28.610891461971782
 10
59.774523706794305
 20
28.95346103664743
 10
59.75936975315915
 20
29.191926507167384
 10
59.76317238761416
 20
29.2905056566721
 10
59.809378820949796
 20
29.32092207376023
 10
59.90968075535595
 20
29.373795946116218
 10
60.049302813021725
 20
29.441689955509194
 10
60.21346961613625
 20
29.517166783708277
 10
60.62926125226218
 20
29.70332225407235
 10
60.56136397152399
 20
28.326661127036175
 10
60.538683066692535
 20
27.873933176799312
 10
60.517547549327105
 20
27.46956525262639
 10
60.49761909242892
 20
27.110810965872183
 10
60.478559368999214
 20
26.794923927891464
 10
60.441692814550095
 20
26.28076604366961
 10
60.40424126998952
 20
25.905120490799046
 10
60.36349811932727
 20
25.646016160117977
 10
60.31675674657312
 20
25.48148194246462
 10
60.26131053573684
 20
25.389546728677185
 10
60.19445287082822
 20
25.348239409593887
 10
60.1170152836664
 20
25.2979199412257
 10
60.05471200781054
 20
25.157089413133445
 10
60.027836780776454
 20
25.031742691476644
 10
60.0030663845538
 20
24.858580432631857
 10
59.97984123680422
 20
24.629206712513426
 10
59.95760175518935
 20
24.33522560703569
 10
59.93578835737086
 20
23.968241192112988
 10
59.91384146101037
 20
23.519857543659672
 10
59.89120148376954
 20
22.98167873759008
 10
59.86730884331002
 20
22.345308849818558
 10
59.841603957293444
 20
21.602351956259447
 10
59.813527243381465
 20
20.744412132827087
 10
59.78251911923572
 20
19.763093455435826
 10
59.74802000251787
 20
18.650000000000002
 10
59.715951976984
 20
17.63488817331261
 10
59.68389886045613
 20
16.667160378165498
 10
59.65271495118619
 20
15.769478141931248
 10
59.62325454742611
 20
14.964502991982446
 10
59.59637194742782
 20
14.274896455691678
 10
59.57292144944325
 20
13.723320060431533
 10
59.56275020690984
 20
13.506374892991875
 10
59.553757351724336
 20
13.33243533357459
 10
59.546049671168234
 20
13.204334073101256
 10
59.539733952523015
 20
13.124903802493442
 10
59.50393568397778
 20
12.836268345292991
 10
59.4576240209455
 20
12.685062613129555
 10
59.37813192275262
 20
12.63502747564806
 10
59.24279234872561
 20
12.64990380249344
 10
58.988213629159965
 20
12.703081480703059
 10
58.80123167439004
 20
12.739102625933393
 10
58.67035038749957
 20
12.753577013044188
 10
58.58407367157227
 20
12.742114416895191
 10
58.53090542969187
 20
12.70032461234615
 10
58.49934956494211
 20
12.623817374256813
 10
58.4779099804067
 20
12.508202477486922
 10
58.45509057916937
 20
12.349089696896227
 10
58.42536038297415
 20
12.174716588023239
 10
58.39419557095681
 20
12.031920098463267
 10
58.36529517360629
 20
11.935435983895719
 10
58.34235822141152
 20
11.9
 10
58.26476580530708
 20
11.94765549792209
 10
58.08705102602428
 20
12.077410566521843
 10
57.83564092874716
 20
12.269448068049476
 10
57.53696255865978
 20
12.503950864755211
 10
57.26146634314134
 20
12.726726535703268
 10
57.05831093355482
 20
12.885924959861299
 10
56.90108884340068
 20
12.981848423991519
 10
56.763392586179364
 20
13.014799214856138
 10
56.618814675391334
 20
12.985079619217373
 10
56.440947624537046
 20
12.892991923837435
 10
56.203383947116954
 20
12.738838415478542
 10
55.87971615663152
 20
12.522921380902904
 10
55.509432313263034
 20
12.279664758412913
 10
55.21427910669154
 20
12.489832379206451
 10
55.07317506047812
 20
12.585388545641408
 10
54.95796168650399
 20
12.648799567917216
 10
54.783036558153285
 20
12.67174206040353
 10
54.64516292739883
 20
12.543771617489691
 10
54.576263925419994
 20
12.418541470515308
 10
54.5
 20
12.25
 10
54.42087772572778
 20
12.0752734375
 10
54.34803824551196
 20
11.9321875
 10
54.289568077291435
 20
11.8355078125
 10
54.2535537390051
 20
11.8
 10
54.23275982628203
 20
11.877663709316609
 10
54.21573141083275
 20
12.089124303990545
 10
54.20422572471838
 20
12.40208598410797
  0
LWPOLYLINE
  5
36
330
17
100
AcDbEntity
  8
C01_120203
100
AcDbPolyline
 90
16
 70
1
 10
17.163837360052305
 20
12.75
 10
17.18928808838642
 20
12.808242187500003
 10
17.216034096983485
 20
12.855937500000001
 10
17.240897117206494
 20
12.888164062500001
 10
17.26069888041843
 20
12.9
 10
17.27595876825596
 20
12.888164062500001
 10
17.288455296122915
 20
12.855937500000001
 10
17.296898896033017
 20
12.808242187500003
 10
17.3
 20
12.75
 10
17.29235702065861
 20
12.691757812499999
 10
17.271546928392453
 20
12.6440625
 10
17.240747991838536
 20
12.6118359375
 10
17.203138479633875
 20
12.600000000000001
 10
17.170070842803618
 20
12.6118359375
 10
17.15163839860576
 20
12.6440625
 10
17.149130715026565
 20
12.691757812499999
  0
LWPOLYLINE
  5
37
330
17
100
AcDbEntity
  8
C01_120203
100
AcDbPolyline
 90
84
 70
1
 10
65.91474823829013
 20
13.310846494956685
 10
65.80439358909734
 20
13.563258010780256
 10
65.64458278701868
 20
13.92588046900982
 10
65.4567264201699
 20
14.350248198274748
 10
65.26223507666678
 20
14.78789552720441
 10
65.09350751878928
 20
15.167026475793199
 10
64.9694746712788
 20
15.451915586981281
 10
64.8853971636181
 20
15.661558975772884
 10
64.83653562528991
 20
15.814952757172234
 10
64.82550297456216
 20
16.028975957811085
 10
64.89846175495752
 20
16.24595410893164
 10
64.99692350991504
 20
16.504928150098205
 10
65.49513738193866
 20
16.2524640750491
 10
65.69673742574386
 20
16.15443700840894
 10
65.87735246362965
 20
16.074161322045672
 10
66.01724452193056
 20
16.01992099342184
 10
66.09667562698115
 20
16.0
 10
66.10936504578636
 20
16.022926003749596
 10
66.12120149175146
 20
16.09188865333239
 10
66.13218969775673
 20
16.207164906249407
 10
66.1423343966824
 20
16.369031720001658
 10
66.15164032140876
 20
16.577766052090166
 10
66.16011220481607
 20
16.833644860015944
 10
66.1677547797846
 20
17.136945101280016
 10
66.17457277919462
 20
17.487943733383393
 10
66.18057093592638
 20
17.886917713827096
 10
66.18575398286016
 20
18.334144000112143
 10
66.19012665287622
 20
18.82989954973955
 10
66.19369367885483
 20
19.374461320210337
 10
66.19645979367624
 20
19.968106269025522
 10
66.19842973022072
 20
20.61111135368612
 10
66.19960822136856
 20
21.30375353169315
 10
66.2
 20
22.04630976054763
 10
66.2
 20
28.092619521095255
 10
67.46273926326829
 20
28.49630976054763
 10
67.95992266034192
 20
28.653055111334996
 10
68.38018170936645
 20
28.781415992160866
 10
68.67921953534191
 20
28.868146317043212
 10
68.76943771624873
 20
28.89176061913618
 10
68.81273926326828
 20
28.900000000000002
 10
68.8466209712024
 20
28.834071148290047
 10
68.87436715858506
 20
28.65456189858472
 10
68.89311458249227
 20
28.388888209020845
 10
68.9
 20
28.064466037735226
 10
68.9
 20
27.22893207547044
 10
68.575
 20
27.135733119844303
 10
68.25
 20
27.04253416421816
 10
68.2242253992777
 20
20.97126708210908
 10
68.21678654215845
 20
19.60835700454526
 10
68.2120988863348
 20
18.98564275257252
 10
68.20679052741576
 20
18.403314395441377
 10
68.20088005171179
 20
17.862290960878443
 10
68.19438604553335
 20
17.363491476610335
 10
68.18732709519087
 20
16.907834970363673
 10
68.17972178699482
 20
16.496240469865064
 10
68.17158870725567
 20
16.129627002841126
 10
68.16294644228385
 20
15.808913597018476
 10
68.15381357838986
 20
15.535019280123725
 10
68.14420870188411
 20
15.30886307988349
 10
68.13415039907709
 20
15.131364024024386
 10
68.12365725627924
 20
15.003441140273026
 10
68.11274785980103
 20
14.926013456356026
 10
68.10144079595291
 20
14.9
 10
68.02042089208115
 20
14.921262174011819
 10
67.871535107473
 20
14.979154231964786
 10
67.67599445441851
 20
15.064834477735179
 10
67.45500994520779
 20
15.169461215199272
 10
67.23648974995876
 20
15.268897571107196
 10
67.04765886264157
 20
15.340445589868235
 10
66.90870353132459
 20
15.377421951847364
 10
66.83981000407623
 20
15.373143337409557
 10
66.82077948838742
 20
15.336083850366581
 10
66.79178097727477
 20
15.255413789774757
 10
66.70963492935284
 20
14.983489096019497
 10
66.60488178146032
 20
14.597863552293644
 10
66.48903145474706
 20
14.139031454747055
 10
66.37446542631217
 20
13.681483655478832
 10
66.27320913016766
 20
13.299354963500985
 10
66.19623842283278
 20
13.032605610332773
 10
66.17029012013123
 20
12.954985758152048
 10
66.1545291608268
 20
12.921195827493456
 10
66.12029400703155
 20
12.936626760096638
 10
66.06367359432986
 20
13.015235790558997
 10
65.99253573424247
 20
13.14423750635439
  0
LWPOLYLINE
  5
38
330
17
100
AcDbEntity
  8
C01_120203
100
AcDbPolyline
 90
58
 70
1
 10
10.903168015294028
 20
14.6866631363961
 10
10.901360053450526
 20
14.88949137010556
 10
10.896644932446332
 20
15.0429605798475
 10
10.869042936952537
 20
15.225537603164234
 10
10.801461476805981
 20
15.28182555781714
 10
10.675
 20
15.259255795277046
 10
10.565995855156011
 20
15.229648414845744
 10
10.43552974295703
 20
15.1963972505771
 10
10.299983646902538
 20
15.163571552084003
 10
10.175739550492017
 20
15.13524056897935
 10
9.901479100984032
 20
15.075295820196812
 10
10.405747762786332
 20
16.152477553516157
 10
10.597800328799343
 20
16.58048764080071
 10
10.747943860400962
 20
16.94957370851651
 10
10.841189576915424
 20
17.22033186043948
 10
10.861791760553789
 20
17.30652425040862
 10
10.862548697666952
 20
17.35335820034552
 10
10.866872164703736
 20
17.39561677113065
 10
10.899974682130928
 20
17.468264721774393
 10
11.049911717560354
 20
17.701531830909058
 10
11.307149502762869
 20
18.04676566429224
 10
11.666477736546108
 20
18.49757235846667
 10
12.12268611771771
 20
19.04755804997506
 10
12.67056434508531
 20
19.690328875360137
 10
13.304902117456546
 20
20.419490971164628
 10
14.020489133639053
 20
21.22865047393125
 10
14.30433754825918
 20
21.542563847877066
 10
14.623492110407685
 20
21.887220162531094
 10
15.339358845086368
 20
22.6406157758063
 10
16.88279693054617
 20
24.20671807112279
 10
17.596924952513437
 20
24.906841400534066
 10
17.914775480128384
 20
25.211543502290148
 10
18.19703007476305
 20
25.476623949360693
 10
18.436598528366567
 20
25.695046282206327
 10
18.62639063288807
 20
25.85977404128767
 10
18.7593161802767
 20
25.963770767065355
 10
18.828284962481582
 20
26.0
 10
18.863741493065483
 20
25.96904012590471
 10
18.882363367412868
 20
25.882023669079217
 10
18.88337048546792
 20
25.74774537771412
 10
18.865982747174833
 20
25.575000000000003
 10
18.83296938514917
 20
25.323183593750002
 10
18.787695004126288
 20
24.95171875
 10
18.736123707426362
 20
24.51064453125
 10
18.684219598369566
 20
24.05
 10
18.562807523714593
 20
22.950000000000003
 10
17.454893703696644
 20
21.8
 10
17.103108115068707
 20
21.429797638961308
 10
16.723935593806775
 20
21.02149007263633
 10
15.901909053940484
 20
20.11231548420591
 10
15.0257726852169
 20
19.115988554865503
 10
14.132485088755153
 20
18.076021604771856
 10
13.259004865674374
 20
17.035926954081727
 10
12.442290617093692
 20
16.039216922951873
 10
11.71930094413224
 20
15.129403831539044
 10
11.404502386358452
 20
14.720681238275503
 10
11.126994447909144
 20
14.350000000000001
 10
10.906336030588058
 20
14.05
  0
LWPOLYLINE
  5
39
330
17
100
AcDbEntity
  8
C01_120203
100
AcDbPolyline
 90
85
 70
1
 10
75.3
 20
15.64573056889459
 10
74.35000000000001
 20
16.673522997714315
 10
74.28547390938127
 20
17.761761498857165
 10
74.2514359614615
 20
18.38666896708282
 10
74.21902670793058
 20
19.08167018348926
 10
74.18841960612569
 20
19.8376195574119
 10
74.15978811338398
 20
20.64537149818618
 10
74.10914578443881
 20
22.379700717631337
 10
74.06848737979239
 20
24.21149311650814
 10
74.03920055814204
 20
26.0675839695
 10
74.02267297818513
 20
27.874808551290325
 10
74.02029229861897
 20
29.560002136562524
 10
74.02484068982534
 20
30.333973328842887
 10
74.0334461781409
 20
31.05
 10
74.04699268098709
 20
31.860201379467238
 10
74.06168258145019
 20
32.6247710911736
 10
74.0953223410111
 20
34.034568204201946
 10
74.13602498839171
 20
35.31449672488154
 10
74.18545005516005
 20
36.4996620390089
 10
74.3171055731321
 20
38.72612459079295
 10
74.40265508747189
 20
39.837632600042646
 10
74.50356514747159
 20
40.99479894592614
 10
74.57983711755489
 20
41.83305711896131
 10
74.6131965129208
 20
42.20371039286212
 10
74.64229726206977
 20
42.52993777524309
 10
74.66633367517701
 20
42.80265775377272
 10
74.68450006241768
 20
43.012788816119524
 10
74.69599073396695
 20
43.15124944995199
 10
74.7
 20
43.20895814293863
 10
74.72022346153274
 20
43.24096519366999
 10
74.77528734194364
 20
43.276839740248136
 10
74.85678188495177
 20
43.312195184968445
 10
74.9562973342762
 20
43.34264493012634
 10
75.08595395539949
 20
43.40342616231211
 10
75.22704149220176
 20
43.52115421849459
 10
75.37472491199534
 20
43.691013877571756
 10
75.52416918209258
 20
43.9081899184416
 10
75.83574369563274
 20
44.409408370655505
 10
76.08069753172211
 20
44.14523666013008
 10
76.21123904738025
 20
44.022313951480726
 10
76.33514624831538
 20
43.94790871272756
 10
76.46519075194094
 20
43.916709958467145
 10
76.61414417567038
 20
43.92340670329603
 10
76.77318752969245
 20
43.93977273003995
 10
76.85341563154634
 20
43.914880129322185
 10
76.87353516993376
 20
43.82786769689077
 10
76.85225283355646
 20
43.65787422849371
 10
76.77185348909806
 20
43.107886121432834
 10
76.6856996892773
 20
42.41219105355866
 10
76.59611502131739
 20
41.595285909349144
 10
76.50542307244154
 20
40.68166757328224
 10
76.41594742987297
 20
39.69583292983592
 10
76.33001168083489
 20
38.66227886348814
 10
76.17805421224303
 20
36.550000000000004
 10
76.155123620052
 20
36.14400413005596
 10
76.13440327198067
 20
35.679924326113756
 10
76.11585754206683
 20
35.16186875331478
 10
76.09945080434827
 20
34.593945576800415
 10
76.08514743286275
 20
33.98026296171206
 10
76.07291180164809
 20
33.32492907319111
 10
76.0545012561824
 20
31.905740136416952
 10
76.04393416025349
 20
30.369244087609083
 10
76.04092550616362
 20
28.748306247898633
 10
76.05644349271014
 20
25.38456648029448
 10
76.07440011795109
 20
23.70749519466304
 10
76.09877515424017
 20
22.077443402653522
 10
76.12928359387969
 20
20.527276425397055
 10
76.16564042917192
 20
19.089859584024772
 10
76.18592293028225
 20
18.423702877148678
 10
76.2075606524191
 20
17.798058199667796
 10
76.2305179696203
 20
17.217033716723527
 10
76.25475925592356
 20
16.684737593457257
 10
76.28024888536672
 20
16.205277995010377
 10
76.30695123198754
 20
15.782763086524284
 10
76.33483066982382
 20
15.42130103314036
 10
76.36385157291333
 20
15.125
 10
76.38000798701829
 20
14.92186005943264
 10
76.3802407576117
 20
14.756853414323496
 10
76.36544662543619
 20
14.646912329561964
 10
76.33652233123433
 20
14.608969070037439
 10
76.29975217153228
 20
14.631748171081412
 10
76.22796639480976
 20
14.693550838099462
 10
76.12541636219096
 20
14.79012472900643
 10
75.99635343480008
 20
14.917217501717163
 10
75.67569434019896
 20
15.24595032420929
  0
LWPOLYLINE
  5
3A
330
17
100
AcDbEntity
  8
C01_120203
100
AcDbPolyline
 90
185
 70
1
 10
83.92233023175223
 20
16.32864682423924
 10
83.75882194335679
 20
16.681204329210935
 10
83.61639762706695
 20
16.98873097211391
 10
83.49409584404889
 20
17.253876996777556
 10
83.39095515546879
 20
17.479292647031272
 10
83.23831130628722
 20
17.821533799626472
 10
83.15077456885172
 20
18.03665638053465
 10
83.12065343249176
 20
18.145862340390952
 10
83.14025638653682
 20
18.170353629830515
 10
83.20189192031637
 20
18.131332199488483
 10
83.29786852315986
 20
18.05
 10
83.52965010111927
 20
17.85
 10
83.46250164871242
 20
18.650000000000002
 10
83.41369184087397
 20
19.343161241775455
 10
83.37188869434917
 20
20.16604489264301
 10
83.33705910807153
 20
21.103905829460782
 10
83.30916998097457
 20
22.14199892908687
 10
83.28818821199181
 20
23.265579068379388
 10
83.27408070005674
 20
24.459901124196442
 10
83.26681434410288
 20
25.710219973396136
 10
83.26635604306374
 20
27.00179049283658
 10
83.33194136672462
 20
32.285686810168
 10
83.36502682426175
 20
33.562338833683796
 10
83.40472173031466
 20
34.791771788589
 10
83.45099298381689
 20
35.9592405517417
 10
83.5038074837019
 20
37.050000000000004
 10
83.61249536044264
 20
38.93183956406117
 10
83.73148689570706
 20
40.70975540836011
 10
83.86071974309432
 20
42.38337794032306
 10
84.00013155620353
 20
43.95233756737623
 10
84.14965998863381
 20
45.41626469694589
 10
84.3092426939843
 20
46.77478973645826
 10
84.47881732585411
 20
48.02754309333957
 10
84.65832153784237
 20
49.17415517501606
 10
84.84769298354821
 20
50.214256388913974
 10
85.04686931657074
 20
51.147477142459536
 10
85.2557881905091
 20
51.97344784307899
 10
85.47438725896238
 20
52.69179889819857
 10
85.70260417552976
 20
53.30216071524451
 10
85.94037659381031
 20
53.80416370164305
 10
86.1876421674032
 20
54.197438264820406
 10
86.44433854990751
 20
54.48161481220284
 10
86.84658539060791
 20
54.79363144341819
 10
87.35638161808885
 20
55.11804763530718
 10
87.97292196585455
 20
55.45459359507633
 10
88.69540116740927
 20
55.80299952993219
 10
89.5230139562573
 20
56.16299564708128
 10
90.45495506590287
 20
56.534312153730156
 10
91.49041922985023
 20
56.91667925708535
 10
92.62860118160367
 20
57.30982716435338
 10
93.8686956546674
 20
57.71348608274081
 10
95.20989738254572
 20
58.12738621945415
 10
96.65140109874287
 20
58.55125778169996
 10
98.1924015367631
 20
58.98483097668476
 10
99.83209343011067
 20
59.4278360116151
 10
101.56967151228984
 20
59.880003093697496
 10
103.40433051680486
 20
60.34106243013851
 10
105.33526517716001
 20
60.81074422814466
 10
105.8698832201681
 20
60.93889279584873
 10
106.3391795057108
 20
61.05186837143404
 10
106.74765673487744
 20
61.151116409184965
 10
107.09981760875738
 20
61.2380823633859
 10
107.40016482843998
 20
61.31421168832121
 10
107.65320109501462
 20
61.380949838275285
 10
108.03535157319737
 20
61.49203443037725
 10
108.2822906520205
 20
61.582899773966865
 10
108.43003994019888
 20
61.66510950331918
 10
108.57205557948078
 20
61.849816656412116
 10
108.78618933157146
 20
62.224590215296324
 10
109.04072375240074
 20
62.58298921346974
 10
109.33225001446056
 20
62.921969866479365
 10
109.6573592902429
 20
63.2384883898722
 10
110.39469157294302
 20
63.79196390999552
 10
111.22544998043686
 20
64.2190654982157
 10
111.3692487292092
 20
64.27204194062939
 10
111.56832803175439
 20
64.3366591033807
 10
112.09924471424833
 20
64.49250433977225
 10
112.75203286008868
 20
64.66997870714252
 10
113.46052530144543
 20
64.85245970524363
 10
114.15855487048857
 20
65.02332483382779
 10
114.77995439938812
 20
65.16595159264713
 10
115.04124065883717
 20
65.22148105206755
 10
115.25855672031406
 20
65.26371748145381
 10
115.42363168784006
 20
65.29058306827496
 10
115.5281946654364
 20
65.3
 10
115.51819244654428
 20
65.2735910999294
 10
115.40508721372231
 20
65.20168567894514
 10
115.20798278760876
 20
65.09526565588843
 10
114.94598298884189
 20
64.96531294960049
 10
114.36932623808181
 20
64.63549470538192
 10
114.13488646785086
 20
64.4588889058037
 10
113.94043310785563
 20
64.27872032506059
 10
113.78901166319831
 20
64.09816521601336
 10
113.68366763898116
 20
63.9203998315228
 10
113.62744654030642
 20
63.74860042444971
 10
113.62339387227631
 20
63.58594324765488
 10
113.6317686787798
 20
63.474916846026396
 10
113.62354757988028
 20
63.383995828998636
 10
113.60064715062539
 20
63.32256270938528
 10
113.56498396606274
 20
63.30000000000001
 10
113.46192298685817
 20
63.26898045245225
 10
113.25551371080597
 20
63.184521288337066
 10
112.97569951864644
 20
63.0595217254466
 10
112.6524237911199
 20
62.90688098157298
 10
112.01959474365127
 20
62.54526024939581
 10
111.47751692964532
 20
62.11250154373714
 10
111.01168763659376
 20
61.594930630982105
 10
110.60760415198826
 20
60.978873277515824
 10
110.50729672745115
 20
60.80444254855458
 10
110.42215926279871
 20
60.66958439311823
 10
110.26128346723573
 20
60.49110708571059
 10
110.05275527347506
 20
60.38848392107371
 10
109.72435318969242
 20
60.30675746498841
 10
109.33297916878554
 20
60.21880577940718
 10
108.83110289668502
 20
60.101368421650015
 10
108.23416705426239
 20
59.95835743456891
 10
107.55761432238917
 20
59.79368486101583
 10
106.8168873819369
 20
59.611262743842744
 10
106.02742891377709
 20
59.41500312590164
 10
104.36408811782097
 20
58.996619559123275
 10
102.691133381493
 20
58.56983050349653
 10
101.88965748786839
 20
58.36306402449496
 10
101.13210615176538
 20
58.16593230183722
 10
100.43392205405551
 20
57.9823473783753
 10
99.81054787561033
 20
57.81622129696116
 10
99.2774262973013
 20
57.67146610044678
 10
98.85000000000001
 20
57.55199383168414
 10
97.693498292332
 20
57.215397664130094
 10
96.5969491262588
 20
56.883505713589685
 10
95.56109280860561
 20
56.556633553094905
 10
94.58666964619759
 20
56.23509675567777
 10
93.67441994585991
 20
55.91921089437028
 10
92.82508401441774
 20
55.609291542204424
 10
92.03940215869625
 20
55.30565427221222
 10
91.3181146855206
 20
55.00861465742566
 10
90.66196190171597
 20
54.71848827087675
 10
90.07168411410754
 20
54.43559068559748
 10
89.54802162952046
 20
54.160237474619876
 10
89.09171475477991
 20
53.89274421097591
 10
88.70350379671106
 20
53.63342646769761
 10
88.38412906213908
 20
53.38259981781696
 10
88.13433085788914
 20
53.14057983436597
 10
87.95484949078642
 20
52.90768209037664
 10
87.71343636323918
 20
52.45726332614944
 10
87.48039072458843
 20
51.88557121830007
 10
87.25607661065969
 20
51.19537687284983
 10
87.04085805727848
 20
50.389451395819975
 10
86.83509910027038
 20
49.4705658932318
 10
86.6391637754609
 20
48.4414914711066
 10
86.45341611867558
 20
47.304999235465644
 10
86.27822016573995
 20
46.06386029233022
 10
86.11393995247958
 20
44.72084574772161
 10
85.96093951471998
 20
43.27872670766111
 10
85.81958288828669
 20
41.74027427816998
 10
85.69023410900526
 20
40.10825956526952
 10
85.57325721270122
 20
38.38545367498101
 10
85.46901623520012
 20
36.574627713325725
 10
85.37787521232747
 20
34.678552786324964
 10
85.30019817990883
 20
32.7
 10
85.26930347902909
 20
31.706742590772297
 10
85.2444040788557
 20
30.66850389018247
 10
85.21213811732216
 20
28.49992919970625
 10
85.20249416869652
 20
26.27996909815093
 10
85.2145661063671
 20
24.09431675509609
 10
85.22846236799734
 20
23.04113510849998
 10
85.24744780372225
 20
22.028665340121332
 10
85.27140914771537
 20
21.0676190961576
 10
85.30023313415026
 20
20.168708022806236
 10
85.33380649720046
 20
19.342643766264683
 10
85.37201597103947
 20
18.60013797273039
 10
85.41474828984089
 20
17.95190228840081
 10
85.46189018777821
 20
17.408648359473386
 10
85.52680162302468
 20
16.767296718946785
 10
85.22553468037978
 20
16.981817703810577
 10
84.92426773773488
 20
17.19633868867437
 10
84.86213386886743
 20
16.88566934433718
 10
84.8374235749985
 20
16.728548122356262
 10
84.8160744578733
 20
16.53039974489905
 10
84.80036850149084
 20
16.31659383107661
 10
84.79258768985015
 20
16.1125
 10
84.78437653764755
 20
15.897796246031048
 10
84.76749886191334
 20
15.655101928293808
 10
84.74441560014755
 20
15.414198713042692
 10
84.71758768985015
 20
15.204868266532117
 10
84.65
 20
14.759736533064222
  0
LWPOLYLINE
  5
3B
330
17
100
AcDbEntity
  8
C01_120203
100
AcDbPolyline
 90
24
 70
1
 10
50.95
 20
16.447660314824567
 10
50.35061067993638
 20
16.60375672396018
 10
49.78738524689035
 20
16.800151737309925
 10
49.266236070964254
 20
17.034496816991375
 10
48.79307552226043
 20
17.3044434251221
 10
48.60094355122595
 20
17.43128079677666
 10
48.44793094364661
 20
17.539125370255704
 10
48.349521188157134
 20
17.616566583889515
 10
48.32119777339227
 20
17.652193876008393
 10
48.387615512942304
 20
17.65080538219458
 10
48.54716434593398
 20
17.627461040071076
 10
48.775930449306735
 20
17.586142991029295
 10
49.050000000000004
 20
17.530833376460645
 10
49.43807779919631
 20
17.46723626643131
 10
49.889772070180605
 20
17.427978396802086
 10
50.4153303060746
 20
17.412485651315542
 10
51.025000000000006
 20
17.420183913714254
 10
52.300000000000004
 20
17.45735994640612
 10
52.300000000000004
 20
16.878679973203067
 10
52.300000000000004
 20
16.3
 10
51.925000000000004
 20
16.307949983369166
 10
51.73205078125
 20
16.32143352781541
 10
51.483906250000004
 20
16.352269261373976
 10
51.21255859375
 20
16.39587293879399
  0
LWPOLYLINE
  5
3C
330
17
100
AcDbEntity
  8
C01_120203
100
AcDbPolyline
 90
33
 70
1
 10
71.9
 20
16.821426532337
 10
71.63772208812877
 20
16.95148977517536
 10
71.42437171750146
 20
17.06165384484326
 10
71.25810324550226
 20
17.153143664309077
 10
71.13707102951535
 20
17.22718415654119
 10
71.05942942692494
 20
17.285000244507977
 10
71.02333279511517
 20
17.32781685117782
 10
71.06839187337435
 20
17.373351312500187
 10
71.16857713264548
 20
17.408381235392422
 10
71.24713122720419
 20
17.47469827764536
 10
71.30506564484797
 20
17.57352629472963
 10
71.34339187337436
 20
17.706089142115868
 10
71.37014939005525
 20
17.844816173713575
 10
71.40115743790732
 20
18.005269780273924
 10
71.43257182034384
 20
18.16757341607937
 10
71.46054834077817
 20
18.311850535412372
 10
71.52109668155633
 20
18.623701070824747
 10
72.21799403063572
 20
17.936850535412372
 10
72.52324271126342
 20
17.63159587382848
 10
72.76907043721823
 20
17.374863671305995
 10
72.96000979847106
 20
17.160343687421356
 10
73.10059338499278
 20
16.981725681750994
 10
73.19535378675423
 20
16.832699413871353
 10
73.2488235937263
 20
16.706954643358866
 10
73.25002178318583
 20
16.5000686327411
 10
73.2160346384795
 20
16.422714328119923
 10
73.17043615316726
 20
16.359993442191303
 10
73.11919034530392
 20
16.318334083840476
 10
73.0682612329443
 20
16.30416436195269
 10
73.02307438175617
 20
16.315473300868593
 10
72.93949105109014
 20
16.346267929563684
 10
72.6763017371774
 20
16.45782792380856
 10
72.31702686291202
 20
16.62187167972158
  0
LWPOLYLINE
  5
3D
330
17
100
AcDbEntity
  8
C01_120203
100
AcDbPolyline
 90
18
 70
1
 10
62.38083244785803
 20
17.325
 10
62.369023576806114
 20
17.609637664611462
 10
62.36317215114695
 20
17.848697518751592
 10
62.36361146790938
 20
18.01708735287898
 10
62.37067482412224
 20
18.089714957452227
 10
62.40302336681604
 20
18.05479752742904
 10
62.472308488353356
 20
17.930366722803768
 10
62.568348853761016
 20
17.73605203158995
 10
62.68096312806588
 20
17.491482941801145
 10
62.96582967456064
 20
16.853535968697827
 10
62.721484145341485
 20
16.726767984348907
 10
62.62421349630286
 20
16.677546352925937
 10
62.539995868478144
 20
16.637238095402495
 10
62.47784514839535
 20
16.61000278626503
 10
62.44677522258253
 20
16.6
 10
62.43217825063805
 20
16.657207031250003
 10
62.41487963267204
 20
16.812968750000003
 10
62.39704311598015
 20
17.043496093750004
  0
LWPOLYLINE
  5
3E
330
17
100
AcDbEntity
  8
C01_120203
100
AcDbPolyline
 90
123
 70
1
 10
96.26907143831197
 20
16.972197524053843
 10
96.0860657220406
 20
17.006503318304937
 10
96.04669193021195
 20
17.03986728222239
 10
96.0462436568564
 20
17.100256782642273
 10
96.0878505076753
 20
17.199835438545463
 10
96.17464208836995
 20
17.350766868912828
 10
96.30974800464168
 20
17.56521469272524
 10
96.49629786219182
 20
17.855342528963572
 10
96.64244794837903
 20
18.07921957349484
 10
96.76804638990366
 20
18.25650737424599
 10
97.01776841000442
 20
18.520626285739326
 10
97.36582406457264
 20
18.746321346106317
 10
97.61433954918158
 20
18.875579332949545
 10
97.93257349568681
 20
19.032214638009716
 10
98.11149716826768
 20
19.113092633472025
 10
98.36594469187602
 20
19.219173722533963
 10
98.68432418635679
 20
19.346260344843095
 10
99.05504377155492
 20
19.490154940046992
 10
99.90713569348307
 20
19.811577807729343
 10
100.82948541642003
 20
20.149861842761563
 10
101.72935789912538
 20
20.471426562324194
 10
102.14188547500355
 20
20.615445277923335
 10
102.51401810035865
 20
20.74269148359778
 10
102.83416389503564
 20
20.848967618995104
 10
103.09073097887945
 20
20.93007612376287
 10
103.27212747173502
 20
20.981819437548644
 10
103.36676149344731
 20
21.0
 10
103.37966738231972
 20
20.96101255597124
 10
103.39023618870014
 20
20.854858624209765
 10
103.39737727409234
 20
20.69775080520278
 10
103.4
 20
20.505901699437494
 10
103.40591796875
 20
20.31076597614872
 10
103.42203125
 20
20.144709446062926
 10
103.44587890625002
 20
20.025311421904817
 10
103.47500000000001
 20
19.97015121639909
 10
103.57186227789896
 20
19.992942827594312
 10
103.78015375237632
 20
20.085789848909094
 10
104.06924388460281
 20
20.233855986123174
 10
104.40850213574916
 20
20.42230494501631
 10
105.26700427149831
 20
20.916110856109427
 10
105.77439433985592
 20
22.28305542805472
 10
106.19765876996443
 20
23.494645449277204
 10
106.58028144042812
 20
24.73562421955885
 10
106.91947078118504
 20
25.992934292331988
 10
107.21243522217323
 20
27.253518221028948
 10
107.45638319333074
 20
28.50431855908205
 10
107.64852312459564
 20
29.732277859923634
 10
107.78606344590595
 20
30.924338676986025
 10
107.86621258719975
 20
32.067443563701545
 10
107.93048179973044
 20
33.48488712740309
 10
108.69024089986522
 20
33.7521288631471
 10
109.13351598736197
 20
33.922879392175254
 10
109.62779347729644
 20
34.13873834490399
 10
110.68475738969524
 20
34.66106896116997
 10
111.69193608749525
 20
35.22969559135863
 10
112.1239820591812
 20
35.50342456149071
 10
112.48013302113007
 20
35.75519311488356
 10
112.7609523751436
 20
35.96673141324518
 10
112.99694866612441
 20
36.13996297749705
 10
113.16334134186941
 20
36.25701133172129
 10
113.23534985017555
 20
36.300000000000004
 10
113.30308355926485
 20
36.2417320820012
 10
113.4578369302115
 20
36.083081810222275
 10
113.67660705009074
 20
35.848279407989466
 10
113.9363910059778
 20
35.561555098629015
 10
114.59729582112783
 20
34.82311019725802
 10
113.87124673133799
 20
34.321192851881555
 10
113.5288663253995
 20
34.09714883569338
 10
113.13085687552514
 20
33.857921983038146
 10
112.23689520327164
 20
33.36950142492858
 10
111.3272504331831
 20
32.92709449075704
 10
110.90963711101492
 20
32.74538466802436
 10
110.53981128386509
 20
32.60186449372776
 10
109.92962256773018
 20
32.38400280991216
 10
109.86310236038317
 20
31.06700140495608
 10
109.80258163258645
 20
30.193898425027594
 10
109.70815138720828
 20
29.29068707004045
 10
109.42132239931405
 20
27.41446973098869
 10
109.01013550791365
 20
25.47941037999786
 10
108.4821108242202
 20
23.526570009265015
 10
108.07771995605658
 20
22.26439373253143
 10
107.86342232800382
 20
21.6479049501934
 10
107.65443417338255
 20
21.076713753727617
 10
107.46078869425187
 20
20.57749365452389
 10
107.29251909267093
 20
20.176918163972026
 10
107.15965857069878
 20
19.901660793461826
 10
107.10964209020949
 20
19.819361875531666
 10
107.07224033039456
 20
19.7783950543831
 10
106.96362435835856
 20
19.713561594407828
 10
106.75825184705342
 20
19.593561445936054
 10
106.4855634948202
 20
19.43551755563695
 10
106.17500000000001
 20
19.25655287017969
 10
105.4
 20
18.811177272248518
 10
105.4
 20
19.355588636124253
 10
105.39388480953987
 20
19.566973361004134
 10
105.37723453848503
 20
19.7400791618615
 10
105.35259213732385
 20
19.85704254081918
 10
105.32250055654472
 20
19.900000000000002
 10
105.22280885097459
 20
19.882446765333402
 10
105.03905020692939
 20
19.832469615770442
 10
104.78249355181913
 20
19.7540923829664
 10
104.46440781305377
 20
19.651338898576547
 10
104.09606191804326
 20
19.528232994256154
 10
103.68872479419758
 20
19.388798501660492
 10
102.80215256964063
 20
19.07703907826444
 10
101.89484255866263
 20
18.748251281630573
 10
101.05694618054335
 20
18.434625765001062
 10
100.69220042233066
 20
18.293558440826114
 10
100.37861485456256
 20
18.168353181618073
 10
100.12745840464902
 20
18.063033819032206
 10
99.95
 20
17.981624184723785
 10
99.5571484375
 20
17.790937353573053
 10
99.15281250000001
 20
17.602873382268445
 10
98.78457031250001
 20
17.439099692738203
 10
98.5
 20
17.321283706910574
 10
98.02753859863432
 20
17.16901362304037
 10
97.47364687212378
 20
17.030884487053378
 10
96.97209022213086
 20
16.936379836546827
 10
96.78273923884807
 20
16.91470029884786
 10
96.6566340503181
 20
16.914983209117963
 10
96.59306302864734
 20
16.924133206476746
 10
96.49880098728508
 20
16.937970487891544
 10
96.38656482443781
 20
16.954617708653522
  0
LWPOLYLINE
  5
3F
330
17
100
AcDbEntity
  8
C01_120203
100
AcDbPolyline
 90
22
 70
1
 10
81.50704536310604
 20
17.925
 10
81.4403317734207
 20
18.082690759617147
 10
81.32374163866672
 20
18.345719436792557
 10
81.17369538178916
 20
18.67745812901216
 10
81.00661342573305
 20
19.041278933761898
 10
80.84977879722024
 20
19.39592460389449
 10
80.7276336796932
 20
19.702681493938687
 10
80.65233723117801
 20
19.92873710389449
 10
80.63604860970072
 20
20.041278933761898
 10
80.65479146268119
 20
20.031986906159222
 10
80.69594252040244
 20
19.97487460119634
 10
80.83243411559387
 20
19.742864149812615
 10
81.0194531263281
 20
19.396597560856016
 10
81.23092928365826
 20
18.987424815571842
 10
81.44079231863742
 20
18.566695895205388
 10
81.6229719623187
 20
18.185760781001957
 10
81.7513979457552
 20
17.89596945420684
 10
81.78730635583575
 20
17.80129958022655
 10
81.80000000000001
 20
17.748671896065332
 10
81.7647846972178
 20
17.687306303606462
 10
81.6816796395063
 20
17.709806362028438
 10
81.58449610281816
 20
17.795821213452527
  0
LWPOLYLINE
  5
40
330
17
100
AcDbEntity
  8
C01_120203
100
AcDbPolyline
 90
39
 70
1
 10
88.4
 20
23.15221478868441
 10
88.4
 20
23.984489583425603
 10
88.72500000000001
 20
24.08614601740716
 10
88.82294189453125
 20
24.116104249379614
 10
88.97744140625001
 20
24.162489935048654
 10
89.18060302734375
 20
24.222969477567872
 10
89.42453125
 20
24.295209280090866
 10
90.00310546875001
 20
24.46563527776256
 10
90.65
 20
24.655099153292497
 10
91.006103515625
 20
24.759517913483084
 10
91.40539062500001
 20
24.87732331581844
 10
92.279375
 20
25.13694811471688
 10
93.163671875
 20
25.401681685574673
 10
93.95
 20
25.639232163978683
 10
95.65
 20
26.15606847276108
 10
95.67662637905835
 20
28.76064713399819
 10
95.70325275811668
 20
31.365225795235315
 10
96.62662637905834
 20
31.47335986100401
 10
96.99118584394873
 20
31.50965108126442
 10
97.30121029812004
 20
31.528527575186764
 10
97.52389368673774
 20
31.528809498871492
 10
97.6264299549673
 20
31.509317008419046
 10
97.64124368121531
 20
31.429739748633818
 10
97.65402078478533
 20
31.229696949455153
 10
97.66455618755234
 20
30.92256261291724
 10
97.67264481139134
 20
30.521710741054267
 10
97.67808157817733
 20
30.04051533590043
 10
97.68066140978533
 20
29.492350399489915
 10
97.68017922809032
 20
28.89058993385691
 10
97.67642995496732
 20
28.24860794103561
 10
97.65
 20
25.060075792005833
 10
94.5
 20
24.125944562079543
 10
93.16052734375
 20
23.728840792663156
 10
91.84203125
 20
23.3381579843945
 10
91.23807373046876
 20
23.15927298848337
 10
90.69626953125
 20
22.998851490210534
 10
90.23558837890624
 20
22.862512908693116
 10
89.875
 20
22.75587666304823
 10
88.4
 20
22.31993999394321
  0
LWPOLYLINE
  5
41
330
17
100
AcDbEntity
  8
C01_120203
100
AcDbPolyline
 90
47
 70
1
 10
124.4728848433998
 20
23.071439353924305
 10
124.11153847142985
 20
23.650000000000002
 10
124.55022951413673
 20
23.740725039983943
 10
124.8039419032171
 20
23.804829985183826
 10
124.96297812754719
 20
23.907819453100043
 10
125.08670192382621
 20
24.114761714458208
 10
125.15387282916507
 20
24.27754897727978
 10
125.23447702875337
 20
24.490725039983943
 10
125.48003350066315
 20
25.150000000000002
 10
126.01501675033158
 20
25.12396424923013
 10
126.25555962652467
 20
25.109615396178604
 10
126.5150260035022
 20
25.089793214522018
 10
126.76221427532624
 20
25.06711502892966
 10
126.96592283605888
 20
25.044198164070828
 10
127.20514914123684
 20
25.02214384554898
 10
127.35601787666606
 20
25.0536855729966
 10
127.47285352568741
 20
25.16852883211307
 10
127.60998057164184
 20
25.396379108597774
 10
127.83811547116596
 20
25.802290387514176
 10
128.14405773558298
 20
25.517195116732196
 10
128.30718786892962
 20
25.37115408430596
 10
128.52519155559582
 20
25.18426934903412
 10
128.76959227773713
 20
24.980593056334293
 10
129.01191351750913
 20
24.78417735162408
 10
129.18041246772236
 20
24.648103336412195
 10
129.30903912920863
 20
24.538715103353905
 10
129.46070843305694
 20
24.379307949304145
 10
129.49498712316742
 20
24.264579820686876
 10
129.43994089365347
 20
24.153154648714178
 10
129.33972926122883
 20
24.057395870428113
 10
129.172570893378
 20
24.011050456956294
 10
129.04215920049745
 20
24.004064388163588
 10
128.86893784395593
 20
24.00661961193988
 10
128.64421583048534
 20
24.01777877874031
 10
128.3593021668175
 20
24.03660453902003
 10
127.41254958134633
 20
24.103154637909654
 10
127.18854338929087
 20
23.407637843222258
 10
126.96453719723543
 20
22.71212104853487
 10
126.30726859861771
 20
22.652640324900325
 10
126.01987889772957
 20
22.625588680553502
 10
125.7232566106014
 20
22.595903307612783
 10
125.45235206974817
 20
22.56718115073005
 10
125.24211560768488
 20
22.543019154557193
 10
125.0015245693894
 20
22.523801424762436
 10
124.8401726925329
 20
22.573144545490866
 10
124.68748458218111
 20
22.73953002059424
 10
124.59233462852754
 20
22.8817641109902
  0
LWPOLYLINE
  5
42
330
17
100
AcDbEntity
  8
C01_120203
100
AcDbPolyline
 90
129
 70
1
 10
51.33324546380625
 20
22.88510657679292
 10
50.82446853428372
 20
23.110688762469184
 10
50.389499611099865
 20
23.410194059943937
 10
50.028427447082066
 20
23.783450840778595
 10
49.741340795057674
 20
24.23028747653457
 10
49.52832840785407
 20
24.750532338773283
 10
49.3894790382986
 20
25.34401379905615
 10
49.32488143921865
 20
26.010560228944584
 10
49.33462436344158
 20
26.75
 10
49.39937859691971
 20
27.4507836641025
 10
49.507847148221764
 20
28.093071442258623
 10
49.66446526389089
 20
28.68696690071063
 10
49.873668190470276
 20
29.242573605700766
 10
50.13989117450308
 20
29.76999512347129
 10
50.467569462532474
 20
30.279335020264448
 10
50.86113830110162
 20
30.7806968623225
 10
51.3250329367537
 20
31.284184215887695
 10
51.66739293143673
 20
31.608400872012428
 10
52.05908318654012
 20
31.93449516140459
 10
52.50733298445694
 20
32.267110363095
 10
53.01937160758026
 20
32.61088975611449
 10
53.602428338303156
 20
32.970476619493866
 10
54.2637324590187
 20
33.35051423226396
 10
55.01051325211995
 20
33.7556458734556
 10
55.85
 20
34.190514822099594
 10
56.652978511234124
 20
34.60692004707964
 10
57.36084079429734
 20
34.98954533511106
 10
57.65516276402774
 20
35.154930071640685
 10
57.896976973230885
 20
35.29595730657673
 10
58.076707187411934
 20
35.40732286746705
 10
58.18477717207603
 20
35.48372258185952
 10
58.51955434415206
 20
35.76080735111764
 10
58.109777172076036
 20
35.94559110968716
 10
57.95066837948089
 20
36.02263864940237
 10
57.820372044297336
 20
36.09582336274383
 10
57.732333979984126
 20
36.15687829223503
 10
57.7
 20
36.19753648039947
 10
57.74931640625
 20
36.243819900119036
 10
57.88359375
 20
36.32019105414151
 10
58.08232421875
 20
36.41604377978925
 10
58.325
 20
36.52077191438462
 10
58.52647759263318
 20
36.60458972910728
 10
58.68025821903538
 20
36.67432855839218
 10
58.87446300195057
 20
36.80130640552049
 10
58.96708320635302
 20
36.96117974551308
 10
59.017587689850146
 20
37.21342286811348
 10
59.04441560014754
 20
37.44691374401066
 10
59.067498861913336
 20
37.75992414759725
 10
59.08437653764754
 20
38.11152494342544
 10
59.09258768985015
 20
38.46078699604737
 10
59.1
 20
39.271573992094744
 10
59.975
 20
39.500531575947235
 10
60.322030829928664
 20
39.59024072954473
 10
60.62008816389283
 20
39.66524539919746
 10
60.83743176815981
 20
39.717696408213236
 10
60.942321408996875
 20
39.739744579899856
 10
60.960621546042155
 20
39.70461287073555
 10
60.975873908973014
 20
39.600856456170604
 10
60.9881537144779
 20
39.43754814936133
 10
60.997536179245294
 20
39.22376076346404
 10
61.0079099533214
 20
38.68104000703066
 10
61.00759696470902
 20
38.04527669212096
 10
60.99719894691584
 20
37.38905332398542
 10
60.97731763344954
 20
36.784952407874556
 10
60.964008782560114
 20
36.52512990221915
 10
60.948554757817796
 20
36.305556449038846
 10
60.93103077591104
 20
36.13530486148995
 10
60.911512053528305
 20
36.02344795272878
 10
60.848776740625546
 20
35.88013612080246
 10
60.72985835240154
 20
35.74596706942583
 10
60.54153266994239
 20
35.60928289297905
 10
60.270575474334194
 20
35.458425685842315
 10
60.04903171594037
 20
35.34009147943389
 10
59.86760654558567
 20
35.23343564248813
 10
59.745021971021686
 20
35.15015513465424
 10
59.7
 20
35.1019469155814
 10
59.729589843750006
 20
35.06261356735142
 10
59.810156250000006
 20
35.00349731181245
 10
59.929394531250004
 20
34.93260456826318
 10
60.075
 20
34.85794175600229
 10
60.45
 20
34.67884105252642
 10
60.121105624997796
 20
34.40388675064645
 10
60.013786601071615
 20
34.32773240312616
 10
59.83392424023148
 20
34.216242762597396
 10
59.59115721435241
 20
34.07474995782006
 10
59.29512419530938
 20
33.908586117554066
 10
58.58181486523148
 20
33.52357384559574
 10
57.771105624997794
 20
33.1038629768017
 10
56.910532647516405
 20
32.65571243676501
 10
56.0614557160215
 20
32.193265416373706
 10
55.671804764546835
 20
31.973706797301876
 10
55.32171962100223
 20
31.771005343649563
 10
55.02343088419881
 20
31.591971483919483
 10
54.78916915294773
 20
31.44341564661436
 10
53.89664091342852
 20
30.776512367541365
 10
53.100995698311905
 20
30.031274445990995
 10
52.752756452850335
 20
29.643192019934858
 10
52.44464063702433
 20
29.25222036403706
 10
52.18194914201218
 20
28.863924288556824
 10
51.969982858992196
 20
28.48386860375338
 10
51.85137224579762
 20
28.246936094714222
 10
51.75276121091212
 20
28.0636974715785
 10
51.57428327068744
 20
27.81671476057275
 10
51.352039827556325
 20
27.659746225846927
 10
51.19872191403778
 20
27.58902532306112
 10
51.003521670756946
 20
27.50961762251184
 10
50.769185522033354
 20
27.41358836684787
 10
50.577284490784855
 20
27.329330136713484
 10
50.44762163183317
 20
27.26593589931731
 10
50.400000000000006
 20
27.23249862186797
 10
50.43292528867203
 20
27.165843105717773
 10
50.52257335188795
 20
27.012003168888594
 10
50.655252485447505
 20
26.79388530359337
 10
50.81727098515045
 20
26.53439600204504
 10
51.03300458341306
 20
26.174431945337602
 10
51.15648321492291
 20
25.905005973391717
 10
51.20914715650014
 20
25.663986020465636
 10
51.212436684964885
 20
25.389240020817613
 10
51.22901526945332
 20
24.832684543650327
 10
51.317466918763586
 20
24.237594779664775
 10
51.465163247213376
 20
23.666342699138323
 10
51.65947586912037
 20
23.181300272348338
 10
51.752069485918945
 20
22.994677997136773
 10
51.82388691859111
 20
22.84234092684991
 10
51.86780100607171
 20
22.739974607478445
 10
51.876684587295635
 20
22.703264585013063
 10
51.82554829976321
 20
22.718623035665367
 10
51.70604195251118
 20
22.758027311416292
 10
51.53599714177903
 20
22.81551072191057
  0
LWPOLYLINE
  5
43
330
17
100
AcDbEntity
  8
C01_120203
100
AcDbPolyline
 90
140
 70
1
 10
131.0277853832474
 20
23.667882402471776
 10
130.20557076649473
 20
24.328897593040054
 10
130.6120972163425
 20
24.814448796520026
 10
130.7790723338673
 20
25.002698148620006
 10
130.93318992057578
 20
25.156322951567233
 10
131.0573148093558
 20
25.259507939639132
 10
131.13431183309513
 20
25.29643784711311
 10
131.22505808239603
 20
25.284105696329103
 10
131.38661898136846
 20
25.253161317856975
 10
131.59614186316173
 20
25.208274658319045
 10
131.83077406092517
 20
25.154115664337635
 10
132.05384947352388
 20
25.107080214350216
 10
132.2319058610568
 20
25.081589342914754
 10
132.3468963485239
 20
25.079350730834275
 10
132.38077406092518
 20
25.102072058911816
 10
132.347167463581
 20
25.150711332473556
 10
132.26343763036883
 20
25.25163417445423
 10
132.13228238523394
 20
25.40198126817562
 10
131.9563995521216
 20
25.598893296959492
 10
131.7384869549771
 20
25.83951094412762
 10
131.48124241774573
 20
26.120974893001776
 10
131.18736376437278
 20
26.440425826903734
 10
130.8595488188035
 20
26.795004429155266
 10
130.50049540498316
 20
27.181851383078143
 10
130.1129013468571
 20
27.59810737199414
 10
129.26288259346876
 20
28.507409188092577
 10
128.33107515020077
 20
29.500035344024763
 10
127.33906160861534
 20
30.55311130636487
 10
123.20059829034429
 20
34.91242255128816
 10
122.23129313060538
 20
35.9246295442806
 10
121.33127742192251
 20
36.860039143126045
 10
120.52213375585791
 20
37.69577681439867
 10
120.15838349867066
 20
38.069120385499616
 10
119.82544472397382
 20
38.40896802467267
 10
119.51488472114426
 20
38.725674289999496
 10
119.23575112714227
 20
39.01201695246466
 10
118.98689105751527
 20
39.269366305056565
 10
118.76715162781073
 20
39.499092640763585
 10
118.41042315035877
 20
39.88115743347652
 10
118.15634261916593
 20
40.169173674510574
 10
117.99568695861177
 20
40.374103707772846
 10
117.91923309307585
 20
40.50690987717044
 10
117.91775794693773
 20
40.57855452661046
 10
117.98203844457694
 20
40.6
 10
118.0364669598024
 20
40.61969465488793
 10
118.12078831295217
 20
40.676063240734564
 10
118.36370853365767
 20
40.88252993240097
 10
118.67999710795952
 20
41.18681552919332
 10
119.03885203712379
 20
41.55633548530571
 10
119.76105296510381
 20
42.360740292266996
 10
120.0627949664517
 20
42.730456051504085
 10
120.28389532772627
 20
43.03506798683759
 10
120.64676024099155
 20
43.65013768429827
 10
120.96130694419787
 20
44.30610295853142
 10
121.22753269435509
 20
44.99767789814587
 10
121.44543474847308
 20
45.719576591750425
 10
121.61501036356167
 20
46.466513127953924
 10
121.73625679663073
 20
47.23320159536519
 10
121.80917130469012
 20
48.01435608259304
 10
121.83375114474968
 20
48.80469067824631
 10
121.8099935738193
 20
49.59891947093381
 10
121.73789584890879
 20
50.39175654926437
 10
121.61745522702805
 20
51.17791600184682
 10
121.44866896518691
 20
51.95211191728997
 10
121.23153432039523
 20
52.709058384202656
 10
120.96604854966287
 20
53.443469491193696
 10
120.65220890999969
 20
54.15005932687192
 10
120.29001265841553
 20
54.82354197984614
 10
119.8173570990785
 20
55.54605800768233
 10
119.26151298283317
 20
56.27318496184007
 10
118.69028008791257
 20
56.922143836870475
 10
118.42008027914689
 20
57.19144180551015
 10
118.17145819254979
 20
57.410155627324656
 10
117.98141849323864
 20
57.56889072385683
 10
117.86625712504538
 20
57.677688106386185
 10
117.82690741173144
 20
57.73633986115224
 10
117.8643026770582
 20
57.74463807439453
 10
117.97937624478705
 20
57.70237483235259
 10
118.17306143867937
 20
57.60934222126595
 10
118.44629158249656
 20
57.46533232737413
 10
118.80000000000001
 20
57.27013723691667
 10
119.19497888647041
 20
57.018276424290946
 10
119.62978077746477
 20
56.6881323047591
 10
120.08591443610676
 20
56.29790173422809
 10
120.54488862552002
 20
55.86578156860489
 10
121.39739364915486
 20
54.948659875709765
 10
121.75394200962376
 20
54.50005206025178
 10
122.03936595335847
 20
54.082342073329464
 10
122.57682792344235
 20
53.10497244366024
 10
123.01423917805056
 20
52.085071319326595
 10
123.3509241601622
 20
51.02670114344689
 10
123.58620731275636
 20
49.93392435913948
 10
123.71941307881214
 20
48.810803409522734
 10
123.74986590130862
 20
47.661400737715
 10
123.67689022322492
 20
46.489778786834634
 10
123.49981048754012
 20
45.300000000000004
 10
123.33583663580562
 20
44.555035266761784
 10
123.1383975947667
 20
43.870892194980705
 10
122.90153581737921
 20
43.236293936394524
 10
122.619293756599
 20
42.63996364274098
 10
122.28571386538195
 20
42.07062446575782
 10
121.8948385966839
 20
41.516999557182785
 10
121.44071040346071
 20
40.96781206875364
 10
120.91737173866824
 20
40.41178515220811
 10
119.88474347733649
 20
39.373115570359715
 10
120.31737173866823
 20
38.91486678874014
 10
120.4461184509299
 20
38.77984012968897
 10
120.64711099326347
 20
38.57079810068947
 10
120.9101667106908
 20
38.298256190345555
 10
121.2251029482338
 20
37.972729887261124
 10
121.58173705091434
 20
37.60473468004009
 10
121.9698863637543
 20
37.20478605728636
 10
122.80000000000001
 20
36.35109051959648
 10
123.0917659520998
 20
36.050422626293134
 10
123.41449347433637
 20
35.71602717350718
 10
124.14223737313067
 20
34.957360368471846
 10
124.96203998420468
 20
34.09770366245931
 10
125.85270959538016
 20
33.1596706134384
 10
126.79305449447887
 20
32.165874779377944
 10
127.76188296932256
 20
31.138929718246754
 10
129.7002237975319
 20
29.076046146647492
 10
130.62735272654103
 20
28.08533475211707
 10
131.4981983825822
 20
27.151928362391217
 10
132.29156905347713
 20
26.298440535438758
 10
132.98627302704756
 20
25.547484829228516
 10
133.2900025922804
 20
25.217523258266986
 10
133.56111859111525
 20
24.921674801729317
 10
133.79697205952988
 20
24.66276615436162
 10
133.994914033502
 20
24.44362401090999
 10
134.1522955490093
 20
24.267075066120533
 10
134.2664676420295
 20
24.135946014739353
 10
134.33478134854036
 20
24.05306355151255
 10
134.35458770451956
 20
24.02125437118623
 10
134.28873167014495
 20
24.018505930690697
 10
134.13247302324083
 20
24.034074890883034
 10
133.90918557052842
 20
24.0650922966734
 10
133.64224311872897
 20
24.10868919297195
 10
132.96108267646022
 20
24.227308158279495
 10
132.4055413382301
 20
23.617087685091498
 10
131.85
 20
23.0068672119035
  0
LWPOLYLINE
  5
44
330
17
100
AcDbEntity
  8
C01_120203
100
AcDbPolyline
 90
105
 70
1
 10
144.9481407325142
 20
23.239356841931794
 10
144.65566428448787
 20
23.428701029565328
 10
144.34126605631218
 20
23.72561498484281
 10
144.06518923358044
 20
24.065163643503997
 10
143.88767700188606
 20
24.38241194128865
 10
143.7244162634759
 20
24.92507082907497
 10
143.6745435719881
 20
25.227718453563124
 10
143.64416060974946
 20
25.582255007228262
 10
143.63200583483817
 20
26.011938096655623
 10
143.6368177053324
 20
26.540025328430442
 10
143.6573346793104
 20
27.18977430913796
 10
143.6922952148503
 20
27.984442645363416
 10
143.74179344021906
 20
28.94504958985728
 10
143.80189353825662
 20
29.97943243310269
 10
143.87200590451886
 20
31.081789265478687
 10
143.95154093456165
 20
32.246318177364316
 10
144.0399090239408
 20
33.46721725913862
 10
144.13652056821215
 20
34.73868460118065
 10
144.35211560365497
 20
37.410116427584065
 10
144.59360920533692
 20
40.21419837960692
 10
144.85628453770477
 20
43.10451518028159
 10
145.42631305228548
 20
48.95819221971578
 10
145.72423256339195
 20
51.82872190454003
 10
146.0244664629716
 20
54.599825330145556
 10
146.17397729732846
 20
55.9335874216889
 10
146.32229791547118
 20
57.2250872195647
 10
146.46883871295557
 20
58.468522814151996
 10
146.61301008533755
 20
59.65809229582983
 10
146.75422242817288
 20
60.78799375497725
 10
146.89188613701748
 20
61.85242528197332
 10
147.02541160742717
 20
62.84558496719705
 10
147.15420923495782
 20
63.761670901027514
 10
147.27768941516527
 20
64.59488117384373
 10
147.39526254360536
 20
65.33941387602479
 10
147.50633901583393
 20
65.9894670979497
 10
147.61032922740688
 20
66.53923892999751
 10
147.69427346933696
 20
66.93656957227171
 10
147.77428477287543
 20
67.26354921776769
 10
147.85676509396077
 20
67.53396190322356
 10
147.94811638853153
 20
67.7615916653774
 10
148.1830397218831
 20
68.14363856673143
 10
148.5302704204381
 20
68.51996221573458
 10
148.9159427415439
 20
68.85020505620584
 10
149.29902010213104
 20
69.0881661800756
 10
149.67584941170136
 20
69.23377519283467
 10
150.0427775797566
 20
69.28696169997382
 10
150.39615151579858
 20
69.2476553069838
 10
150.7323181293291
 20
69.11578561935539
 10
151.0476243298499
 20
68.8912822425794
 10
151.33841702686283
 20
68.57407478214655
 10
151.44324136718438
 20
68.43498582712276
 10
151.5185374663756
 20
68.32801160396248
 10
151.5817196442417
 20
68.1891604300964
 10
151.53031296621043
 20
68.11502741427617
 10
151.3666668380311
 20
68.06311871022966
 10
151.21943698114737
 20
68.0021733151236
 10
151.04094291035423
 20
67.8909784521105
 10
150.64003453672763
 20
67.56385824151351
 10
150.2636865365271
 20
67.17379391673934
 10
150.11589293251657
 20
66.98391891100479
 10
150.01164372912848
 20
66.8128213160887
 10
149.807904667454
 20
66.30818369593788
 10
149.7129396998606
 20
65.99033875998367
 10
149.61916402522405
 20
65.6139479793961
 10
149.52401733163998
 20
65.16786503363957
 10
149.42493930720414
 20
64.64094360217845
 10
149.3193696400122
 20
64.02203736447713
 10
149.2047480181599
 20
63.300000000000004
 10
149.0741940158164
 20
62.429117860297055
 10
148.93928124599094
 20
61.48103533278868
 10
148.80055759802272
 20
60.46147008296318
 10
148.65857096125106
 20
59.37613977630886
 10
148.51386922501518
 20
58.23076207831402
 10
148.36700027865436
 20
57.03105465446698
 10
148.21851201150787
 20
55.78273517025602
 10
148.06895231291494
 20
54.49152129116945
 10
147.76881017874686
 20
51.80328101032272
 10
147.47095699086424
 20
49.012075135833214
 10
146.89964991281173
 20
43.303731901551586
 10
146.63496225207
 20
40.478077189572325
 10
146.3900959964701
 20
37.732422179576005
 10
146.16943426072612
 20
35.11250819546906
 10
146.06954981114825
 20
33.86399825184487
 10
145.97736015955212
 20
32.66407656115793
 10
145.89341319527702
 20
31.51846078889654
 10
145.8182568076622
 20
30.43286860054902
 10
145.75243888604695
 20
29.41301766160366
 10
145.69650731977046
 20
28.46462563754877
 10
145.65100999817207
 20
27.593410193872664
 10
145.616494810591
 20
26.805088996063624
 10
145.59350964636653
 20
26.10537970960997
 10
145.5826023948379
 20
25.5
 10
145.5808464765069
 20
25.082488765036377
 10
145.58359104161096
 20
24.730990333097516
 10
145.59140671175925
 20
24.43790228266065
 10
145.604864108561
 20
24.195622192203015
 10
145.6509865685617
 20
23.83307620513434
 10
145.72652339448675
 20
23.58253299970933
 10
145.80481907443018
 20
23.38621281836491
 10
145.8318048441892
 20
23.267271070156454
 10
145.80791181554918
 20
23.199710286724432
 10
145.7335711002954
 20
23.15753299970933
 10
145.5621316352302
 20
23.113186046293947
 10
145.38094146492367
 20
23.111326237061242
 10
145.17970852035768
 20
23.153025769708194
  0
LWPOLYLINE
  5
45
330
17
100
AcDbEntity
  8
C01_120203
100
AcDbPolyline
 90
113
 70
1
 10
25.837085365921634
 20
24.475
 10
25.863101584724404
 20
24.679785156250002
 10
25.893527720141062
 20
24.96015625
 10
25.924577844170532
 20
25.27919921875
 10
25.952466028811727
 20
25.6
 10
26.13355119617335
 20
27.41855122673906
 10
26.369304587386125
 20
29.206194697612343
 10
26.496794223469887
 20
30.015085526805446
 10
26.624885743356277
 20
30.728240819679456
 10
26.749224089658572
 20
31.316324377116825
 10
26.80862486728233
 20
31.554296692822533
 10
26.865454204990044
 20
31.75
 10
27.04994148787721
 20
32.210491190300125
 10
27.315225504982934
 20
32.61487636305594
 10
27.496611289806687
 20
32.81873723059742
 10
27.720330259311798
 20
33.03582123904404
 10
27.993760413873833
 20
33.27521160349288
 10
28.32427975386837
 20
33.545991539041005
 10
28.715145609872536
 20
33.84924940850894
 10
29.16687857386092
 20
34.18234683042435
 10
29.675634182524956
 20
34.54307743069708
 10
30.23756797255608
 20
34.92923483523699
 10
30.848835480645718
 20
35.33861266995392
 10
31.505592243485303
 20
35.76900456075771
 10
32.20399379776627
 20
36.218204133558224
 10
32.94019568018006
 20
36.68400501426531
 10
34.510622576171805
 20
37.656585203038574
 10
36.18611722499201
 20
38.6690941343563
 10
37.93592392017212
 20
39.703880815497286
 10
39.72928695524361
 20
40.7432942537403
 10
43.32365921918655
 20
42.76539743064765
 10
45.06315703512093
 20
43.712785183869556
 10
46.72318836507253
 20
44.59419572330867
 10
48.27299750257281
 20
45.3919780562438
 10
48.99695759088228
 20
45.75399271004699
 10
49.681828741153225
 20
46.08848118995371
 10
50.32376649007707
 20
46.393237121873845
 10
50.91892637434525
 20
46.66605413171722
 10
51.46346393064919
 20
46.90472584539369
 10
51.95353469568033
 20
47.107045888813104
 10
52.605631467717764
 20
47.36109825123524
 10
53.36842543994912
 20
47.64964549466444
 10
54.22295099260377
 20
47.96612705956613
 10
55.150242505911095
 20
48.30398238640574
 10
57.14726093540126
 20
49.01757208776042
 10
59.20775577025462
 20
49.737930122451914
 10
60.21439279026593
 20
50.08424586596253
 10
61.18000205230617
 20
50.41257201420363
 10
62.085617936604706
 20
50.716348007640654
 10
62.912274823390916
 20
50.98901328673901
 10
63.64100709289418
 20
51.224007291964135
 10
64.25284912534386
 20
51.41476946378146
 10
64.72883530096934
 20
51.55473924265641
 10
64.90995568629468
 20
51.60362680988594
 10
65.05
 20
51.63735606905441
 10
65.18653233882608
 20
51.66282199002378
 10
65.23515375661111
 20
51.65625863968785
 10
65.17359627422803
 20
51.60639430271798
 10
64.97959191254982
 20
51.501957263785535
 10
64.82596340849786
 20
51.425751570043154
 10
64.63087269244946
 20
51.331675807561886
 10
64.39153626701376
 20
51.21832101192566
 10
64.10517063479989
 20
51.084278218718396
 10
63.76899229841697
 20
50.92813846352401
 10
63.38021776047411
 20
50.74849278192642
 10
62.93606352358044
 20
50.543932209509556
 10
62.43374609034507
 20
50.313047781857335
 10
59.66770077776313
 20
49.026430575443484
 10
56.968462880611945
 20
47.74037366128614
 10
55.685270983713366
 20
47.11751082210794
 10
54.46843006574105
 20
46.518734665959
 10
53.3344898350512
 20
45.95202739616104
 10
52.300000000000004
 20
45.42537121603578
 10
49.92938739111661
 20
44.1944716500412
 10
47.643564044200055
 20
42.986000394172486
 10
45.45048744413842
 20
41.804832268902665
 10
43.35811507581978
 20
40.65584209470478
 10
41.37440442413224
 20
39.54390469205189
 10
39.50731297396386
 20
38.473894881417024
 10
37.76479821020275
 20
37.45068748327323
 10
36.154817617736974
 20
36.47915731809355
 10
34.68532868145463
 20
35.56417920635103
 10
34.00575529840977
 20
35.129420551916525
 10
33.364288886243784
 20
34.71062796851871
 10
32.76192413056771
 20
34.3084108087167
 10
32.19965571699254
 20
33.92337842506963
 10
31.67847833112929
 20
33.556140170136636
 10
31.19938665858897
 20
33.20730539647684
 10
30.763375384982595
 20
32.87748345664939
 10
30.37143919592117
 20
32.56728370321339
 10
30.024572777015702
 20
32.277315488727986
 10
29.72377081387721
 20
32.0081881657523
 10
29.4700279921167
 20
31.760511086845483
 10
29.264338997345185
 20
31.53489360456664
 10
29.10769851517367
 20
31.33194507147492
 10
29.00110123121317
 20
31.15227484012944
 10
28.89295611434691
 20
30.881355810483555
 10
28.77915945990231
 20
30.50861994094636
 10
28.662301218811905
 20
30.046766960515587
 10
28.544971342008232
 20
29.508496598188966
 10
28.429759780423826
 20
28.90650858296422
 10
28.319256484991218
 20
28.25350264383908
 10
28.122734496311548
 20
26.845235909878525
 10
27.942384381713197
 20
25.35
 10
26.946192190856596
 20
24.731687971099884
 10
26.552777904178274
 20
24.491081280908915
 10
26.218018207280178
 20
24.293040509178592
 10
25.977350008682567
 20
24.158073468408915
 10
25.903374255159026
 20
24.120651288540568
 10
25.866210216905706
 20
24.106687971099884
 10
25.837989619987948
 20
24.13368100107126
 10
25.82309150640274
 20
24.212120841510593
 10
25.822471535322997
 20
24.329922253969603
  0
LWPOLYLINE
  5
46
330
17
100
AcDbEntity
  8
C01_120203
100
AcDbPolyline
 90
50
 70
1
 10
168.4773697145946
 20
24.683742308315846
 10
168.09952862629729
 20
24.87014669180587
 10
167.78975347186486
 20
25.0330104596711
 10
167.5800364387973
 20
25.154803431463417
 10
167.5226972763691
 20
25.194820187442197
 10
167.50236971459458
 20
25.217995426734706
 10
167.56124682532644
 20
25.277405574286277
 10
167.72330756064503
 20
25.388901435950647
 10
167.96376350342413
 20
25.536525480826512
 10
168.25782623653745
 20
25.704320178012566
 10
169.01565247307494
 20
26.122649502555717
 10
168.9505268670353
 20
26.59616921907732
 10
168.920374289528
 20
26.863192059471963
 10
168.93481716496916
 20
27.01811702091762
 10
169.011408332309
 20
27.108182167006895
 10
169.16770063049785
 20
27.180625561332377
 10
169.3440261269181
 20
27.236572224796657
 10
169.61095247275767
 20
27.303204722231147
 10
169.95712072068883
 20
27.37871680646032
 10
170.3711719233838
 20
27.461302230308654
 10
170.84174713351484
 20
27.549154746600628
 10
171.35748740375422
 20
27.640468108160718
 10
172.47902733524688
 20
27.826252378383142
 10
173.64492013923982
 20
28.004205063571746
 10
174.764294237111
 20
28.159876186322343
 10
175.27813940293154
 20
28.224840543844575
 10
175.7462780502384
 20
28.27881576923074
 10
176.15735123170379
 20
28.319995615305306
 10
176.5
 20
28.34657383489275
 10
177.35000000000002
 20
28.398679571129662
 10
176.8
 20
28.245616825618004
 10
176.09856400081878
 20
28.04022828708476
 10
175.34097300941477
 20
27.80055360545334
 10
173.77902917789058
 20
27.26244596321496
 10
173.0355279017466
 20
26.986063077767493
 10
172.3575747613321
 20
26.719494199540833
 10
171.77559553863523
 20
26.473764366114725
 10
171.32001601564403
 20
26.259898615068916
 10
170.8603564094984
 20
26.026293019379604
 10
170.88677908400297
 20
25.528464607182855
 10
170.91320175850757
 20
25.030636194986098
 10
170.2141178752191
 20
24.61531809749305
 10
169.9401109169481
 20
24.454747690216376
 10
169.7108380150818
 20
24.324567744206366
 10
169.5503048234707
 20
24.238119027545398
 10
169.4825169959653
 20
24.20874230831585
 10
169.45613348128268
 20
24.220014845988473
 10
169.3931446476679
 20
24.24892742870106
 10
169.17384172122698
 20
24.351879760496132
 10
168.85758961181256
 20
24.50201336620106
  0
LWPOLYLINE
  5
47
330
17
100
AcDbEntity
  8
C01_120203
100
AcDbPolyline
 90
162
 70
1
 10
155.45000000000002
 20
26.55288364858906
 10
155.2936721370859
 20
26.608955754567887
 10
155.16372003509207
 20
26.655100143940572
 10
155.0736909241412
 20
26.686538965036057
 10
155.03713203435598
 20
26.698494366183276
 10
155.02131506998487
 20
26.724723506813675
 10
154.98776149852782
 20
26.795026470066336
 10
154.94139319498487
 20
26.89868978983165
 10
154.88713203435597
 20
27.025000000000002
 10
154.85548672529163
 20
27.161159752233356
 10
154.82802722722212
 20
27.402338220925643
 10
154.80475655982792
 20
27.73745361677185
 10
154.78567774278946
 20
28.155424150466978
 10
154.7707937957872
 20
28.645168032706007
 10
154.76010773850157
 20
29.195603474183926
 10
154.75134137180206
 20
30.434221877636407
 10
154.7843161809424
 20
33.152158665987635
 10
154.82610567166938
 20
34.45416842200622
 10
154.85333650745366
 20
35.05214737790871
 10
154.88479542975904
 20
35.6
 10
155.0355532732357
 20
37.81037009156322
 10
155.20645213377483
 20
40.1002728375498
 10
155.39525316374898
 20
42.448887095110074
 10
155.59971751553073
 20
44.83539172139436
 10
156.04668079400727
 20
49.638787508736314
 10
156.2847020254472
 20
52.01403638409465
 10
156.52943118818496
 20
54.34389105677833
 10
156.7786294345931
 20
56.607530383937686
 10
157.03005791704425
 20
58.78413322272306
 10
157.28147778791094
 20
60.85287843028476
 10
157.5306501995657
 20
62.792944863773144
 10
157.65369396830505
 20
63.708216933099315
 10
157.77533630438114
 20
64.58351138033854
 10
157.89529735184055
 20
65.41622556263457
 10
158.01329725472982
 20
66.20375683713124
 10
158.12905615709553
 20
66.94350256097233
 10
158.24229420298425
 20
67.63286009130164
 10
158.35273153644258
 20
68.26922678526293
 10
158.46008830151706
 20
68.85000000000001
 10
158.58184923652337
 20
69.46781150838166
 10
158.6902175871228
 20
69.97145186464786
 10
158.79047801622923
 20
70.37632001760768
 10
158.88791518675652
 20
70.69781491607023
 10
158.98781376161864
 20
70.95133550884456
 10
159.09545840372942
 20
71.1522807447398
 10
159.35512454135264
 20
71.45804094112928
 10
159.6367499366689
 20
71.66862622326747
 10
160.00932303589727
 20
71.8725225607681
 10
160.4694222125188
 20
72.06866245201209
 10
161.0136258400146
 20
72.25597839538032
 10
161.63851229186585
 20
72.43340288925371
 10
162.34065994155358
 20
72.59986843201314
 10
163.11664716255893
 20
72.75430752203951
 10
163.963052328363
 20
72.89565265771374
 10
164.526780328241
 20
72.98180861971106
 10
165.03640626321965
 20
73.05983886049589
 10
165.4359407799669
 20
73.12116152932924
 10
165.5769270835875
 20
73.14287569590822
 10
165.66939452515066
 20
73.15719477547222
 10
165.84393992227675
 20
73.1966716434526
 10
165.9488199165454
 20
73.26985218139508
 10
166.01058972251045
 20
73.41086802926523
 10
166.05580455472568
 20
73.6538508270286
 10
166.12514985585796
 20
73.929326634362
 10
166.1956841273136
 20
74.06230220220006
 10
166.30699647750416
 20
74.21243260910063
 10
166.47173965503612
 20
74.39496515227489
 10
166.70256640851593
 20
74.62514712893406
 10
167.01212948655004
 20
74.9182258362893
 10
167.41308163774488
 20
75.2894485715518
 10
168.7033432163397
 20
76.47815491393625
 10
170.35453765776185
 20
77.05307793414507
 10
171.00135731899468
 20
77.28555950263834
 10
171.5418830799486
 20
77.49355199114635
 10
171.7546149000532
 20
77.58126761542174
 10
171.91956822776672
 20
77.65434431171981
 10
172.02967472398203
 20
77.70994319404693
 10
172.07786604959202
 20
77.74522537640942
 10
172.12673410949415
 20
77.76923108701094
 10
172.2440829345194
 20
77.8024656568848
 10
172.42090843136543
 20
77.84343678366021
 10
172.64820650672988
 20
77.89065216496631
 10
173.21820401980474
 20
77.99784648168743
 10
173.88204272732526
 20
78.11211018808163
 10
174.56768988287277
 20
78.22150486518238
 10
175.20311274002856
 20
78.31409209402317
 10
175.47947982345372
 20
78.35035215941903
 10
175.71627855237392
 20
78.37793345563746
 10
175.90450483348684
 20
78.39534368030763
 10
176.03515457349013
 20
78.40109053105873
 10
176.06193876283453
 20
78.37693898865638
 10
175.99799370072066
 20
78.31198599474081
 10
175.85600172662205
 20
78.21613446706401
 10
175.64864518001218
 20
78.09928732337804
 10
175.12756833695738
 20
77.79737523745567
 10
174.6919191357768
 20
77.48607224387311
 10
174.3486597412344
 20
77.17097731224892
 10
174.1047523180941
 20
76.85768941220162
 10
173.94880253169197
 20
76.66132685305368
 10
173.83649618362318
 20
76.57794475325606
 10
173.67937883515768
 20
76.49417515332024
 10
173.4610079634317
 20
76.40232783825437
 10
173.16494104558154
 20
76.29471259306663
 10
172.77473555874346
 20
76.16363920276521
 10
172.27394898005372
 20
76.00141745235827
 10
170.65
 20
75.47984287445841
 10
169.32500000000002
 20
74.28197028499424
 10
168.0
 20
73.08409769553008
 10
168.0
 20
72.59999437434695
 10
167.9989503459134
 20
72.41942295376936
 10
167.98568690027454
 20
72.28361898821665
 10
167.9450379380148
 20
72.18430853244092
 10
167.86183173406548
 20
72.1132176411943
 10
167.720896563358
 20
72.06207236922884
 10
167.50706070082367
 20
72.02259877129669
 10
167.2051524213939
 20
71.98652290214993
 10
166.8
 20
71.94557081654067
 10
166.1090582056016
 20
71.85924924278626
 10
165.3806992396104
 20
71.73729847702573
 10
163.9138503390754
 20
71.41272887368379
 10
163.22642067764446
 20
71.22321978820118
 10
162.60369439084647
 20
71.02430101491
 10
162.07120161523787
 20
70.82252742985962
 10
161.65447248737507
 20
70.62445390909946
 10
161.2622823449649
 20
70.35751908762771
 10
160.98650375947972
 20
70.01855767344752
 10
160.87741117229547
 20
69.79646069272093
 10
160.7795923203962
 20
69.52562950217221
 10
160.68710415246653
 20
69.19582158125303
 10
160.59400361719102
 20
68.79679440941504
 10
160.44303878172656
 20
68.06038086286415
 10
160.2864134722229
 20
67.21146690195286
 10
160.12486880157948
 20
66.25775285825436
 10
159.95914588269568
 20
65.2069390633418
 10
159.78998582847098
 20
64.0667258487884
 10
159.61812975180476
 20
62.8448135461673
 10
159.44431876559648
 20
61.54890248705171
 10
159.26929398274552
 20
60.186693003014796
 10
159.09379651615137
 20
58.76588542562973
 10
158.9185674787134
 20
57.294180086469716
 10
158.57187914290384
 20
54.22887744911751
 10
158.23515787851218
 20
51.05238774354362
 10
157.91433258873388
 20
47.82631362233347
 10
157.61533217676433
 20
44.61225773807252
 10
157.34408554579898
 20
41.471822743346195
 10
157.2207226804414
 20
39.94846390849147
 10
157.10652159903316
 20
38.466611290739934
 10
157.0022234144737
 20
37.03396522166478
 10
156.90856923966237
 20
35.65822603283918
 10
156.82630018749865
 20
34.34709405583632
 10
156.75615737088197
 20
33.10826962222937
 10
156.69888190271172
 20
31.94945306359152
 10
156.65521489588738
 20
30.87834471149594
 10
156.62589746330832
 20
29.902644897515827
 10
156.611670717874
 20
29.03005395322434
 10
156.61327577248386
 20
28.268272210194674
 10
156.63145374003727
 20
27.625
 10
156.68772943531442
 20
26.400000000000002
 10
156.2688647176572
 20
26.404389282405784
 10
156.07466490150438
 20
26.41746435023172
 10
155.8555415108118
 20
26.44982008146451
 10
155.63836354412766
 20
26.49658400471375
  0
LWPOLYLINE
  5
48
330
17
100
AcDbEntity
  8
C01_120203
100
AcDbPolyline
 90
74
 70
1
 10
91.10045476104766
 20
32.725
 10
91.10564970252037
 20
33.05475592026668
 10
91.11945817091915
 20
33.49058577742842
 10
91.1397783990114
 20
33.975770216027804
 10
91.16450861956456
 20
34.4535898806074
 10
91.22810771703382
 20
35.5571797612148
 10
91.8390538585169
 20
35.7342515097482
 10
91.99095812446267
 20
35.7789932040581
 10
92.1890760589128
 20
35.83846326362988
 10
92.69047545317412
 20
35.99131091603174
 10
93.27629708099654
 20
36.172239341899086
 10
93.87958598207581
 20
36.360693416177206
 10
95.30917196415163
 20
36.81006357407282
 10
95.28755149028498
 20
37.58003178703641
 10
95.29026292871865
 20
37.977945831327396
 10
95.32358791878498
 20
38.35856585761853
 10
95.39043866962987
 20
38.74416667340051
 10
95.49372739039916
 20
39.15702308616401
 10
95.72152376438
 20
39.96404617232802
 10
96.86621910360284
 20
40.2432325314179
 10
97.31353198844214
 20
40.348778208368714
 10
97.68526691483893
 20
40.42977137298181
 10
97.94267877289997
 20
40.47823934527196
 10
98.0164057044629
 20
40.48778492180053
 10
98.04702245273191
 20
40.4862094452539
 10
98.04465281783406
 20
40.44366237312642
 10
98.0238398282633
 20
40.33578218050222
 10
97.98636918783325
 20
40.16980580876782
 10
97.9340266003575
 20
39.95297019930973
 10
97.79186839952337
 20
39.395669032768524
 10
97.61165085626986
 20
38.72177421197071
 10
97.47549144902459
 20
38.216451633717895
 10
97.36922978916549
 20
37.80460905599276
 10
97.2901019190205
 20
37.47062398971045
 10
97.23534388091751
 20
37.198873945786076
 10
97.18788147014926
 20
36.7795889686717
 10
97.20473089548409
 20
36.42177421197071
 10
97.22265533173591
 20
36.194556363411444
 10
97.22355477999886
 20
35.99990663828168
 10
97.20829921694376
 20
35.858207676002614
 10
97.17775861924139
 20
35.78984211599544
 10
97.12328431718335
 20
35.76611055231089
 10
97.0027032962987
 20
35.7214558614979
 10
96.8236430078924
 20
35.65846535318966
 10
96.59373090326935
 20
35.57972633701935
 10
96.01186105059269
 20
35.385352019625266
 10
95.3181133487081
 20
35.159031386381116
 10
94.61383418128003
 20
34.93019462951675
 10
94.003289546183
 20
34.72896948048346
 10
93.7536048756819
 20
34.64550650449648
 10
93.5518784751715
 20
34.57710072517888
 10
93.4062852236211
 20
34.52647024076788
 10
93.325
 20
34.496333149500664
 10
93.20222317553026
 20
34.42420564380711
 10
93.13443693847185
 20
34.29109172715411
 10
93.11607140780639
 20
34.18098042863541
 10
93.1053408650952
 20
34.03080120407796
 10
93.10020775737205
 20
33.83228027904881
 10
93.09863453167077
 20
33.57714387911499
 10
93.09672740648915
 20
33.163592200440036
 10
93.08556826806291
 20
32.852661533003605
 10
93.05467080313441
 20
32.62772195610729
 10
92.993548698446
 20
32.472143549052674
 10
92.89171564074006
 20
32.36929639114136
 10
92.73868531675895
 20
32.30255056167494
 10
92.52397141324502
 20
32.255276139955
 10
92.23708761694066
 20
32.21084320528314
 10
91.84414492286444
 20
32.1522239521951
 10
91.55382589206573
 20
32.11471628735171
 10
91.35065634820431
 20
32.10531996697746
 10
91.2191621149399
 20
32.13103474729682
 10
91.1438690159323
 20
32.198860384534285
 10
91.1093028748412
 20
32.315796634914314
 10
91.09998951532641
 20
32.48884325466139
  0
LWPOLYLINE
  5
49
330
17
100
AcDbEntity
  8
C01_120203
100
AcDbPolyline
 90
211
 70
1
 10
12.737660324255527
 20
34.854721378974936
 10
12.767326072552192
 20
35.08484597295216
 10
12.79727030042535
 20
35.27894865191584
 10
12.824002660798259
 20
35.416598884647215
 10
12.844032806594186
 20
35.47736613992752
 10
12.873716793761343
 20
35.49002222481129
 10
12.944185770232979
 20
35.511688744499445
 10
13.189074317801817
 20
35.57733621540108
 10
13.541889702724946
 20
35.66487480685675
 10
13.965823178426616
 20
35.764870773090784
 10
14.85679056412249
 20
35.988041053232536
 10
15.7910867167751
 20
36.25580258005969
 10
16.762008097371215
 20
36.56508123355969
 10
17.76285116689761
 20
36.91280289371998
 10
19.827488216688316
 20
37.71127875397126
 10
21.931369554041385
 20
38.626637200713105
 10
24.020866866850984
 20
39.63428527384512
 10
26.042351843011282
 20
40.7096300132669
 10
27.942196170416437
 20
41.82807845887804
 10
28.82974424330277
 20
42.39578127147324
 10
29.66677153696063
 20
42.965037650578125
 10
30.465585321622694
 20
43.5419877131447
 10
31.212145674966315
 20
44.113860077028804
 10
31.90814078653596
 20
44.68289037999167
 10
32.55525884587609
 20
45.25131425979452
 10
33.155188042531165
 20
45.82136735419857
 10
33.709616566045646
 20
46.39528530096505
 10
34.220232605964
 20
46.975303737855185
 10
34.68872435183068
 20
47.563658302630195
 10
35.11677999319015
 20
48.1625846330513
 10
35.50608771958688
 20
48.77431836687973
 10
36.175212185669935
 20
50.045150595803456
 10
36.70960326643555
 20
51.394040091491156
 10
37.122766478239406
 20
52.83887195603261
 10
37.219437746796196
 20
53.365470247682424
 10
37.291404014992764
 20
54.003762879452545
 10
37.35938622124036
 20
55.45039734376987
 10
37.35448449475894
 20
56.17622226652516
 10
37.32304243885242
 20
56.84870770981692
 10
37.264601221254566
 20
57.4265952187492
 10
37.178702009699165
 20
57.868626338426026
 10
36.84089277298532
 20
58.94564080452112
 10
36.44156015361629
 20
59.90439023839389
 10
35.946790134407664
 20
60.785529619241444
 10
35.32266869817507
 20
61.6297139262609
 10
34.95150306830466
 20
62.05065260808419
 10
34.53528182773411
 20
62.47759813864937
 10
34.069765724315374
 20
62.91563239035608
 10
33.5507155059004
 20
63.36983723560397
 10
32.97389192034114
 20
63.845294546792665
 10
32.33505571548954
 20
64.34708619632181
 10
31.62996763919756
 20
64.88029405659104
 10
30.854388439317145
 20
65.45
 10
30.06651813668556
 20
66.04787006577513
 10
29.37416881975237
 20
66.62886407017176
 10
28.77524254879981
 20
67.19547432019701
 10
28.26764138411012
 20
67.75019312285792
 10
27.849267385965543
 20
68.2955127851616
 10
27.518022614648313
 20
68.83392561411512
 10
27.271809130440673
 20
69.36792391672556
 10
27.108528993624862
 20
69.9
 10
27.01318770523746
 20
70.57951846076014
 10
27.005588844525082
 20
71.33557321347743
 10
27.081525795620493
 20
72.07604419916822
 10
27.149505633137608
 20
72.4116482609463
 10
27.236791942656453
 20
72.70881135884886
 10
27.511208433020776
 20
73.352040889747
 10
27.88354213579027
 20
74.00499063268728
 10
28.353299584893968
 20
74.667119045693
 10
28.9199873142609
 20
75.33788458678741
 10
29.58311185782009
 20
76.0167457139938
 10
30.342179749500573
 20
76.70316088533542
 10
31.19669752323138
 20
77.39658855883559
 10
32.14617171294154
 20
78.09648719251754
 10
32.731267816396944
 20
78.49668932306514
 10
33.364600121810525
 20
78.90643672012872
 10
34.04351945736677
 20
79.32440939233513
 10
34.765376651250165
 20
79.74928734831126
 10
36.32730792673638
 20
80.61447914608009
 10
38.029200573745115
 20
81.49145218245017
 10
39.849861217752306
 20
82.36964652643644
 10
41.76809648423388
 20
83.23850224705384
 10
43.762712998665776
 20
84.08745941331732
 10
45.81251738652392
 20
84.90595809424181
 10
46.85734105146677
 20
85.29995445561579
 10
47.98303100932296
 20
85.70827826771993
 10
49.12279573039411
 20
86.10858903593544
 10
50.20984368498185
 20
86.47854626564356
 10
50.71272652181369
 20
86.64516089898898
 10
51.17738334338779
 20
86.79580946222552
 10
51.595465208491845
 20
86.92769939352581
 10
51.95862317591356
 20
87.03803813106252
 10
52.25850830444064
 20
87.1240331130083
 10
52.48677165286078
 20
87.1828917775358
 10
52.63506427996169
 20
87.21182156281769
 10
52.69503724453107
 20
87.2080299070266
 10
52.753588187608216
 20
87.18835325921783
 10
52.89881341103385
 20
87.17583999906414
 10
53.12821783120975
 20
87.17045293095593
 10
53.439306364537735
 20
87.17215485928361
 10
53.829583927419584
 20
87.18090858843759
 10
54.296555436257094
 20
87.19667692280831
 10
54.837725807452074
 20
87.21942266678614
 10
55.450599957406304
 20
87.24910862476155
 10
56.498885755791235
 20
87.30106618679008
 10
56.95854509808842
 20
87.32262495409024
 10
57.36036315817186
 20
87.34059290450662
 10
57.69320075282887
 20
87.35448693223343
 10
57.94591869884679
 20
87.36382393146489
 10
58.107377813012945
 20
87.36812079639525
 10
58.16643891211467
 20
87.36689442121867
 10
58.1232530544295
 20
87.34796379379617
 10
57.991669455125084
 20
87.30151976353359
 10
57.78109616632392
 20
87.23063701694255
 10
57.50094124014851
 20
87.1383902405346
 10
57.160612728721325
 20
87.02785412082135
 10
56.769518684164886
 20
86.90210334431437
 10
55.87266620415418
 20
86.61725656696558
 10
54.189768000527366
 20
86.07707894990635
 10
52.554410110387884
 20
85.53274882089428
 10
50.96722069344018
 20
84.98453675876577
 10
49.42882790938872
 20
84.43271334235719
 10
47.93985991793796
 20
83.87754915050492
 10
46.50094487879236
 20
83.31931476204532
 10
45.112710951656375
 20
82.75828075581478
 10
43.77578629623446
 20
82.19471771064968
 10
42.490799072231084
 20
81.62889620538638
 10
41.25837743935069
 20
81.06108681886127
 10
40.07914955729775
 20
80.49156012991074
 10
38.95374358577671
 20
79.92058671737112
 10
37.88278768449204
 20
79.34843716007884
 10
36.866910013148185
 20
78.77538203687025
 10
35.90673873144962
 20
78.20169192658173
 10
35.002901999100786
 20
77.62763740804965
 10
34.02963549050436
 20
76.9665957120138
 10
33.142644426597386
 20
76.31620019040538
 10
32.34135295128317
 20
75.67542483397696
 10
31.62518520846503
 20
75.04324363348111
 10
30.993565342046267
 20
74.41863057967043
 10
30.445917495930196
 20
73.80055966329748
 10
29.98166581402012
 20
73.18800487511483
 10
29.600234440219353
 20
72.57994020587506
 10
29.3010475184312
 20
71.97533964633075
 10
29.083529192558977
 20
71.37317718723448
 10
28.947103606505983
 20
70.77242681933882
 10
28.89119490417554
 20
70.17206253339634
 10
28.915227229470943
 20
69.57105832015962
 10
29.018624726295513
 20
68.96838817038125
 10
29.200811538552554
 20
68.36302607481379
 10
29.461211810145375
 20
67.75394602420981
 10
29.694400750416445
 20
67.32488821309782
 10
29.97231975588745
 20
66.91186479248876
 10
30.31298020587132
 20
66.49764107790595
 10
30.734393479680968
 20
66.06498238487276
 10
31.254570956629312
 20
65.59665402891254
 10
31.891524016029283
 20
65.0754213255486
 10
32.259419945183915
 20
64.78958000469129
 10
32.66326403719379
 20
64.48404959030432
 10
33.10530771447304
 20
64.15667574682809
 10
33.587802399435766
 20
63.80530413870303
 10
34.20837208219518
 20
63.348076471052174
 10
34.78170598776306
 20
62.90732804017492
 10
35.309966585912676
 20
62.480349614162115
 10
35.79531634641729
 20
62.06443196110463
 10
36.64593323358458
 20
61.25494204621901
 10
37.350856407451076
 20
60.45718444024488
 10
37.92738562620292
 20
59.64948528790908
 10
38.39282064802624
 20
58.81017073393844
 10
38.76446123110718
 20
57.91756692305981
 10
39.059607133631864
 20
56.95
 10
39.20903640239478
 20
56.240582311034714
 10
39.30309316582936
 20
55.48553982746361
 10
39.34229295751287
 20
54.694969621651055
 10
39.327151311022575
 20
53.87896876596139
 10
39.25818375993575
 20
53.047634332758975
 10
39.135905837829654
 20
52.211063394408164
 10
38.96083307828157
 20
51.37935302327331
 10
38.73348101486876
 20
50.562600291718766
 10
38.52207349552606
 20
49.954684900490456
 10
38.265645302690004
 20
49.3252933397127
 10
37.651806624468406
 20
48.06517254364219
 10
37.311436003048144
 20
47.465988725416125
 10
36.960124436065094
 20
46.90841957177397
 10
36.6063918555019
 20
46.408237791249064
 10
36.258758193341194
 20
45.98121609237475
 10
36.100839652464465
 20
45.84400777012741
 10
35.84714920014148
 20
45.669114600672486
 10
35.532676364377586
 20
45.47901419425436
 10
35.19241067317814
 20
45.29618416111742
 10
34.5296902878323
 20
44.95669455746012
 10
33.8348485422892
 20
44.58868039301023
 10
32.3589984718194
 20
43.773323787819386
 10
30.785255464185184
 20
42.86260515771825
 10
29.134014521803014
 20
41.8690153148802
 10
27.425670647089344
 20
40.8050450714786
 10
25.680618842460625
 20
39.683185239686836
 10
22.161971453123854
 20
37.31576005962627
 10
21.605709752193786
 20
36.93224307712557
 10
21.15402841719013
 20
36.62824768767692
 10
20.779638936711116
 20
36.38868420740376
 10
20.455252799354977
 20
36.19846295242955
 10
19.847336508404265
 20
35.90568838287175
 10
19.509229332006154
 20
35.77295570053506
 10
19.111971453123854
 20
35.62920650799109
 10
17.590066654209537
 20
35.13467185970297
 10
16.110637357507372
 20
34.73530830874178
 10
15.420463946341197
 20
34.57942456580589
 10
14.781244919354476
 20
34.457064242458266
 10
14.20642544608935
 20
34.37147088711774
 10
13.709450696087956
 20
34.32588804820316
 10
12.668901392175913
 20
34.26969016828138
  0
LWPOLYLINE
  5
4A
330
17
100
AcDbEntity
  8
C01_120203
100
AcDbPolyline
 90
45
 70
1
 10
66.64361639468176
 20
34.825
 10
66.65792385664953
 20
34.94915283203125
 10
66.67723350420935
 20
35.139941406249996
 10
66.70069639537606
 20
35.38782958984375
 10
66.72746358816443
 20
35.68328125
 10
66.7875151106655
 20
36.37873046875
 10
66.85059653583112
 20
37.15
 10
66.91829662378967
 20
37.992950086315375
 10
66.99092371330124
 20
38.88356913321366
 10
67.05976563643185
 20
39.71576032262312
 10
67.09004460812493
 20
40.076790215122124
 10
67.11611022524752
 20
40.38342683647202
 10
67.23051474810863
 20
41.716853672944026
 10
67.68789004791412
 20
41.25947837313852
 10
68.14526534771962
 20
40.802103073333015
 10
68.62032827405721
 20
41.27002260313573
 10
68.80997202598135
 20
41.44652125800984
 10
68.97514673926307
 20
41.581185497578986
 10
69.0981079715092
 20
41.66081815239429
 10
69.1611112803265
 20
41.67222205300684
 10
69.17027763207193
 20
41.587508497328834
 10
69.16675421285842
 20
41.37733448826559
 10
69.15204320264893
 20
41.059614121135645
 10
69.12764678140641
 20
40.652261491257526
 10
69.09506712909382
 20
40.17319069394976
 10
69.05580642567413
 20
39.64031582453089
 10
68.9632505853653
 20
38.4848102506339
 10
68.86199670018358
 20
37.32905753211482
 10
68.81186344067281
 20
36.795873731918306
 10
68.76406220983269
 20
36.31637043152186
 10
68.7200951876262
 20
35.908461726244006
 10
68.6814645540163
 20
35.59006171140327
 10
68.64967248896596
 20
35.37908448231819
 10
68.62622117243812
 20
35.293444134307286
 10
68.51990968176305
 20
35.232709756320816
 10
68.29238292193826
 20
35.12101119394396
 10
67.9840343599039
 20
34.97655251954306
 10
67.63525746260017
 20
34.81753780548448
 10
67.2864456969672
 20
34.66217112413453
 10
66.9779925299452
 20
34.528656547859576
 10
66.75029142847433
 20
34.43519814902595
 10
66.64373585949475
 20
34.4
 10
66.62640439078278
 20
34.43353515625
 10
66.62060471045052
 20
34.52484375
 10
66.62634073843711
 20
34.65998046875
  0
LWPOLYLINE
  5
4B
330
17
100
AcDbEntity
  8
C01_120203
100
AcDbPolyline
 90
32
 70
1
 10
8.47407491691278
 20
35.94560278838694
 10
8.367656765580241
 20
36.16873483744683
 10
8.28050950684313
 20
36.36316867478232
 10
8.22162622391265
 20
36.50801049176945
 10
8.200000000000001
 20
36.58236647978424
 10
8.223687808937324
 20
36.5967659961322
 10
8.29115778905962
 20
36.614963514495294
 10
8.535883582721095
 20
36.66012620045254
 10
8.891056020708351
 20
36.712601824027274
 10
9.313553742745317
 20
36.767137671590795
 10
10.18803959786408
 20
36.86137918416937
 10
10.55378501039373
 20
36.890579421927015
 10
10.814370265868796
 20
36.90082902915863
 10
10.907563690177152
 20
36.877337020026715
 10
10.92851070595367
 20
36.83219239261864
 10
10.931492729368182
 20
36.75033170295773
 10
10.915860864338017
 20
36.62091721577545
 10
10.8809662147805
 20
36.43311119580322
 10
10.826159884612958
 20
36.1760759077725
 10
10.750792977752717
 20
35.83897361641473
 10
10.701812065403889
 20
35.727490597299465
 10
10.590339057298703
 20
35.65383365452603
 10
10.378045252893703
 20
35.60330073789074
 10
10.026601951645432
 20
35.561189797189904
 10
9.740145230270754
 20
35.531021708745946
 10
9.460355080138976
 20
35.49823015148208
 10
9.219306607077263
 20
35.46677186089639
 10
9.04907491691278
 20
35.44060357248692
 10
8.87614998020199
 20
35.42432194554498
 10
8.752113096267342
 20
35.477206985805225
 10
8.632807122655413
 20
35.638040123381316
 10
8.561129120203773
 20
35.771056425573335
  0
LWPOLYLINE
  5
4C
330
17
100
AcDbEntity
  8
C01_120203
100
AcDbPolyline
 90
22
 70
1
 10
5.800000000000001
 20
37.273178623255525
 10
5.69898810831781
 20
37.31791529741662
 10
5.562715203312932
 20
37.41422384419401
 10
5.249940213761501
 20
37.69576528214432
 10
4.992782752198483
 20
37.98622039019967
 10
4.9260317571791195
 20
38.09367102460837
 10
4.922350539476648
 20
38.15400662145329
 10
4.977272607689662
 20
38.15641027878297
 10
5.106373507810991
 20
38.14375538471126
 10
5.29037149046171
 20
38.11838374899075
 10
5.509984806262896
 20
38.08263718137405
 10
5.813942636539938
 20
38.02015734488532
 10
6.005051541234859
 20
37.94441885061044
 10
6.129877078443798
 20
37.826943994660496
 10
6.234984806262896
 20
37.63925507314659
 10
6.299057111956131
 20
37.50121644335818
 10
6.351526786839726
 20
37.38117310253538
 10
6.386979269869182
 20
37.292008805502164
 10
6.4
 20
37.24660730708251
 10
6.361557471816078
 20
37.219867711856615
 10
6.24748659150954
 20
37.21543871995322
 10
6.059672415448233
 20
37.23323685065772
  0
LWPOLYLINE
  5
4D
330
17
100
AcDbEntity
  8
C01_120203
100
AcDbPolyline
 90
84
 70
1
 10
91.23900716906684
 20
40.875
 10
91.2700668677796
 20
41.15412109375
 10
91.31192637524558
 20
41.562968749999996
 10
91.35910255528411
 20
42.046582031250004
 10
91.40611227171458
 20
42.550000000000004
 10
91.45387190843933
 20
43.021068202271906
 10
91.50308995066526
 20
43.416600436180545
 10
91.54797141416857
 20
43.69508814236532
 10
91.56697499632931
 20
43.777468872761084
 10
91.58272131472546
 20
43.81502276146566
 10
91.64701753081711
 20
43.842055690051275
 10
91.80516651355008
 20
43.89428304670895
 10
92.04668745112507
 20
43.968630521446826
 10
92.36109953174275
 20
44.062023804273046
 10
92.73792194360381
 20
44.17138858519574
 10
93.16667387490894
 20
44.29365055422307
 10
94.1380430486541
 20
44.56456881662413
 10
96.6260860973082
 20
45.249092110316944
 10
97.04538937891186
 20
45.79954605515848
 10
97.24924437246985
 20
46.06737370289662
 10
97.39588039267841
 20
46.26819904521593
 10
97.48674491329984
 20
46.415461694493864
 10
97.52328540809651
 20
46.522601263107894
 10
97.50694935083072
 20
46.60305736343546
 10
97.43918421526483
 20
46.67026960785404
 10
97.32143747516113
 20
46.737677608741066
 10
97.15515660428198
 20
46.81872097847402
 10
96.978482084548
 20
46.91287339934007
 10
96.83390423346245
 20
47.005760885108806
 10
96.73633531540095
 20
47.08667981488178
 10
96.70068759473912
 20
47.14492656776051
 10
96.72707914868687
 20
47.25608938004045
 10
96.79842904763164
 20
47.48108668937119
 10
96.9038510457154
 20
47.78721017688542
 10
97.03245889708006
 20
48.14175152371587
 10
97.36354260468188
 20
49.033503047431736
 10
98.65291703095778
 20
49.4122724617657
 10
99.15568426312812
 20
49.55721420520715
 10
99.5714572408016
 20
49.67185883935259
 10
99.8570437382383
 20
49.744662620171916
 10
99.93751948632413
 20
49.761766770574894
 10
99.96925152969828
 20
49.76408180363506
 10
99.96041879108829
 20
49.721358536921585
 10
99.92463470946835
 20
49.60938162720779
 10
99.864652030991
 20
49.43575886529609
 10
99.78322350180875
 20
49.208098041988904
 10
99.68310186807413
 20
48.93400694808866
 10
99.5670398759397
 20
48.62109337439778
 10
99.29810580108145
 20
47.9092299508538
 10
99.0270444080053
 20
47.1939118187556
 10
98.9084891357318
 20
46.87694922402408
 10
98.80506857906768
 20
46.597500766487165
 10
98.7196460625877
 20
46.36335381338204
 10
98.65508491086659
 20
46.18229573194587
 10
98.61424844847912
 20
46.062113889415826
 10
98.60000000000001
 20
46.01059565302908
 10
98.63570060160842
 20
45.96578296805996
 10
98.73290520994817
 20
45.89606341208909
 10
98.87676803029099
 20
45.81097086810489
 10
99.05244326790864
 20
45.720039219095796
 10
99.50488653581729
 20
45.5002253026706
 10
99.02744326790865
 20
44.858681568045085
 10
98.84973152507584
 20
44.61816196775252
 10
98.69431654573536
 20
44.43397127471525
 10
98.51196401556442
 20
44.284687306892465
 10
98.25343962024017
 20
44.148887882243386
 10
97.86950904543981
 20
44.005150818727195
 10
97.61513071751023
 20
43.92361124050619
 10
97.31093797684053
 20
43.832053934303104
 10
96.95077653414043
 20
43.727801127362845
 10
96.52849210011952
 20
43.60817504693031
 10
96.03793038548748
 20
43.4704979202504
 10
95.47293710095394
 20
43.31209197456801
 10
93.45
 20
42.744096103988774
 10
93.35000000000001
 20
41.80297224750205
 10
93.25
 20
40.86184839101531
 10
92.35000000000001
 20
40.63339058810068
 10
91.94749417799108
 20
40.53134311945067
 10
91.649614272889
 20
40.460708500831004
 10
91.44170900026069
 20
40.424672970817575
 10
91.30912707567305
 20
40.42642276798627
 10
91.23721721469293
 20
40.46914413091297
 10
91.21132813288727
 20
40.55602329817357
 10
91.21680854582294
 20
40.690246508343954
  0
LWPOLYLINE
  5
4E
330
17
100
AcDbEntity
  8
C01_120203
100
AcDbPolyline
 90
71
 70
1
 10
108.4573524105661
 20
41.11908977589924
 10
108.44579274404028
 20
41.224986487908545
 10
108.42854734085927
 20
41.477654136350864
 10
108.40645566054177
 20
41.86055969101016
 10
108.38035716260644
 20
42.3571701216704
 10
108.35109130657197
 20
42.95095239811555
 10
108.31949755195701
 20
43.62537349012955
 10
108.28641535828027
 20
44.363900367496385
 10
108.25268418506039
 20
45.150000000000006
 10
108.21681342096254
 20
45.98635760273786
 10
108.1775990984058
 20
46.868925265608546
 10
108.09421747851437
 20
48.66615989969121
 10
108.05258903147899
 20
49.52756143487458
 10
108.01269472658336
 20
50.328642158133555
 10
107.97580398897716
 20
51.04276935145384
 10
107.94318624381006
 20
51.643310296821134
 10
107.90454529337323
 20
52.35416291318265
 10
107.87643747591495
 20
52.931582371507105
 10
107.85876883821109
 20
53.38847538994976
 10
107.85144542703752
 20
53.737748686665846
 10
107.85437328917007
 20
53.99230897981061
 10
107.86745847138462
 20
54.1650629875393
 10
107.89060702045704
 20
54.26891742800716
 10
107.92372498316318
 20
54.31677901936943
 10
108.08078805180347
 20
54.3594112463431
 10
108.3669891617577
 20
54.38567376367652
 10
108.74636905834022
 20
54.396432229564866
 10
109.18296848686535
 20
54.392552302203306
 10
110.08398892100087
 20
54.34433990051118
 10
110.47649141723993
 20
54.30173874257097
 10
110.78237642667897
 20
54.247961824161564
 10
111.33666251260443
 20
54.08700274452307
 10
111.87887084526778
 20
53.87283438211311
 10
112.37723786196698
 20
53.619720526703695
 10
112.80000000000001
 20
53.34192496806685
 10
112.97329776908762
 20
53.205634982077434
 10
113.04405879272322
 20
53.134740596984216
 10
113.01779041999721
 20
53.118449954528565
 10
112.9
 20
53.145971196451825
 10
112.80104918851653
 20
53.166549741826294
 10
112.65714221202269
 20
53.18611272004735
 10
112.26217484899313
 20
53.221368267170355
 10
111.77052808088969
 20
53.2500904221031
 10
111.23763207769082
 20
53.27063176912783
 10
110.71891700937488
 20
53.2813448925268
 10
110.26981304592027
 20
53.28058237658227
 10
109.94575035730543
 20
53.26669680557648
 10
109.84793141918115
 20
53.25431805701382
 10
109.80215911350872
 20
53.23804076379169
 10
109.7881347896229
 20
53.1693298408308
 10
109.78052962535101
 20
53.006590560975695
 10
109.7791183380628
 20
52.76043793517162
 10
109.78367564512797
 20
52.44148697436381
 10
109.79397626391629
 20
52.060352689497506
 10
109.80979491179745
 20
51.62765009151794
 10
109.85708516431728
 20
50.650000000000006
 10
109.88789299755463
 20
50.0855517578125
 10
109.9222711673132
 20
49.4386328125
 10
109.99711648725915
 20
47.9884375
 10
110.07237706588526
 20
46.4815234375
 10
110.10727430899408
 20
45.7637060546875
 10
110.13880884492174
 20
45.1
 10
110.28168406064306
 20
42.050000000000004
 10
110.06584203032153
 20
41.87714841234145
 10
109.92870420925247
 20
41.78178031753913
 10
109.71486663296427
 20
41.649892254102696
 10
109.45358861931246
 20
41.498904713760446
 10
109.17412948615257
 20
41.34623818824068
 10
108.86010732654655
 20
41.18820242765771
 10
108.64355760681842
 20
41.10007016782557
 10
108.51309955786074
 20
41.078234815115636
  0
LWPOLYLINE
  5
4F
330
17
100
AcDbEntity
  8
C01_120203
100
AcDbPolyline
 90
138
 70
1
 10
175.10000000000002
 20
46.03757726572583
 10
175.1084625961276
 20
46.08343570616197
 10
175.13271663957457
 20
46.188238192697725
 10
175.1710615129373
 20
46.34525611715333
 10
175.22179659881218
 20
46.54776087134901
 10
175.35363493848385
 20
47.0623164362415
 10
175.51462671936056
 20
47.678076021937024
 10
175.67940480186397
 20
48.30420587904429
 10
175.82155237863802
 20
48.846997331444
 10
175.8793961520967
 20
49.06897201352534
 10
175.92589000878715
 20
49.24830912360597
 10
175.95913651859752
 20
49.377741004744614
 10
175.9772382514158
 20
49.45
 10
176.00723242687312
 20
49.508544921875
 10
176.07456301869672
 20
49.598671875
 10
176.30408425557238
 20
49.855625
 10
176.63150357030165
 20
50.184765625000004
 10
177.02252257114353
 20
50.550000000000004
 10
177.3198402730677
 20
50.82302636195101
 10
177.68108307064065
 20
51.16261203599656
 10
178.09708039151545
 20
51.55963998777494
 10
178.55866166334513
 20
52.00499318292443
 10
179.05665631378275
 20
52.48955458708332
 10
179.5818937704814
 20
53.00420716588988
 10
180.677414813274
 20
54.08731770999917
 10
181.77186021294742
 20
55.18138854035857
 10
182.79186539072617
 20
56.21348338207433
 10
183.25102646553768
 20
56.68349722128655
 10
183.66406576783473
 20
57.11066596025272
 10
184.02181272527034
 20
57.48587256461111
 10
184.3150967654976
 20
57.800000000000004
 10
185.38116702168378
 20
58.97659079351844
 10
186.3993909043151
 20
60.13600254423488
 10
187.3705043693294
 20
61.27932556869218
 10
188.2952433726644
 20
62.40765018343319
 10
189.17434387025787
 20
63.52206670500078
 10
190.00854181804758
 20
64.62366544993779
 10
190.79857317197133
 20
65.7135367347871
 10
191.54517388796683
 20
66.79277087609152
 10
192.24907992197188
 20
67.86245819039397
 10
192.91102722992426
 20
68.92368899423724
 10
193.5317517677617
 20
69.97755360416423
 10
194.11198949142198
 20
71.02514233671778
 10
195.1539483199622
 20
73.10585343587597
 10
196.042791363047
 20
75.17454482405468
 10
196.77395982582757
 20
77.2361281602216
 10
197.35073484528863
 20
79.31185324909339
 10
197.77176339679804
 20
81.38674906809231
 10
198.03569245572365
 20
83.44584459464066
 10
198.10832185527002
 20
84.46478880369034
 10
198.1411689974334
 20
85.4741688061607
 10
198.13406475413476
 20
86.47211322422959
 10
198.0868399972951
 20
87.45675068007473
 10
197.9993255988354
 20
88.42620979587394
 10
197.87135243067667
 20
89.37861919380501
 10
197.70275136473984
 20
90.31210749604571
 10
197.49335327294594
 20
91.22480332477383
 10
197.1541542333052
 20
92.3650521701894
 10
196.72680457565593
 20
93.48341762484925
 10
196.21989611640066
 20
94.565790725073
 10
195.64202067194196
 20
95.59806250718025
 10
195.00177005868244
 20
96.5661240074906
 10
194.30773609302463
 20
97.45586626232367
 10
193.5685105913711
 20
98.25318030799906
 10
192.79268537012447
 20
98.94395718083638
 10
192.44374511537683
 20
99.22477876293593
 10
192.18401968750285
 20
99.43858997555924
 10
192.01084518499172
 20
99.5887515426198
 10
191.9215577063326
 20
99.6786241880311
 10
191.91349335001468
 20
99.71156863570658
 10
191.98398821452716
 20
99.69094560955973
 10
192.13037839835923
 20
99.62011583350404
 10
192.35000000000002
 20
99.50244003145298
 10
193.01498430321985
 20
99.10784541487956
 10
193.67758877877077
 20
98.65671159439326
 10
194.32816686212655
 20
98.15774240232791
 10
194.95707198876096
 20
97.61964167101738
 10
195.55465759414776
 20
97.05111323279547
 10
196.11127711376065
 20
96.46086091999605
 10
196.61728398307343
 20
95.85758856495295
 10
197.06303163755985
 20
95.25
 10
197.54241387824013
 20
94.49800474619049
 10
197.9796865611071
 20
93.71526205513638
 10
198.3746946386909
 20
92.90270338492746
 10
198.72728306352164
 20
92.06126019365361
 10
199.03729678812948
 20
91.19186393940463
 10
199.30458076504456
 20
90.29544608027037
 10
199.52897994679702
 20
89.37293807434065
 10
199.71033928591703
 20
88.42527137970531
 10
199.8485037349347
 20
87.45337745445417
 10
199.94331824638016
 20
86.45818775667709
 10
199.99462777278356
 20
85.44063374446387
 10
200.00227726667507
 20
84.40164687590436
 10
199.9661116805848
 20
83.34215860908839
 10
199.88597596704287
 20
82.26310040210578
 10
199.76171507857947
 20
81.16540371304637
 10
199.59317396772474
 20
80.05000000000001
 10
199.38868728730802
 20
78.96439853589443
 10
199.14572854729695
 20
77.8967619293917
 10
198.8612292066624
 20
76.8378365322769
 10
198.53212072437503
 20
75.7783686963351
 10
198.15533455940567
 20
74.70910477335143
 10
197.72780217072508
 20
73.62079111511095
 10
197.246455017304
 20
72.50417407339879
 10
196.7082245581132
 20
71.35000000000001
 10
195.86482385096102
 20
69.69635543979774
 10
194.9266996362521
 20
68.03567764429597
 10
193.88893931708182
 20
66.36094951606219
 10
192.74663029654562
 20
64.66515395766389
 10
191.4948599777389
 20
62.94127387166857
 10
190.1287157637571
 20
61.18229216064372
 10
188.64328505769566
 20
59.38119172715683
 10
187.03365526264994
 20
57.53095547377541
 10
186.69922010546725
 20
57.16463315396401
 10
186.27474748745126
 20
56.71394419819247
 10
185.77206050517395
 20
56.19058706867166
 10
185.2029822552073
 20
55.60626022761243
 10
184.57933583412333
 20
54.97266213722565
 10
183.91294433849404
 20
54.30149125972217
 10
182.49921850988738
 20
52.89322499220858
 10
181.05638954196328
 20
51.47504912275855
 10
180.35361912218718
 20
50.791491242834525
 10
179.67904220729767
 20
50.14055134905898
 10
179.0444818938668
 20
49.53392790364276
 10
178.46176127846653
 20
48.98331936879675
 10
177.94270345766884
 20
48.50042420673179
 10
177.49913152804575
 20
48.09694087965876
 10
177.08596307945015
 20
47.72700595340583
 10
176.72315393337092
 20
47.402335703424505
 10
176.40743346007145
 20
47.12012269052464
 10
176.1355310298152
 20
46.877559475516094
 10
175.9041760128656
 20
46.671838619208735
 10
175.71009777948606
 20
46.50015268241242
 10
175.55002569994005
 20
46.359694225937005
 10
175.42068914449098
 20
46.24765581059235
 10
175.24114008693738
 20
46.097609346534774
 10
175.1452855689327
 20
46.02755377671858
 10
175.10696055258444
 20
46.015029587622635
  0
LWPOLYLINE
  5
50
330
17
100
AcDbEntity
  8
C01_120203
100
AcDbPolyline
 90
52
 70
1
 10
67.46609717749088
 20
47.616560765357235
 10
68.14372193935021
 20
48.93312153071447
 10
68.95875232499202
 20
49.30966666806012
 10
69.47786678427501
 20
49.5406874046751
 10
70.10353094718204
 20
49.805185399974256
 10
71.5177184052447
 20
50.37341302056843
 10
72.22784671108859
 20
50.64654257283508
 10
72.88773474193302
 20
50.89194923772922
 10
73.45818500312211
 20
51.09433297873665
 10
73.69762175301595
 20
51.17460999137218
 10
73.9
 20
51.23839375934322
 10
74.88862730238728
 20
51.50829863584705
 10
75.76237073003844
 20
51.68897433204292
 10
76.51601117712339
 20
51.780798107998116
 10
77.14432953781196
 20
51.78414722377994
 10
77.64210670627403
 20
51.69939893945569
 10
77.84041137284822
 20
51.624106166024816
 10
78.00412357667949
 20
51.52693051509266
 10
78.13259092953906
 20
51.40791914416763
 10
78.2251610431982
 20
51.26711921075814
 10
78.2811815294281
 20
51.104577872372595
 10
78.30000000000001
 20
50.92034228651942
 10
78.27803651315679
 20
50.8205579638023
 10
78.19599566370792
 20
50.75209160967348
 10
78.02965186827456
 20
50.70352910299624
 10
77.75477954347788
 20
50.66345632263388
 10
77.4128545082611
 20
50.60658049912518
 10
76.98176680423828
 20
50.50753591367035
 10
76.474501707567
 20
50.37038231653494
 10
75.90404449440487
 20
50.199179457984485
 10
75.28338044090951
 20
49.997987088284525
 10
74.62549482323851
 20
49.770864957700596
 10
73.25
 20
49.25507041494302
 10
72.93153260049334
 20
49.12674991758317
 10
72.57432594825315
 20
48.97832922921445
 10
71.77102618363628
 20
48.63371150009879
 10
70.00019990030538
 20
47.841040176893195
 10
69.14199857384783
 20
47.443083465396754
 10
68.37482191903318
 20
47.07744397570023
 10
68.04244990478203
 20
46.91457082693216
 10
67.75333253198968
 20
46.769170149100354
 10
67.51430262517219
 20
46.6443729973669
 10
67.33219300884556
 20
46.543310426893896
 10
67.16499870298011
 20
46.4488375502015
 10
67.01862326104023
 20
46.37147243790008
 10
66.90884174495696
 20
46.3191987133721
 10
66.85142921666134
 20
46.300000000000004
 10
66.8526129505979
 20
46.32687121093357
 10
66.88045310012696
 20
46.403884872891474
 10
66.93242856619044
 20
46.52564102960957
 10
67.00601824973023
 20
46.68673972482369
 10
67.20795587300644
 20
47.10536490568337
  0
LWPOLYLINE
  5
51
330
17
100
AcDbEntity
  8
C01_120203
100
AcDbPolyline
 90
263
 70
1
 10
44.56479830476882
 20
48.325
 10
44.54024474745125
 20
48.58605468750001
 10
44.52000693017916
 20
48.90875000000001
 10
44.506182526390326
 20
49.25207031250001
 10
44.50086920952252
 20
49.575
 10
44.5
 20
50.300000000000004
 10
45.425000000000004
 20
50.302196200049096
 10
45.879239356133425
 20
50.312924756755464
 10
46.23477476311322
 20
50.34521659902905
 10
46.518693164486066
 20
50.402882282682576
 10
46.75808150379862
 20
50.489732363528766
 10
47.129586962131484
 20
50.71216783813895
 10
47.49408106485874
 20
51.02141158990668
 10
47.80156928258101
 20
51.3686241987723
 10
48.00205708589894
 20
51.70496624467619
 10
48.10847386198364
 20
51.89870125923293
 10
48.24543266556551
 20
51.982561242276965
 10
48.45154547247859
 20
51.96388216535157
 10
48.765424258556905
 20
51.85
 10
48.93539596141176
 20
51.78219382544542
 10
49.07221669063915
 20
51.73690804189637
 10
49.26805018393821
 20
51.71831753697784
 10
49.39621464990739
 20
51.803068263570395
 10
49.5
 20
52.0
 10
49.62426406871194
 20
52.300000000000004
 10
50.51213203435597
 20
52.300000000000004
 10
51.400000000000006
 20
52.300000000000004
 10
51.40102870982976
 20
54.575
 10
51.412383669693114
 20
55.97071637391302
 10
51.44444752463836
 20
57.4436663266966
 10
51.56601751993618
 20
60.52817616889833
 10
51.756369896046394
 20
63.64234792665089
 10
51.87441172700715
 20
65.15237527387302
 10
52.0061358532922
 20
66.60000000000001
 10
52.19415173026329
 20
68.30859160164704
 10
52.40822655175428
 20
69.87586076888095
 10
52.64594941445444
 20
71.29132571410776
 10
52.77292545397337
 20
71.93885604484534
 10
52.904909415053076
 20
72.5445046497334
 10
53.04159993477971
 20
73.10696130532264
 10
53.18269565023945
 20
73.62491578816386
 10
53.327895198518455
 20
74.09705787480777
 10
53.47689721670287
 20
74.52207734180513
 10
53.62940034187887
 20
74.89866396570667
 10
53.785103211132615
 20
75.22550752306316
 10
53.943704461550254
 20
75.50129779042534
 10
54.104902730217965
 20
75.72472454434396
 10
54.40563743066403
 20
76.01990575377701
 10
54.61058950030311
 20
76.17722452170258
 10
54.857325780184254
 20
76.34359863523542
 10
55.14989206828098
 20
76.52095552197646
 10
55.492334162566806
 20
76.71122260952664
 10
55.88869786101525
 20
76.91632732548688
 10
56.34302896159984
 20
77.13819709745812
 10
56.85937326229409
 20
77.37875935304127
 10
57.44177656107152
 20
77.6399415198373
 10
58.094284655905646
 20
77.92367102544712
 10
58.82094334477
 20
78.23187529747165
 10
59.62579842563809
 20
78.56648176351185
 10
60.51289569648344
 20
78.92941785116862
 10
61.486280955279575
 20
79.32261098804292
 10
62.550000000000004
 20
79.74798860173567
 10
64.36329287029007
 20
80.45874159757223
 10
66.29663230182048
 20
81.19540317375389
 10
68.33239637803145
 20
81.95209598137937
 10
70.45296318236319
 20
82.7229426715474
 10
72.6407107982559
 20
83.50206589535674
 10
74.8780173091498
 20
84.28358830390609
 10
79.43081934970198
 20
85.83032127961977
 10
83.97039397154143
 20
87.31612280747828
 10
86.19116620904438
 20
88.0214809062087
 10
88.35576584218978
 20
88.69397409627149
 10
90.44657095441784
 20
89.32772502876543
 10
92.44595962916875
 20
89.91685635478923
 10
94.33630994988275
 20
90.45549072544163
 10
96.10000000000001
 20
90.93775079182136
 10
97.06279204736353
 20
91.18968248185479
 10
98.10265183792421
 20
91.45340066314222
 10
99.16078233578517
 20
91.71491915591221
 10
100.17838650504956
 20
91.9602517803933
 10
101.0966673098205
 20
92.17541235681408
 10
101.50018737680317
 20
92.26730744582326
 10
101.85682771420113
 20
92.34641470540308
 10
102.15923869252731
 20
92.41098586308209
 10
102.40007068229458
 20
92.45927264638887
 10
102.57197405401584
 20
92.48952678285198
 10
102.66759917820399
 20
92.5
 10
102.90239516628172
 20
92.44016088084445
 10
103.1372485603202
 20
92.28431081640178
 10
103.33125522181265
 20
92.06795074620796
 10
103.44351101225232
 20
91.82658160979895
 10
103.47291072012572
 20
91.70640227712548
 10
103.50418002641781
 20
91.58363948461465
 10
103.53358254319745
 20
91.47268629840472
 10
103.55738188253356
 20
91.3879357846339
 10
103.54072394568473
 20
91.29768754848119
 10
103.40618834588338
 20
91.21454303003809
 10
103.28254055917868
 20
91.17062568610592
 10
103.1148123208997
 20
91.12247349697911
 10
102.89813328576768
 20
91.06808287111696
 10
102.62763310850391
 20
91.00545021697877
 10
102.35164762957886
 20
90.94005821921886
 10
101.94030212809264
 20
90.83823741792811
 10
101.41360252109182
 20
90.7051348893613
 10
100.79155472562303
 20
90.54589770977316
 10
100.09416465873285
 20
90.36567295541838
 10
99.3414382374679
 20
90.16960770255172
 10
97.75
 20
89.75054400630167
 10
96.9145263671875
 20
89.52919379275272
 10
96.0344921875
 20
89.29651133647484
 10
94.24656250000001
 20
88.82500877743543
 10
93.3915771484375
 20
88.60011821552553
 10
92.59785156250001
 20
88.39175449258987
 10
91.89184082031251
 20
88.20688237905428
 10
91.30000000000001
 20
88.05246664534455
 10
90.28765359792379
 20
87.77993174316242
 10
89.8437552768155
 20
87.65369995087757
 10
89.45437015766915
 20
87.5381157877598
 10
89.12924570199125
 20
87.43614714628133
 10
88.87812937128834
 20
87.35076191891434
 10
88.71076862706695
 20
87.28492799813107
 10
88.63691093083362
 20
87.2416132764037
 10
88.59728168883994
 20
87.21315932419085
 10
88.51368869311555
 20
87.17000380228816
 10
88.23891494907198
 20
87.04871546599738
 10
87.8611967158976
 20
86.89600310069967
 10
87.42914101078716
 20
86.73012153956341
 10
86.99135485093537
 20
86.56932561575698
 10
86.59644525353693
 20
86.43187016244869
 10
86.29301923578656
 20
86.33601001280691
 10
86.19080226215276
 20
86.30938281222608
 10
86.129683814879
 20
86.30000000000001
 10
86.11815814613301
 20
86.31670154435623
 10
86.1087196206207
 20
86.36217604631625
 10
86.1023422385178
 20
86.42947830921709
 10
86.10000000000001
 20
86.51166313639574
 10
86.09055285433233
 20
86.60697968675876
 10
86.06022427821952
 20
86.66387540799587
 10
86.00603356299695
 20
86.68510553367754
 10
85.92500000000001
 20
86.67342529737428
 10
85.8420641709762
 20
86.64853827197648
 10
85.71042313173493
 20
86.60738811355442
 10
85.53341594090452
 20
86.55107858295483
 10
85.31438165711333
 20
86.48071344102445
 10
84.76358804516208
 20
86.30223136655817
 10
84.08475476490797
 20
86.08077197692934
 10
83.30459428537783
 20
85.82516535891173
 10
82.44981907559848
 20
85.54424159927915
 10
80.62327434139948
 20
84.94176300226408
 10
78.81882031452555
 20
84.34397688007435
 10
77.99165848890254
 20
84.06891871397342
 10
77.25015674719127
 20
83.82152392690016
 10
76.62102755841855
 20
83.61062260562834
 10
76.35695031795504
 20
83.52161639678476
 10
76.13098339161122
 20
83.44504483693173
 10
75.94646583801546
 20
83.38201168691593
 10
75.80673671579609
 20
83.3336207075841
 10
75.71513508358149
 20
83.30097565978296
 10
75.675
 20
83.28518030435924
 10
75.60705078125
 20
83.23176249929938
 10
75.55140625
 20
83.15448784144176
 10
75.51380859375
 20
83.06370585989903
 10
75.5
 20
82.9697660837838
 10
75.46962930154812
 20
82.84429138985625
 10
75.35026147079502
 20
82.73468888642985
 10
75.09951290464439
 20
82.61466283030303
 10
74.91162596982743
 20
82.54252355022646
 10
74.675
 20
82.45791747827421
 10
74.45346135162302
 20
82.37987706325663
 10
74.1388911793608
 20
82.26830080463533
 10
73.74588939251633
 20
82.12840310294428
 10
73.28905590039267
 20
81.96539835871745
 10
72.24229343751985
 20
81.59092534479245
 10
71.11540306516653
 20
81.18659696713215
 10
68.38080613033306
 20
80.20392789698106
 10
67.69903223489054
 20
80.32083914691589
 10
67.3366602891878
 20
80.3717005132636
 10
67.01774455347712
 20
80.38744923692525
 10
66.69917075346463
 20
80.36782308201279
 10
66.33782461485653
 20
80.3125598126382
 10
65.91860044763715
 20
80.22097850827346
 10
65.42748451801124
 20
80.08793761389867
 10
64.86856500580525
 20
79.91487953463734
 10
64.24593009084565
 20
79.70324667561296
 10
63.56366795295886
 20
79.45448144194903
 10
62.825866771971356
 20
79.17002623876904
 10
62.03661472770958
 20
78.85132347119652
 10
61.2
 20
78.49981554435495
 10
60.85231296488122
 20
78.3495043745623
 10
60.45721224393713
 20
78.17596267094238
 10
59.562340638101375
 20
77.77652513306887
 10
57.61691302533818
 20
76.88959583072412
 10
56.716640592524215
 20
76.47145394964542
 10
56.31748925134647
 20
76.28388398862162
 10
55.96485145816434
 20
76.1164271708909
 10
55.668119936359915
 20
75.97341786416528
 10
55.43668740931529
 20
75.85919043615682
 10
55.27994660041255
 20
75.77807925457753
 10
55.2072902330338
 20
75.73441868713945
 10
55.21057242496394
 20
75.6986276120805
 10
55.251081541368904
 20
75.62816227088753
 10
55.321958056549846
 20
75.53320969096087
 10
55.41634244480794
 20
75.42395689970084
 10
55.523559056301146
 20
75.29349513930934
 10
55.629374793161865
 20
75.1407953662029
 10
55.72159395765289
 20
74.98486417910384
 10
55.78802085203702
 20
74.8447081767345
 10
55.84221141738946
 20
74.66241335388398
 10
55.83754627776417
 20
74.48271815843633
 10
55.762729999028764
 20
74.24651797213777
 10
55.695485359328394
 20
74.08875831421508
 10
55.60646714705086
 20
73.89470817673451
 10
55.387320768733396
 20
73.36226347893903
 10
55.175088336871916
 20
72.71880533049831
 10
54.97080260359713
 20
71.9692127675498
 10
54.775496321039746
 20
71.1183648262309
 10
54.59020224133049
 20
70.17114054267904
 10
54.415953116600065
 20
69.13241895303166
 10
54.253781698979196
 20
68.00707909342617
 10
54.1047207405986
 20
66.8
 10
53.85657562056035
 20
64.33828046535197
 10
53.756876049098366
 20
63.04991652013402
 10
53.71130871222948
 20
62.35900477632386
 10
53.66790651335356
 20
61.624614622483286
 10
53.62615208153425
 20
60.83750213669011
 10
53.58552804583524
 20
59.98842339702214
 10
53.545517035320174
 20
59.06813448155715
 10
53.50560167905273
 20
58.06739146837296
 10
53.46526460609656
 20
56.97695043554735
 10
53.42398844551534
 20
55.78756746115812
 10
53.38125582637273
 20
54.48999862328307
 10
53.33654937773239
 20
53.075
 10
53.27831622859518
 20
51.2
 10
52.414158114297585
 20
51.199367737093546
 10
52.13096707650609
 20
51.19845215492767
 10
51.91526019132712
 20
51.19389219347064
 10
51.755266464215765
 20
51.18226376388955
 10
51.639214900627096
 20
51.1601427773515
 10
51.49185428583809
 20
51.070726778072924
 10
51.37901039060068
 20
50.898251484971674
 10
51.208020781201384
 20
50.597767495756266
 10
50.704897466128685
 20
50.788939308716365
 10
50.20177415105599
 20
50.98011112167648
 10
49.825887075528
 20
50.41769040579592
 10
49.63451541760502
 20
50.16102870160095
 10
49.41916352096011
 20
49.92437486946372
 10
49.19024910719747
 20
49.71811491528303
 10
48.95818989792132
 20
49.55263484495768
 10
48.66402210315551
 20
49.387579264689094
 10
48.389123101502406
 20
49.29406698586665
 10
48.02876325191927
 20
49.24930131741948
 10
47.78380749632809
 20
49.23807449612698
 10
47.478212913363365
 20
49.23048556827671
 10
46.4900460308841
 20
49.21097113655342
 10
45.920023015442055
 20
48.6893208638031
 10
45.52413566833994
 20
48.34589366892074
 10
45.15929617166598
 20
48.06326231332084
 10
44.86704661683111
 20
47.871423468522245
 10
44.76112497116927
 20
47.818925197523065
 10
44.6889290952463
 20
47.800373806043766
 10
44.66024058890201
 20
47.841654445415834
 10
44.62727392733264
 20
47.95432855552535
 10
44.59410215210073
 20
48.12118183938314
  0
LWPOLYLINE
  5
52
330
17
100
AcDbEntity
  8
C01_120203
100
AcDbPolyline
 90
30
 70
1
 10
98.85000000000001
 20
51.50056118829212
 10
98.53704022681285
 20
51.70209227080387
 10
98.27630817110521
 20
51.88033395921379
 10
98.09502472865792
 20
52.01595732082279
 10
98.02041079525176
 20
52.08963342293173
 10
98.05307810421148
 20
52.12408570868748
 10
98.16633278021577
 20
52.16834118450298
 10
98.35368918854716
 20
52.2209828122456
 10
98.60866169448822
 20
52.28059355378273
 10
98.92476466332148
 20
52.345756370981746
 10
99.2955124603295
 20
52.41505422571002
 10
99.71441945079484
 20
52.48707007983495
 10
100.17500000000001
 20
52.56038689522391
 10
100.60000000000001
 20
52.62556164434408
 10
100.60000000000001
 20
52.225280822172046
 10
100.60470402644232
 20
52.04633915197652
 10
100.61751201923077
 20
51.85502239535919
 10
100.6364678485577
 20
51.674245415836054
 10
100.65961538461539
 20
51.526923076923076
 10
100.68293147971684
 20
51.365033453186726
 10
100.66154918649706
 20
51.26731842151573
 10
100.57961657845871
 20
51.20998903477287
 10
100.42128172910448
 20
51.1692563458209
 10
100.2869192496231
 20
51.141768016596586
 10
100.14133448082161
 20
51.11097428892332
 10
100.00206949000771
 20
51.080639665369354
 10
99.8866663444891
 20
51.054528648502924
 10
99.7338741295754
 20
51.05617927043084
 10
99.5216734737997
 20
51.1261169245919
 10
99.23280266724643
 20
51.27176857565577
  0
LWPOLYLINE
  5
53
330
17
100
AcDbEntity
  8
C01_120203
100
AcDbPolyline
 90
83
 70
1
 10
59.20027049280807
 20
54.60991223373276
 10
59.20534912657984
 20
54.81098204089738
 10
59.219377046941425
 20
55.092390454948834
 10
59.24020754761223
 20
55.41682735396783
 10
59.26569392231168
 20
55.746982616035076
 10
59.33138784462335
 20
56.52414076460464
 10
59.81569392231168
 20
56.466781873846095
 10
60.300000000000004
 20
56.409422983087566
 10
60.300000000000004
 20
56.9126570181257
 10
60.30071168686532
 20
57.07638713977935
 10
60.304895426395376
 20
57.199339155036604
 10
60.33597113705432
 20
57.342981868051936
 10
60.41781127918611
 20
57.38373116055169
 10
60.575
 20
57.36173303591588
 10
60.71779511328054
 20
57.33578373656691
 10
60.903304703895856
 20
57.30516507955507
 10
61.10752764800653
 20
57.2737003800887
 10
61.306462821773124
 20
57.24521295337613
 10
61.76292564354624
 20
57.18285088808432
 10
61.92341829877903
 20
57.59142544404216
 10
62.08391095401183
 20
58.0
 10
62.83233245531457
 20
58.0
 10
63.580753956617315
 20
58.0
 10
63.63889889723555
 20
59.025000000000006
 10
63.65183998849798
 20
59.26889220375471
 10
63.66635054651813
 20
59.56986383377417
 10
63.69811249625871
 20
60.295690485139474
 10
63.73024961331165
 20
61.10777017916012
 10
63.7588267645313
 20
61.91139314090033
 10
63.82060969120878
 20
63.772786281800656
 10
64.34093009174713
 20
63.88922888495107
 10
64.77169452905291
 20
64.00683240340636
 10
65.2060417094396
 20
64.16673939803606
 10
66.07104529266881
 20
64.6048107283208
 10
66.90706282786081
 20
65.18613670080963
 10
67.68521630144168
 20
65.8934111405069
 10
68.32043260288337
 20
66.55
 10
69.00974981777222
 20
65.8
 10
69.27541368990784
 20
65.49725861767665
 10
69.48919010852822
 20
65.22738727966755
 10
69.62928633037856
 20
65.01979019941408
 10
69.67390961220406
 20
64.90387159035762
 10
69.63482967052227
 20
64.81070768321683
 10
69.54930181347375
 20
64.69844698803135
 10
69.25848889945904
 20
64.42858564742143
 10
68.84064396252512
 20
64.11818839631813
 10
68.33494009503713
 20
63.7911560625117
 10
67.21664793785958
 20
63.18278945795058
 10
66.68240583290032
 20
62.94925684277641
 10
66.21699716684762
 20
62.79469245606018
 10
65.7
 20
62.66219006316377
 10
65.7
 20
61.5971257345703
 10
65.69865740490381
 20
61.34611130675376
 10
65.6948094888147
 20
61.040285053075934
 10
65.68067690885474
 20
60.311465033498315
 10
65.65976069051396
 20
59.505201606561215
 10
65.6342192641863
 20
58.71603070298842
 10
65.56843852837261
 20
56.900000000000006
 10
64.74938826093187
 20
56.900000000000006
 10
63.93033799349112
 20
56.900000000000006
 10
63.7697013919689
 20
56.491058992436024
 10
63.67525816889208
 20
56.2731450499058
 10
63.589827924774845
 20
56.15695336865976
 10
63.48429216506825
 20
56.11897629893343
 10
63.32953239522334
 20
56.13570619096238
 10
63.187460051140526
 20
56.16157473742195
 10
63.00726889109686
 20
56.1923947457305
 10
62.81207638431059
 20
56.22430317431956
 10
62.625
 20
56.253436981620645
 10
62.2
 20
56.31757956618859
 10
62.2
 20
55.84704101449714
 10
62.2
 20
55.37650246280569
 10
61.45052832837371
 20
55.44673370432625
 10
61.224642496494354
 20
55.46623901155068
 10
61.040681449815224
 20
55.47716471140678
 10
60.763404617016846
 20
55.4686066770394
 10
60.54843963989689
 20
55.41171837727497
 10
60.32552832837371
 20
55.29715858816435
 10
60.15014921944549
 20
55.179170269877226
 10
59.95023465372215
 20
55.020402989199084
 10
59.75040246643318
 20
54.84164288977272
 10
59.57527049280807
 20
54.663676115240946
 10
59.200540985616136
 20
54.25
  0
LWPOLYLINE
  5
54
330
17
100
AcDbEntity
  8
C01_120203
100
AcDbPolyline
 90
120
 70
1
 10
74.57742426911844
 20
60.93174817326242
 10
74.01420694312957
 20
61.56929846400904
 10
74.48210347156478
 20
61.71459341784702
 10
74.95
 20
61.859888371685
 10
75.03315291649857
 20
62.45476376900772
 10
75.06794317404147
 20
62.68824627105815
 10
75.10119977004373
 20
62.88421462463497
 10
75.12915317373259
 20
63.022108405063385
 10
75.14803385433525
 20
63.08136718766858
 10
75.20904168528543
 20
63.06910873958013
 10
75.35169772605909
 20
63.01227738693177
 10
75.55471422494688
 20
62.92005254355497
 10
75.79680343023942
 20
62.801613623281185
 10
76.0017659097089
 20
62.699524200267064
 10
76.16992970598493
 20
62.62351961841144
 10
76.47448856008695
 20
62.53862389847808
 10
76.65019727347808
 20
62.52416222055151
 10
76.86773461480604
 20
62.5246443040858
 10
77.1467574118534
 20
62.53728487915654
 10
77.50692249240274
 20
62.55929867583931
 10
77.9313439933995
 20
62.589084118177276
 10
78.27890848214331
 20
62.61905285592071
 10
78.51374935291616
 20
62.64571722003994
 10
78.57769011727659
 20
62.65672036541871
 10
78.60000000000001
 20
62.665589541505305
 10
78.59043541787594
 20
62.69531951329805
 10
78.56439323882523
 20
62.74882401444727
 10
78.52585081383019
 20
62.81851615499508
 10
78.4787854938731
 20
62.8968090449836
 10
78.43536678729009
 20
62.975651869430145
 10
78.40675326009575
 20
63.046841356274584
 10
78.3954058497901
 20
63.10256192994281
 10
78.4037854938731
 20
63.134998014860734
 10
78.47531998987925
 20
63.16302763115765
 10
78.6623937825802
 20
63.22623874854104
 10
78.95230755466561
 20
63.32059774277701
 10
79.33236198882523
 20
63.442070989631624
 10
79.78985776774876
 20
63.58662486487097
 10
80.31209557412593
 20
63.75022574426114
 10
80.88637609064644
 20
63.928840003568205
 10
81.5
 20
64.11843401855826
 10
84.55000000000001
 20
65.05777632847462
 10
84.77420741240411
 20
66.75388816423731
 10
84.86555615830562
 20
67.44467056850073
 10
84.94853654636796
 20
68.07169246191464
 10
84.98403169945529
 20
68.33971522258173
 10
85.01400647497785
 20
68.5659042621709
 10
85.03731811023398
 20
68.74162838289365
 10
85.05282384252206
 20
68.85825638696143
 10
85.1072328602359
 20
69.26651277392287
 10
86.015224052229
 20
69.53831543151718
 10
86.37120378664152
 20
69.64042752776476
 10
86.66923878259456
 20
69.71753010742266
 10
86.87811182925282
 20
69.76212839563662
 10
86.966605715781
 20
69.76672761755235
 10
86.98022153678185
 20
69.68384496654862
 10
86.97961939820095
 20
69.48846330295655
 10
86.96641629806135
 20
69.19669066050623
 10
86.94222923438606
 20
68.8246350729278
 10
86.90867520519811
 20
68.38840457395139
 10
86.86737120852052
 20
67.90410719730707
 10
86.76798130478856
 20
66.85574394593526
 10
86.65699550737443
 20
65.80840958865329
 10
86.60119664359411
 20
65.3253983296213
 10
86.54734980046233
 20
64.8909683953021
 10
86.49707197600212
 20
64.52122781942583
 10
86.4519801682365
 20
64.23228463572259
 10
86.4136913751885
 20
64.04024687792253
 10
86.38382259488115
 20
63.96122257975571
 10
86.31590249480595
 20
63.937760667054974
 10
86.13437560828147
 20
63.879484234309885
 10
85.85166432527673
 20
63.79027074961443
 10
85.48019103576073
 20
63.673997681062616
 10
85.03237812970242
 20
63.53454249674843
 10
84.52064799707085
 20
63.37578266476588
 10
83.95742302783499
 20
63.20159565320896
 10
83.35512561196384
 20
63.01585893017166
 10
82.18844832733181
 20
62.65393337016259
 10
81.67536461815298
 20
62.49282733933369
 10
81.22576076023225
 20
62.35026783912247
 10
80.85211917544464
 20
62.23023639290442
 10
80.56692228566516
 20
62.13671452405499
 10
80.38265251276879
 20
62.073683755949645
 10
80.31179227863052
 20
62.04512561196384
 10
80.30231381836019
 20
62.016972672526826
 10
80.31232856518108
 20
61.97614106518103
 10
80.33954376573571
 20
61.928103661569004
 10
80.38166666666669
 20
61.87833333333331
 10
80.46422350041588
 20
61.783302578890826
 10
80.499265322786
 20
61.7054714838756
 10
80.48110591104542
 20
61.64247500517138
 10
80.40405904246248
 20
61.591948099661906
 10
80.26243849430553
 20
61.55152572423093
 10
80.05055804384297
 20
61.51884283576219
 10
79.76273146834312
 20
61.491534391139446
 10
79.39327254507437
 20
61.46723534724644
 10
79.03191083169884
 20
61.447444192306676
 10
78.75088731891242
 20
61.43647590453992
 10
78.53134978814354
 20
61.436937807190695
 10
78.35444602082066
 20
61.45143722350354
 10
78.05313090222668
 20
61.53297789009356
 10
77.8910151138125
 20
61.605233786859806
 10
77.69612421455811
 20
61.70195649026624
 10
77.4637237345511
 20
61.81768119678005
 10
77.26740855258926
 20
61.91244971901571
 10
77.12786222221804
 20
61.97648250431007
 10
77.0657682969829
 20
62.0
 10
77.04503489306475
 20
61.95379610488666
 10
77.01810384350718
 20
61.82799342017214
 10
76.98845927714953
 20
61.64180544679464
 10
76.95958532283117
 20
61.414445685692385
 10
76.89333739066403
 20
60.82889137138476
 10
76.15343524048954
 20
60.61390377306647
 10
75.85537868647023
 20
60.52629665578372
 10
75.59079840857017
 20
60.44668828258255
 10
75.3884495721852
 20
60.38385096851472
 10
75.27708734271117
 20
60.34655702863199
 10
75.18070443470425
 20
60.37117459793195
 10
75.02295263180423
 20
60.48445124171242
 10
74.81735241595949
 20
60.67507856511028
  0
LWPOLYLINE
  5
55
330
17
100
AcDbEntity
  8
C01_120203
100
AcDbPolyline
 90
55
 70
1
 10
129.9
 20
61.24654446807897
 10
129.91742953598882
 20
61.29024256127852
 10
129.96678899822552
 20
61.383716178212296
 10
130.04368466811553
 20
61.519833298443196
 10
130.14372282706424
 20
61.69146190153412
 10
130.3956517377592
 20
62.11272547454763
 10
130.68742598155364
 20
62.59045073375601
 10
130.98389580969064
 20
63.06758151566244
 10
131.2499114734134
 20
63.487061656770095
 10
131.36051469713288
 20
63.657352685931635
 10
131.45032322396497
 20
63.79183499358217
 10
131.51494333531508
 20
63.883376559284606
 10
131.54998131258859
 20
63.924845362601836
 10
131.62251418285683
 20
63.96667174708355
 10
131.75239310484113
 20
64.0281679779776
 10
131.93292152866275
 20
64.10681132947927
 10
132.157402904443
 20
64.20007907578386
 10
132.7114383123645
 20
64.420396849583
 10
133.3609269295759
 20
64.6689394929374
 10
134.7319741957497
 20
65.16997216256149
 10
135.34638804665266
 20
65.38209857595596
 10
135.84196551072674
 20
65.54172263315522
 10
137.05485725382653
 20
65.87338769712065
 10
137.63590599120826
 20
66.00732245707519
 10
138.18170300577282
 20
66.11662779048693
 10
138.67850807249147
 20
66.19878051346281
 10
139.1125809663354
 20
66.2512574421098
 10
139.4701814622759
 20
66.27153539253487
 10
139.73756933528412
 20
66.257091180845
 10
140.09523020018665
 20
66.15149827985078
 10
140.3669233996782
 20
65.9623874996992
 10
140.5395472331517
 20
65.70298429761422
 10
140.6
 20
65.38651413081985
 10
140.59034076058555
 20
65.25040720880051
 10
140.55813853348815
 20
65.16206676400661
 10
140.49855655542677
 20
65.11432146991436
 10
140.40675806312038
 20
65.10000000000001
 10
140.34445251997016
 20
65.09394405104533
 10
140.2409232112331
 20
65.07658752748621
 10
139.93224342750315
 20
65.01284069638429
 10
139.52481897293978
 20
64.91849538635344
 10
139.06275010855222
 20
64.80328747705288
 10
138.24065607132533
 20
64.57152874280645
 10
137.3219696176094
 20
64.27748780767462
 10
136.33216343199504
 20
63.93103932268343
 10
135.29671019907292
 20
63.5420579388589
 10
133.19075332966793
 20
62.67599507881397
 10
132.17119506236634
 20
62.21866290464561
 10
131.20788048611954
 20
61.758296435748036
 10
130.84619743429897
 20
61.58061294333086
 10
130.55464815042566
 20
61.44070389130376
 10
130.32647974924816
 20
61.3359269875372
 10
130.15493934551515
 20
61.263639939901644
 10
130.0332740539752
 20
61.221200456267574
 10
129.95473098937694
 20
61.20596624450546
  0
LWPOLYLINE
  5
56
330
17
100
AcDbEntity
  8
C01_120203
100
AcDbPolyline
 90
46
 70
1
 10
34.6
 20
65.52662449548028
 10
34.64781264253277
 20
65.57993390488747
 10
34.78484504864344
 20
65.71708065842816
 10
35.001488936100536
 20
65.92881247860379
 10
35.2881360226726
 20
66.20587708791581
 10
35.635178026128166
 20
66.53902220886566
 10
36.033006664235764
 20
66.9189955639548
 10
36.47201365476393
 20
67.33654487568464
 10
36.942590715481195
 20
67.78241786655666
 10
39.285181430962396
 20
69.99793659598008
 10
40.9675907154812
 20
70.78412797833165
 10
41.7120499740235
 20
71.1277057084215
 10
42.38047793512606
 20
71.4270286171126
 10
42.97509458019652
 20
71.68297237982624
 10
43.49811989064249
 20
71.89641267198375
 10
43.95177384787161
 20
72.06822516900647
 10
44.338276433291476
 20
72.1992855463157
 10
44.65984762830974
 20
72.29046947933277
 10
44.918707414334015
 20
72.342652643479
 10
45.112997133507996
 20
72.36245786369923
 10
45.26763103071418
 20
72.35590995863821
 10
45.38684728179849
 20
72.3174772991604
 10
45.474884062606876
 20
72.24162825613024
 10
45.53597954898528
 20
72.12283120041218
 10
45.57437191677964
 20
71.95555450287065
 10
45.5942993418359
 20
71.73426653437015
 10
45.6
 20
71.45343566577507
 10
45.59213533515131
 20
71.17632117599827
 10
45.56444422707016
 20
70.99498276328849
 10
45.510781005453936
 20
70.88761065180213
 10
45.425000000000004
 20
70.83239506569561
 10
45.12045876442833
 20
70.71852951398542
 10
44.750418085771756
 20
70.56789833080332
 10
44.319936165707674
 20
70.38297795094924
 10
43.83407120591346
 20
70.16624480922309
 10
43.2978814080665
 20
69.9201753404248
 10
42.716424973844184
 20
69.6472459793543
 10
42.09476010492388
 20
69.34993316081152
 10
41.43794500298297
 20
69.03071331959637
 10
40.03909690674889
 20
68.33645830834872
 10
38.560346298560994
 20
67.58429242401074
 10
35.525
 20
65.9854739496614
 10
35.16583984375
 20
65.79485134276875
 10
34.87171875
 20
65.64479823296413
 10
34.67298828125
 20
65.55037061796287
 10
34.61887939453125
 20
65.52872137029954
  0
LWPOLYLINE
  5
57
330
17
100
AcDbEntity
  8
C01_120203
100
AcDbPolyline
 90
69
 70
1
 10
88.67627227089636
 20
66.325
 10
88.6966716972164
 20
66.60801883898458
 10
88.7155722012088
 20
66.84267099958613
 10
88.73086786077742
 20
67.00453744727645
 10
88.74045275382615
 20
67.06919914752727
 10
88.76864626664985
 20
67.07783042482461
 10
88.84844865452344
 20
67.09931807236975
 10
88.97721334336808
 20
67.13299254990858
 10
89.15229375910499
 20
67.17818431718698
 10
89.37104332765537
 20
67.23422383395086
 10
89.63081547494039
 20
67.30044155994612
 10
90.26284120939923
 20
67.46073347861436
 10
91.02719836985108
 20
67.65370375115886
 10
91.90271436366554
 20
67.87399605554678
 10
92.86821659821219
 20
68.11625406974532
 10
93.9025324808606
 20
68.37512147172164
 10
99.05000000000001
 20
69.66184464838875
 10
99.16517013275981
 20
71.35592232419438
 10
99.21066417383237
 20
72.0185160552849
 10
99.24939656252323
 20
72.57029032835477
 10
99.26494539894426
 20
72.78662352547786
 10
99.27726573633238
 20
72.95365588691088
 10
99.28584487937506
 20
73.0641887555922
 10
99.29017013275981
 20
73.11102347446015
 10
99.37531099578622
 20
73.16053596050828
 10
99.59248687423032
 20
73.24233792959703
 10
99.89838043887943
 20
73.34356504980839
 10
100.24967436052093
 20
73.45135298922443
 10
100.60305130994216
 20
73.55283741592716
 10
100.91519395793047
 20
73.6351539979986
 10
101.1427849752732
 20
73.6854384035208
 10
101.2425070327577
 20
73.69082630057578
 10
101.25085990950143
 20
73.62246923013495
 10
101.24931225479286
 20
73.45426650755536
 10
101.23901278934751
 20
73.2004627178259
 10
101.22111023388092
 20
72.87530244593547
 10
101.19675330910864
 20
72.49303027687297
 10
101.1670907357462
 20
72.06789079562728
 10
101.09644352611296
 20
71.14598823654194
 10
101.01835837070554
 20
70.22355144859064
 10
100.97939836512535
 20
69.79774418126249
 10
100.94202503524821
 20
69.41453711168452
 10
100.90738710178967
 20
69.08817482484565
 10
100.87663328546527
 20
68.83290190573477
 10
100.85091230699054
 20
68.66296293934077
 10
100.83137288708102
 20
68.59260251065255
 10
100.78695075110305
 20
68.57351069762713
 10
100.67920272565132
 20
68.5393139129192
 10
100.5123033964101
 20
68.49104247940393
 10
100.29042734906362
 20
68.42972671995643
 10
100.01774916929612
 20
68.35639695745185
 10
99.69844344279186
 20
68.27208351476533
 10
98.93664769230995
 20
68.07462688034697
 10
98.03843678309183
 20
67.84559939970248
 10
97.03720740061145
 20
67.59324365583294
 10
94.85927995775963
 20
67.05151771042307
 10
92.67003884754594
 20
66.5153897081261
 10
91.65466738086324
 20
66.27003139314768
 10
90.73665755376189
 20
66.05080031295077
 10
89.94940605171581
 20
65.86593905053644
 10
89.6152511367991
 20
65.7889729081856
 10
89.32630956019895
 20
65.72369018890582
 10
89.08675590759957
 20
65.67112121557223
 10
88.90076476468522
 20
65.63229631105997
 10
88.77251071714015
 20
65.60824579824418
 10
88.70616835064858
 20
65.60000000000001
 10
88.67922507834342
 20
65.65720703125001
 10
88.66460733087176
 20
65.81296875000001
 10
88.66329607335045
 20
66.04349609375001
  0
LWPOLYLINE
  5
58
330
17
100
AcDbEntity
  8
C01_120203
100
AcDbPolyline
 90
48
 70
1
 10
72.7089363661144
 20
68.68114809651615
 10
71.16787273222882
 20
70.15400237484484
 10
71.43331227135286
 20
70.81749673762361
 10
71.63806610350582
 20
71.41229640492546
 10
71.80851146455444
 20
72.07438064700482
 10
71.94198982143327
 20
72.77768049654367
 10
72.03584264107681
 20
73.49612698622401
 10
72.08741139041958
 20
74.20365114872783
 10
72.0940375363961
 20
74.8741840167371
 10
72.05306254594089
 20
75.48165662293384
 10
71.96182788598846
 20
76.0
 10
71.73859557788275
 20
76.69232356410303
 10
71.42637233822754
 20
77.38880544954031
 10
71.05314731058968
 20
78.03463461020743
 10
70.64690963853603
 20
78.575
 10
70.47273695856742
 20
78.77884765625001
 10
70.34033973550379
 20
78.94578125000001
 10
70.26265553501824
 20
79.05857421875001
 10
70.25262192278389
 20
79.10000000000001
 10
70.33334250223054
 20
79.07148379664025
 10
70.50276129889622
 20
78.99384066868049
 10
70.73607651161639
 20
78.87892883930007
 10
71.00848633922656
 20
78.73860653167827
 10
71.4827211807329
 20
78.44895564183788
 10
71.93966773529085
 20
78.0917296892238
 10
72.37081328234329
 20
77.67775488620374
 10
72.7676451013331
 20
77.21785744514547
 10
73.12165047170316
 20
76.72286357841674
 10
73.42431667289637
 20
76.20359949838529
 10
73.66713098435558
 20
75.67089141741886
 10
73.8415806855237
 20
75.13556554788521
 10
73.9414593007478
 20
74.60557407610659
 10
73.99339085917585
 20
73.99569557151787
 10
73.99921449750282
 20
73.32784707426798
 10
73.96076935242367
 20
72.62394562450582
 10
73.87989456063337
 20
71.90590826238035
 10
73.75842925882688
 20
71.19565202804048
 10
73.59821258369917
 20
70.51509396163516
 10
73.40108367194519
 20
69.88615110331328
 10
73.09940502120845
 20
69.05
 10
73.74090874408019
 20
68.44375677095415
 10
73.9377802100576
 20
68.2557492016637
 10
74.08865690830253
 20
68.10504460301766
 10
74.19868489699509
 20
67.9834059086834
 10
74.27301023431538
 20
67.88259605232832
 10
74.33513718755958
 20
67.71051458822534
 10
74.31620623347597
 20
67.52290368004789
 10
74.25
 20
67.20829381818747
  0
LWPOLYLINE
  5
59
330
17
100
AcDbEntity
  8
C01_120203
100
AcDbPolyline
 90
57
 70
1
 10
78.83837485027546
 20
69.275
 10
78.85189048902203
 20
69.38196533203126
 10
78.86889834615351
 20
69.54291015625
 10
78.91064354167052
 20
69.99515625000001
 10
78.95811608902503
 20
70.56857421875
 10
79.00582164041555
 20
71.2
 10
79.0336430969332
 20
71.5601823711477
 10
79.06215706480063
 20
71.87718888278029
 10
79.09127853060878
 20
72.15043188926946
 10
79.12092248094855
 20
72.37932374498689
 10
79.15100390241093
 20
72.56327680430428
 10
79.18143778158687
 20
72.70170342159332
 10
79.21213910506727
 20
72.79401595122572
 10
79.2430228594431
 20
72.83962674757313
 10
79.32115036254241
 20
72.87627383112786
 10
79.49625047276149
 20
72.94650135377363
 10
79.75718193954333
 20
73.04619527354366
 10
80.09280351233086
 20
73.1712415484712
 10
80.49197394056706
 20
73.31752613658949
 10
80.9435519736949
 20
73.48093499593179
 10
81.95936585239728
 20
73.84266936042131
 10
84.55000000000001
 20
74.75608522569637
 10
84.57796219634356
 20
76.02462774421959
 10
84.60592439268713
 20
77.29317026274282
 10
85.42796219634357
 20
77.55031755911318
 10
85.76179324589344
 20
77.65461235709752
 10
86.0630619697619
 20
77.748491658389
 10
86.29870351280209
 20
77.82166760325364
 10
86.43565301986715
 20
77.86385233195752
 10
86.5376444545723
 20
77.86613121956823
 10
86.5677719935193
 20
77.82049571889016
 10
86.58562214342481
 20
77.72736195967481
 10
86.5924209517105
 20
77.57449372026095
 10
86.58939446579805
 20
77.3496547789873
 10
86.57776873310914
 20
77.04060891419265
 10
86.55876980106544
 20
76.63511990421573
 10
86.53006358633885
 20
76.0720004766233
 10
86.49813193158445
 20
75.48875713266872
 10
86.46686672558748
 20
74.95422639911914
 10
86.44015985713322
 20
74.53724480274164
 10
86.38408615186985
 20
73.72448960548326
 10
83.6973585169372
 20
72.74719626082617
 10
81.01063088200455
 20
71.7699029161691
 10
80.95323274790347
 20
71.20995145808455
 10
80.92519249739937
 20
70.94539064841894
 10
80.89127585679236
 20
70.63898622348027
 10
80.85575880149034
 20
70.32871525997618
 10
80.8229173069012
 20
70.05255483461427
 10
80.75
 20
69.45510966922855
 10
79.9
 20
69.18531085892461
 10
79.52510485623677
 20
69.06701210076385
 10
79.24487139936103
 20
68.98356490187838
 10
79.04656764307873
 20
68.93604489702989
 10
78.91746160109577
 20
68.92552772098
 10
78.84482128711805
 20
68.95308900849041
 10
78.81591471485149
 20
69.01980439432278
 10
78.81800989800199
 20
69.12674951323875
  0
LWPOLYLINE
  5
5A
330
17
100
AcDbEntity
  8
C01_120203
100
AcDbPolyline
 90
164
 70
1
 10
104.13930111958157
 20
69.25817874682359
 10
104.16286935674404
 20
69.36184973358363
 10
104.1821697038771
 20
69.52719132441823
 10
104.19521047896698
 20
69.7314426643533
 10
104.2
 20
69.95184289841477
 10
104.20081560682947
 20
70.12627257991898
 10
104.20560329422112
 20
70.25844704425867
 10
104.24114011211049
 20
70.42135388442665
 10
104.33470085650718
 20
70.49121054488279
 10
104.51437593025024
 20
70.5186641515912
 10
104.69349113691264
 20
70.5541456190454
 10
104.81961310340691
 20
70.65440653851525
 10
104.93512525498927
 20
70.87588022662528
 10
105.00214747058106
 20
71.04970727036552
 10
105.08241101691597
 20
71.275
 10
105.18792061596805
 20
71.55650390625
 10
105.28768609095272
 20
71.78703125
 10
105.37046566467673
 20
71.94279296875
 10
105.42501755994691
 20
72.0
 10
105.49396005334148
 20
71.976328125
 10
105.61592194869135
 20
71.911875
 10
105.77367725968227
 20
71.816484375
 10
105.95
 20
71.7
 10
106.12710226610062
 20
71.583515625
 10
106.28698004828256
 20
71.48812500000001
 10
106.41208320099513
 20
71.42367187500001
 10
106.48486157868763
 20
71.4
 10
106.5403024259935
 20
71.4276171875
 10
106.61819943161373
 20
71.5028125
 10
106.708212116099
 20
71.6141015625
 10
106.80000000000001
 20
71.75
 10
106.97070121761129
 20
71.98933018023888
 10
107.12020780670505
 20
72.07961777756046
 10
107.28940477612107
 20
72.0255032708337
 10
107.51917713469908
 20
71.83162713892757
 10
107.79929804162106
 20
71.56325427785514
 10
108.33409953628814
 20
71.7318355980495
 10
108.86890103095523
 20
71.90041691824386
 10
108.93180855889473
 20
76.12520845912194
 10
108.95819353142485
 20
77.55990058346612
 10
108.99370137724937
 20
78.9256972401582
 10
109.03851469006759
 20
80.22436641573702
 10
109.09281606357891
 20
81.45767609674144
 10
109.15678809148265
 20
82.62739426971027
 10
109.23061336747818
 20
83.73528892118235
 10
109.31447448526484
 20
84.78312803769654
 10
109.408554038542
 20
85.7726796057917
 10
109.51303462100898
 20
86.70571161200662
 10
109.62809882636516
 20
87.58399204288018
 10
109.75392924830989
 20
88.40928888495121
 10
109.8907084805425
 20
89.18337012475855
 10
110.03861911676236
 20
89.90800374884104
 10
110.19784375066882
 20
90.58495774373753
 10
110.36856497596122
 20
91.21600009598686
 10
110.55096538633893
 20
91.80289879212785
 10
110.72052966134574
 20
92.26878553094907
 10
110.89913463087778
 20
92.6648312357
 10
111.09502145206736
 20
93.00010591991034
 10
111.31643128204674
 20
93.28367959710977
 10
111.57160527794821
 20
93.52462228082798
 10
111.86878459690404
 20
93.7320039845947
 10
112.2162103960465
 20
93.91489472193958
 10
112.6221238325079
 20
94.08236450639234
 10
113.24453759173902
 20
94.28338038995437
 10
113.95836917260026
 20
94.4577039315573
 10
114.7634197730916
 20
94.60531243363853
 10
115.65949059121306
 20
94.72618319863547
 10
116.64638282496463
 20
94.82029352898553
 10
117.72389767234631
 20
94.88762072712615
 10
118.8918363313581
 20
94.92814209549472
 10
120.15
 20
94.94183493652865
 10
121.76751786796387
 20
94.92034127842378
 10
123.34797055169807
 20
94.85704993312243
 10
124.86653018043889
 20
94.75476086503933
 10
126.29836888342265
 20
94.61627403858921
 10
127.61865878988573
 20
94.4443894181868
 10
128.8025720290644
 20
94.24190696824681
 10
129.33562868880844
 20
94.13006654607982
 10
129.825280730195
 20
94.01162665318395
 10
130.26842466937865
 20
93.88693728511106
 10
130.6619570225139
 20
93.75634843741297
 10
131.41453694399559
 20
93.43157661272227
 10
131.72897000898317
 20
93.2637787712858
 10
131.97213627074615
 20
93.1129659498051
 10
132.12151407474266
 20
92.99458287779252
 10
132.15458176643082
 20
92.92407428476042
 10
132.12046130311498
 20
92.91159939583468
 10
132.04881769126885
 20
92.91688490022119
 10
131.9368357240747
 20
92.94186138910901
 10
131.78170019471483
 20
92.98845945368718
 10
131.53082751259132
 20
93.06074955549362
 10
131.22378882138233
 20
93.13260695169826
 10
130.86455230646197
 20
93.20362400152051
 10
130.45708615320447
 20
93.27339306417976
 10
130.0053585469839
 20
93.34150649889538
 10
129.5133376731744
 20
93.40755666488677
 10
128.42428886428524
 20
93.53183662757442
 10
127.2216852095301
 20
93.6429718259978
 10
125.9372721919021
 20
93.73770113391203
 10
123.25
 20
93.86489757323338
 10
121.64385124277132
 20
93.88189865780468
 10
120.1009974062656
 20
93.83981365521113
 10
118.64719813915718
 20
93.74217364201868
 10
117.30821309012042
 20
93.59250969479332
 10
116.68982578758963
 20
93.49927220734517
 10
116.10980190782962
 20
93.39435289010103
 10
115.5713614069247
 20
93.27819312763165
 10
115.07772424095916
 20
93.1512343045078
 10
114.63211036601726
 20
93.01391780530018
 10
114.23773973818334
 20
92.86668501457956
 10
113.89783231354166
 20
92.7099773169167
 10
113.61560804817651
 20
92.54423609688234
 10
113.31077371705292
 20
92.28003435962087
 10
113.02438693644166
 20
91.91065361288159
 10
112.75637839234504
 20
91.43565541530134
 10
112.50667877076545
 20
90.85460132551697
 10
112.2752187577052
 20
90.16705290216535
 10
112.06192903916666
 20
89.37257170388335
 10
111.86674030115215
 20
88.4707192893078
 10
111.68958322966401
 20
87.46105721707556
 10
111.53038851070461
 20
86.34314704582351
 10
111.38908683027627
 20
85.11655033418849
 10
111.26560887438134
 20
83.78082864080736
 10
111.15988532902217
 20
82.33554352431696
 10
111.0718468802011
 20
80.78025654335418
 10
111.00142421392046
 20
79.11452925655585
 10
110.9485480161826
 20
77.33792322255884
 10
110.91314897298987
 20
75.45
 10
110.85000000000001
 20
70.85000000000001
 10
110.29026905552249
 20
70.70826459561306
 10
110.10743454979028
 20
70.66289096917315
 10
109.96467464073622
 20
70.63206765913691
 10
109.75942056543889
 20
70.61928336924254
 10
109.59459073518335
 20
70.68033448786402
 10
109.39026905552248
 20
70.82564377693546
 10
109.05000000000001
 20
71.08475836264482
 10
108.7685145708932
 20
70.69237918132241
 10
108.65207086517312
 20
70.54002570232457
 10
108.54310439762521
 20
70.41526138451346
 10
108.45382392414837
 20
70.33096116977622
 10
108.39643820064148
 20
70.3
 10
108.32564449826664
 20
70.32510654581809
 10
108.19985715163452
 20
70.39346595274854
 10
108.03686051181678
 20
70.4946378750056
 10
107.85443892988513
 20
70.61818196680353
 10
107.67518106670131
 20
70.73774158589958
 10
107.52079851258313
 20
70.82806469634458
 10
107.40776001278633
 20
70.88036786179318
 10
107.35253431256668
 20
70.8858676459
 10
107.31039222180159
 20
70.81160365482255
 10
107.23297741111378
 20
70.64672822447231
 10
107.1313179168769
 20
70.41562701313504
 10
107.0164417754646
 20
70.14268567909647
 10
106.73084552606954
 20
69.45
 10
105.98820065508049
 20
69.48251900153161
 10
105.60540357498012
 20
69.48825600538895
 10
105.29113230916815
 20
69.46442804877474
 10
105.00811401746671
 20
69.40589556853897
 10
104.71907585969798
 20
69.30751900153162
 10
104.50955923191516
 20
69.22560644137927
 10
104.35100506174066
 20
69.16634010597143
 10
104.23750994683719
 20
69.12921760126639
 10
104.16317048486752
 20
69.11373653322245
 10
104.10834491038052
 20
69.14568913095104
  0
LWPOLYLINE
  5
5B
330
17
100
AcDbEntity
  8
C01_120203
100
AcDbPolyline
 90
50
 70
1
 10
63.953662864906214
 20
70.825
 10
64.01403429130983
 20
71.58920917274962
 10
64.09492259450558
 20
72.38826052100002
 10
64.29705553136947
 20
73.94880015143043
 10
64.40770301508566
 20
74.63924363732404
 10
64.51767307569003
 20
75.22243970614564
 10
64.57074826764529
 20
75.46271920973467
 10
64.6216671382066
 20
75.66286595975203
 10
64.66976736550198
 20
75.81843965642976
 10
64.71438662765941
 20
75.925
 10
64.7941053331128
 20
76.0135685119075
 10
64.94609309920548
 20
76.06692201058443
 10
65.2124730358868
 20
76.09306450396917
 10
65.40172354005733
 20
76.09843287615769
 10
65.63536825310602
 20
76.10000000000001
 10
66.36143649533265
 20
76.06141332667195
 10
66.95697235748437
 20
75.94632571608764
 10
67.41848787707511
 20
75.75574578234686
 10
67.74249509161878
 20
75.49068213954936
 10
67.84247941932617
 20
75.36457230280439
 10
67.92435793316301
 20
75.24742923757522
 10
67.97968125332305
 20
75.1523239563972
 10
68.0
 20
75.09232747180566
 10
67.94908182810062
 20
75.05647844564362
 10
67.81044324124586
 20
75.02712119484292
 10
67.60525813270083
 20
75.00728521457216
 10
67.35470039573059
 20
75.0
 10
66.70940079146116
 20
75.0
 10
66.6034113659881
 20
74.625
 10
66.55277169051604
 20
74.41670105898041
 10
66.48648879443154
 20
74.10168606818645
 10
66.4097788885595
 20
73.70875084176251
 10
66.32785818372481
 20
73.26669119385302
 10
66.16924922046708
 20
72.35038189015502
 10
66.10299338369383
 20
71.93372386265533
 10
66.05239159125752
 20
71.58312467024773
 10
66.00720170331917
 20
71.34185193391282
 10
65.93644393516071
 20
71.15940130971633
 10
65.82558602436451
 20
71.00915123089356
 10
65.66009570851294
 20
70.86448013067982
 10
65.49192621841287
 20
70.74665329797774
 10
65.26456535250196
 20
70.60154191535787
 10
64.72553528509764
 20
70.28247278098148
 10
64.46049897952919
 20
70.1350186695334
 10
64.22953708999988
 20
70.01328728878431
 10
64.05596606447219
 20
69.93053045888846
 10
63.96310235090863
 20
69.9
 10
63.940612024848086
 20
69.97298828125001
 10
63.9313355130712
 20
70.17171875000001
 10
63.935582548712425
 20
70.46583984375
  0
LWPOLYLINE
  5
5C
330
17
100
AcDbEntity
  8
C01_120203
100
AcDbPolyline
 90
16
 70
1
 10
58.6638373600523
 20
72.85000000000001
 10
58.64913071502656
 20
72.90824218750001
 10
58.651638398605755
 20
72.9559375
 10
58.67007084280362
 20
72.9881640625
 10
58.70313847963387
 20
73.0
 10
58.74074799183854
 20
72.9881640625
 10
58.77154692839245
 20
72.9559375
 10
58.79235702065861
 20
72.90824218750001
 10
58.800000000000004
 20
72.85000000000001
 10
58.79689889603302
 20
72.79175781250001
 10
58.78845529612292
 20
72.7440625
 10
58.77595876825596
 20
72.7118359375
 10
58.76069888041843
 20
72.7
 10
58.740897117206494
 20
72.7118359375
 10
58.71603409698349
 20
72.7440625
 10
58.68928808838642
 20
72.79175781250001
  0
LWPOLYLINE
  5
5D
330
17
100
AcDbEntity
  8
C01_120203
100
AcDbPolyline
 90
84
 70
1
 10
92.40217479595901
 20
73.025
 10
92.40771578964153
 20
73.17252631157555
 10
92.42132847976391
 20
73.36903903550713
 10
92.46866888274249
 20
73.87707357914485
 10
92.6151093135344
 20
75.12952806046377
 10
92.69780907500459
 20
75.7461474329708
 10
92.77589502296212
 20
76.2711611832601
 10
92.81064527525754
 20
76.47934711176465
 10
92.84116702423546
 20
76.64066902874461
 10
92.86643525324942
 20
76.7471393988766
 10
92.885424945653
 20
76.79077068683722
 10
92.9574918958241
 20
76.81885522950502
 10
93.1266838222404
 20
76.87634626787839
 10
93.38200696161393
 20
76.95974805503185
 10
93.71246755065674
 20
77.06556484403986
 10
94.1070718260809
 20
77.19030088797689
 10
94.55482602459846
 20
77.33046043991743
 10
95.56580913776195
 20
77.64306708010696
 10
96.57189870974686
 20
77.95292881760493
 10
97.01391753265041
 20
78.08987126205919
 10
97.40093318543006
 20
78.21035066853022
 10
97.72220627203735
 20
78.31101397067796
 10
97.96699739642382
 20
78.38850810216233
 10
98.124567162541
 20
78.43947999664326
 10
98.18417617434041
 20
78.46057658778068
 10
98.19527509376684
 20
78.4929391125181
 10
98.21381354250879
 20
78.57619949612055
 10
98.23880056413343
 20
78.70474070473024
 10
98.26924520220793
 20
78.87294570448941
 10
98.34254350197509
 20
79.30587894202513
 10
98.42578079034753
 20
79.83006293786555
 10
98.63320923201425
 20
81.17510686038362
 10
99.69160461600713
 20
81.41741398355016
 10
100.00309119119946
 20
81.48758237248617
 10
100.24847765632903
 20
81.53954635650891
 10
100.4357080323082
 20
81.57394562840214
 10
100.57272634004931
 20
81.59141988094967
 10
100.72790283446676
 20
81.57815209914273
 10
100.77755930688018
 20
81.50486055335836
 10
100.77818055925194
 20
81.42099630071343
 10
100.76550634429624
 20
81.2644596724646
 10
100.74121204228341
 20
81.0458835070712
 10
100.70697303348373
 20
80.77590064299253
 10
100.61536241660517
 20
80.12424617261662
 10
100.50407753582303
 20
79.39455896901134
 10
100.38652143329985
 20
78.67190173985117
 10
100.27609715119813
 20
78.04133719281059
 10
100.2277478934811
 20
77.78717177123342
 10
100.18620773168037
 20
77.58792803556406
 10
100.15315204606627
 20
77.45423882426185
 10
100.13025621690909
 20
77.39673697578608
 10
100.06223911214556
 20
77.36689014302078
 10
99.8984654214798
 20
77.30999692406294
 10
99.64969304613652
 20
77.22937967326226
 10
99.3266798873404
 20
77.12836074496845
 10
98.94018384631619
 20
77.01026249353122
 10
98.50096282428859
 20
76.8784072733003
 10
97.50737744212205
 20
76.5867153438562
 10
96.51107783400127
 20
76.2917978160777
 10
96.0686756585347
 20
76.15616209878901
 10
95.67797055176707
 20
76.0330617746872
 10
95.34986150092567
 20
75.9259868653621
 10
95.09524749323776
 20
75.83842739240362
 10
94.92502751593065
 20
75.77387337740159
 10
94.85010055623161
 20
75.7358148419459
 10
94.79626985379781
 20
75.60600869308352
 10
94.73445733494572
 20
75.33733233494571
 10
94.6722976514338
 20
74.96901416929094
 10
94.61742545502057
 20
74.5402825978777
 10
94.56570572008957
 20
74.11514620110441
 10
94.5121294713065
 20
73.75661687729108
 10
94.46302043585307
 20
73.50242800507857
 10
94.44211728786927
 20
73.42625291914791
 10
94.42470234091103
 20
73.39031296310779
 10
94.32507123558617
 20
73.3424451303881
 10
94.11368651119277
 20
73.26501119065888
 10
93.82647649654889
 20
73.16909115632934
 10
93.49936952047258
 20
73.06576503980872
 10
92.86917799929483
 20
72.88121460983115
 10
92.6379501118295
 20
72.82215032119265
 10
92.51053857820389
 20
72.8
 10
92.4677901258793
 20
72.81775390625
 10
92.43310955366036
 20
72.86609375
 10
92.41005254815195
 20
72.93763671875
  0
LWPOLYLINE
  5
5E
330
17
100
AcDbEntity
  8
C01_120203
100
AcDbPolyline
 90
74
 70
1
 10
79.30532147054956
 20
77.7170544734181
 10
79.32045920001747
 20
78.05004948566668
 10
79.35387144262877
 20
78.47725292127505
 10
79.45569127172496
 20
79.44815515320477
 10
79.51418476043158
 20
79.90878899484285
 10
79.57112456672502
 20
80.29750135047428
 10
79.62155364171613
 20
80.57275974275741
 10
79.64277757719546
 20
80.65486480347413
 10
79.66051493651578
 20
80.69303169435065
 10
79.7387005591317
 20
80.73042607176438
 10
79.92803374632176
 20
80.80575628948544
 10
80.21604786013027
 20
80.91448160267488
 10
80.59027626260152
 20
81.0520612664937
 10
81.0382523157798
 20
81.2139545361029
 10
81.54750938170945
 20
81.39562066666355
 10
82.7
 20
81.80010853128314
 10
83.85896368531664
 20
82.20515365762627
 10
84.37580737807016
 20
82.3874729154792
 10
84.83382149187183
 20
82.55023035456807
 10
85.22020291746011
 20
82.6888562634792
 10
85.5221485455735
 20
82.79878093079884
 10
85.72685526695051
 20
82.87543464511327
 10
85.82151997232961
 20
82.9142476950088
 10
85.90926708580784
 20
82.99982320597567
 10
85.96585476399888
 20
83.17920917249609
 10
85.98527382719062
 20
83.31958735969616
 10
86.00027504635528
 20
83.50202570051336
 10
86.01198242642442
 20
83.73272670819063
 10
86.02151997232961
 20
84.01789289597086
 10
86.05000000000001
 20
85.03247394882067
 10
87.04279731380505
 20
85.36510632727196
 10
87.43000686973649
 20
85.49237780184326
 10
87.75038210180753
 20
85.59301632215009
 10
87.97062953226703
 20
85.65689060141527
 10
88.05745568336383
 20
85.67386935286163
 10
88.06402419201038
 20
85.62254744746086
 10
88.06457099904624
 20
85.4970478088118
 10
88.05976850843578
 20
85.30795723496304
 10
88.05028912414338
 20
85.06586252396316
 10
88.01998929037029
 20
84.46500788270443
 10
87.97905072944204
 20
83.77917826942426
 10
87.93285267307367
 20
83.09306806851139
 10
87.88677435298024
 20
82.49137166435449
 10
87.86546110394758
 20
82.24864563118099
 10
87.8461950008768
 20
82.05878344134226
 10
87.82964844773228
 20
81.93237189288686
 10
87.8164938484784
 20
81.87999778386339
 10
87.76999697725644
 20
81.85655650463973
 10
87.65525267098225
 20
81.80950285176122
 10
87.47827369447249
 20
81.74099632837508
 10
87.24507281254387
 20
81.65319643762842
 10
86.96166279001304
 20
81.54826268266847
 10
86.6340563916967
 20
81.42835456664235
 10
85.87030552697422
 20
81.15225326398036
 10
85.00192233690986
 20
80.84216855481984
 10
84.07700894003708
 20
80.51537646433813
 10
83.1436674548893
 20
80.18915301771263
 10
82.25
 20
79.88077424012067
 10
82.01085692809957
 20
79.79541288774428
 10
81.80326440559837
 20
79.71485526459409
 10
81.6494774722966
 20
79.64816916585949
 10
81.57175116799442
 20
79.60442238672987
 10
81.53570699809269
 20
79.5147315369078
 10
81.49541102479212
 20
79.32295019618884
 10
81.4557851230927
 20
79.0572516149018
 10
81.42175116799443
 20
78.74580904337549
 10
81.35000000000001
 20
77.95811575076215
 10
80.61506132819109
 20
77.73482050345451
 10
80.17908491009325
 20
77.60303267951268
 10
79.85199729597615
 20
77.50868588322345
 10
79.61824821754838
 20
77.45156918221586
 10
79.4622874065185
 20
77.43147164411891
 10
79.36856459459511
 20
77.44818233656166
 10
79.32152951348677
 20
77.50149032717309
  0
LWPOLYLINE
  5
5F
330
17
100
AcDbEntity
  8
C01_120203
100
AcDbPolyline
 90
85
 70
1
 10
124.60724361004054
 20
79.1405769433739
 10
124.64449764274447
 20
79.16474852997392
 10
124.73195550796169
 20
79.21471172908474
 10
124.86393446569663
 20
79.28741280901876
 10
125.03475177595374
 20
79.3797980380884
 10
125.47017049405218
 20
79.61140601688402
 10
125.9927497422925
 20
79.88510581197077
 10
127.32852074832827
 20
80.57989955435148
 10
126.76426037416414
 20
80.69703955770441
 10
126.54516865075823
 20
80.74498098347992
 10
126.36575148491072
 20
80.78892085068709
 10
126.2445236701489
 20
80.82399329829622
 10
126.2
 20
80.84533246527752
 10
126.22602294921876
 20
80.86020594234671
 10
126.30060546875
 20
80.89073638506682
 10
126.57453125
 20
80.99133167447985
 10
126.97994140625
 20
81.13224534755683
 10
127.47500000000001
 20
81.29860441833794
 10
129.00275350332106
 20
81.86668800590326
 10
130.40657991076338
 20
82.51653311493622
 10
131.68054805093408
 20
83.24350843230116
 10
132.81872675244014
 20
84.04298264486238
 10
133.8151848438887
 20
84.91032443948421
 10
134.25841516978105
 20
85.36799839471296
 10
134.66399115388668
 20
85.84090250303097
 10
135.03117139978147
 20
86.3284578502963
 10
135.35921451104127
 20
86.83008552236699
 10
135.64737909124196
 20
87.34520660510105
 10
135.89492374395942
 20
87.87324218435657
 10
136.24514029802677
 20
88.84145415769642
 10
136.44869146862203
 20
89.7546353841535
 10
136.50504817012882
 20
90.61530168344497
 10
136.4136813169308
 20
91.42596887528795
 10
136.17406182341156
 20
92.18915277939962
 10
135.78566060395477
 20
92.90736921549713
 10
135.24794857294404
 20
93.58313400329762
 10
134.560396644763
 20
94.21896296251823
 10
134.36828283040833
 20
94.38012794387309
 10
134.25635826465017
 20
94.4879480223812
 10
134.22423709409952
 20
94.54253449896777
 10
134.27153346536738
 20
94.54399867455803
 10
134.39786152506468
 20
94.49245185007715
 10
134.60283541980243
 20
94.38800532645038
 10
134.8860692961916
 20
94.23077040460291
 10
135.24717730084322
 20
94.02085838545995
 10
135.6605512414061
 20
93.75411356293714
 10
136.07640118095463
 20
93.44379669291621
 10
136.87000511128963
 20
92.7376694907136
 10
137.2249971292165
 20
92.36447049869867
 10
137.5369412004099
 20
91.99292213951917
 10
137.79445633844
 20
91.63433008325849
 10
137.98616155687705
 20
91.30000000000001
 10
138.17962639855511
 20
90.85335483813384
 10
138.31941427650852
 20
90.41279875067961
 10
138.40564201587017
 20
89.9694514035096
 10
138.43842644177295
 20
89.51443246249603
 10
138.4178843793497
 20
89.03886159351121
 10
138.34413265373334
 20
88.53385846242738
 10
138.21728809005674
 20
87.99054273511682
 10
138.03746751345278
 20
87.40003407745178
 10
137.81510951723996
 20
86.81090463057143
 10
137.54774990768917
 20
86.23863589624308
 10
137.23583523509907
 20
85.68359690160388
 10
136.87981204976847
 20
85.14615667379098
 10
136.48012690199602
 20
84.62668423994153
 10
136.0372263420805
 20
84.12554862719266
 10
135.55155692032056
 20
83.6431188626815
 10
135.023565187015
 20
83.17976397354522
 10
134.45369769246253
 20
82.73585298692095
 10
133.84240098696182
 20
82.31175492994583
 10
133.19012162081165
 20
81.90783882975703
 10
132.49730614431073
 20
81.52447371349166
 10
131.76440110775778
 20
81.16202860828687
 10
130.9918530614515
 20
80.82087254127981
 10
130.18010855569065
 20
80.50137453960762
 10
129.32961414077394
 20
80.20390363040745
 10
128.66161445312187
 20
79.99922324381883
 10
127.89120071946199
 20
79.78698770324753
 10
126.29236113259753
 20
79.39596978281335
 10
125.58855028863229
 20
79.2452467142787
 10
125.28780663728753
 20
79.18721962728503
 10
125.03155541713794
 20
79.14308711441782
 10
124.82758506626098
 20
79.1146028826351
 10
124.68368402273413
 20
79.10352063889485
 10
124.60764072463483
 20
79.11159409015512
  0
LWPOLYLINE
  5
60
330
17
100
AcDbEntity
  8
C01_120203
100
AcDbPolyline
 90
64
 70
1
 10
93.13848810849944
 20
82.01194378654732
 10
93.16514078457759
 20
82.3047657673034
 10
93.19620802142681
 20
82.70430460563021
 10
93.22782923969946
 20
83.15801420976338
 10
93.25614386004784
 20
83.61334848793848
 10
93.31765770635981
 20
84.67669697587695
 10
93.6338288531799
 20
84.73463804549377
 10
93.75857143609093
 20
84.7632000281147
 10
93.99331093128114
 20
84.82255967688502
 10
94.32444585553117
 20
84.90907857999152
 10
94.7383747256216
 20
85.01911832562092
 10
95.22149605833309
 20
85.14904050196003
 10
95.76020837044624
 20
85.29520669719557
 10
96.95
 20
85.621717497103
 10
99.95
 20
86.45085587909541
 10
100.09271072895672
 20
87.61713959729865
 10
100.23542145791345
 20
88.78342331550186
 10
101.2687710048691
 20
89.05731804850524
 10
101.67273894680211
 20
89.16046213978375
 10
102.00876591197044
 20
89.2388280764048
 10
102.24180667378569
 20
89.28476108463833
 10
102.30875559512701
 20
89.29317312381914
 10
102.33681600565939
 20
89.2906063907543
 10
102.34015032705415
 20
89.23814298742889
 10
102.33356290802361
 20
89.10849711694775
 10
102.31829635002265
 20
88.91270575093856
 10
102.29559325450617
 20
88.661805861029
 10
102.23284785674626
 20
88.03882839601937
 10
102.15526752638304
 20
87.32786049494018
 10
102.07279307505567
 20
86.61719793081278
 10
101.99536531440336
 20
85.99513647665846
 10
101.96165044671757
 20
85.74492359489037
 10
101.93292505606524
 20
85.54997190549854
 10
101.91043174390126
 20
85.42131838011065
 10
101.89541311168051
 20
85.36999999035436
 10
101.82097807547673
 20
85.34561968670766
 10
101.62528005191082
 20
85.2903043681433
 10
101.32163030569868
 20
85.20759369155202
 10
100.92334010155616
 20
85.1010273138246
 10
100.44372070419917
 20
84.9741448918518
 10
99.89608337834355
 20
84.83048608252435
 10
99.2937393887052
 20
84.67359054273305
 10
98.65
 20
84.50699792936865
 10
97.39763671875001
 20
84.18350085943418
 10
96.84263916015625
 20
84.03983159937717
 10
96.35328125000001
 20
83.91293534977589
 10
95.94320068359376
 20
83.80635223101706
 10
95.62603515625001
 20
83.72362236348732
 10
95.41542236328125
 20
83.66828586757339
 10
95.325
 20
83.64388286366194
 10
95.26879757090666
 20
83.57850825520313
 10
95.22990339636146
 20
83.41694266860837
 10
95.20730752363555
 20
83.15218387356987
 10
95.2
 20
82.77722963977982
 10
95.2
 20
81.94818232029189
 10
94.375
 20
81.76621649598003
 10
94.03621756505062
 20
81.69120840913553
 10
93.72365709860426
 20
81.62149355245678
 10
93.47206135826366
 20
81.56485332414002
 10
93.31617310163152
 20
81.52906912238142
 10
93.1845889087533
 20
81.50810025207026
 10
93.12136817000757
 20
81.5537213481816
 10
93.1111286487908
 20
81.70773499743432
 10
93.12106989581716
 20
81.83845233783835
  0
LWPOLYLINE
  5
61
330
17
100
AcDbEntity
  8
C01_120203
100
AcDbPolyline
 90
33
 70
1
 10
172.22910839704468
 20
84.06552931180256
 10
172.32253630863633
 20
84.77712307064994
 10
172.4940840378506
 20
85.51676276971608
 10
172.71565491545127
 20
86.18390404636493
 10
172.83641882576012
 20
86.4588676629591
 10
172.95915227220195
 20
86.67800253796041
 10
173.129181117371
 20
86.85480737899934
 10
173.39732656414256
 20
87.03295788439631
 10
173.74186275754477
 20
87.20477334221744
 10
174.14106384260575
 20
87.36257304052884
 10
175.01655726781658
 20
87.60540231088706
 10
175.44939789802265
 20
87.67507045906612
 10
175.85000000000002
 20
87.7
 10
176.21191984804958
 20
87.67962279713294
 10
176.59755660536445
 20
87.62100588381203
 10
177.3964499732312
 20
87.40414109749076
 10
178.15961835448238
 20
87.07958198440011
 10
178.50059887852774
 20
86.88634716261751
 10
178.8
 20
86.67750488790404
 10
179.05
 20
86.48168551919468
 10
178.65
 20
86.55951005756742
 10
177.85922925452329
 20
86.63835746606935
 10
177.0529457126956
 20
86.56748131537847
 10
176.22018931452013
 20
86.34491942110893
 10
175.79045877555293
 20
86.17614313751156
 10
175.35000000000002
 20
85.96870959887482
 10
174.89906679210765
 20
85.71575277964793
 10
174.47523279274068
 20
85.41195409752768
 10
174.24619064535173
 20
85.21909319436304
 10
173.99117847901107
 20
84.98724678925161
 10
173.69928135335775
 20
84.70765653678563
 10
173.35958432803073
 20
84.37156409155726
 10
172.1691686560615
 20
83.18105862360514
  0
LWPOLYLINE
  5
62
330
17
100
AcDbEntity
  8
C01_120203
100
AcDbPolyline
 90
24
 70
1
 10
50.7
 20
88.60000000000001
 10
50.69177922347215
 20
88.79405580552185
 10
50.66349459592574
 20
88.91845453402055
 10
50.609712670416464
 20
88.98589761180602
 10
50.525000000000006
 20
89.00908646518816
 10
50.4994145514966
 20
89.02411064302582
 10
50.55911691943287
 20
89.05830104597874
 10
50.692232673978545
 20
89.10657897887721
 10
50.88688738530337
 20
89.16386574655147
 10
51.09812699801532
 20
89.21765922769485
 10
51.2763996622784
 20
89.25642573687064
 10
51.40293425659643
 20
89.276539232714
 10
51.45895965947321
 20
89.27437367386013
 10
51.4595102558932
 20
89.21971279619699
 10
51.43499958510613
 20
89.09689349330225
 10
51.389725257013644
 20
88.92411946034562
 10
51.32798488151744
 20
88.71959439249684
 10
51.23493834675755
 20
88.45778530529523
 10
51.14945723275818
 20
88.29924389547155
 10
51.05397187459598
 20
88.2209791360363
 10
50.9309126073476
 20
88.2
 10
50.809305213520645
 20
88.21311491016807
 10
50.739432037959226
 20
88.26830642711487
 10
50.7075709952551
 20
88.38934473050422
  0
ENDSEC
  0
SECTION
  2
OBJECTS
  0
DICTIONARY
  5
A
330
0
100
AcDbDictionary
281
1
  3
ACAD_COLOR
350
B
  3
ACAD_GROUP
350
C
  3
ACAD_LAYOUT
350
D
  3
ACAD_MATERIAL
350
E
  3
ACAD_MLEADERSTYLE
350
F
  3
ACAD_MLINESTYLE
350
10
  3
ACAD_PLOTSETTINGS
350
11
  3
ACAD_PLOTSTYLENAME
350
12
  3
ACAD_SCALELIST
350
14
  3
ACAD_TABLESTYLE
350
15
  3
ACAD_VISUALSTYLE
350
16
  3
EZDXF_META
350
2D
  0
DICTIONARY
  5
B
330
A
100
AcDbDictionary
281
1
  0
DICTIONARY
  5
C
330
A
100
AcDbDictionary
281
1
  0
DICTIONARY
  5
D
330
A
100
AcDbDictionary
281
1
  3
Model
350
1A
  3
Layout1
350
1E
  0
DICTIONARY
  5
E
330
A
100
AcDbDictionary
281
1
  3
ByBlock
350
1F
  3
ByLayer
350
20
  3
Global
350
21
  0
DICTIONARY
  5
F
330
A
100
AcDbDictionary
281
1
  3
Standard
350
2C
  0
DICTIONARY
  5
10
330
A
100
AcDbDictionary
281
1
  3
Standard
350
22
  0
DICTIONARY
  5
11
330
A
100
AcDbDictionary
281
1
  0
ACDBDICTIONARYWDFLT
  5
12
330
A
100
AcDbDictionary
281
1
  3
Normal
350
13
100
AcDbDictionaryWithDefault
340
13
  0
ACDBPLACEHOLDER
  5
13
330
12
  0
DICTIONARY
  5
14
330
A
100
AcDbDictionary
281
1
  0
DICTIONARY
  5
15
330
A
100
AcDbDictionary
281
1
  0
DICTIONARY
  5
16
330
A
100
AcDbDictionary
281
1
  0
LAYOUT
  5
1A
330
D
100
AcDbPlotSettings
  1

  4
A3
  6

 40
7.5
 41
20.0
 42
7.5
 43
20.0
 44
420.0
 45
297.0
 46
0.0
 47
0.0
 48
0.0
 49
0.0
140
0.0
141
0.0
142
1.0
143
1.0
 70
1024
 72
1
 73
0
 74
5
  7

 75
16
 76
0
 77
2
 78
300
147
1.0
148
0.0
149
0.0
100
AcDbLayout
  1
Model
 70
1
 71
0
 10
0.0
 20
0.0
 11
420.0
 21
297.0
 12
0.0
 22
0.0
 32
0.0
 14
1e+20
 24
1e+20
 34
1e+20
 15
-1e+20
 25
-1e+20
 35
-1e+20
146
0.0
 13
0.0
 23
0.0
 33
0.0
 16
1.0
 26
0.0
 36
0.0
 17
0.0
 27
1.0
 37
0.0
 76
1
330
17
  0
LAYOUT
  5
1E
330
D
100
AcDbPlotSettings
  1

  4
A3
  6

 40
7.5
 41
20.0
 42
7.5
 43
20.0
 44
420.0
 45
297.0
 46
0.0
 47
0.0
 48
0.0
 49
0.0
140
0.0
141
0.0
142
1.0
143
1.0
 70
0
 72
1
 73
0
 74
5
  7

 75
16
 76
0
 77
2
 78
300
147
1.0
148
0.0
149
0.0
100
AcDbLayout
  1
Layout1
 70
1
 71
1
 10
0.0
 20
0.0
 11
420.0
 21
297.0
 12
0.0
 22
0.0
 32
0.0
 14
1e+20
 24
1e+20
 34
1e+20
 15
-1e+20
 25
-1e+20
 35
-1e+20
146
0.0
 13
0.0
 23
0.0
 33
0.0
 16
1.0
 26
0.0
 36
0.0
 17
0.0
 27
1.0
 37
0.0
 76
1
330
1B
  0
MATERIAL
  5
1F
102
{ACAD_REACTORS
330
E
102
}
330
E
100
AcDbMaterial
  1
ByBlock
  2

 70
0
 40
1.0
 71
1
 41
1.0
 91
-1023410177
 42
1.0
 72
1
  3

 73
1
 74
1
 75
1
 44
0.5
 73
0
 45
1.0
 46
1.0
 77
1
  4

 78
1
 79
1
170
1
 48
1.0
171
1
  6

172
1
173
1
174
1
140
1.0
141
1.0
175
1
  7

176
1
177
1
178
1
143
1.0
179
1
  8

270
1
271
1
272
1
145
1.0
146
1.0
273
1
  9

274
1
275
1
276
1
 42
1.0
 72
1
  3

 73
1
 74
1
 75
1
 94
63
  0
MATERIAL
  5
20
102
{ACAD_REACTORS
330
E
102
}
330
E
100
AcDbMaterial
  1
ByLayer
  2

 70
0
 40
1.0
 71
1
 41
1.0
 91
-1023410177
 42
1.0
 72
1
  3

 73
1
 74
1
 75
1
 44
0.5
 73
0
 45
1.0
 46
1.0
 77
1
  4

 78
1
 79
1
170
1
 48
1.0
171
1
  6

172
1
173
1
174
1
140
1.0
141
1.0
175
1
  7

176
1
177
1
178
1
143
1.0
179
1
  8

270
1
271
1
272
1
145
1.0
146
1.0
273
1
  9

274
1
275
1
276
1
 42
1.0
 72
1
  3

 73
1
 74
1
 75
1
 94
63
  0
MATERIAL
  5
21
102
{ACAD_REACTORS
330
E
102
}
330
E
100
AcDbMaterial
  1
Global
  2

 70
0
 40
1.0
 71
1
 41
1.0
 91
-1023410177
 42
1.0
 72
1
  3

 73
1
 74
1
 75
1
 44
0.5
 73
0
 45
1.0
 46
1.0
 77
1
  4

 78
1
 79
1
170
1
 48
1.0
171
1
  6

172
1
173
1
174
1
140
1.0
141
1.0
175
1
  7

176
1
177
1
178
1
143
1.0
179
1
  8

270
1
271
1
272
1
145
1.0
146
1.0
273
1
  9

274
1
275
1
276
1
 42
1.0
 72
1
  3

 73
1
 74
1
 75
1
 94
63
  0
MLINESTYLE
  5
22
102
{ACAD_REACTORS
330
10
102
}
330
10
100
AcDbMlineStyle
  2
Standard
 70
0
  3

 62
256
 51
90.0
 52
90.0
 71
2
 49
0.5
 62
256
  6
BYLAYER
 49
-0.5
 62
256
  6
BYLAYER
  0
MLEADERSTYLE
  5
2C
102
{ACAD_REACTORS
330
F
102
}
330
F
100
AcDbMLeaderStyle
179
2
170
2
171
1
172
0
 90
2
 40
0.0
 41
0.0
173
1
 91
-1056964608
 92
-2
290
1
 42
2.0
291
1
 43
8.0
  3
Standard
 44
4.0
300

342
29
174
1
175
1
176
0
178
1
 93
-1056964608
 45
4.0
292
0
297
0
 46
4.0
 94
-1056964608
 47
1.0
 49
1.0
140
1.0
294
1
141
0.0
177
0
142
1.0
295
0
296
0
143
3.75
271
0
272
9
273
9
  0
DICTIONARY
  5
2D
330
A
100
AcDbDictionary
280
1
281
1
  3
CREATED_BY_EZDXF
350
2E
  3
WRITTEN_BY_EZDXF
350
65
  0
DICTIONARYVAR
  5
2E
330
2D
100
DictionaryVariables
280
0
  1
1.4.4 @ 2026-09-13T15:57:48.982111+00:00
  0
DICTIONARYVAR
  5
65
330
2D
100
DictionaryVariables
280
0
  1
1.4.4 @ 2026-09-13T15:57:49.021244+00:00
  0
ENDSEC
  0
EOF
