  0
SECTION
  2
HEADER
  9
$ACADVER
  1
AC1024
  9
$ACADMAINTVER
 70
6
  9
$DWGCODEPAGE
  3
ANSI_1252
  9
$LASTSAVEDBY
  1
ezdxf
  9
$INSBASE
 10
0.0
 20
0.0
 30
0.0
  9
$EXTMIN
 10
1e+20
 20
1e+20
 30
1e+20
  9
$EXTMAX
 10
-1e+20
 20
-1e+20
 30
-1e+20
  9
$LIMMIN
 10
0.0
 20
0.0
  9
$LIMMAX
 10
420.0
 20
297.0
  9
$ORTHOMODE
 70
0
  9
$REGENMODE
 70
1
  9
$FILLMODE
 70
1
  9
$QTEXTMODE
 70
0
  9
$MIRRTEXT
 70
1
  9
$LTSCALE
 40
1.0
  9
$ATTMODE
 70
1
  9
$TEXTSIZE
 40
2.5
  9
$TRACEWID
 40
1.0
  9
$TEXTSTYLE
  7
Standard
  9
$CLAYER
  8
0
  9
$CELTYPE
  6
ByLayer
  9
$CECOLOR
 62
256
  9
$CELTSCALE
 40
1.0
  9
$DISPSILH
 70
0
  9
$DIMSCALE
 40
1.0
  9
$DIMASZ
 40
2.5
  9
$DIMEXO
 40
0.625
  9
$DIMDLI
 40
3.75
  9
$DIMRND
 40
0.0
  9
$DIMDLE
 40
0.0
  9
$DIMEXE
 40
1.25
  9
$DIMTP
 40
0.0
  9
$DIMTM
 40
0.0
  9
$DIMTXT
 40
2.5
  9
$DIMCEN
 40
2.5
  9
$DIMTSZ
 40
0.0
  9
$DIMTOL
 70
0
  9
$DIMLIM
 70
0
  9
$DIMTIH
 70
0
  9
$DIMTOH
 70
0
  9
$DIMSE1
 70
0
  9
$DIMSE2
 70
0
  9
$DIMTAD
 70
1
  9
$DIMZIN
 70
8
  9
$DIMBLK
  1

  9
$DIMASO
 70
1
  9
$DIMSHO
 70
1
  9
$DIMPOST
  1

  9
$DIMAPOST
  1

  9
$DIMALT
 70
0
  9
$DIMALTD
 70
3
  9
$DIMALTF
 40
0.03937007874
  9
$DIMLFAC
 40
1.0
  9
$DIMTOFL
 70
1
  9
$DIMTVP
 40
0.0
  9
$DIMTIX
 70
0
  9
$DIMSOXD
 70
0
  9
$DIMSAH
 70
0
  9
$DIMBLK1
  1

  9
$DIMBLK2
  1

  9
$DIMSTYLE
  2
ISO-25
  9
$DIMCLRD
 70
0
  9
$DIMCLRE
 70
0
  9
$DIMCLRT
 70
0
  9
$DIMTFAC
 40
1.0
  9
$DIMGAP
 40
0.625
  9
$DIMJUST
 70
0
  9
$DIMSD1
 70
0
  9
$DIMSD2
 70
0
  9
$DIMTOLJ
 70
0
  9
$DIMTZIN
 70
8
  9
$DIMALTZ
 70
0
  9
$DIMALTTZ
 70
0
  9
$DIMUPT
 70
0
  9
$DIMDEC
 70
2
  9
$DIMTDEC
 70
2
  9
$DIMALTU
 70
2
  9
$DIMALTTD
 70
3
  9
$DIMTXSTY
  7
Standard
  9
$DIMAUNIT
 70
0
  9
$DIMADEC
 70
0
  9
$DIMALTRND
 40
0.0
  9
$DIMAZIN
 70
0
  9
$DIMDSEP
 70
44
  9
$DIMATFIT
 70
3
  9
$DIMFRAC
 70
0
  9
$DIMLDRBLK
  1

  9
$DIMLUNIT
 70
2
  9
$DIMLWD
 70
-2
  9
$DIMLWE
 70
-2
  9
$DIMTMOVE
 70
0
  9
$DIMFXL
 40
1.0
  9
$DIMFXLON
 70
0
  9
$DIMJOGANG
 40
0.785398163397
  9
$DIMTFILL
 70
0
  9
$DIMTFILLCLR
 70
0
  9
$DIMARCSYM
 70
0
  9
$DIMLTYPE
  6

  9
$DIMLTEX1
  6

  9
$DIMLTEX2
  6

  9
$DIMTXTDIRECTION
 70
0
  9
$LUNITS
 70
2
  9
$LUPREC
 70
4
  9
$SKETCHINC
 40
1.0
  9
$FILLETRAD
 40
10.0
  9
$AUNITS
 70
0
  9
$AUPREC
 70
2
  9
$MENU
  1
.
  9
$ELEVATION
 40
0.0
  9
$PELEVATION
 40
0.0
  9
$THICKNESS
 40
0.0
  9
$LIMCHECK
 70
0
  9
$CHAMFERA
 40
0.0
  9
$CHAMFERB
 40
0.0
  9
$CHAMFERC
 40
0.0
  9
$CHAMFERD
 40
0.0
  9
$SKPOLY
 70
0
  9
$TDCREATE
 40
2461297.7284375
  9
$TDUCREATE
 40
2458532.153996898
  9
$TDUPDATE
 40
2461297.7284375
  9
$TDUUPDATE
 40
2458532.1544311
  9
$TDINDWG
 40
0.0
  9
$TDUSRTIMER
 40
0.0
  9
$USRTIMER
 70
1
  9
$ANGBASE
 50
0.0
  9
$ANGDIR
 70
0
  9
$PDMODE
 70
0
  9
$PDSIZE
 40
0.0
  9
$PLINEWID
 40
0.0
  9
$SPLFRAME
 70
0
  9
$SPLINETYPE
 70
6
  9
$SPLINESEGS
 70
8
  9
$HANDSEED
  5
3A
  9
$SURFTAB1
 70
6
  9
$SURFTAB2
 70
6
  9
$SURFTYPE
 70
6
  9
$SURFU
 70
6
  9
$SURFV
 70
6
  9
$UCSBASE
  2

  9
$UCSNAME
  2

  9
$UCSORG
 10
0.0
 20
0.0
 30
0.0
  9
$UCSXDIR
 10
1.0
 20
0.0
 30
0.0
  9
$UCSYDIR
 10
0.0
 20
1.0
 30
0.0
  9
$UCSORTHOREF
  2

  9
$UCSORTHOVIEW
 70
0
  9
$UCSORGTOP
 10
0.0
 20
0.0
 30
0.0
  9
$UCSORGBOTTOM
 10
0.0
 20
0.0
 30
0.0
  9
$UCSORGLEFT
 10
0.0
 20
0.0
 30
0.0
  9
$UCSORGRIGHT
 10
0.0
 20
0.0
 30
0.0
  9
$UCSORGFRONT
 10
0.0
 20
0.0
 30
0.0
  9
$UCSORGBACK
 10
0.0
 20
0.0
 30
0.0
  9
$PUCSBASE
  2

  9
$PUCSNAME
  2

  9
$PUCSORG
 10
0.0
 20
0.0
 30
0.0
  9
$PUCSXDIR
 10
1.0
 20
0.0
 30
0.0
  9
$PUCSYDIR
 10
0.0
 20
1.0
 30
0.0
  9
$PUCSORTHOREF
  2

  9
$PUCSORTHOVIEW
 70
0
  9
$PUCSORGTOP
 10
0.0
 20
0.0
 30
0.0
  9
$PUCSORGBOTTOM
 10
0.0
 20
0.0
 30
0.0
  9
$PUCSORGLEFT
 10
0.0
 20
0.0
 30
0.0
  9
$PUCSORGRIGHT
 10
0.0
 20
0.0
 30
0.0
  9
$PUCSORGFRONT
 10
0.0
 20
0.0
 30
0.0
  9
$PUCSORGBACK
 10
0.0
 20
0.0
 30
0.0
  9
$USERI1
 70
0
  9
$USERI2
 70
0
  9
$USERI3
 70
0
  9
$USERI4
 70
0
  9
$USERI5
 70
0
  9
$USERR1
 40
0.0
  9
$USERR2
 40
0.0
  9
$USERR3
 40
0.0
  9
$USERR4
 40
0.0
  9
$USERR5
 40
0.0
  9
$WORLDVIEW
 70
1
  9
$SHADEDGE
 70
3
  9
$SHADEDIF
 70
70
  9
$TILEMODE
 70
1
  9
$MAXACTVP
 70
64
  9
$PINSBASE
 10
0.0
 20
0.0
 30
0.0
  9
$PLIMCHECK
 70
0
  9
$PEXTMIN
 10
1e+20
 20
1e+20
 30
1e+20
  9
$PEXTMAX
 10
-1e+20
 20
-1e+20
 30
-1e+20
  9
$PLIMMIN
 10
0.0
 20
0.0
  9
$PLIMMAX
 10
420.0
 20
297.0
  9
$UNITMODE
 70
0
  9
$VISRETAIN
 70
1
  9
$PLINEGEN
 70
0
  9
$PSLTSCALE
 70
1
  9
$TREEDEPTH
 70
3020
  9
$CMLSTYLE
  2
Standard
  9
$CMLJUST
 70
0
  9
$CMLSCALE
 40
20.0
  9
$PROXYGRAPHICS
 70
1
  9
$MEASUREMENT
 70
1
  9
$CELWEIGHT
370
-1
  9
$ENDCAPS
280
0
  9
$JOINSTYLE
280
0
  9
$LWDISPLAY
290
0
  9
$INSUNITS
 70
4
  9
$HYPERLINKBASE
  1

  9
$STYLESHEET
  1

  9
$XEDIT
290
1
  9
$CEPSNTYPE
380
0
  9
$PSTYLEMODE
290
1
  9
$FINGERPRINTGUID
  2
{8573BC58-8717-4AED-92E9-945EC79C9D34}
  9
$VERSIONGUID
  2
{AD1B98D4-2486-4EE1-8B57-D6C722C73B3E}
  9
$EXTNAMES
290
1
  9
$PSVPSCALE
 40
0.0
  9
$OLESTARTUP
290
0
  9
$SORTENTS
280
127
  9
$INDEXCTL
280
0
  9
$HIDETEXT
280
1
  9
$XCLIPFRAME
280
1
  9
$HALOGAP
280
0
  9
$OBSCOLOR
 70
257
  9
$OBSLTYPE
280
0
  9
$INTERSECTIONDISPLAY
280
0
  9
$INTERSECTIONCOLOR
 70
257
  9
$DIMASSOC
280
2
  9
$PROJECTNAME
  1

  9
$CAMERADISPLAY
290
0
  9
$LENSLENGTH
 40
50.0
  9
$CAMERAHEIGHT
 40
0.0
  9
$STEPSPERSEC
 40
24.0
  9
$STEPSIZE
 40
100.0
  9
$3DDWFPREC
 40
2.0
  9
$PSOLWIDTH
 40
0.005
  9
$PSOLHEIGHT
 40
0.08
  9
$LOFTANG1
 40
1.570796326795
  9
$LOFTANG2
 40
1.570796326795
  9
$LOFTMAG1
 40
0.0
  9
$LOFTMAG2
 40
0.0
  9
$LOFTPARAM
 70
7
  9
$LOFTNORMALS
280
1
  9
$LATITUDE
 40
37.795
  9
$LONGITUDE
 40
-122.394
  9
$NORTHDIRECTION
 40
0.0
  9
$TIMEZONE
 70
-8000
  9
$LIGHTGLYPHDISPLAY
280
1
  9
$TILEMODELIGHTSYNCH
280
1
  9
$CMATERIAL
347
20
  9
$SOLIDHIST
280
0
  9
$SHOWHIST
280
1
  9
$DWFFRAME
280
2
  9
$DGNFRAME
280
2
  9
$REALWORLDSCALE
290
1
  9
$INTERFERECOLOR
 62
256
  9
$CSHADOW
280
0
  9
$SHADOWPLANELOCATION
 40
0.0
  0
ENDSEC
  0
SECTION
  2
CLASSES
  0
CLASS
  1
ACDBDICTIONARYWDFLT
  2
AcDbDictionaryWithDefault
  3
ObjectDBX Classes
 90
0
 91
0
280
0
281
0
  0
CLASS
  1
SUN
  2
AcDbSun
  3
SCENEOE
 90
1153
 91
0
280
0
281
0
  0
CLASS
  1
VISUALSTYLE
  2
AcDbVisualStyle
  3
ObjectDBX Classes
 90
4095
 91
0
280
0
281
0
  0
CLASS
  1
MATERIAL
  2
AcDbMaterial
  3
ObjectDBX Classes
 90
1153
 91
0
280
0
281
0
  0
CLASS
  1
SCALE
  2
AcDbScale
  3
ObjectDBX Classes
 90
1153
 91
0
280
0
281
0
  0
CLASS
  1
TABLESTYLE
  2
AcDbTableStyle
  3
ObjectDBX Classes
 90
4095
 91
0
280
0
281
0
  0
CLASS
  1
MLEADERSTYLE
  2
AcDbMLeaderStyle
  3
ACDB_MLEADERSTYLE_CLASS
 90
4095
 91
0
280
0
281
0
  0
CLASS
  1
DICTIONARYVAR
  2
AcDbDictionaryVar
  3
ObjectDBX Classes
 90
0
 91
0
280
0
281
0
  0
CLASS
  1
CELLSTYLEMAP
  2
AcDbCellStyleMap
  3
ObjectDBX Classes
 90
1152
 91
0
280
0
281
0
  0
CLASS
  1
MENTALRAYRENDERSETTINGS
  2
AcDbMentalRayRenderSettings
  3
SCENEOE
 90
1024
 91
0
280
0
281
0
  0
CLASS
  1
ACDBDETAILVIEWSTYLE
  2
AcDbDetailViewStyle
  3
ObjectDBX Classes
 90
1025
 91
0
280
0
281
0
  0
CLASS
  1
ACDBSECTIONVIEWSTYLE
  2
AcDbSectionViewStyle
  3
ObjectDBX Classes
 90
1025
 91
0
280
0
281
0
  0
CLASS
  1
RASTERVARIABLES
  2
AcDbRasterVariables
  3
ISM
 90
0
 91
0
280
0
281
0
  0
CLASS
  1
LAYOUT
  2
AcDbLayout
  3
ObjectDBX Classes
 90
0
 91
0
280
0
281
0
  0
CLASS
  1
ACDBPLACEHOLDER
  2
AcDbPlaceHolder
  3
ObjectDBX Classes
 90
0
 91
0
280
0
281
0
  0
ENDSEC
  0
SECTION
  2
TABLES
  0
TABLE
  2
VPORT
  5
8
330
0
100
AcDbSymbolTable
 70
1
  0
VPORT
  5
23
330
8
100
AcDbSymbolTableRecord
100
AcDbViewportTableRecord
  2
*Active
 70
0
 10
0.0
 20
0.0
 11
1.0
 21
1.0
 12
0.0
 22
0.0
 13
0.0
 23
0.0
 14
0.5
 24
0.5
 15
0.5
 25
0.5
 16
0.0
 26
0.0
 36
1.0
 17
0.0
 27
0.0
 37
0.0
 40
1000.0
 41
1.34
 42
50.0
 43
0.0
 44
0.0
 50
0.0
 51
0.0
 71
0
 72
1000
 73
1
 74
3
 75
0
 76
0
 77
0
 78
0
281
0
 65
0
146
0.0
  0
ENDTAB
  0
TABLE
  2
LTYPE
  5
2
330
0
100
AcDbSymbolTable
 70
3
  0
LTYPE
  5
24
330
2
100
AcDbSymbolTableRecord
100
AcDbLinetypeTableRecord
  2
ByBlock
 70
0
  3

 72
65
 73
0
 40
0.0
  0
LTYPE
  5
25
330
2
100
AcDbSymbolTableRecord
100
AcDbLinetypeTableRecord
  2
ByLayer
 70
0
  3

 72
65
 73
0
 40
0.0
  0
LTYPE
  5
26
330
2
100
AcDbSymbolTableRecord
100
AcDbLinetypeTableRecord
  2
Continuous
 70
0
  3

 72
65
 73
0
 40
0.0
  0
ENDTAB
  0
TABLE
  2
LAYER
  5
1
330
0
100
AcDbSymbolTable
 70
3
  0
LAYER
  5
27
330
1
100
AcDbSymbolTableRecord
100
AcDbLayerTableRecord
  2
0
 70
0
 62
7
  6
Continuous
370
-3
390
13
347
21
  0
LAYER
  5
28
330
1
100
AcDbSymbolTableRecord
100
AcDbLayerTableRecord
  2
Defpoints
 70
0
 62
7
  6
Continuous
290
0
370
-3
390
13
347
21
  0
LAYER
  5
2F
330
1
100
AcDbSymbolTableRecord
100
AcDbLayerTableRecord
  2
SF2_SOLID
 70
0
 62
7
  6
Continuous
370
-3
390
13
347
21
  0
ENDTAB
  0
TABLE
  2
STYLE
  5
5
330
0
100
AcDbSymbolTable
 70
1
  0
STYLE
  5
29
330
5
100
AcDbSymbolTableRecord
100
AcDbTextStyleTableRecord
  2
Standard
 70
0
 40
0.0
 41
1.0
 50
0.0
 71
0
 42
2.5
  3
txt
  4

  0
ENDTAB
  0
TABLE
  2
VIEW
  5
7
330
0
100
AcDbSymbolTable
 70
0
  0
ENDTAB
  0
TABLE
  2
UCS
  5
6
330
0
100
AcDbSymbolTable
 70
0
  0
ENDTAB
  0
TABLE
  2
APPID
  5
3
330
0
100
AcDbSymbolTable
 70
3
  0
APPID
  5
2A
330
3
100
AcDbSymbolTableRecord
100
AcDbRegAppTableRecord
  2
ACAD
 70
0
  0
APPID
  5
37
330
3
100
AcDbSymbolTableRecord
100
AcDbRegAppTableRecord
  2
HATCHBACKGROUNDCOLOR
 70
0
  0
APPID
  5
38
330
3
100
AcDbSymbolTableRecord
100
AcDbRegAppTableRecord
  2
EZDXF
 70
0
  0
ENDTAB
  0
TABLE
  2
DIMSTYLE
  5
4
330
0
100
AcDbSymbolTable
 70
1
100
AcDbDimStyleTable
  0
DIMSTYLE
105
2B
330
4
100
AcDbSymbolTableRecord
100
AcDbDimStyleTableRecord
  2
Standard
 70
0
 40
1.0
 41
2.5
 42
0.625
 43
3.75
 44
1.25
 45
0.0
 46
0.0
 47
0.0
 48
0.0
 49
2.5
140
2.5
141
2.5
142
0.0
143
0.03937007874
144
1.0
145
0.0
146
1.0
147
0.625
148
0.0
 69
0
 70
0
 71
0
 72
0
 73
0
 74
0
 75
0
 76
0
 77
1
 78
8
 79
3
170
0
171
3
172
1
173
0
174
0
175
0
176
0
177
0
178
0
179
2
271
2
272
2
273
2
274
3
275
0
276
0
277
2
278
44
279
0
280
0
281
0
282
0
283
0
284
8
285
0
286
0
288
0
289
3
290
0
371
-2
372
-2
  0
ENDTAB
  0
TABLE
  2
BLOCK_RECORD
  5
9
330
0
100
AcDbSymbolTable
 70
2
  0
BLOCK_RECORD
  5
17
330
9
100
AcDbSymbolTableRecord
100
AcDbBlockTableRecord
  2
*Model_Space
340
1A
 70
0
280
1
281
0
  0
BLOCK_RECORD
  5
1B
330
9
100
AcDbSymbolTableRecord
100
AcDbBlockTableRecord
  2
*Paper_Space
340
1E
 70
0
280
1
281
0
  0
ENDTAB
  0
ENDSEC
  0
SECTION
  2
BLOCKS
  0
BLOCK
  5
18
330
17
100
AcDbEntity
  8
0
100
AcDbBlockBegin
  2
*Model_Space
 70
0
 10
0.0
 20
0.0
 30
0.0
  3
*Model_Space
  1

  0
ENDBLK
  5
19
330
17
100
AcDbEntity
  8
0
100
AcDbBlockEnd
  0
BLOCK
  5
1C
330
1B
100
AcDbEntity
  8
0
100
AcDbBlockBegin
  2
*Paper_Space
 70
0
 10
0.0
 20
0.0
 30
0.0
  3
*Paper_Space
  1

  0
ENDBLK
  5
1D
330
1B
100
AcDbEntity
  8
0
100
AcDbBlockEnd
  0
ENDSEC
  0
SECTION
  2
ENTITIES
  0
LWPOLYLINE
  5
30
330
17
100
AcDbEntity
  8
SF2_SOLID
100
AcDbPolyline
 90
415
 70
1
 10
-45.3456099619859
 20
44.50944293360029
 10
-44.4423636115493
 20
43.73257727941541
 10
-44.41385684872897
 20
43.64318443526175
 10
-44.55794615545159
 20
43.529374086783776
 10
-44.84143844632181
 20
43.578853769289225
 10
-46.31920747672512
 20
44.1008866090265
 10
-46.48106766125861
 20
44.19179168851252
 10
-46.577121182243644
 20
44.40315352940556
 10
-46.308956106935156
 20
44.31721229705188
 10
-47.68119689651319
 20
44.79260037659195
 10
-47.91235070608913
 20
46.41080526914451
 10
-48.189381171641855
 20
49.672625666573055
 10
-48.56757771519221
 20
49.6821432421121
 10
-48.63314573388455
 20
49.73415508547304
 10
-48.4934752164084
 20
50.33703144654579
 10
-48.55848297539637
 20
50.34247071845397
 10
-48.52960314271019
 20
50.450787939773086
 10
-48.90925832663616
 20
50.280860927061006
 10
-49.01511086015803
 20
50.27577799617099
 10
-49.03844060904585
 20
50.31281864541966
 10
-48.98706730591083
 20
50.96071885565844
 10
-49.64920558242477
 20
50.994519610293935
 10
-49.661358628903145
 20
51.06382833188998
 10
-49.54188418069203
 20
51.38630178313735
 10
-48.79683260044957
 20
52.85768492781283
 10
-47.896706484543635
 20
53.85892853110057
 10
-47.719937452110784
 20
56.48809783455981
 10
-47.7322478214417
 20
56.376565218858374
 10
-48.808901643493776
 20
55.247428626803504
 10
-50.3261878914069
 20
53.522865957657146
 10
-52.21508817722476
 20
51.165642772103844
 10
-52.236923168093774
 20
51.85391639944458
 10
-52.27649190378615
 20
51.88687282263365
 10
-52.80342879860121
 20
51.765950300646224
 10
-52.395734875435544
 20
52.647235451731184
 10
-52.218812727052494
 20
53.1670261841986
 10
-51.989342071713075
 20
53.49375333607378
 10
-53.34587944396825
 20
51.8431055566648
 10
-53.43796946012525
 20
52.52410357134269
 10
-53.92598553661554
 20
52.40797437115535
 10
-53.27269233095204
 20
53.73225925499434
 10
-53.85358373938412
 20
53.69809836691371
 10
-53.14341740315996
 20
55.96106751105753
 10
-52.811716543603985
 20
56.74892682936524
 10
-51.934507266576354
 20
58.474473049739174
 10
-51.34209624595687
 20
59.83674026920687
 10
-50.71275343620517
 20
60.63065736074006
 10
-49.3550962362288
 20
61.92295630928824
 10
-47.43597481764501
 20
63.47751025498188
 10
-45.90412487069325
 20
64.59519391814406
 10
-46.434299892154726
 20
64.24487321787026
 10
-46.980160077641
 20
63.962080657899186
 10
-48.30178458905737
 20
63.510652870551
 10
-49.946341019067276
 20
63.11391570843951
 10
-51.183111614688784
 20
63.00420876809477
 10
-51.08057271373103
 20
63.71129931068543
 10
-50.519182459613226
 20
63.85712633170603
 10
-51.405850916208514
 20
63.7083288291114
 10
-52.154965036289596
 20
63.67192082527521
 10
-52.33384047821903
 20
63.731514032340215
 10
-52.29322311537378
 20
63.980875409801925
 10
-52.334836325660426
 20
63.85774640612384
 10
-52.40010342680004
 20
63.814620494162334
 10
-53.40375582453315
 20
63.68024209909241
 10
-53.54623231426875
 20
63.80537343057183
 10
-53.799639544668786
 20
64.35827358873384
 10
-53.15979644192047
 20
64.46488963048546
 10
-54.57116309404246
 20
64.31132160611722
 10
-55.05195514493429
 20
65.17856630677298
 10
-55.322842029849845
 20
65.22603114942191
 10
-55.084775072000085
 20
65.15575103511513
 10
-55.01169010640792
 20
65.08696987064334
 10
-54.87604195334089
 20
64.7315285864911
 10
-55.26397426444033
 20
64.78893514429387
 10
-55.52689041650902
 20
65.01016514057741
 10
-55.718693156627666
 20
65.27846402608706
 10
-55.500831146087755
 20
65.25721843040856
 10
-56.30077105867965
 20
65.40443885077764
 10
-56.58556899979654
 20
65.64680480269027
 10
-57.58487508618114
 20
66.77159940532489
 10
-57.78989418151215
 20
67.56508295177102
 10
-58.5
 20
68.33350888417507
 10
-58.445673121857375
 20
68.37967726564601
 10
-55.63514167992437
 20
69.03547544946693
 10
-53.141844108450385
 20
69.76158839067129
 10
-51.60628499798979
 20
70.30052030156884
 10
-49.53194014552353
 20
71.17534096846043
 10
-47.779229757856655
 20
72.11083444649029
 10
-46.81546525148387
 20
72.75762913274477
 10
-45.94722702583625
 20
73.50463618161596
 10
-45.55843025069332
 20
73.94206146245506
 10
-45.23682728929937
 20
74.39281721896032
 10
-44.9847847963473
 20
74.85185796012186
 10
-44.80466942653
 20
75.31413819492984
 10
-44.69884783454038
 20
75.77461243237435
 10
-44.66968667507133
 20
76.22823518144557
 10
-44.791026365176386
 20
76.91797696064603
 10
-45.07458317475696
 20
77.25058775868382
 10
-47.09330906460241
 20
78.76608404829963
 10
-48.035551630385584
 20
79.67586338241404
 10
-48.406057379288875
 20
80.13203412850551
 10
-48.718661457469146
 20
80.59940831083873
 10
-49.19769065746816
 20
81.59881513488708
 10
-49.41476485404241
 20
82.38896537698224
 10
-49.5207734577487
 20
83.25830079798344
 10
-49.51160967053108
 20
84.13286945956511
 10
-49.383166694333596
 20
84.93871942340178
 10
-49.16575764268308
 20
85.62018873534197
 10
-48.86298845076753
 20
86.28500737218613
 10
-48.4737702739486
 20
86.93448993922662
 10
-47.99701426758798
 20
87.56995104175583
 10
-47.43163158704732
 20
88.1927052850661
 10
-46.77653338768831
 20
88.80406727444982
 10
-46.0306308248726
 20
89.40535161519935
 10
-45.19283505396187
 20
89.99787291260705
 10
-43.36822577355835
 20
91.08248103921704
 10
-42.32873423657698
 20
91.61355751265994
 10
-40.02067196927568
 20
92.64198450519778
 10
-37.44089691115057
 20
93.61041585910661
 10
-36.061764385639414
 20
94.06649778426328
 10
-30.739262021586175
 20
95.5842764037194
 10
-29.584750573027783
 20
95.85398113479516
 10
-29.794266475350177
 20
95.09801944648272
 10
-28.999047892877915
 20
95.0486357366265
 10
-29.033463278267817
 20
95.0627524434747
 10
-28.471652588174692
 20
95.2092806732463
 10
-28.602816373228787
 20
94.73117071150321
 10
-28.65286530083698
 20
94.63834520687509
 10
-28.759544374261452
 20
94.58386570725641
 10
-25.651481065948587
 20
94.72923263442496
 10
-27.933257293243983
 20
94.00203545885398
 10
-29.259104397518165
 20
93.56046593087657
 10
-29.824137673933173
 20
93.36094142423497
 10
-27.783046973946025
 20
94.00166279762473
 10
-27.083659418437303
 20
93.98356334682774
 10
-24.54444425123878
 20
94.09245747613306
 10
-27.830269740536643
 20
93.01857090541998
 10
-30.532074592167287
 20
92.04945662269047
 10
-32.970126806242924
 20
91.06416402448306
 10
-35.13449617258256
 20
90.06697053371535
 10
-37.0152524810052
 20
89.0621535733049
 10
-38.67646793017929
 20
88.00311477986926
 10
-40.084266126447154
 20
86.8769980923369
 10
-40.774723721276445
 20
86.14941047498276
 10
-41.0465416437718
 20
85.79076154289197
 10
-41.445041548733165
 20
85.08074980569315
 10
-41.65227461340095
 20
84.37644806955143
 10
-41.67093813346983
 20
83.67305053256305
 10
-41.61039921918429
 20
83.32018902565642
 10
-41.35126585178239
 20
82.60913690882838
 10
-41.0520137318743
 20
82.11610095462996
 10
-40.60582192587459
 20
81.62025392680887
 10
-39.928325579168686
 20
81.04086899012725
 10
-37.642667255361154
 20
79.27794403887778
 10
-36.73190336537611
 20
78.33690559124423
 10
-36.39434729265658
 20
77.8640002380834
 10
-36.12183652830548
 20
77.37258416514258
 10
-35.90424211746263
 20
76.84996739725875
 10
-35.643944731020795
 20
75.86809809864488
 10
-35.56592343054416
 20
74.96314665402713
 10
-35.6151691053344
 20
73.99863694231718
 10
-35.78926700888378
 20
73.02186340039584
 10
-36.19629729928147
 20
71.81921781477342
 10
-36.75498389011357
 20
70.73060071926868
 10
-37.371323488743045
 20
69.86127093928641
 10
-37.796442151746085
 20
69.56723328268886
 10
-38.790515085324145
 20
69.04594559841837
 10
-39.65462073254385
 20
68.56855683031742
 10
-40.57604239140947
 20
68.03533389185993
 10
-41.542838851146485
 20
67.45359011490353
 10
-42.54306890098031
 20
66.83063883130575
 10
-43.58166229671903
 20
66.16244220678553
 10
-39.76846369805313
 20
68.49967668895532
 10
-38.078172804643984
 20
69.41458216248853
 10
-36.984303994391254
 20
69.93890200803644
 10
-36.42078055408025
 20
69.74883725098793
 10
-36.05409935283822
 20
69.70812651445901
 10
-35.2021487582964
 20
69.7896443620105
 10
-34.19591719313381
 20
70.08763106784542
 10
-32.24813531514911
 20
70.96565660787991
 10
-32.22150130839192
 20
70.87637920090248
 10
-32.3755667171917
 20
70.01066634855755
 10
-32.349764556005695
 20
69.8923367052532
 10
-30.198030314370715
 20
70.7851397867824
 10
-27.018796524929947
 20
72.02046206206742
 10
-23.745232953264505
 20
73.13867954370271
 10
-21.494858422417188
 20
73.83967398690689
 10
-26.91072279095753
 20
71.24729045899048
 10
-29.309440751318157
 20
70.05488099688965
 10
-30.535877982082425
 20
69.41391126379023
 10
-28.787840404744117
 20
70.2622414911517
 10
-27.353666285164405
 20
70.83813118908603
 10
-22.78001236225721
 20
72.45581611261414
 10
-20.98086991412957
 20
73.04259961666867
 10
-20.4057335936103
 20
73.18399078154269
 10
-26.709616982234856
 20
70.17598640003223
 10
-30.70555490894724
 20
68.10758142078825
 10
-35.46930472179267
 20
65.46575761196328
 10
-38.29256159681897
 20
63.76212809231441
 10
-39.747915422190474
 20
62.80144431458052
 10
-41.021419749772285
 20
61.837679561349816
 10
-41.46653427418421
 20
61.40299384661519
 10
-41.620659171304524
 20
61.178971744575264
 10
-41.750605391304106
 20
60.802113793775646
 10
-41.95517782194267
 20
59.86408255360604
 10
-42.240534609036736
 20
57.7817577887697
 10
-42.67440118082858
 20
57.51246746232589
 10
-39.842191457894884
 20
59.14384974393765
 10
-38.0058449821329
 20
60.12849139649588
 10
-37.96010641848497
 20
60.14142009928466
 10
-38.910223659125066
 20
58.66416072817385
 10
-39.100752822924335
 20
58.278629218535116
 10
-37.18616488998792
 20
59.35661659784818
 10
-37.020487920496805
 20
59.42316606277346
 10
-36.99613700747053
 20
59.32229510977503
 10
-36.77027355101151
 20
60.486932121540995
 10
-36.63529299329355
 20
60.85820863428563
 10
-35.96071052005095
 20
61.464005162687485
 10
-35.44078466020821
 20
62.06388426823744
 10
-34.95136619950861
 20
62.890631044986485
 10
-34.54196866747889
 20
63.783101056099355
 10
-34.11641902331867
 20
62.723054741933275
 10
-33.80486821479908
 20
62.24304680451178
 10
-33.401440024631455
 20
63.21045026238059
 10
-33.14136680162227
 20
62.40815409733049
 10
-32.78234391898016
 20
61.72518699386407
 10
-32.5128036159266
 20
61.46950899374138
 10
-32.371202150028374
 20
61.40446123948593
 10
-32.03205373263267
 20
61.382563749167495
 10
-32.227974843620274
 20
60.92880364846696
 10
-32.38993231071909
 20
60.52161389504018
 10
-32.52511491592816
 20
60.11034903470809
 10
-32.66357517962689
 20
59.53903031432597
 10
-32.372304995624994
 20
60.5621585188609
 10
-31.768183821251824
 20
61.824403824646524
 10
-30.914452199531055
 20
62.995419093661724
 10
-29.823938798987125
 20
64.06197390935623
 10
-28.509472288144472
 20
65.0108378551798
 10
-26.983881335527524
 20
65.82878051458216
 10
-25.064413342233607
 20
66.55381035360631
 10
-24.39504243108471
 20
66.75697195832531
 10
-23.93095832379265
 20
66.84398469871658
 10
-23.9712761239603
 20
65.93974898412696
 10
-22.908458969501204
 20
66.18633918456604
 10
-22.88095500730155
 20
65.21480298907674
 10
-22.937212425331445
 20
64.03102852148213
 10
-23.04357010496487
 20
63.86856432335307
 10
-23.646548981988104
 20
63.491492517080005
 10
-23.207426303890813
 20
63.24376534414218
 10
-23.71027609602163
 20
62.890071878379274
 10
-26.521825239641956
 20
61.34943378543802
 10
-27.0443977607288
 20
60.95896398018682
 10
-27.714138571079424
 20
60.295408425275994
 10
-28.048344484429776
 20
59.83914958106596
 10
-28.404130970835702
 20
59.226011644456136
 10
-29.091670190394517
 20
58.883954903901866
 10
-25.007358726095717
 20
60.61757319914861
 10
-23.798120249913133
 20
61.074195399477844
 10
-23.75688574977992
 20
61.06590343492354
 10
-23.71900672788395
 20
60.91127456845097
 10
-23.557666205165333
 20
59.44203117891257
 10
-23.609561744613536
 20
60.088911651456876
 10
-23.10246939566089
 20
60.33061449120809
 10
-23.134889043421047
 20
59.673285238278076
 10
-22.534184555630546
 20
66.44711196988959
 10
-21.719575019798263
 20
67.12618178435635
 10
-21.440654314180854
 20
66.57735682444223
 10
-20.419910572674077
 20
68.05843006673545
 10
-19.849601661972663
 20
67.44245670691012
 10
-19.231991625496754
 20
67.99867876583335
 10
-19.236770023778327
 20
67.36381405793364
 10
-18.701872266344253
 20
66.82891630049954
 10
-18.312688564067656
 20
67.20622115259272
 10
-18.107097617730155
 20
67.33836826932308
 10
-18.28222827838389
 20
64.79545888821475
 10
-18.38792929106073
 20
63.77728221889362
 10
-18.445926833676452
 20
63.588958482619724
 10
-18.27196299742394
 20
63.72736183899403
 10
-18.20774894498669
 20
64.14600682417945
 10
-18.025778702342777
 20
68.23287752748524
 10
-17.58875741588981
 20
68.25067420932939
 10
-17.050451905372896
 20
68.478476883598
 10
-16.75921057193642
 20
68.74536764421507
 10
-16.500932023633055
 20
69.2425648383032
 10
-16.302456891942697
 20
69.03581748919112
 10
-16.105706225897627
 20
68.91002898175111
 10
-15.95387710525192
 20
68.90726907876049
 10
-15.785012630287575
 20
68.97904790233444
 10
-15.616672233457727
 20
69.11457054301721
 10
-15.251533831660126
 20
69.57791849576418
 10
-15.029305887557342
 20
69.2842903858892
 10
-14.922441194757305
 20
69.26286751984334
 10
-14.72024786096027
 20
69.33542793632145
 10
-14.843756291979204
 20
68.2623992652828
 10
-14.555514258010241
 20
68.42091232816202
 10
-14.199121002364457
 20
68.94098238433261
 10
-13.906722353854292
 20
68.67077576335888
 10
-13.650250539727004
 20
68.66601217068322
 10
-13.591497307028995
 20
68.60049212021784
 10
-13.909728627218172
 20
65.57605585025354
 10
-14.012125045375804
 20
64.1016137900809
 10
-14.060259810534163
 20
62.45105407177721
 10
-14.045116897661082
 20
55.86568603243404
 10
-13.888981576856096
 20
51.51513309309924
 10
-14.105084497308901
 20
51.67339593456636
 10
-15.069019336487678
 20
52.701707365178706
 10
-15.11369079109867
 20
53.46539201112585
 10
-15.08037649582593
 20
52.82773558100993
 10
-15.030429955445676
 20
52.1024378187114
 10
-15.890711039010043
 20
52.995566406370195
 10
-15.713754713261629
 20
52.72128149020355
 10
-15.732952545048278
 20
52.554859665602294
 10
-15.819473416501843
 20
52.4854490274267
 10
-16.87931531413485
 20
52.98252378062657
 10
-17.016772686017624
 20
53.08479439077269
 10
-16.923354524676988
 20
53.139037517994666
 10
-17.194367388966533
 20
53.21318191576246
 10
-18.172152928375212
 20
53.68327945986165
 10
-18.259977463994666
 20
58.932012163362316
 10
-18.259977463994666
 20
58.88186670202768
 10
-18.640550451678983
 20
58.772731302053224
 10
-18.669310029332742
 20
53.397727327339894
 10
-18.72091115485066
 20
51.678545938776274
 10
-19.466212328527057
 20
51.94033909987701
 10
-19.86744214070901
 20
50.50473142373255
 10
-19.962288790463496
 20
50.635321636197524
 10
-20.561287875564382
 20
51.98646000813259
 10
-20.644390853098976
 20
52.30120327292796
 10
-20.996203876574377
 20
51.15126009489168
 10
-21.740679045738652
 20
52.80385500084428
 10
-22.038320592825805
 20
52.65865987763463
 10
-22.086699033260338
 20
53.491585494775954
 10
-22.538175976949454
 20
52.95291806210135
 10
-22.843070019728955
 20
53.38535875408924
 10
-22.948697759821904
 20
53.41324679838195
 10
-23.12297398322147
 20
53.34205017659435
 10
-23.193458994431076
 20
53.38063502931136
 10
-23.243425018133074
 20
53.71792067736116
 10
-23.26321614713885
 20
54.955277807092315
 10
-23.21529648565499
 20
58.29656420461725
 10
-23.28543981626843
 20
57.8587400590317
 10
-23.438866199557403
 20
57.66880923738549
 10
-23.495723951826363
 20
57.18761052329898
 10
-23.761344032029427
 20
50.45500664582865
 10
-23.835001744754635
 20
50.33718073966717
 10
-24.24940564244548
 20
50.40659112679861
 10
-24.331050233538384
 20
50.37541201105243
 10
-24.441444040268827
 20
49.906824428224944
 10
-25.193249752065093
 20
50.48408043992796
 10
-25.365923531424478
 20
50.559535917249455
 10
-25.55471405821828
 20
50.48821812545758
 10
-26.100113389118654
 20
50.12911696888286
 10
-26.42299773380455
 20
50.34524425705415
 10
-26.52541585490838
 20
50.35867701537791
 10
-26.60614043887624
 20
50.28375071723174
 10
-26.835426406309523
 20
49.84827473781197
 10
-26.866781954701576
 20
50.98990598752869
 10
-27.21723713037705
 20
50.777103436848634
 10
-27.55804638540708
 20
50.961343277793375
 10
-27.726524443678013
 20
50.98999370086493
 10
-27.9697471672239
 20
50.46304648714818
 10
-27.979226072548048
 20
53.142630769319055
 10
-27.979226072548048
 20
52.48301080639572
 10
-28.769646893123173
 20
52.56946546358832
 10
-29.7554854608589
 20
52.91305641883731
 10
-30.308802458371318
 20
53.2747161345818
 10
-30.130141407065704
 20
53.25186223683953
 10
-30.785195930925354
 20
53.50264531451907
 10
-31.477104921871852
 20
53.9323249425019
 10
-32.02295835806967
 20
54.49766562885827
 10
-32.42954390520796
 20
55.20569736245517
 10
-32.70033182556443
 20
55.999143536851605
 10
-32.79255873201181
 20
56.66869216955017
 10
-32.89493127717628
 20
53.27817597271839
 10
-33.000170749581656
 20
46.638267623175466
 10
-33.023186465092536
 20
46.476202470333746
 10
-33.093991511251375
 20
46.362344485602144
 10
-33.26103939019596
 20
46.291057337061694
 10
-33.67571064698096
 20
46.33335467076508
 10
-34.11873648626821
 20
46.6048995515809
 10
-34.421620491671106
 20
46.901115336253696
 10
-34.26309239970166
 20
46.97541982888733
 10
-34.6032134884537
 20
46.912866212929124
 10
-34.789602084043054
 20
46.94997560221058
 10
-35.15042041844969
 20
47.11958133719403
 10
-35.5298562862248
 20
47.513792586043614
 10
-35.91099374638502
 20
48.08001284296964
 10
-35.90625435111474
 20
47.99552899293488
 10
-36.076563315401096
 20
48.00535995014374
 10
-36.4380289932363
 20
47.87351164494783
 10
-36.46352632093243
 20
48.20052458550215
 10
-36.404319740147244
 20
48.31945068412573
 10
-36.595133407925886
 20
48.297457104946886
 10
-37.09850902566521
 20
48.67706206727116
 10
-37.48692309355793
 20
48.48075989327347
 10
-37.57558526462059
 20
48.49377978052659
 10
-37.6905051574265
 20
50.791643265358104
 10
-37.63576730513077
 20
53.396932230056976
 10
-37.338859672998495
 20
56.91432649397784
 10
-37.00092485239936
 20
59.29480480165324
 10
-37.98997041455932
 20
57.58926403126626
 10
-37.57500244198201
 20
56.4361371496786
 10
-37.833051807855
 20
55.29801316025265
 10
-40.387193760637956
 20
53.70038430786792
 10
-41.63089399238544
 20
52.83892014442375
 10
-42.372301326932885
 20
52.25654550582172
 10
-42.429010801155094
 20
51.56648678105536
 10
-42.420752687297146
 20
49.527535502890025
 10
-42.252103146050224
 20
43.710079870203856
 10
-43.06510061333532
 20
43.0
 10
-43.56277298184558
 20
43.355714994776434
 10
-44.021749188590384
 20
43.74107506621645
 10
-44.01440915150892
 20
43.781105086549914
 10
-44.23714600956373
 20
43.58791643154644
 10
-45.33920927999431
 20
44.51659265372164
  0
LWPOLYLINE
  5
31
330
17
100
AcDbEntity
  8
SF2_SOLID
100
AcDbPolyline
 90
240
 70
1
 10
-18.148000483211568
 20
81.41072886024527
 10
-17.806855781972956
 20
80.94042715126865
 10
-18.05008332319653
 20
80.66214870310313
 10
-18.590818288998264
 20
80.2889356545378
 10
-19.245574884938264
 20
79.93273889099135
 10
-20.133567557209773
 20
79.62792955705186
 10
-20.21059639155036
 20
76.25418511406244
 10
-21.169699183376714
 20
76.25418511406244
 10
-21.31904763098541
 20
75.88716348144388
 10
-21.430857635018285
 20
75.79689815503602
 10
-22.182806721663802
 20
75.91317975316396
 10
-22.182806721663802
 20
75.3621820225859
 10
-22.861584143697144
 20
75.42111945750457
 10
-23.14979019948754
 20
75.38280083148376
 10
-23.50003736692782
 20
75.15368688322701
 10
-23.938980688649544
 20
74.70261831811867
 10
-23.864295677577324
 20
76.01134300712835
 10
-24.1744399158842
 20
76.00535519531125
 10
-24.46973372603385
 20
75.90162507882033
 10
-24.82589857805774
 20
75.65060293846423
 10
-25.111248909488815
 20
75.34666491266137
 10
-24.9346421710735
 20
79.52699258849704
 10
-25.314954815629143
 20
79.37668443678001
 10
-25.438266243873187
 20
79.40824822531158
 10
-25.494162376901926
 20
79.90160111245326
 10
-25.72567938542273
 20
80.34848979586721
 10
-25.754337836855107
 20
81.03672434405979
 10
-26.221773119270388
 20
81.21862164991876
 10
-24.495519492976207
 20
81.90726997374264
 10
-24.416293431486956
 20
83.66095879543863
 10
-24.20142142299465
 20
85.50797372706876
 10
-24.257374465444677
 20
85.66010914687331
 10
-25.248498935742916
 20
85.37733656421645
 10
-25.38220826325076
 20
86.18396070495797
 10
-25.811900641072107
 20
86.53297860040263
 10
-25.926161409606287
 20
86.72429339937293
 10
-25.908003678701505
 20
86.54881216201235
 10
-26.29587075221007
 20
85.51604666209994
 10
-26.529830640394763
 20
84.57899370160754
 10
-26.92256766610887
 20
82.05060446494667
 10
-27.20276813440456
 20
78.55958042509866
 10
-27.406424949445707
 20
72.91685276052301
 10
-28.366113702525936
 20
72.89351648005511
 10
-28.452392886275554
 20
72.84116368929784
 10
-28.61857652452863
 20
72.56424749372202
 10
-29.207730811269723
 20
72.78810850301204
 10
-29.539859043545814
 20
72.30853828183074
 10
-29.935845541504545
 20
71.95232556227455
 10
-30.26903238905084
 20
71.80093488126931
 10
-31.380936134601598
 20
71.75228251875038
 10
-31.946473661538022
 20
71.24578233961907
 10
-32.435484524393146
 20
70.92638214876334
 10
-32.52253874971969
 20
71.38639587248987
 10
-32.5460486637417
 20
72.34548100108086
 10
-33.593727053698444
 20
71.38942668624023
 10
-33.65854884962866
 20
71.7832722056123
 10
-33.680290056911474
 20
72.47875112225346
 10
-33.63703078902571
 20
74.08025462411615
 10
-33.48033304282242
 20
75.42913525313367
 10
-33.25597527441268
 20
76.7877036684066
 10
-32.039240699736666
 20
83.2427870062661
 10
-31.931392525162472
 20
84.05312416018455
 10
-31.90876973552418
 20
84.3600364472719
 10
-31.903304147581395
 20
84.73117408084747
 10
-31.922873125191547
 20
84.50675388572964
 10
-32.004517288439885
 20
84.41155929213943
 10
-34.338925645788294
 20
83.35668020757129
 10
-38.33146744859424
 20
81.30627476297079
 10
-35.633368025887634
 20
83.89082509534671
 10
-39.51351508390357
 20
81.89352587258432
 10
-36.86899634939708
 20
84.40794024002341
 10
-36.84550147028419
 20
84.43738079031382
 10
-37.90645610360352
 20
84.30091416011896
 10
-36.96399089174246
 20
85.16549818676731
 10
-36.24303146483452
 20
85.97343372261582
 10
-35.705375804479395
 20
86.81907228739095
 10
-35.2973104379749
 20
87.75114402310722
 10
-35.207692605773865
 20
87.86069188085708
 10
-34.39663836434133
 20
88.29282837561121
 10
-31.937259249663338
 20
89.35956723621098
 10
-28.05285560042243
 20
90.89728940512666
 10
-25.63723845602916
 20
91.78177621831895
 10
-21.111855244627783
 20
93.30814673080451
 10
-14.686047599356058
 20
95.27353824944544
 10
-10.530846843279413
 20
96.4014451404928
 10
-6.76345825423698
 20
97.3212525415312
 10
-1.6258350255509484
 20
98.40168239980892
 10
1.7247637064397665
 20
99.00255697935006
 10
4.915533265034732
 20
99.49383699138554
 10
7.860551561357568
 20
99.86346674443786
 10
9.856353511143894
 20
100.05360382486492
 10
12.1645570721317
 20
100.1813366170789
 10
13.584071821472804
 20
100.17620576869601
 10
14.36187798792946
 20
100.12189753492052
 10
16.085820999151537
 20
99.84318025332436
 10
17.689151956992845
 20
99.40564474311473
 10
19.053575161143996
 20
98.84892246140144
 10
19.609228949239082
 20
98.53825111157778
 10
20.041332760676013
 20
98.22774441271784
 10
19.987161119236532
 20
98.2937725268043
 10
20.586089443394783
 20
97.98833277738706
 10
21.071597458030453
 20
97.65046494291084
 10
21.53625010234677
 20
97.23702965209944
 10
21.92673911777908
 20
96.80098238361629
 10
22.303029311623106
 20
96.1337692566077
 10
22.435360755846034
 20
95.61624653208558
 10
22.44252862176252
 20
95.07138907931687
 10
22.32508011540159
 20
94.45760163318614
 10
22.089605806110058
 20
93.76692717498136
 10
21.541992034465125
 20
92.79222240013013
 10
21.048660711149864
 20
92.19465954851694
 10
20.455165243022464
 20
91.64090556183295
 10
19.38168971111385
 20
90.89619732786022
 10
18.09461027516278
 20
90.25978193106343
 10
17.121374533182134
 20
89.89854854380337
 10
16.279187928145348
 20
89.65444555916888
 10
14.401196832266791
 20
89.25427770891575
 10
14.356441207284291
 20
89.27597406046672
 10
15.949740547030757
 20
90.118692993238
 10
15.288995142638399
 20
90.27410314083934
 10
15.99020233577501
 20
90.52426943554258
 10
14.736506040135438
 20
90.17126633362312
 10
13.273402038070614
 20
89.90827983334276
 10
14.706943431227401
 20
90.7215449180862
 10
14.188793978107014
 20
90.92336723409218
 10
16.098912180109096
 20
91.68200819130774
 10
15.879616365694389
 20
92.04420692792635
 10
16.89911162899513
 20
92.32747768386724
 10
16.976158519404407
 20
93.15108534402674
 10
17.031561389602032
 20
93.20450863503665
 10
17.401419270392438
 20
93.29592679325626
 10
17.37391497681412
 20
93.38901857657547
 10
17.03691354236733
 20
93.81233905830445
 10
17.664818761878337
 20
94.15317156940844
 10
18.310902760063186
 20
94.64892467030074
 10
18.801885484331223
 20
95.22011743149871
 10
18.982791770860985
 20
95.52653243237987
 10
19.117216221449013
 20
95.8428418455385
 10
19.228612430780558
 20
96.39042190031381
 10
19.17880262748149
 20
96.79867433085434
 10
18.98802909168664
 20
97.1557361342016
 10
18.760857516696532
 20
97.37714388770135
 10
18.77538433227093
 20
97.34616908192879
 10
18.71345979369545
 20
97.34195971953847
 10
18.020076077223024
 20
97.50984457564215
 10
17.228944092618377
 20
97.62924651869403
 10
15.135168824368279
 20
97.82254508322387
 10
12.621384150526524
 20
97.90697228704619
 10
10.866853035609722
 20
97.82516372287401
 10
9.720817583537794
 20
97.682945684864
 10
8.516031574627192
 20
97.39877218506092
 10
7.920872614490747
 20
97.12377499885592
 10
7.574714483913866
 20
96.75281441596266
 10
7.417796311064976
 20
96.47470444181224
 10
7.13607883459116
 20
95.73194159779993
 10
6.896915962875667
 20
94.73874351910064
 10
6.699983030870143
 20
93.49305655722827
 10
6.544955373526278
 20
91.9928270636967
 10
6.431508325795733
 20
90.23600139001984
 10
6.301617664247161
 20
84.42186692667205
 10
5.663086781604079
 20
84.28678305363232
 10
5.247723236813677
 20
84.55931722121915
 10
4.865064826631809
 20
84.09984362940071
 10
4.253862331955027
 20
84.44286732230492
 10
3.8898654721287897
 20
83.60217126089044
 10
3.046917840798379
 20
83.61061883878068
 10
2.3864996846938524
 20
83.40529004212026
 10
2.354399480564581
 20
83.42399818916925
 10
2.4321506600607563
 20
84.17089595303662
 10
2.6974253155461625
 20
84.24898258425861
 10
1.9216009682015667
 20
84.24907278182786
 10
1.3610206032249863
 20
84.0817966315766
 10
1.246521438748438
 20
84.09166451578783
 10
1.430267438636875
 20
89.26785613218675
 10
1.6254406644061206
 20
93.25524868471777
 10
1.7403828933797385
 20
93.90287203451155
 10
2.1929789525697743
 20
95.356311964302
 10
2.1844662215792283
 20
95.71488019311408
 10
2.0277626322328643
 20
96.4248245501384
 10
1.9432889858371425
 20
96.34524382477585
 10
1.77268922527157
 20
96.29133739820516
 10
0.7766361542089157
 20
96.04698693547112
 10
-0.5189558264351746
 20
95.71175370234567
 10
0.15377962241440457
 20
95.85917072669298
 10
0.17404215373201737
 20
95.66073876911486
 10
0.09456207397046512
 20
94.92388421692289
 10
1.3171747912740344
 20
95.21878487873346
 10
1.0587347633755044
 20
92.92328196898812
 10
-2.788221772366761
 20
91.91264573514442
 10
-2.8571303529175154
 20
91.62475749868179
 10
-2.8614088853829784
 20
90.92300010995885
 10
-0.977407921697079
 20
91.33218259550455
 10
-0.8152646191347372
 20
91.36000524060925
 10
-0.7670453297773889
 20
91.32524406817322
 10
-0.8055934145707724
 20
90.79321149993689
 10
-1.111839146474118
 20
88.88467015194975
 10
-0.8512755088090529
 20
90.4671850282352
 10
0.09445915296574015
 20
90.68056322495917
 10
0.37516111052722323
 20
90.70316676775289
 10
0.4045985627356288
 20
90.61115253430651
 10
0.3629067768476091
 20
90.23345102384339
 10
0.03864630327261409
 20
88.28862831241068
 10
-0.2561273825424948
 20
88.15697397563518
 10
-3.0662739264660885
 20
87.28249639078243
 10
-3.3051468670289665
 20
85.93025503508832
 10
-3.7001886549128074
 20
85.76876263610023
 10
-0.9053215470948501
 20
86.57244151876627
 10
-0.45425878697721345
 20
86.6604448528197
 10
-0.4281438431718527
 20
86.48107063945825
 10
-0.6072458044835471
 20
83.72881512365541
 10
-3.5033970791314317
 20
83.00224868058453
 10
-0.6072458044835471
 20
83.7262056466785
 10
-0.4666269352882608
 20
85.74568917113311
 10
0.09515981956525366
 20
85.94495104841155
 10
0.6764602754787248
 20
86.08516193082946
 10
0.5909405445318967
 20
84.59516712282617
 10
0.43574250600300957
 20
83.10016768526891
 10
-3.0608994152896685
 20
82.19786730573318
 10
-6.66352721201784
 20
81.34800817999101
 10
-6.688628797648889
 20
81.60767376987526
 10
-6.64345380009744
 20
82.20821973241826
 10
-5.301328976183996
 20
82.55126118856522
 10
-7.745997941998354
 20
81.95909307062476
 10
-7.779582880072638
 20
82.02515196153058
 10
-7.725893220055511
 20
82.86406977990379
 10
-7.895981629778895
 20
81.18722975211543
 10
-8.023253462338474
 20
80.38850907388029
 10
-11.536919966571169
 20
79.28336093611718
 10
-11.578094420169954
 20
79.22624999265167
 10
-11.468643527324225
 20
79.06777379075525
 10
-11.607304902214402
 20
78.9776390250794
 10
-12.724428588542601
 20
78.91903751776454
 10
-13.478945406270547
 20
79.240219325124
 10
-13.579903168096529
 20
78.55453884867018
 10
-14.526212567472442
 20
78.27213358423299
 10
-14.675007653940355
 20
78.352870219089
 10
-14.935863130994875
 20
78.61476118773824
 10
-15.265625131713577
 20
78.98804490919738
 10
-15.210912014664132
 20
79.00503486174655
 10
-15.756795123459497
 20
78.86852792660667
  0
LWPOLYLINE
  5
32
330
17
100
AcDbEntity
  8
SF2_SOLID
100
AcDbPolyline
 90
35
 70
1
 10
-6.8427878334650885
 20
56.98225566730851
 10
-6.772480249686964
 20
57.00424710807387
 10
-7.940594528708317
 20
56.65481034209735
 10
-8.008605104882186
 20
56.709541153418485
 10
-7.578330563964343
 20
70.8541837139963
 10
-1.2357655565612262
 20
72.70439061895132
 10
-1.7017153416678283
 20
71.3600329355483
 10
-1.5946613883889853
 20
71.64837550198783
 10
-0.06902687972869614
 20
72.07612710196781
 10
-0.8707194113419234
 20
69.87847258109421
 10
-0.3409111460322336
 20
69.57965232099973
 10
-0.8154973658056619
 20
68.95536388861602
 10
-1.073629440785325
 20
68.78844844490496
 10
-3.8860284676099894
 20
67.96594720778998
 10
-4.002223930139458
 20
66.8724039897701
 10
-2.306958061418058
 20
67.2853510293465
 10
-2.681102893437348
 20
65.89523635536634
 10
-2.5560583359084177
 20
66.33823657947657
 10
-1.194486053320638
 20
66.64396155922492
 10
-1.6697213442664065
 20
64.71923680145078
 10
-1.6855559112962695
 20
63.93428085102141
 10
-1.8059316863356472
 20
63.85421308699478
 10
-4.0311010312521205
 20
63.09467710065522
 10
-4.08154262453975
 20
62.952269490165904
 10
-4.1174924884868815
 20
62.04284146318743
 10
-4.212902231580735
 20
61.8915340949519
 10
-4.421467125697461
 20
61.826261371919415
 10
-2.5670479759775873
 20
62.0948183515951
 10
-2.597935278524602
 20
58.253725894539166
 10
-2.655296903619508
 20
58.23626922492329
 10
-2.597935278524602
 20
58.253708384087886
 10
-2.5667559535109206
 20
61.30365386952123
 10
-1.4407416586620059
 20
61.38801882875259
 10
-1.426941470265156
 20
57.61200806255685
 10
-6.8427878334650885
 20
56.00766703589616
  0
LWPOLYLINE
  5
33
330
17
100
AcDbEntity
  8
SF2_SOLID
100
AcDbPolyline
 90
73
 70
1
 10
-11.903253040679687
 20
53.868262766216695
 10
-12.920714007182298
 20
55.889950358298655
 10
-13.06567918272183
 20
55.838440831070244
 10
-13.176893660698923
 20
55.70469134856561
 10
-13.390269974536217
 20
55.27400290198925
 10
-13.480020272968382
 20
56.13688063205797
 10
-13.562114641662603
 20
58.04431894175187
 10
-13.508247128011753
 20
61.6932369809633
 10
-13.327970109231586
 20
64.31728053865163
 10
-12.786173219644795
 20
70.0991343459885
 10
-12.7313095641789
 20
71.59948472623114
 10
-12.757244664510438
 20
72.74885207031014
 10
-12.81720078209036
 20
72.6546037846531
 10
-14.159131096133791
 20
72.33087543158351
 10
-15.899527607507771
 20
71.70297125578128
 10
-18.118288048202956
 20
70.71718976043906
 10
-19.459409315530046
 20
70.04791793028738
 10
-18.7058507622612
 20
71.5836283212061
 10
-20.543415390100584
 20
70.72663124766267
 10
-19.935427337925297
 20
71.91040063299656
 10
-19.26517540546009
 20
72.85530672793011
 10
-18.753908661734158
 20
73.34324843529163
 10
-18.16141435850932
 20
73.68365671600533
 10
-16.761455026006907
 20
74.32087243348968
 10
-14.837926406564655
 20
75.08078916464967
 10
-9.824676055023318
 20
76.83722242890266
 10
-2.919542302767546
 20
78.98963263779964
 10
2.979439281339644
 20
80.62229266764325
 10
5.652432789876073
 20
81.27747820045684
 10
7.812806494151118
 20
81.75037676659164
 10
7.847135803555645
 20
81.75600497456229
 10
7.176193948543997
 20
81.34924931499697
 10
6.961378138265275
 20
81.15309780342903
 10
6.840461544435826
 20
80.96105192030146
 10
6.829329551006211
 20
80.71621001401016
 10
6.553101076427112
 20
80.55113855317191
 10
7.830072146395764
 20
80.91032565169894
 10
9.04068615777635
 20
81.17235910875209
 10
8.362172281266567
 20
80.7832933159754
 10
8.111056681316626
 20
80.57440302082446
 10
7.960721294203211
 20
80.36460748117184
 10
7.91211305529157
 20
80.01457569698651
 10
7.3569312138776155
 20
79.7711953322491
 10
6.986411765741366
 20
79.55946751309025
 10
6.669026883843486
 20
79.30608863069193
 10
6.396285274908863
 20
79.00305246360625
 10
6.051118237155222
 20
78.46126510608886
 10
5.834833345033061
 20
78.2966816499574
 10
-0.16194737787127167
 20
76.7906298469309
 10
-3.2205119087430774
 20
75.86488632296596
 10
-4.711929136665411
 20
75.32070062633024
 10
-5.864021959972291
 20
74.8112810899713
 10
-6.665087300099145
 20
74.34161642378729
 10
-6.9983362936937965
 20
74.05305624576086
 10
-7.244768717276592
 20
73.65297654565936
 10
-7.381216217227539
 20
73.31825258639815
 10
-7.7590324655265945
 20
71.90427444511388
 10
-8.08508335766922
 20
69.90965886250463
 10
-8.353614063736593
 20
67.37821263647524
 10
-8.61223254054105
 20
63.24359656517366
 10
-8.709271096566113
 20
59.62603158342553
 10
-8.674568091766304
 20
55.27443702726573
 10
-8.525036588134682
 20
52.75661158864904
 10
-8.877818312605115
 20
53.00781433366626
 10
-9.038401223951546
 20
51.58119131496071
 10
-9.864940583715317
 20
53.37386413560575
 10
-9.91724956626392
 20
53.57486707493208
 10
-10.011628693730827
 20
53.62149719854959
 10
-10.055513606365395
 20
53.498749877119884
 10
-10.15925654158579
 20
52.21953719953734
 10
-10.96072362045205
 20
53.9028407989103
 10
-11.111987980411328
 20
54.215429819894396
 10
-11.374304595548288
 20
54.70789904208866
  0
LWPOLYLINE
  5
34
330
17
100
AcDbEntity
  8
SF2_SOLID
100
AcDbPolyline
 90
106
 70
1
 10
24.255022052392405
 20
52.49556834890049
 10
18.75997389536846
 20
50.96650334468826
 10
17.020234359585743
 20
50.40496935892795
 10
15.08182481721559
 20
49.68330516414543
 10
15.05982910139673
 20
49.71467248979974
 10
15.199321298387261
 20
49.87794527814186
 10
16.661687649010844
 20
51.305415450145894
 10
13.795978037107602
 20
50.254107235164696
 10
15.581454594097409
 20
52.02291086175814
 10
15.607026502404764
 20
52.079622064068936
 10
15.538007518377555
 20
52.11761988444489
 10
15.198275948823934
 20
52.16109776190686
 10
15.169996529145493
 20
52.27418592291533
 10
15.82174973018624
 20
53.08246023815862
 10
16.66881162726
 20
53.95064365406114
 10
19.005476526056682
 20
54.558276502640524
 10
20.241265014892775
 20
54.999150643806566
 10
20.931666148419296
 20
55.38720093630929
 10
21.125236272509994
 20
55.64650028765058
 10
21.22222204294387
 20
55.888513136675805
 10
21.407778542522678
 20
56.76028466746299
 10
21.618960632994373
 20
58.44256345004021
 10
22.694022507899476
 20
69.68143835700253
 10
23.640210829666486
 20
78.26553287610705
 10
23.769557001336196
 20
79.91415845387479
 10
23.719476948509765
 20
81.21352107438787
 10
23.660755739364504
 20
81.0636449042236
 10
22.338761996090113
 20
80.7458414429178
 10
20.615090801960847
 20
80.14308947431456
 10
19.382059574693514
 20
79.63601235097651
 10
17.533365233921657
 20
78.78423460333104
 10
17.45533368791837
 20
78.79907344378483
 10
17.539460616270915
 20
78.95908320789633
 10
18.441944671662696
 20
80.37906174226437
 10
16.511536276592096
 20
79.51390320183745
 10
16.32196272964069
 20
79.45548437861402
 10
16.326966941564734
 20
79.49256962373993
 10
17.425377820440104
 20
81.26317416739734
 10
18.95823861713467
 20
83.1796712433804
 10
19.471437294846055
 20
83.49296801424538
 10
21.15862137641345
 20
84.1598292402816
 10
24.802190810780104
 20
85.38465189158194
 10
27.539254778442327
 20
86.18445138822736
 10
30.44660753209584
 20
86.95174616226
 10
33.45899876618958
 20
87.6701600086208
 10
36.511178175172475
 20
88.32331672225067
 10
41.02131507317098
 20
89.14487172025834
 10
43.35021405563381
 20
89.4727116352004
 10
43.38076078024221
 20
89.45646160661131
 10
43.34957583080306
 20
89.4217159026305
 10
42.573873897286845
 20
88.94633083898803
 10
42.14070095293192
 20
88.47658619698336
 10
41.95327870627345
 20
88.35978610394628
 10
42.178955780536114
 20
88.47305530707509
 10
42.81800803397371
 20
88.60690891289457
 10
44.48300592218378
 20
88.82886640210366
 10
43.68086367194452
 20
88.30726668104094
 10
43.180016181737074
 20
87.77556084672956
 10
41.31433253120453
 20
87.1326255962745
 10
39.76276573526077
 20
85.72992421092826
 10
39.75438545968301
 20
85.26124640597448
 10
39.681868643307126
 20
85.16147694483337
 10
38.229173249068026
 20
84.94137743800962
 10
36.603245507363525
 20
84.52391963128852
 10
36.047479021548895
 20
84.28981038871123
 10
35.81785290733754
 20
84.13352087713508
 10
35.65638539931069
 20
83.93506001851316
 10
35.53523939229828
 20
83.64645210027314
 10
35.15190079897016
 20
81.73312044218142
 10
34.75344085979674
 20
78.97610312783218
 10
34.24263016167011
 20
74.69025112996965
 10
33.85763868988242
 20
70.94156983089465
 10
33.451532235903485
 20
66.32911321224094
 10
33.22059908736637
 20
63.0495285046258
 10
33.10326391277377
 20
60.4473172818672
 10
33.13895061069866
 20
58.407755868878425
 10
33.9990260987975
 20
58.49545301265323
 10
35.168285170457125
 20
58.68768788718716
 10
41.1114064640888
 20
59.82751507253125
 10
43.31672983408005
 20
60.12792343569973
 10
44.00800466342763
 20
60.1703896028701
 10
43.92463437009138
 20
60.09889047998492
 10
43.01084331701264
 20
59.858075029411026
 10
41.596781291599854
 20
59.354902213633
 10
40.28158011828694
 20
58.78561521070979
 10
40.319503616102395
 20
58.509878445601615
 10
40.357427113917836
 20
58.234141680493444
 10
40.31009829127753
 20
58.758435140243066
 10
40.54968887164077
 20
58.886339985805265
 10
43.0678490008452
 20
59.335786636416394
 10
45.23716178887368
 20
59.566750239349645
 10
43.14636942779103
 20
58.90148897954745
 10
41.70662483408144
 20
58.31450061096447
 10
41.437495557729676
 20
58.177725257901
 10
41.46843634597221
 20
57.594771269642976
 10
40.630774846718154
 20
57.1135549434744
 10
40.47775489950929
 20
57.1843536647053
 10
41.02831091341427
 20
56.89072270337857
 10
40.295939014827795
 20
56.76308058229652
 10
41.051791973993744
 20
56.873430852639316
 10
42.06595024493252
 20
56.331564916431034
 10
42.14183522506994
 20
56.24865492076363
 10
42.097668746564
 20
56.22868164767696
 10
38.374830495363426
 20
55.61726472610346
 10
33.846293893967925
 20
54.740368372974885
 10
28.08187273680403
 20
53.456026815365504
  0
LWPOLYLINE
  5
35
330
17
100
AcDbEntity
  8
SF2_SOLID
100
AcDbPolyline
 90
112
 70
1
 10
15.736629304711755
 20
56.23728782921791
 10
14.587291488340355
 20
56.12702727251228
 10
14.492820463965344
 20
56.15591751693887
 10
14.066207383266544
 20
56.78641305174918
 10
14.427910092104113
 20
56.866024614741654
 10
13.382105107295331
 20
56.746800375790784
 10
11.651921682960634
 20
59.26903423249128
 10
9.70930335173864
 20
61.83914975025163
 10
8.490801368184492
 20
63.32488416928026
 10
7.870085604345931
 20
62.903186352030076
 10
7.113640512115069
 20
62.47715104572928
 10
6.336535008117636
 20
62.11173261674638
 10
5.762739527022319
 20
61.90014465761304
 10
5.633068836472788
 20
60.08901786842242
 10
5.465131352046058
 20
58.9904984249331
 10
5.2243827001124
 20
57.8575271656207
 10
4.678456281137684
 20
55.97514487180359
 10
4.317244937290184
 20
54.987470098553985
 10
4.089751073147063
 20
54.51960034207716
 10
3.1106595367401866
 20
53.95329732501815
 10
3.082902379911893
 20
54.56564820190307
 10
2.899324550351075
 20
54.55126083036162
 10
0.5678149709795477
 20
53.73282758327938
 10
-0.9292691017548975
 20
53.080969255029984
 10
-1.8238555464868114
 20
52.85560923054447
 10
-2.2354708679578152
 20
52.87658037569291
 10
-2.3426201482727436
 20
52.896666312020635
 10
-2.3659358441541443
 20
52.951558675141584
 10
-2.016860077238789
 20
53.524738358443955
 10
-1.7971111089005873
 20
53.783180621925176
 10
-1.299857595957178
 20
54.063832158824674
 10
-1.8063981629516448
 20
53.83801216377458
 10
-2.7532725159586704
 20
53.55303878924224
 10
-3.239195064115549
 20
53.49518508590905
 10
-3.4791936493104956
 20
53.550211659414884
 10
-3.442240674019267
 20
53.71541428550905
 10
-3.026369734553022
 20
54.32706649507157
 10
-2.393625916523952
 20
55.42492273462585
 10
-1.771376369398567
 20
56.679484675085085
 10
-1.0561100921650066
 20
58.45507922851888
 10
-0.7260013721693639
 20
59.66904852714927
 10
-0.6437662565900766
 20
60.19956677172529
 10
-0.7465389194913854
 20
60.240502621011856
 10
-1.0234717104350608
 20
60.210377776302835
 10
-1.083294814200194
 20
60.25168546152598
 10
-0.9420647761101151
 20
61.03664617806922
 10
-2.340253737790171
 20
62.73634798130565
 10
-2.540420549555023
 20
63.078830168351246
 10
-0.3297548208704981
 20
63.67668598103551
 10
-0.07172856077354339
 20
63.7689875628766
 10
0.0332843749135634
 20
63.89836435042858
 10
0.168496233852224
 20
65.07562738356717
 10
0.29772846963273736
 20
66.97682997233252
 10
0.40308099458128765
 20
70.08079760400364
 10
0.34301789729603627
 20
72.98691620044409
 10
0.2883399667095219
 20
72.92270130945778
 10
-0.1173802499956551
 20
72.83167973458191
 10
-0.3310824458137205
 20
72.873594448604
 10
-1.2100670963890252
 20
73.43773037545986
 10
-0.8634698949329476
 20
73.54998594807975
 10
-1.3735589298493025
 20
73.47175511982331
 10
-2.0492927032135313
 20
73.85256606403425
 10
-2.3082437655440344
 20
74.05783670664749
 10
-2.463257443963066
 20
74.661641765017
 10
-2.606761931168876
 20
74.91622234028824
 10
-2.8468206464984434
 20
75.14224943374052
 10
-3.467541719326583
 20
75.56647157357835
 10
-0.2085904153430178
 20
76.60599137926476
 10
2.2874782319986053
 20
77.24369731052644
 10
4.933088531162539
 20
77.76866718812305
 10
5.986869732505127
 20
77.90546743136754
 10
6.827099041186628
 20
77.95212613603863
 10
7.633206569777528
 20
77.8814306214453
 10
8.477325751254526
 20
77.68140212531165
 10
9.300477744016035
 20
77.37012771910716
 10
10.043683706460442
 20
76.9656944743013
 10
10.361583418899812
 20
76.73659956359985
 10
10.975927667592345
 20
76.16752191639382
 10
11.53039996266962
 20
75.48886148817206
 10
11.954651230350606
 20
74.80425593118154
 10
11.551977483983308
 20
75.4614562691892
 10
11.226532474742939
 20
75.88718684975784
 10
10.892077383229875
 20
76.26715026199565
 10
10.386575354215623
 20
76.74385951356734
 10
11.187576967303471
 20
76.32343559431632
 10
11.977944940371586
 20
75.64865342428669
 10
12.477083992464827
 20
75.11168151238638
 10
12.852956789113051
 20
74.60445512110026
 10
13.167639108684625
 20
74.03220822873851
 10
13.423742044089238
 20
73.43505927792275
 10
13.620870058782572
 20
72.81538681652195
 10
13.758627616220338
 20
72.17556939240512
 10
13.836619179858218
 20
71.51798555344129
 10
13.854449213151923
 20
70.84501384749943
 10
13.708042542529583
 20
69.46242102615766
 10
13.357754575331143
 20
68.25412751488291
 10
13.192502722529142
 20
67.90497797411
 10
12.768336469218042
 20
67.24748597856681
 10
11.591431999833873
 20
65.99224854146861
 10
16.203472785789685
 20
61.171158217027724
 10
20.06348099808889
 20
57.00378133672334
 10
19.24758811827094
 20
57.12442519115065
 10
18.59705265097132
 20
56.40986079537436
 10
17.634244425693566
 20
57.183905490695246
 10
17.964985005853336
 20
57.57272831522199
 10
17.471984030373605
 20
57.02324386367323
 10
16.533020786922606
 20
57.78533628485856
 10
17.198129835462908
 20
57.21342059822395
 10
17.185970505435776
 20
57.0810085408698
 10
17.12729690489337
 20
57.02494207264007
 10
16.953070555573447
 20
56.99371665488154
 10
15.998939168620453
 20
57.051733689337304
  0
LWPOLYLINE
  5
36
330
17
100
AcDbEntity
  8
SF2_SOLID
100
AcDbPolyline
 90
95
 70
1
 10
54.278806264530886
 20
100.87079188080472
 10
53.764042058621044
 20
101.32022601120573
 10
54.40896160164958
 20
100.9667479344603
 10
55.177825924446594
 20
100.41046556200698
 10
55.89593245098881
 20
99.76253760922609
 10
56.51809691195133
 20
99.06373261120183
 10
57.059757601489295
 20
98.26770049441154
 10
57.547055410099944
 20
97.33365648623811
 10
58.09150085827319
 20
95.80711540609178
 10
58.329071216068286
 20
94.71213390872921
 10
58.4654796761468
 20
93.5604125372819
 10
58.478825161308094
 20
91.73598711819076
 10
58.35915158361935
 20
90.46150386550894
 10
58.14074496667557
 20
89.17282214831299
 10
57.639227895897264
 20
87.30741154078608
 10
56.886474604661416
 20
85.39038072553869
 10
56.07753383411847
 20
83.74641160820752
 10
55.52826501071728
 20
82.77408990018428
 10
54.251841161531004
 20
80.80065871636529
 10
52.71906030730712
 20
78.76145391669831
 10
50.9069119658147
 20
76.62360759060164
 10
49.46991553866694
 20
75.12573476219606
 10
46.229275691836534
 20
71.94137270604894
 10
43.923869136571014
 20
69.88106863607186
 10
44.45097553184209
 20
71.92651104880633
 10
45.93498212240671
 20
73.37867265663307
 10
42.803820549786465
 20
70.52714145469403
 10
42.84736556647299
 20
70.84018393873197
 10
43.51976876691303
 20
73.23887605779436
 10
44.28001016527729
 20
74.04655687570559
 10
44.56135804411875
 20
74.44235955464582
 10
44.73725734916968
 20
74.79806549142407
 10
44.781679061471294
 20
75.1584917648349
 10
44.38336855413233
 20
75.62667118135559
 10
45.754186126186866
 20
77.508683516326
 10
46.177139690057885
 20
78.23097492124106
 10
46.422158982498374
 20
78.79998997827057
 10
46.47215334607239
 20
79.23932533198925
 10
46.40147368027705
 20
79.40027560539193
 10
46.264224757480804
 20
79.4992486296459
 10
45.86427413499487
 20
79.53296777718887
 10
46.75711624234381
 20
81.08176363670086
 10
47.17098674208225
 20
81.97784573137218
 10
47.52321136340959
 20
82.91396654848157
 10
47.815794454558585
 20
83.8949197129553
 10
48.12239720776934
 20
85.34949334706633
 10
48.31044837057462
 20
86.85872147555457
 10
48.36832534633864
 20
88.28392258135288
 10
48.284405538425645
 20
89.48641514739415
 10
48.07072129166616
 20
90.48566270018651
 10
47.923950502873595
 20
90.95506048828919
 10
47.558436126253596
 20
91.82376090093065
 10
47.34284635114243
 20
92.21920625067865
 10
46.8538861591085
 20
92.92264405005224
 10
46.18820494395629
 20
93.58278977989869
 10
45.53531394088934
 20
93.66590134434904
 10
45.063237423298474
 20
93.62440357754289
 10
44.57566113027252
 20
93.49409427747082
 10
44.06616798061424
 20
93.27382459124956
 10
43.41989102071824
 20
92.83492650712307
 10
42.203801076179445
 20
91.64166357543496
 10
42.29359736195565
 20
92.57615436797121
 10
42.394038026321084
 20
93.00921112194588
 10
42.59447398481802
 20
93.56081062030512
 10
42.75289823280883
 20
93.77912736579678
 10
42.04491711530055
 20
93.24285756232297
 10
41.04236508934497
 20
92.20897575159736
 10
41.12194565993747
 20
93.07148934983644
 10
41.31796867005643
 20
93.81676294695073
 10
41.47196584006673
 20
94.18629111425454
 10
41.89908361398854
 20
94.93439433075775
 10
43.23800717563614
 20
96.66869135795318
 10
43.33151313811443
 20
97.03616559963318
 10
43.28198911372024
 20
97.16011053501977
 10
43.17462476728166
 20
97.23610859566062
 10
43.01417836008207
 20
97.2580957182231
 10
42.42738589660533
 20
97.06381526758597
 10
42.358945510702696
 20
97.05836494033841
 10
42.361738451319724
 20
97.09383193955836
 10
43.58667558798575
 20
99.39860666456073
 10
43.941165605606145
 20
99.99208369844645
 10
44.349609851437336
 20
100.53051309670761
 10
44.804759445574575
 20
100.93824870448955
 10
45.62886535713551
 20
101.49863222372028
 10
46.77487991137416
 20
102.09363792554656
 10
47.94581288878972
 20
102.51967144613421
 10
49.05979205215422
 20
102.74694430216492
 10
49.569838879433604
 20
102.77673657993445
 10
50.00658331203962
 20
102.75341773509504
 10
50.96998794307251
 20
102.57794397646552
 10
51.97711073251695
 20
102.25510534520406
 10
52.46850286313743
 20
102.04758040957472
 10
53.579774963462654
 20
101.41542511120281
 10
54.29116304612134
 20
100.85328383850111
 10
54.86401734125454
 20
100.32508486198489
  0
ENDSEC
  0
SECTION
  2
OBJECTS
  0
DICTIONARY
  5
A
330
0
100
AcDbDictionary
281
1
  3
ACAD_COLOR
350
B
  3
ACAD_GROUP
350
C
  3
ACAD_LAYOUT
350
D
  3
ACAD_MATERIAL
350
E
  3
ACAD_MLEADERSTYLE
350
F
  3
ACAD_MLINESTYLE
350
10
  3
ACAD_PLOTSETTINGS
350
11
  3
ACAD_PLOTSTYLENAME
350
12
  3
ACAD_SCALELIST
350
14
  3
ACAD_TABLESTYLE
350
15
  3
ACAD_VISUALSTYLE
350
16
  3
EZDXF_META
350
2D
  0
DICTIONARY
  5
B
330
A
100
AcDbDictionary
281
1
  0
DICTIONARY
  5
C
330
A
100
AcDbDictionary
281
1
  0
DICTIONARY
  5
D
330
A
100
AcDbDictionary
281
1
  3
Model
350
1A
  3
Layout1
350
1E
  0
DICTIONARY
  5
E
330
A
100
AcDbDictionary
281
1
  3
ByBlock
350
1F
  3
ByLayer
350
20
  3
Global
350
21
  0
DICTIONARY
  5
F
330
A
100
AcDbDictionary
281
1
  3
Standard
350
2C
  0
DICTIONARY
  5
10
330
A
100
AcDbDictionary
281
1
  3
Standard
350
22
  0
DICTIONARY
  5
11
330
A
100
AcDbDictionary
281
1
  0
ACDBDICTIONARYWDFLT
  5
12
330
A
100
AcDbDictionary
281
1
  3
Normal
350
13
100
AcDbDictionaryWithDefault
340
13
  0
ACDBPLACEHOLDER
  5
13
330
12
  0
DICTIONARY
  5
14
330
A
100
AcDbDictionary
281
1
  0
DICTIONARY
  5
15
330
A
100
AcDbDictionary
281
1
  0
DICTIONARY
  5
16
330
A
100
AcDbDictionary
281
1
  0
LAYOUT
  5
1A
330
D
100
AcDbPlotSettings
  1

  4
A3
  6

 40
7.5
 41
20.0
 42
7.5
 43
20.0
 44
420.0
 45
297.0
 46
0.0
 47
0.0
 48
0.0
 49
0.0
140
0.0
141
0.0
142
1.0
143
1.0
 70
1024
 72
1
 73
0
 74
5
  7

 75
16
 76
0
 77
2
 78
300
147
1.0
148
0.0
149
0.0
100
AcDbLayout
  1
Model
 70
1
 71
0
 10
0.0
 20
0.0
 11
420.0
 21
297.0
 12
0.0
 22
0.0
 32
0.0
 14
1e+20
 24
1e+20
 34
1e+20
 15
-1e+20
 25
-1e+20
 35
-1e+20
146
0.0
 13
0.0
 23
0.0
 33
0.0
 16
1.0
 26
0.0
 36
0.0
 17
0.0
 27
1.0
 37
0.0
 76
1
330
17
  0
LAYOUT
  5
1E
330
D
100
AcDbPlotSettings
  1

  4
A3
  6

 40
7.5
 41
20.0
 42
7.5
 43
20.0
 44
420.0
 45
297.0
 46
0.0
 47
0.0
 48
0.0
 49
0.0
140
0.0
141
0.0
142
1.0
143
1.0
 70
0
 72
1
 73
0
 74
5
  7

 75
16
 76
0
 77
2
 78
300
147
1.0
148
0.0
149
0.0
100
AcDbLayout
  1
Layout1
 70
1
 71
1
 10
0.0
 20
0.0
 11
420.0
 21
297.0
 12
0.0
 22
0.0
 32
0.0
 14
1e+20
 24
1e+20
 34
1e+20
 15
-1e+20
 25
-1e+20
 35
-1e+20
146
0.0
 13
0.0
 23
0.0
 33
0.0
 16
1.0
 26
0.0
 36
0.0
 17
0.0
 27
1.0
 37
0.0
 76
1
330
1B
  0
MATERIAL
  5
1F
102
{ACAD_REACTORS
330
E
102
}
330
E
100
AcDbMaterial
  1
ByBlock
  2

 70
0
 40
1.0
 71
1
 41
1.0
 91
-1023410177
 42
1.0
 72
1
  3

 73
1
 74
1
 75
1
 44
0.5
 73
0
 45
1.0
 46
1.0
 77
1
  4

 78
1
 79
1
170
1
 48
1.0
171
1
  6

172
1
173
1
174
1
140
1.0
141
1.0
175
1
  7

176
1
177
1
178
1
143
1.0
179
1
  8

270
1
271
1
272
1
145
1.0
146
1.0
273
1
  9

274
1
275
1
276
1
 42
1.0
 72
1
  3

 73
1
 74
1
 75
1
 94
63
  0
MATERIAL
  5
20
102
{ACAD_REACTORS
330
E
102
}
330
E
100
AcDbMaterial
  1
ByLayer
  2

 70
0
 40
1.0
 71
1
 41
1.0
 91
-1023410177
 42
1.0
 72
1
  3

 73
1
 74
1
 75
1
 44
0.5
 73
0
 45
1.0
 46
1.0
 77
1
  4

 78
1
 79
1
170
1
 48
1.0
171
1
  6

172
1
173
1
174
1
140
1.0
141
1.0
175
1
  7

176
1
177
1
178
1
143
1.0
179
1
  8

270
1
271
1
272
1
145
1.0
146
1.0
273
1
  9

274
1
275
1
276
1
 42
1.0
 72
1
  3

 73
1
 74
1
 75
1
 94
63
  0
MATERIAL
  5
21
102
{ACAD_REACTORS
330
E
102
}
330
E
100
AcDbMaterial
  1
Global
  2

 70
0
 40
1.0
 71
1
 41
1.0
 91
-1023410177
 42
1.0
 72
1
  3

 73
1
 74
1
 75
1
 44
0.5
 73
0
 45
1.0
 46
1.0
 77
1
  4

 78
1
 79
1
170
1
 48
1.0
171
1
  6

172
1
173
1
174
1
140
1.0
141
1.0
175
1
  7

176
1
177
1
178
1
143
1.0
179
1
  8

270
1
271
1
272
1
145
1.0
146
1.0
273
1
  9

274
1
275
1
276
1
 42
1.0
 72
1
  3

 73
1
 74
1
 75
1
 94
63
  0
MLINESTYLE
  5
22
102
{ACAD_REACTORS
330
10
102
}
330
10
100
AcDbMlineStyle
  2
Standard
 70
0
  3

 62
256
 51
90.0
 52
90.0
 71
2
 49
0.5
 62
256
  6
BYLAYER
 49
-0.5
 62
256
  6
BYLAYER
  0
MLEADERSTYLE
  5
2C
102
{ACAD_REACTORS
330
F
102
}
330
F
100
AcDbMLeaderStyle
179
2
170
2
171
1
172
0
 90
2
 40
0.0
 41
0.0
173
1
 91
-1056964608
 92
-2
290
1
 42
2.0
291
1
 43
8.0
  3
Standard
 44
4.0
300

342
29
174
1
175
1
176
0
178
1
 93
-1056964608
 45
4.0
292
0
297
0
 46
4.0
 94
-1056964608
 47
1.0
 49
1.0
140
1.0
294
1
141
0.0
177
0
142
1.0
295
0
296
0
143
3.75
271
0
272
9
273
9
  0
DICTIONARY
  5
2D
330
A
100
AcDbDictionary
280
1
281
1
  3
CREATED_BY_EZDXF
350
2E
  3
WRITTEN_BY_EZDXF
350
39
  0
DICTIONARYVAR
  5
2E
330
2D
100
DictionaryVariables
280
0
  1
1.4.4 @ 2026-09-13T16:28:57.969321+00:00
  0
DICTIONARYVAR
  5
39
330
2D
100
DictionaryVariables
280
0
  1
1.4.4 @ 2026-09-13T16:28:57.977391+00:00
  0
ENDSEC
  0
EOF
