  0
SECTION
  2
HEADER
  9
$ACADVER
  1
AC1024
  9
$ACADMAINTVER
 70
6
  9
$DWGCODEPAGE
  3
ANSI_1252
  9
$LASTSAVEDBY
  1
ezdxf
  9
$INSBASE
 10
0.0
 20
0.0
 30
0.0
  9
$EXTMIN
 10
1e+20
 20
1e+20
 30
1e+20
  9
$EXTMAX
 10
-1e+20
 20
-1e+20
 30
-1e+20
  9
$LIMMIN
 10
0.0
 20
0.0
  9
$LIMMAX
 10
420.0
 20
297.0
  9
$ORTHOMODE
 70
0
  9
$REGENMODE
 70
1
  9
$FILLMODE
 70
1
  9
$QTEXTMODE
 70
0
  9
$MIRRTEXT
 70
1
  9
$LTSCALE
 40
1.0
  9
$ATTMODE
 70
1
  9
$TEXTSIZE
 40
2.5
  9
$TRACEWID
 40
1.0
  9
$TEXTSTYLE
  7
Standard
  9
$CLAYER
  8
0
  9
$CELTYPE
  6
ByLayer
  9
$CECOLOR
 62
256
  9
$CELTSCALE
 40
1.0
  9
$DISPSILH
 70
0
  9
$DIMSCALE
 40
1.0
  9
$DIMASZ
 40
2.5
  9
$DIMEXO
 40
0.625
  9
$DIMDLI
 40
3.75
  9
$DIMRND
 40
0.0
  9
$DIMDLE
 40
0.0
  9
$DIMEXE
 40
1.25
  9
$DIMTP
 40
0.0
  9
$DIMTM
 40
0.0
  9
$DIMTXT
 40
2.5
  9
$DIMCEN
 40
2.5
  9
$DIMTSZ
 40
0.0
  9
$DIMTOL
 70
0
  9
$DIMLIM
 70
0
  9
$DIMTIH
 70
0
  9
$DIMTOH
 70
0
  9
$DIMSE1
 70
0
  9
$DIMSE2
 70
0
  9
$DIMTAD
 70
1
  9
$DIMZIN
 70
8
  9
$DIMBLK
  1

  9
$DIMASO
 70
1
  9
$DIMSHO
 70
1
  9
$DIMPOST
  1

  9
$DIMAPOST
  1

  9
$DIMALT
 70
0
  9
$DIMALTD
 70
3
  9
$DIMALTF
 40
0.03937007874
  9
$DIMLFAC
 40
1.0
  9
$DIMTOFL
 70
1
  9
$DIMTVP
 40
0.0
  9
$DIMTIX
 70
0
  9
$DIMSOXD
 70
0
  9
$DIMSAH
 70
0
  9
$DIMBLK1
  1

  9
$DIMBLK2
  1

  9
$DIMSTYLE
  2
ISO-25
  9
$DIMCLRD
 70
0
  9
$DIMCLRE
 70
0
  9
$DIMCLRT
 70
0
  9
$DIMTFAC
 40
1.0
  9
$DIMGAP
 40
0.625
  9
$DIMJUST
 70
0
  9
$DIMSD1
 70
0
  9
$DIMSD2
 70
0
  9
$DIMTOLJ
 70
0
  9
$DIMTZIN
 70
8
  9
$DIMALTZ
 70
0
  9
$DIMALTTZ
 70
0
  9
$DIMUPT
 70
0
  9
$DIMDEC
 70
2
  9
$DIMTDEC
 70
2
  9
$DIMALTU
 70
2
  9
$DIMALTTD
 70
3
  9
$DIMTXSTY
  7
Standard
  9
$DIMAUNIT
 70
0
  9
$DIMADEC
 70
0
  9
$DIMALTRND
 40
0.0
  9
$DIMAZIN
 70
0
  9
$DIMDSEP
 70
44
  9
$DIMATFIT
 70
3
  9
$DIMFRAC
 70
0
  9
$DIMLDRBLK
  1

  9
$DIMLUNIT
 70
2
  9
$DIMLWD
 70
-2
  9
$DIMLWE
 70
-2
  9
$DIMTMOVE
 70
0
  9
$DIMFXL
 40
1.0
  9
$DIMFXLON
 70
0
  9
$DIMJOGANG
 40
0.785398163397
  9
$DIMTFILL
 70
0
  9
$DIMTFILLCLR
 70
0
  9
$DIMARCSYM
 70
0
  9
$DIMLTYPE
  6

  9
$DIMLTEX1
  6

  9
$DIMLTEX2
  6

  9
$DIMTXTDIRECTION
 70
0
  9
$LUNITS
 70
2
  9
$LUPREC
 70
4
  9
$SKETCHINC
 40
1.0
  9
$FILLETRAD
 40
10.0
  9
$AUNITS
 70
0
  9
$AUPREC
 70
2
  9
$MENU
  1
.
  9
$ELEVATION
 40
0.0
  9
$PELEVATION
 40
0.0
  9
$THICKNESS
 40
0.0
  9
$LIMCHECK
 70
0
  9
$CHAMFERA
 40
0.0
  9
$CHAMFERB
 40
0.0
  9
$CHAMFERC
 40
0.0
  9
$CHAMFERD
 40
0.0
  9
$SKPOLY
 70
0
  9
$TDCREATE
 40
2461297.7067939816
  9
$TDUCREATE
 40
2458532.153996898
  9
$TDUPDATE
 40
2461297.7067939816
  9
$TDUUPDATE
 40
2458532.1544311
  9
$TDINDWG
 40
0.0
  9
$TDUSRTIMER
 40
0.0
  9
$USRTIMER
 70
1
  9
$ANGBASE
 50
0.0
  9
$ANGDIR
 70
0
  9
$PDMODE
 70
0
  9
$PDSIZE
 40
0.0
  9
$PLINEWID
 40
0.0
  9
$SPLFRAME
 70
0
  9
$SPLINETYPE
 70
6
  9
$SPLINESEGS
 70
8
  9
$HANDSEED
  5
43
  9
$SURFTAB1
 70
6
  9
$SURFTAB2
 70
6
  9
$SURFTYPE
 70
6
  9
$SURFU
 70
6
  9
$SURFV
 70
6
  9
$UCSBASE
  2

  9
$UCSNAME
  2

  9
$UCSORG
 10
0.0
 20
0.0
 30
0.0
  9
$UCSXDIR
 10
1.0
 20
0.0
 30
0.0
  9
$UCSYDIR
 10
0.0
 20
1.0
 30
0.0
  9
$UCSORTHOREF
  2

  9
$UCSORTHOVIEW
 70
0
  9
$UCSORGTOP
 10
0.0
 20
0.0
 30
0.0
  9
$UCSORGBOTTOM
 10
0.0
 20
0.0
 30
0.0
  9
$UCSORGLEFT
 10
0.0
 20
0.0
 30
0.0
  9
$UCSORGRIGHT
 10
0.0
 20
0.0
 30
0.0
  9
$UCSORGFRONT
 10
0.0
 20
0.0
 30
0.0
  9
$UCSORGBACK
 10
0.0
 20
0.0
 30
0.0
  9
$PUCSBASE
  2

  9
$PUCSNAME
  2

  9
$PUCSORG
 10
0.0
 20
0.0
 30
0.0
  9
$PUCSXDIR
 10
1.0
 20
0.0
 30
0.0
  9
$PUCSYDIR
 10
0.0
 20
1.0
 30
0.0
  9
$PUCSORTHOREF
  2

  9
$PUCSORTHOVIEW
 70
0
  9
$PUCSORGTOP
 10
0.0
 20
0.0
 30
0.0
  9
$PUCSORGBOTTOM
 10
0.0
 20
0.0
 30
0.0
  9
$PUCSORGLEFT
 10
0.0
 20
0.0
 30
0.0
  9
$PUCSORGRIGHT
 10
0.0
 20
0.0
 30
0.0
  9
$PUCSORGFRONT
 10
0.0
 20
0.0
 30
0.0
  9
$PUCSORGBACK
 10
0.0
 20
0.0
 30
0.0
  9
$USERI1
 70
0
  9
$USERI2
 70
0
  9
$USERI3
 70
0
  9
$USERI4
 70
0
  9
$USERI5
 70
0
  9
$USERR1
 40
0.0
  9
$USERR2
 40
0.0
  9
$USERR3
 40
0.0
  9
$USERR4
 40
0.0
  9
$USERR5
 40
0.0
  9
$WORLDVIEW
 70
1
  9
$SHADEDGE
 70
3
  9
$SHADEDIF
 70
70
  9
$TILEMODE
 70
1
  9
$MAXACTVP
 70
64
  9
$PINSBASE
 10
0.0
 20
0.0
 30
0.0
  9
$PLIMCHECK
 70
0
  9
$PEXTMIN
 10
1e+20
 20
1e+20
 30
1e+20
  9
$PEXTMAX
 10
-1e+20
 20
-1e+20
 30
-1e+20
  9
$PLIMMIN
 10
0.0
 20
0.0
  9
$PLIMMAX
 10
420.0
 20
297.0
  9
$UNITMODE
 70
0
  9
$VISRETAIN
 70
1
  9
$PLINEGEN
 70
0
  9
$PSLTSCALE
 70
1
  9
$TREEDEPTH
 70
3020
  9
$CMLSTYLE
  2
Standard
  9
$CMLJUST
 70
0
  9
$CMLSCALE
 40
20.0
  9
$PROXYGRAPHICS
 70
1
  9
$MEASUREMENT
 70
1
  9
$CELWEIGHT
370
-1
  9
$ENDCAPS
280
0
  9
$JOINSTYLE
280
0
  9
$LWDISPLAY
290
0
  9
$INSUNITS
 70
4
  9
$HYPERLINKBASE
  1

  9
$STYLESHEET
  1

  9
$XEDIT
290
1
  9
$CEPSNTYPE
380
0
  9
$PSTYLEMODE
290
1
  9
$FINGERPRINTGUID
  2
{2DCD6542-AAC6-4123-955F-29697F56D21E}
  9
$VERSIONGUID
  2
{2B91BBBF-36A6-492F-9402-2CB71695794F}
  9
$EXTNAMES
290
1
  9
$PSVPSCALE
 40
0.0
  9
$OLESTARTUP
290
0
  9
$SORTENTS
280
127
  9
$INDEXCTL
280
0
  9
$HIDETEXT
280
1
  9
$XCLIPFRAME
280
1
  9
$HALOGAP
280
0
  9
$OBSCOLOR
 70
257
  9
$OBSLTYPE
280
0
  9
$INTERSECTIONDISPLAY
280
0
  9
$INTERSECTIONCOLOR
 70
257
  9
$DIMASSOC
280
2
  9
$PROJECTNAME
  1

  9
$CAMERADISPLAY
290
0
  9
$LENSLENGTH
 40
50.0
  9
$CAMERAHEIGHT
 40
0.0
  9
$STEPSPERSEC
 40
24.0
  9
$STEPSIZE
 40
100.0
  9
$3DDWFPREC
 40
2.0
  9
$PSOLWIDTH
 40
0.005
  9
$PSOLHEIGHT
 40
0.08
  9
$LOFTANG1
 40
1.570796326795
  9
$LOFTANG2
 40
1.570796326795
  9
$LOFTMAG1
 40
0.0
  9
$LOFTMAG2
 40
0.0
  9
$LOFTPARAM
 70
7
  9
$LOFTNORMALS
280
1
  9
$LATITUDE
 40
37.795
  9
$LONGITUDE
 40
-122.394
  9
$NORTHDIRECTION
 40
0.0
  9
$TIMEZONE
 70
-8000
  9
$LIGHTGLYPHDISPLAY
280
1
  9
$TILEMODELIGHTSYNCH
280
1
  9
$CMATERIAL
347
20
  9
$SOLIDHIST
280
0
  9
$SHOWHIST
280
1
  9
$DWFFRAME
280
2
  9
$DGNFRAME
280
2
  9
$REALWORLDSCALE
290
1
  9
$INTERFERECOLOR
 62
256
  9
$CSHADOW
280
0
  9
$SHADOWPLANELOCATION
 40
0.0
  0
ENDSEC
  0
SECTION
  2
CLASSES
  0
CLASS
  1
ACDBDICTIONARYWDFLT
  2
AcDbDictionaryWithDefault
  3
ObjectDBX Classes
 90
0
 91
0
280
0
281
0
  0
CLASS
  1
SUN
  2
AcDbSun
  3
SCENEOE
 90
1153
 91
0
280
0
281
0
  0
CLASS
  1
VISUALSTYLE
  2
AcDbVisualStyle
  3
ObjectDBX Classes
 90
4095
 91
0
280
0
281
0
  0
CLASS
  1
MATERIAL
  2
AcDbMaterial
  3
ObjectDBX Classes
 90
1153
 91
0
280
0
281
0
  0
CLASS
  1
SCALE
  2
AcDbScale
  3
ObjectDBX Classes
 90
1153
 91
0
280
0
281
0
  0
CLASS
  1
TABLESTYLE
  2
AcDbTableStyle
  3
ObjectDBX Classes
 90
4095
 91
0
280
0
281
0
  0
CLASS
  1
MLEADERSTYLE
  2
AcDbMLeaderStyle
  3
ACDB_MLEADERSTYLE_CLASS
 90
4095
 91
0
280
0
281
0
  0
CLASS
  1
DICTIONARYVAR
  2
AcDbDictionaryVar
  3
ObjectDBX Classes
 90
0
 91
0
280
0
281
0
  0
CLASS
  1
CELLSTYLEMAP
  2
AcDbCellStyleMap
  3
ObjectDBX Classes
 90
1152
 91
0
280
0
281
0
  0
CLASS
  1
MENTALRAYRENDERSETTINGS
  2
AcDbMentalRayRenderSettings
  3
SCENEOE
 90
1024
 91
0
280
0
281
0
  0
CLASS
  1
ACDBDETAILVIEWSTYLE
  2
AcDbDetailViewStyle
  3
ObjectDBX Classes
 90
1025
 91
0
280
0
281
0
  0
CLASS
  1
ACDBSECTIONVIEWSTYLE
  2
AcDbSectionViewStyle
  3
ObjectDBX Classes
 90
1025
 91
0
280
0
281
0
  0
CLASS
  1
RASTERVARIABLES
  2
AcDbRasterVariables
  3
ISM
 90
0
 91
0
280
0
281
0
  0
CLASS
  1
ACDBPLACEHOLDER
  2
AcDbPlaceHolder
  3
ObjectDBX Classes
 90
0
 91
0
280
0
281
0
  0
CLASS
  1
LAYOUT
  2
AcDbLayout
  3
ObjectDBX Classes
 90
0
 91
0
280
0
281
0
  0
ENDSEC
  0
SECTION
  2
TABLES
  0
TABLE
  2
VPORT
  5
8
330
0
100
AcDbSymbolTable
 70
1
  0
VPORT
  5
23
330
8
100
AcDbSymbolTableRecord
100
AcDbViewportTableRecord
  2
*Active
 70
0
 10
0.0
 20
0.0
 11
1.0
 21
1.0
 12
0.0
 22
0.0
 13
0.0
 23
0.0
 14
0.5
 24
0.5
 15
0.5
 25
0.5
 16
0.0
 26
0.0
 36
1.0
 17
0.0
 27
0.0
 37
0.0
 40
1000.0
 41
1.34
 42
50.0
 43
0.0
 44
0.0
 50
0.0
 51
0.0
 71
0
 72
1000
 73
1
 74
3
 75
0
 76
0
 77
0
 78
0
281
0
 65
0
146
0.0
  0
ENDTAB
  0
TABLE
  2
LTYPE
  5
2
330
0
100
AcDbSymbolTable
 70
3
  0
LTYPE
  5
24
330
2
100
AcDbSymbolTableRecord
100
AcDbLinetypeTableRecord
  2
ByBlock
 70
0
  3

 72
65
 73
0
 40
0.0
  0
LTYPE
  5
25
330
2
100
AcDbSymbolTableRecord
100
AcDbLinetypeTableRecord
  2
ByLayer
 70
0
  3

 72
65
 73
0
 40
0.0
  0
LTYPE
  5
26
330
2
100
AcDbSymbolTableRecord
100
AcDbLinetypeTableRecord
  2
Continuous
 70
0
  3

 72
65
 73
0
 40
0.0
  0
ENDTAB
  0
TABLE
  2
LAYER
  5
1
330
0
100
AcDbSymbolTable
 70
3
  0
LAYER
  5
27
330
1
100
AcDbSymbolTableRecord
100
AcDbLayerTableRecord
  2
0
 70
0
 62
7
  6
Continuous
370
-3
390
13
347
21
  0
LAYER
  5
28
330
1
100
AcDbSymbolTableRecord
100
AcDbLayerTableRecord
  2
Defpoints
 70
0
 62
7
  6
Continuous
290
0
370
-3
390
13
347
21
  0
LAYER
  5
2F
330
1
100
AcDbSymbolTableRecord
100
AcDbLayerTableRecord
  2
C00_ED1C24
 70
0
 62
7
420
15539236
  6
Continuous
370
-3
390
13
347
21
  0
ENDTAB
  0
TABLE
  2
STYLE
  5
5
330
0
100
AcDbSymbolTable
 70
1
  0
STYLE
  5
29
330
5
100
AcDbSymbolTableRecord
100
AcDbTextStyleTableRecord
  2
Standard
 70
0
 40
0.0
 41
1.0
 50
0.0
 71
0
 42
2.5
  3
txt
  4

  0
ENDTAB
  0
TABLE
  2
VIEW
  5
7
330
0
100
AcDbSymbolTable
 70
0
  0
ENDTAB
  0
TABLE
  2
UCS
  5
6
330
0
100
AcDbSymbolTable
 70
0
  0
ENDTAB
  0
TABLE
  2
APPID
  5
3
330
0
100
AcDbSymbolTable
 70
3
  0
APPID
  5
2A
330
3
100
AcDbSymbolTableRecord
100
AcDbRegAppTableRecord
  2
ACAD
 70
0
  0
APPID
  5
40
330
3
100
AcDbSymbolTableRecord
100
AcDbRegAppTableRecord
  2
HATCHBACKGROUNDCOLOR
 70
0
  0
APPID
  5
41
330
3
100
AcDbSymbolTableRecord
100
AcDbRegAppTableRecord
  2
EZDXF
 70
0
  0
ENDTAB
  0
TABLE
  2
DIMSTYLE
  5
4
330
0
100
AcDbSymbolTable
 70
1
100
AcDbDimStyleTable
  0
DIMSTYLE
105
2B
330
4
100
AcDbSymbolTableRecord
100
AcDbDimStyleTableRecord
  2
Standard
 70
0
 40
1.0
 41
2.5
 42
0.625
 43
3.75
 44
1.25
 45
0.0
 46
0.0
 47
0.0
 48
0.0
 49
2.5
140
2.5
141
2.5
142
0.0
143
0.03937007874
144
1.0
145
0.0
146
1.0
147
0.625
148
0.0
 69
0
 70
0
 71
0
 72
0
 73
0
 74
0
 75
0
 76
0
 77
1
 78
8
 79
3
170
0
171
3
172
1
173
0
174
0
175
0
176
0
177
0
178
0
179
2
271
2
272
2
273
2
274
3
275
0
276
0
277
2
278
44
279
0
280
0
281
0
282
0
283
0
284
8
285
0
286
0
288
0
289
3
290
0
371
-2
372
-2
  0
ENDTAB
  0
TABLE
  2
BLOCK_RECORD
  5
9
330
0
100
AcDbSymbolTable
 70
2
  0
BLOCK_RECORD
  5
17
330
9
100
AcDbSymbolTableRecord
100
AcDbBlockTableRecord
  2
*Model_Space
340
1A
 70
0
280
1
281
0
  0
BLOCK_RECORD
  5
1B
330
9
100
AcDbSymbolTableRecord
100
AcDbBlockTableRecord
  2
*Paper_Space
340
1E
 70
0
280
1
281
0
  0
ENDTAB
  0
ENDSEC
  0
SECTION
  2
BLOCKS
  0
BLOCK
  5
18
330
17
100
AcDbEntity
  8
0
100
AcDbBlockBegin
  2
*Model_Space
 70
0
 10
0.0
 20
0.0
 30
0.0
  3
*Model_Space
  1

  0
ENDBLK
  5
19
330
17
100
AcDbEntity
  8
0
100
AcDbBlockEnd
  0
BLOCK
  5
1C
330
1B
100
AcDbEntity
  8
0
100
AcDbBlockBegin
  2
*Paper_Space
 70
0
 10
0.0
 20
0.0
 30
0.0
  3
*Paper_Space
  1

  0
ENDBLK
  5
1D
330
1B
100
AcDbEntity
  8
0
100
AcDbBlockEnd
  0
ENDSEC
  0
SECTION
  2
ENTITIES
  0
LWPOLYLINE
  5
30
330
17
100
AcDbEntity
  8
C00_ED1C24
100
AcDbPolyline
 90
343
 70
1
 10
23.59113501084064
 20
1.9006817383721455
 10
22.650000000000002
 20
2.693748461376913
 10
22.337616238119047
 20
2.3448080717690347
 10
22.025232476238088
 20
1.9958676821611676
 10
20.337616238119047
 20
2.5805118995122145
 10
18.650000000000002
 20
3.1651561168632614
 10
18.481719789795957
 20
4.107578058431637
 10
18.451419884847176
 20
4.294565994460803
 10
18.417461643677218
 20
4.535085284656103
 10
18.380352831887997
 20
4.823960665562475
 10
18.340601215081435
 20
5.156016873724858
 10
18.25520062882396
 20
5.928970717997413
 10
18.16532200972013
 20
6.812544709833276
 10
17.988379172234794
 20
8.745944705632965
 10
17.909439203483974
 20
9.71296649431581
 10
17.842269701148183
 20
10.625
 10
17.78204617899043
 20
11.5
 10
17.391023089495217
 20
11.5
 10
17.13610502903252
 20
11.516255552287147
 10
17.063461645935245
 20
11.547843842297821
 10
17.024118068504013
 20
11.605089230132554
 10
17.01564132742131
 20
11.69550428222584
 10
17.035598453369634
 20
11.826601565012174
 10
17.081556477031473
 20
12.005893644926049
 10
17.151082429089318
 20
12.24089308840196
 10
17.217815897019612
 20
12.46464302019045
 10
17.262024836946324
 20
12.630917442962238
 10
17.281025684910492
 20
12.744724465579793
 10
17.27213487695316
 20
12.811072196905595
 10
17.232668849115367
 20
12.834968745802113
 10
17.159944037438155
 20
12.821422221131822
 10
17.051276877962568
 20
12.775440731757199
 10
16.903983806729645
 20
12.702032386540715
 10
16.704235119797122
 20
12.603052055780285
 10
16.55253130040312
 20
12.538835997590848
 10
16.443492873505715
 20
12.513248687464452
 10
16.37174036406297
 20
12.530154600893155
 10
16.331894297032957
 20
12.593418213369008
 10
16.318575197373747
 20
12.706904000384064
 10
16.326403590043405
 20
12.874476437430378
 10
16.35
 20
13.100000000000001
 10
16.41963737948595
 20
13.700000000000001
 10
15.803079922687267
 20
13.700000000000001
 10
15.559542902014236
 20
13.697230102660372
 10
15.387010252402957
 20
13.707289101178104
 10
15.28873767387924
 20
13.757730031358129
 10
15.267980866468893
 20
13.876105929005377
 10
15.327995530197722
 20
14.089969829924778
 10
15.389309569997394
 20
14.241320105300577
 10
15.472037365091538
 20
14.426874769921266
 10
15.57658587798338
 20
14.650077953262457
 10
15.703362071176148
 20
14.914373784799768
 10
15.852772907173065
 20
15.223206394008816
 10
16.02522534847736
 20
15.580019910365218
 10
16.2426269973319
 20
16.02600337657615
 10
16.427039769214723
 20
16.389156220408488
 10
16.590376225477282
 20
16.687717188050588
 10
16.744548927471023
 20
16.939925025690812
 10
17.07305331405786
 20
17.378236295719034
 10
17.271210121353857
 20
17.600817220483748
 10
17.507853419786837
 20
17.85
 10
18.281920192044787
 20
18.650000000000002
 10
18.395644821746608
 20
20.64066127394931
 10
18.481010271631217
 20
21.932702345103742
 10
18.58672035579671
 20
23.17440770516893
 10
18.71320821977872
 20
24.370324531136987
 10
18.860907009112875
 20
25.525000000000002
 10
18.883607281976225
 20
25.73620966404549
 10
18.883597625988404
 20
25.884269701373768
 10
18.860657083340097
 20
25.971444888015164
 10
18.81456469622199
 20
26.0
 10
18.736881451919583
 20
25.954289427936008
 10
18.579238535176636
 20
25.823565947627756
 10
18.35116492805685
 20
25.617441912900848
 10
18.062189612623914
 20
25.34552967758088
 10
17.72184157094153
 20
25.017441595493448
 10
17.33964978507339
 20
24.64279002046415
 10
16.487850909034627
 20
23.79224580688235
 10
14.701403437530658
 20
21.955339032742643
 10
14.293116940145714
 20
21.523888914237013
 10
13.91921855508458
 20
21.1227741333943
 10
13.589237264410956
 20
20.761607044040097
 10
13.312702050188534
 20
20.450000000000003
 10
13.037069371059541
 20
20.12962434586863
 10
12.719852346244346
 20
19.7550698395304
 10
12.005619443390913
 20
18.897859006568616
 10
11.259911709299327
 20
17.987236973785176
 10
10.572637511640698
 20
17.132073213850607
 10
9.97550794657396
 20
16.386820083135635
 10
9.709991185563883
 20
16.060455530925644
 10
9.475243519044454
 20
15.775459664563979
 10
9.277817757122014
 20
15.539727991863142
 10
9.124266709902898
 20
15.361156020635635
 10
9.021143187493447
 20
15.247639258693956
 10
8.975
 20
15.207073213850606
 10
8.94587890625
 20
15.252514776068198
 10
8.92203125
 20
15.381470552691544
 10
8.90591796875
 20
15.574134076536389
 10
8.9
 20
15.810698880418478
 10
8.898835984429459
 20
15.991741779533939
 10
8.894446589472432
 20
16.132097900261893
 10
8.870607571926483
 20
16.30745577217083
 10
8.817714768417293
 20
16.37018442737636
 10
8.725
 20
16.353695797109562
 10
8.634728488830776
 20
16.32290472568954
 10
8.51830543861754
 20
16.2891151536726
 10
8.39075557430195
 20
16.25642136431081
 10
8.267103620825667
 20
16.22891764085623
 10
7.984207241651333
 20
16.17184144833027
 10
8.542103620825667
 20
17.284255069437883
 10
8.758724324301951
 20
17.719102878695384
 10
8.936117938617539
 20
18.08076194364455
 10
9.055978488830775
 20
18.331517576171045
 10
9.088613247729743
 20
18.403520765240057
 10
9.1
 20
18.433655088160528
 10
9.06085721173477
 20
18.444255086514595
 10
8.95428031299281
 20
18.44577491458823
 10
8.796546502854707
 20
18.43856498894717
 10
8.603932980401053
 20
18.422975726157144
 10
8.107865960802105
 20
18.375309966538747
 10
8.354518965040793
 20
19.162654983269373
 10
8.413481005972871
 20
19.35143122344661
 10
8.48668702919024
 20
19.586725665546815
 10
8.664216610498427
 20
20.15934240133538
 10
8.8638788850005
 20
20.805451682273603
 10
9.0624450287316
 20
21.450000000000003
 10
9.32079523714003
 20
22.240350290718556
 10
9.583272550326882
 20
22.922693857474425
 10
9.887324038943026
 20
23.585975370459636
 10
10.270396773639336
 20
24.31913949986621
 10
10.845985608576534
 20
25.419644876107423
 10
11.385554466534286
 20
26.533123695588316
 10
11.625178226104904
 20
27.058968069115142
 10
11.835813177781501
 20
27.545143710537687
 10
12.010798050347693
 20
27.977346588884558
 10
12.143471572587092
 20
28.34127267318435
 10
12.245898172671598
 20
28.58638775223532
 10
12.397363438436608
 20
28.859809302052028
 10
12.596799316720753
 20
29.16049835025538
 10
12.84313775436266
 20
29.487415924466283
 10
13.135310698200955
 20
29.839523052305637
 10
13.472250095074271
 20
30.215780761394356
 10
13.852887891821233
 20
30.615150079353338
 10
14.276156035280469
 20
31.036592033803494
 10
14.740986472290608
 20
31.47906765236573
 10
15.246311149690278
 20
31.94153796266095
 10
15.79106201431811
 20
32.42296399231006
 10
16.374171013012727
 20
32.92230676893396
 10
17.65119119995684
 20
33.97058667358978
 10
19.068827285231645
 20
35.07806589759564
 10
19.98871420134264
 20
35.76818381559179
 10
20.974317718070765
 20
36.4844647312502
 10
22.015273264280545
 20
37.220406104229674
 10
23.101216268836495
 20
37.96950539418901
 10
25.366606368444987
 20
39.48116756368245
 10
27.687571447812388
 20
40.967430917000925
 10
29.98119493785484
 20
42.376275131414815
 10
31.09184215904051
 20
43.03540871067954
 10
32.164560269488504
 20
43.65567988419452
 10
33.18898469806333
 20
44.23058611161855
 10
34.15475087362951
 20
44.75362485261043
 10
35.05149422505157
 20
45.218293566828955
 10
35.86885018119403
 20
45.61808971393293
 10
36.91976851059821
 20
46.113806150840404
 10
37.32479022549859
 20
45.95174859060152
 10
37.8822389119552
 20
45.78918486641019
 10
38.50851242195276
 20
45.71965292483753
 10
39.20262784197905
 20
45.74295202121946
 10
39.96360225852184
 20
45.858881410891875
 10
40.7904527580689
 20
46.067240349190676
 10
41.682196427108
 20
46.367828091451784
 10
42.63785035212692
 20
46.760443893011086
 10
43.65643161961342
 20
47.244887009204504
 10
44.124365309413314
 20
47.480531629267524
 10
44.47862928562186
 20
47.655583071047985
 10
44.734174490688574
 20
47.775068767499484
 10
44.90595186706297
 20
47.8440161515756
 10
45.008912357194546
 20
47.86745265622992
 10
45.058006903532835
 20
47.85040571441605
 10
45.054401934627556
 20
47.714971223198056
 10
44.96785281374118
 20
47.30305489385013
 10
44.89832109435292
 20
46.94967036322024
 10
44.84575031910807
 20
46.65438448746353
 10
44.810084030651915
 20
46.41676412273516
 10
44.79126577162975
 20
46.23637612519028
 10
44.789239084686876
 20
46.11278735098405
 10
44.803947512468575
 20
46.045564656271615
 10
44.83533459762015
 20
46.03427489720814
 10
44.88592216917243
 20
46.055432699242324
 10
44.98638046088795
 20
46.097532613307266
 10
45.13070205607727
 20
46.15805423396842
 10
45.31287953805092
 20
46.23447715579127
 10
45.76677249559347
 20
46.424945281183874
 10
46.300000000000004
 20
46.64877374600882
 10
47.383096463480605
 20
47.09896379173169
 10
48.51039116317672
 20
47.55913877818162
 10
50.79820708422359
 20
48.47049738170982
 10
51.9090442120784
 20
48.90220790301167
 10
52.96471138915681
 20
49.30495717348774
 10
53.94036656871086
 20
49.66900864524984
 10
54.81116770399257
 20
49.984625770409735
 10
55.23172597382503
 20
50.132495293702156
 10
55.72664854090212
 20
50.30359494101123
 10
56.28296430577622
 20
50.49365406659168
 10
56.88770216899971
 20
50.698402024698254
 10
59.53145261643513
 20
51.57886926748044
 10
60.806611844611034
 20
51.996199094651345
 10
61.38711361174687
 20
52.184190799573315
 10
61.91226868165113
 20
52.35270617105928
 10
62.36910595487619
 20
52.49747456336397
 10
62.74465433197444
 20
52.61422533074213
 10
63.025942713498246
 20
52.69868782744848
 10
63.2
 20
52.74659140773777
 10
63.33380856824872
 20
52.77709331324966
 10
63.37498195873329
 20
52.776133400321825
 10
63.321034456092974
 20
52.735646538142895
 10
63.16948034496707
 20
52.64756759590148
 10
63.07191195409784
 20
52.59645682922432
 10
62.90121020169125
 20
52.51200218085954
 10
62.666808681497294
 20
52.39868154331571
 10
62.37814098726598
 20
52.26097280910143
 10
61.67574145169125
 20
51.93030262069588
 10
60.869480344967066
 20
51.55581475571162
 10
59.86801286821772
 20
51.09031226825261
 10
58.75566771665687
 20
50.56755845001669
 10
56.38383255793996
 20
49.439184739923405
 10
55.217086635203515
 20
48.87800880742066
 10
54.12495120649483
 20
48.34846946285027
 10
53.153798314023724
 20
47.872788685889525
 10
52.72808158206783
 20
47.66208962891194
 10
52.35
 20
47.47318845621576
 10
51.75382820793381
 20
47.174004550526654
 10
51.165513922605065
 20
46.87953193735967
 10
50.652858780318525
 20
46.623662640499475
 10
50.44609139916132
 20
46.52079549311713
 10
50.283664417378944
 20
46.44028868373073
 10
50.02805856121933
 20
46.31189257629402
 10
49.70026962934737
 20
46.14387493919978
 10
49.3084547617035
 20
45.94059138666461
 10
48.860771098228206
 20
45.70639753290508
 10
48.36537577886193
 20
45.44564899213779
 10
47.83042594354514
 20
45.16270137857935
 10
46.67449128482185
 20
44.54763138995532
 10
44.2468819333493
 20
43.24274956474333
 10
43.10572147964741
 20
42.622627555620824
 10
42.58185229809666
 20
42.33589092668852
 10
42.1
 20
42.07051136713096
 10
39.30840377007925
 20
40.50234458540054
 10
37.9759324774914
 20
39.735277839262054
 10
36.693278564222425
 20
38.98442263905406
 10
35.466141653575235
 20
38.25342932186108
 10
34.30022136885273
 20
37.545948224767606
 10
33.20121733335782
 20
36.86562968485816
 10
32.1748291703934
 20
36.216124039217256
 10
31.22675650326238
 20
35.6010816249294
 10
30.36269895526766
 20
35.0241527790791
 10
29.588356149712137
 20
34.48898783875087
 10
28.909427709898722
 20
33.99923714102922
 10
28.331613259130314
 20
33.55855102299866
 10
27.860612420709817
 20
33.170579821743694
 10
27.502124817940135
 20
32.838973874348845
 10
27.261850074124165
 20
32.56738351789861
 10
27.069697599068377
 20
32.23680112846387
 10
26.889042360054304
 20
31.771359982710575
 10
26.718213525572384
 20
31.16223268012937
 10
26.555540264113056
 20
30.400591820210906
 10
26.476739838420126
 20
29.959820243591025
 10
26.39935174416676
 20
29.47761000244582
 10
26.323167127414262
 20
28.95285767171162
 10
26.247977134223937
 20
28.384459826324758
 10
26.173572910657086
 20
27.77131304122156
 10
26.099745602775023
 20
27.11231389133836
 10
26.026286356639044
 20
26.406358951611487
 10
25.952986318310458
 20
25.652344796977275
 10
25.9008857817878
 20
25.06818265305871
 10
25.863266526894506
 20
24.584757821554525
 10
25.850988814616283
 20
24.39652317503179
 10
25.84365314421429
 20
24.252314389101397
 10
25.841700089511487
 20
24.158411974592937
 10
25.845570224330846
 20
24.12109644233599
 10
25.87549244504311
 20
24.12843535859158
 10
25.94820541641615
 20
24.162513875465937
 10
26.202824516819152
 20
24.300117269460532
 10
26.571069336889025
 20
24.512361741098978
 10
27.014581687974943
 20
24.777702407160476
 10
27.516813309768917
 20
25.07983460911652
 10
28.08066470595605
 20
25.41351613942332
 10
29.34185885907323
 20
26.146830402732363
 10
32.03863687122334
 20
27.676386263634555
 10
32.67425095110667
 20
28.03003561589894
 10
33.26874888051004
 20
28.35784073180045
 10
33.809288668824315
 20
28.652627415749887
 10
34.283028325440355
 20
28.907221472158042
 10
34.67712585974902
 20
29.11444870543572
 10
34.978739281141166
 20
29.267134919993712
 10
35.175026599007666
 20
29.358105920242814
 10
35.25314582273936
 20
29.380187510593828
 10
35.24273038531928
 20
29.344740847837123
 10
35.19743222113656
 20
29.258596916297666
 10
35.1207870412495
 20
29.127436312129745
 10
35.01633055671639
 20
28.95693963148765
 10
34.73812651794519
 20
28.520660425398066
 10
34.39110579328928
 20
27.995204067263206
 10
34.1545285408208
 20
27.64374756537615
 10
33.94989339687188
 20
27.340612872823943
 10
33.775686044969454
 20
27.080247997734993
 10
33.63039216864046
 20
26.8571009482377
 10
33.42048757681052
 20
26.500252358531718
 10
33.30806508959755
 20
26.22565116873323
 10
33.281010175217055
 20
25.988881443869474
 10
33.327208301884525
 20
25.74552724896768
 10
33.434544937815474
 20
25.451172649055092
 10
33.59090555122538
 20
25.061401709158943
 10
33.992658841838505
 20
24.033848647790048
 10
33.73822719335717
 20
23.091924323895025
 10
33.48379554487583
 20
22.150000000000002
 10
31.816897772437915
 20
21.150692590226868
 10
30.262006251950062
 20
20.191915658173894
 10
28.76449802150577
 20
19.220465510729902
 10
28.08088518452278
 20
18.75902737705624
 10
27.46396522341807
 20
18.329268214518777
 10
26.931187155980766
 20
17.942803781445498
 10
26.5
 20
17.611249836164394
 10
25.75
 20
17.010115565447894
 10
25.690636262980345
 20
15.980057782723954
 10
25.679932900782585
 20
15.69493377142194
 10
25.673524638592752
 20
15.296533233385459
 10
25.671176050484956
 20
14.797275448527964
 10
25.67265171053331
 20
14.209579696762907
 10
25.677716192811925
 20
13.545865258003744
 10
25.686134071394918
 20
12.818551412163927
 10
25.712088313770487
 20
11.222802618896146
 10
25.793878813435125
 20
7.814560463584693
 10
25.84594825591001
 20
6.200775580156279
 10
25.873952534567486
 20
5.459934666695986
 10
25.902955950270474
 20
4.779687145289574
 10
26.01095238369435
 20
2.409374290579149
 10
25.630476191847176
 20
2.069659766333348
 10
25.45442772993066
 20
1.9132021139899673
 10
25.256348290789546
 20
1.7383316315352304
 10
25.060497506925614
 20
1.5664053070780808
 10
24.891135010840642
 20
1.4187801287274624
 10
24.532270021681285
 20
1.1076150153673667
  0
LWPOLYLINE
  5
31
330
17
100
AcDbEntity
  8
C00_ED1C24
100
AcDbPolyline
 90
126
 70
1
 10
40.66821174722027
 20
6.849847206435015
 10
40.50623134241894
 20
6.911673761410592
 10
40.3360471827014
 20
6.9868990384070715
 10
40.17788030000516
 20
7.066017968926412
 10
40.05195172626771
 20
7.139525484470574
 10
39.91723370413865
 20
7.245580480901822
 10
39.759429126380496
 20
7.399341080475901
 10
39.403893871309286
 20
7.812818965732507
 10
39.04401309571895
 20
8.3056388936003
 10
38.73845393427436
 20
8.803480617439186
 10
38.63975666593097
 20
8.979819162029154
 10
38.55563115231489
 20
9.112154819211465
 10
38.399420878469705
 20
9.259645559480058
 10
38.206474091148856
 20
9.27560901449885
 10
37.9134417687624
 20
9.189701360521724
 10
37.7300145596934
 20
9.138753556867284
 10
37.584452787697565
 20
9.151279533800079
 10
37.424582904027645
 20
9.245516424093696
 10
37.19823135993641
 20
9.439701360521724
 10
37.037486638541665
 20
9.579569070998506
 10
36.89462691990447
 20
9.6940524691279
 10
36.7851895607233
 20
9.771341521312836
 10
36.724711917696666
 20
9.799626193956238
 10
36.669168247478694
 20
9.783304095719602
 10
36.57316497267755
 20
9.739139068775707
 10
36.45018769892278
 20
9.673870429794434
 10
36.31372203184393
 20
9.594237495445658
 10
36.1791476021779
 20
9.518638056572959
 10
36.061319737220394
 20
9.464351707254268
 10
35.972937587439205
 20
9.436440469010996
 10
35.926700303302106
 20
9.439966363364556
 10
35.909889096960306
 20
9.48658903619876
 10
35.89235883818417
 20
9.59028073470255
 10
35.87435046629411
 20
9.745891079931173
 10
35.85610492061052
 20
9.948269692939878
 10
35.81986606514433
 20
10.472730206518504
 10
35.785569786348816
 20
11.1224592438804
 10
35.755143598787186
 20
11.856253773467529
 10
35.730515017022626
 20
12.632910763721862
 10
35.71361155561835
 20
13.411227183085362
 10
35.70636072913756
 20
14.15
 10
35.73009767674616
 20
15.945485051262345
 10
35.80710112304329
 20
17.86093297371009
 10
35.93302050248595
 20
19.850485359183036
 10
36.10350524953115
 20
21.868283799520995
 10
36.3142047986359
 20
23.868469886563773
 10
36.560768584257204
 20
25.80518521215118
 10
36.838846040852076
 20
27.63257136812301
 10
36.9883428440324
 20
28.49093525495303
 10
37.14408660287751
 20
29.304769946319084
 10
37.220219367939166
 20
29.67579504899532
 10
37.285322012026
 20
29.970305101001756
 10
37.34341607547078
 20
30.199361721106705
 10
37.39852309860626
 20
30.374026528078478
 10
37.515862185280376
 20
30.60442717769573
 10
37.669511594710464
 20
30.75
 10
37.89782285459374
 20
30.92744481702506
 10
38.14637712367122
 20
31.140896025376193
 10
38.66801596864714
 20
31.639097940476802
 10
39.16203068811494
 20
32.17116639414201
 10
39.55602384055136
 20
32.66366203521204
 10
39.74817379943721
 20
32.951025320450626
 10
39.95963582664395
 20
33.29756406405152
 10
40.391926570775134
 20
34.07570498696414
 10
40.58847053007712
 20
34.46107569658782
 10
40.75575704245506
 20
34.813158925197705
 10
40.88164372909773
 20
35.10883893794977
 10
40.95398821119389
 20
35.325
 10
40.985754367741016
 20
35.43177734375001
 10
41.02220520895517
 20
35.51921875000001
 10
41.0588398682369
 20
35.57830078125
 10
41.09115747898676
 20
35.6
 10
41.136453830393435
 20
35.54279296875
 10
41.20842664492888
 20
35.38703125
 10
41.29717795591853
 20
35.15650390625
 10
41.39280979668782
 20
34.875
 10
41.59903090565192
 20
34.29211639979651
 10
41.81797540263189
 20
33.78949287914387
 10
42.0479662433453
 20
33.36914904578092
 10
42.28732638350973
 20
33.033104507446495
 10
42.53437877884274
 20
32.78337887187943
 10
42.78744638506192
 20
32.621991746818566
 10
43.044852157884826
 20
32.55096274000274
 10
43.30491905302903
 20
32.572311459170784
 10
43.425296481660396
 20
32.59596636321778
 10
43.48539290498312
 20
32.57575774343858
 10
43.49640328982071
 20
32.49593712125369
 10
43.469522602996676
 20
32.34075601808362
 10
43.25547040619379
 20
31.313372261860053
 10
43.07187577466284
 20
30.384337253386782
 10
42.91417339362489
 20
29.52462508364053
 10
42.777797948301014
 20
28.70520984359802
 10
42.55076660567974
 20
27.071166516531154
 10
42.45098007882448
 20
26.19848661146025
 10
42.35425922856755
 20
25.25
 10
42.24960632354909
 20
24.114588593148788
 10
42.16510531675536
 20
23.041648227227217
 10
42.09803903236339
 20
21.958174402205287
 10
42.04569029455024
 20
20.791162618052986
 10
42.02418588816605
 20
20.153516085043574
 10
42.00534192749296
 20
19.467608374740315
 10
41.98881876555309
 20
18.72431392463946
 10
41.974276755368585
 20
17.914507172237265
 10
41.96137624996157
 20
17.029062555029974
 10
41.949777602354175
 20
16.058854510513832
 10
41.93914116556853
 20
14.994757476185095
 10
41.92912729262677
 20
13.827645889540008
 10
41.92193236850419
 20
12.980196697865292
 10
41.91445253176828
 20
12.19500812407206
 10
41.90665767525561
 20
11.470852575387612
 10
41.898517691802695
 20
10.806502459039237
 10
41.89000247424608
 20
10.200730182254233
 10
41.881081915422314
 20
9.652308152259895
 10
41.871725908167925
 20
9.160008776283515
 10
41.86190434531945
 20
8.72260446155239
 10
41.85158711971345
 20
8.338867615293813
 10
41.84074412418644
 20
8.007570644735079
 10
41.82934525157498
 20
7.727485957103485
 10
41.8173603947156
 20
7.497385959626323
 10
41.80475944644484
 20
7.316043059530889
 10
41.79151229959923
 20
7.182229664044477
 10
41.77758884701534
 20
7.094718180394382
 10
41.76295898152968
 20
7.052281015807899
 10
41.57132394581991
 20
6.894598128490111
 10
41.300057061190934
 20
6.80368817485567
 10
40.98655432815398
 20
6.786466189354122
  0
LWPOLYLINE
  5
32
330
17
100
AcDbEntity
  8
C00_ED1C24
100
AcDbPolyline
 90
346
 70
1
 10
124.4
 20
13.217864705787258
 10
124.75623628926559
 20
13.561576214845285
 10
125.1717620768699
 20
13.96168568271204
 10
125.59492774252429
 20
14.368499864124022
 10
125.9740836659401
 20
14.732325513817727
 10
126.28972121286908
 20
15.045986159055806
 10
126.53994080393063
 20
15.316212457048985
 10
126.69950640113755
 20
15.514171857455908
 10
126.73740769017452
 20
15.57704129908285
 10
126.74318196650262
 20
15.61103180993522
 10
126.70059864232334
 20
15.646131084634096
 10
126.62530092641445
 20
15.67593022375765
 10
126.52792281406464
 20
15.697279335051444
 10
126.41909830056252
 20
15.707028526261036
 10
126.19499274767806
 20
15.71836330758382
 10
126.04505606575444
 20
15.75018830634579
 10
125.97655497702964
 20
15.819510618401182
 10
125.99675620374154
 20
15.943337339604232
 10
126.11292646812811
 20
16.13867556580918
 10
126.33233249242726
 20
16.422532392870263
 10
126.4830197652434
 20
16.602969999176302
 10
126.66224099887691
 20
16.811914916641715
 10
126.87090453360753
 20
17.05149303224828
 10
127.109918709715
 20
17.323830232977777
 10
127.64092761119988
 20
17.912141077003746
 10
127.8814562423799
 20
18.167246237978944
 10
128.09845396075042
 20
18.389421498686655
 10
128.28676049148555
 20
18.573494564445156
 10
128.4412155597594
 20
18.71429314057272
 10
128.55665889074606
 20
18.806644932387634
 10
128.62793020961962
 20
18.84537764520817
 10
129.69352805288824
 20
19.08464071865006
 10
130.7092778561151
 20
19.33312503304689
 10
131.6642632711638
 20
19.58750425221742
 10
132.54756794989794
 20
19.844452039980407
 10
133.34827554418106
 20
20.1006420601546
 10
134.05546970587676
 20
20.352747976558753
 10
134.65823408684867
 20
20.59744345301162
 10
135.1456523389603
 20
20.831402153331965
 10
135.37505203029326
 20
20.956559874880586
 10
135.5625052196853
 20
21.066076828475012
 10
135.8374053662472
 20
21.260214322961005
 10
136.02201932584688
 20
21.457866419109394
 10
136.16801364568536
 20
21.70308489923964
 10
136.3336605854895
 20
22.116430977277318
 10
136.41291757376104
 20
22.39178615804531
 10
136.49137017152208
 20
22.7254620703801
 10
136.57019832670505
 20
23.12685819208222
 10
136.65058198724245
 20
23.6053740009522
 10
136.7337011010666
 20
24.17040897479056
 10
136.82073561610994
 20
24.83136259139783
 10
136.91286548030496
 20
25.59763432857454
 10
137.011270641584
 20
26.478623664121212
 10
137.11713104787952
 20
27.483730075838377
 10
137.23162664712396
 20
28.62235304152656
 10
137.35593738724967
 20
29.903892038986285
 10
137.49124321618916
 20
31.33774654601808
 10
137.56338802269292
 20
32.11472945243617
 10
137.63872408187478
 20
32.93331604042248
 10
137.7173988872263
 20
33.79468124470207
 10
137.799559932239
 20
34.7
 10
137.91751948326967
 20
35.99783614236628
 10
138.03179970851943
 20
37.24358364381264
 10
138.14268258983347
 20
38.44007332332574
 10
138.25045010905706
 20
39.59013599989224
 10
138.35538424803542
 20
40.6966024924988
 10
138.45776698861383
 20
41.76230362013208
 10
138.65600620195164
 20
43.78273305642545
 10
138.84742360383248
 20
45.674070860665644
 10
139.03427504901822
 20
47.458963584745945
 10
139.21881639227078
 20
49.16005778055963
 10
139.40330348835215
 20
50.800000000000004
 10
139.51695196533365
 20
51.79281165105496
 10
139.62405418437407
 20
52.73001557530156
 10
139.7247881514177
 20
53.61352447429923
 10
139.81933187240878
 20
54.44525104960744
 10
139.9078633532916
 20
55.22710800278561
 10
139.99056060001035
 20
55.9610080353932
 10
140.06760161850937
 20
56.648863848989635
 10
140.13916441473287
 20
57.292588145134374
 10
140.20542699462513
 20
57.894093625386844
 10
140.26656736413042
 20
58.4552929913065
 10
140.37419349575705
 20
59.46442418638514
 10
140.46346685716688
 20
60.33528334284581
 10
140.53581149591392
 20
61.083172073164064
 10
140.59265145955231
 20
61.723391989815454
 10
140.6354107956361
 20
62.27124470527551
 10
140.66551355171936
 20
62.74203183201977
 10
140.68438377535617
 20
63.15105498252379
 10
140.69412281550677
 20
63.84501580471324
 10
140.67602029652048
 20
64.47554007164821
 10
140.6491027953086
 20
64.94271992252038
 10
140.6098962280831
 20
65.31499478646143
 10
140.55204632639598
 20
65.60463285209808
 10
140.4691988217993
 20
65.82390230805707
 10
140.35499944584504
 20
65.98507134296511
 10
140.20309393008526
 20
66.10040814544895
 10
140.00712800607204
 20
66.18218090413531
 10
139.76074740535736
 20
66.2426578076509
 10
139.46240312868312
 20
66.27226412905387
 10
139.0873312076402
 20
66.26074222469519
 10
138.64160046580827
 20
66.21002883174438
 10
138.13127972676708
 20
66.12206068737092
 10
137.56243781409628
 20
65.9987745287443
 10
136.94114355137566
 20
65.84210709303402
 10
136.27346576218486
 20
65.65399511740958
 10
135.5654732701036
 20
65.43637533904045
 10
134.05281947158866
 20
64.92035932274615
 10
132.45173274446844
 20
64.30955294150708
 10
130.81076367738063
 20
63.619450092679195
 10
129.17846285896294
 20
62.86554467361844
 10
128.6845335173369
 20
62.635224026509356
 10
128.28804030445025
 20
62.4674386402098
 10
128.13894149718
 20
62.411946381316966
 10
128.02933282316963
 20
62.37802759137055
 10
127.96425798277737
 20
62.36766215495191
 10
127.9487606763616
 20
62.38282995664238
 10
127.97280493134149
 20
62.43100193499913
 10
128.02105734107366
 20
62.51522741639436
 10
128.1785768218526
 20
62.77322875351591
 10
128.39809951281416
 20
63.119613698438336
 10
128.65640580807397
 20
63.51716198159295
 10
128.9385408101761
 20
63.954758878981316
 10
129.22294364353007
 20
64.4101870804808
 10
129.47648573504986
 20
64.82957243733638
 10
129.66603851164933
 20
65.15904080079306
 10
129.84883684735655
 20
65.45510766667542
 10
130.08398813446672
 20
65.78354835191773
 10
130.3411725772945
 20
66.10437843942955
 10
130.59007038015457
 20
66.37761351212046
 10
130.8618037508856
 20
66.67367731041458
 10
131.18116424484717
 20
67.05666481912323
 10
131.50833608763534
 20
67.47709848773685
 10
131.8035035048462
 20
67.88550076574586
 10
132.04728541382653
 20
68.23297130227805
 10
132.25914649146452
 20
68.50747303993415
 10
132.46688791796467
 20
68.72839068912235
 10
132.69831087353157
 20
68.91510896025085
 10
132.9812165383697
 20
69.08701256372782
 10
133.34340609268364
 20
69.26348620996148
 10
133.8126807166779
 20
69.46391460936002
 10
134.41684159055703
 20
69.7076824723316
 10
136.22503376597632
 20
70.40245248174293
 10
138.17558986660052
 20
71.10082447007824
 10
140.25457935217173
 20
71.79930221794173
 10
142.44807168243196
 20
72.49438950593765
 10
144.7421363171233
 20
73.18259011467022
 10
147.12284271598776
 20
73.86040782474367
 10
149.5762603387674
 20
74.52434641676221
 10
152.0884586452043
 20
75.1709096713301
 10
157.233475148018
 20
76.39792529053075
 10
162.4464479023652
 20
77.51348492717943
 10
165.04359152321902
 20
78.02072820355735
 10
167.61593258618237
 20
78.48961882610998
 10
170.1495405509973
 20
78.91666057544151
 10
172.63048487740588
 20
79.29835723215618
 10
172.9456077812014
 20
79.34419836607809
 10
173.22122836199244
 20
79.38364069805436
 10
173.65980417900676
 20
79.4426629007505
 10
173.95789557734034
 20
79.47409172940576
 10
174.12718580588466
 20
79.47659507318129
 10
174.1793581135313
 20
79.44884082123824
 10
174.12609574917172
 20
79.38949686273779
 10
173.97908196169746
 20
79.29723108684108
 10
173.75
 20
79.17071138270927
 10
173.20917300606104
 20
78.85948042384616
 10
172.80123488646706
 20
78.57756248650215
 10
172.49145811545415
 20
78.29777894760107
 10
172.2451151672583
 20
77.99295118406678
 10
172.0613967399293
 20
77.77526167382254
 10
171.93963963087592
 20
77.68319575929036
 10
171.77507551197584
 20
77.59095971489253
 10
171.5505480735386
 20
77.49003652293491
 10
171.24890100587365
 20
77.3719091657233
 10
170.8529779992905
 20
77.2280606255635
 10
170.3456227440986
 20
77.04997388476136
 10
168.70334321633882
 20
76.4781549139361
 10
167.4130816377451
 20
75.28944857155203
 10
167.01212948655123
 20
74.91822583629019
 10
166.70256640851764
 20
74.62514712893525
 10
166.47173965503802
 20
74.39496515227611
 10
166.30699647750595
 20
74.2124326091017
 10
166.19568412731505
 20
74.06230220220091
 10
166.12514985585898
 20
73.92932663436268
 10
166.05580455472582
 20
73.65385082702949
 10
166.01058972250993
 20
73.4108680292666
 10
165.94881991654444
 20
73.26985218139636
 10
165.84393992227572
 20
73.19667164345344
 10
165.66939452515012
 20
73.1571947754725
 10
165.5769270835871
 20
73.14287569590833
 10
165.43594077996673
 20
73.12116152932923
 10
165.03640626322002
 20
73.0598388604957
 10
164.52678032824204
 20
72.98180861971086
 10
163.96305232836482
 20
72.89565265771368
 10
163.11664716256047
 20
72.75430752203961
 10
162.3406599415552
 20
72.59986843201347
 10
161.63851229186773
 20
72.43340288925431
 10
161.01362584001683
 20
72.25597839538118
 10
160.4694222125213
 20
72.06866245201314
 10
160.00932303589983
 20
71.87252256076927
 10
159.63674993667124
 20
71.66862622326862
 10
159.35512454135423
 20
71.45804094113024
 10
159.20245351620204
 20
71.29458850514762
 10
159.06550252892444
 20
71.09891385982627
 10
158.95023010439738
 20
70.88079251987436
 10
158.8625947674969
 20
70.65
 10
158.77795520927168
 20
70.34827759440316
 10
158.68827586603098
 20
69.97893421084986
 10
158.5938799319578
 20
69.54465031749444
 10
158.49509060123515
 20
69.04810638249126
 10
158.39223106804604
 20
68.49198287399463
 10
158.2856245265735
 20
67.87896026015888
 10
158.17559417100057
 20
67.21171900913836
 10
158.06246319551025
 20
66.49293958908741
 10
157.94655479428553
 20
65.72530246816034
 10
157.82819216150946
 20
64.9114881145115
 10
157.70769849136505
 20
64.05417699629523
 10
157.5853969780353
 20
63.15604958166583
 10
157.33666319855195
 20
61.24806773578508
 10
157.0845763765235
 20
59.208986322103904
 10
156.8317220654141
 20
57.06024908585698
 10
156.58068581868793
 20
54.823299772278986
 10
156.33405318980905
 20
52.51958212660459
 10
156.0944097322417
 20
50.170539894068455
 10
155.64643254489795
 20
45.42225664934966
 10
155.44326992204984
 20
43.06590312763636
 10
155.2574386843698
 20
40.75
 10
155.18168649026887
 20
39.75985634370591
 10
155.1137850638051
 20
38.85590090267234
 10
155.05331804986326
 20
38.029651020951846
 10
154.9998690933281
 20
37.27262404259703
 10
154.95302183908427
 20
36.57633731166045
 10
154.9123599320166
 20
35.93230817219471
 10
154.84792673894856
 20
34.767092043886
 10
154.8032386732018
 20
33.709114410091544
 10
154.77496489385422
 20
32.69051402323197
 10
154.75977455998375
 20
31.643429635727912
 10
154.75433683066822
 20
30.5
 10
154.75400360177392
 20
29.895152963044342
 10
154.75518721954572
 20
29.360065898300483
 10
154.7585139913186
 20
28.890108206485735
 10
154.76461022442754
 20
28.480649288317412
 10
154.77410222620745
 20
28.127058544512828
 10
154.7876163039933
 20
27.8247053757893
 10
154.80577876512
 20
27.56895918286414
 10
154.82921591692258
 20
27.355189366454663
 10
154.894419521895
 20
27.035056466052012
 10
154.98823757759018
 20
26.827261880319867
 10
155.11568054268773
 20
26.69476081499674
 10
155.2817588758672
 20
26.600508475821144
 10
155.64959600845856
 20
26.47766334517639
 10
156.13413701744463
 20
26.416454676216585
 10
156.43444511132427
 20
26.410671820569387
 10
156.78105753718884
 20
26.42234744718445
 10
157.1796837493338
 20
26.452164678342108
 10
157.63603320205456
 20
26.500806636322704
 10
158.15581534964656
 20
26.568956443406574
 10
158.74473964640518
 20
26.657297221874064
 10
159.40851554662586
 20
26.766512094005506
 10
160.15285250460403
 20
26.897284182081243
 10
160.9834599746351
 20
27.05029660838162
 10
161.90604741101453
 20
27.226232495186963
 10
162.92632426803766
 20
27.425774964777627
 10
164.05
 20
27.649607139433943
 10
164.97046983939782
 20
27.83394094246623
 10
165.80543799722878
 20
28.000314417494735
 10
166.562373552703
 20
28.150055253760616
 10
167.2487455850306
 20
28.284491140505033
 10
167.87202317342167
 20
28.40494976696914
 10
168.43967539708626
 20
28.5127588223941
 10
168.95917133523454
 20
28.60924599602107
 10
169.43798006707655
 20
28.695738977091203
 10
170.3034122286823
 20
28.84405311852561
 10
171.09572451558424
 20
28.968322760626585
 10
171.87466956146324
 20
29.079169417323396
 10
172.70000000000002
 20
29.187214602545307
 10
173.10534617260794
 20
29.23845102425906
 10
173.46728103060903
 20
29.283726207368552
 10
174.06999639750762
 20
29.357135871055288
 10
174.52630529012944
 20
29.40892962016659
 10
174.85436689790822
 20
29.44059348126352
 10
175.07234041027766
 20
29.453613480907148
 10
175.19838501667147
 20
29.449475645658545
 10
175.25065990652325
 20
29.429666002078775
 10
175.2473242692668
 20
29.395670576728914
 10
175.21345415598336
 20
29.35852348560839
 10
175.16494265469314
 20
29.328103231914117
 10
175.10826753391086
 20
29.307549006445015
 10
175.04990656215128
 20
29.3
 10
174.92760239707366
 20
29.286748432285247
 10
174.74465257699958
 20
29.248622717229296
 10
174.50811512593023
 20
29.18806633696461
 10
174.22504806786677
 20
29.107522773623664
 10
173.54755722676245
 20
28.896248026242844
 10
172.76864424569618
 20
28.63434633214657
 10
171.13240863171626
 20
28.0368535320466
 10
170.38801438282175
 20
27.740358140162375
 10
169.7680547620037
 20
27.471427229801634
 10
168.88610952400737
 20
27.06453924838803
 10
168.95088099854115
 20
26.593594375471866
 10
169.01565247307494
 20
26.122649502555717
 10
168.25782623653745
 20
25.704320178012566
 10
167.96384771547432
 20
25.536525480826512
 10
167.72362106293085
 20
25.388901435950647
 10
167.561899677161
 20
25.277405574286277
 10
167.50343695641865
 20
25.217995426734706
 10
167.53160779882333
 20
25.191236931093684
 10
167.61101159483084
 20
25.140950459551462
 10
167.7361118644154
 20
25.070047364887202
 10
167.90137212755116
 20
24.98143899988006
 10
168.3302267143731
 20
24.762751869953785
 10
168.85328351509034
 20
24.508179892005934
 10
169.37305458296336
 20
24.255958642696882
 10
169.79296286748672
 20
24.04367201153964
 10
169.95205424853745
 20
23.959477081365506
 10
170.07008287280505
 20
23.893633290046402
 10
170.14168305330753
 20
23.84892979902135
 10
170.161489103063
 20
23.82815576972937
 10
170.12041059240357
 20
23.81548159641066
 10
170.0175138748748
 20
23.793992525136723
 10
169.85966843831503
 20
23.76484999509359
 10
169.65374377056253
 20
23.72921544546729
 10
169.12513469283255
 20
23.643116044209265
 10
168.48664254439132
 20
23.544985834850856
 10
166.63895883627657
 20
23.254312165284233
 10
164.65231809420015
 20
22.91545027024216
 10
162.5435080696993
 20
22.53218823685483
 10
160.32931651431124
 20
22.108314152252422
 10
158.02653117957317
 20
21.64761610356513
 10
155.65193981702234
 20
21.153882177923137
 10
153.22233017819596
 20
20.630900462456626
 10
150.75449001463122
 20
20.08245904429579
 10
145.77126911943566
 20
18.924349448411874
 10
140.83657914373342
 20
17.709858087312885
 10
138.42940262953536
 20
17.0909394626332
 10
136.08472209982227
 20
16.46928965804031
 10
133.81932530613142
 20
15.848696760664396
 10
131.65
 20
15.232948857635643
 10
130.5669288155662
 20
14.915778619337551
 10
129.5937948780123
 20
14.621631082838844
 10
128.6973183045317
 20
14.339230554304566
 10
127.84421921231795
 20
14.057301339899752
 10
126.13503394046465
 20
13.449754078138682
 10
125.21238799521201
 20
13.101584643112503
 10
124.2
 20
12.708783746875952
 10
123.65
 20
12.493142003809488
  0
LWPOLYLINE
  5
33
330
17
100
AcDbEntity
  8
C00_ED1C24
100
AcDbPolyline
 90
232
 70
1
 10
52.30805336195442
 20
15.15
 10
52.29991721845239
 20
17.45
 10
50.674958609226195
 20
17.451693857829536
 10
50.155611649081145
 20
17.453366701870475
 10
49.746661703714025
 20
17.459249860929
 10
49.422828126066776
 20
17.472463347590903
 10
49.15883026908134
 20
17.496127174441984
 10
48.70921912886369
 20
17.58728589905484
 10
48.47304455151534
 20
17.661020821988206
 10
48.19558310659658
 20
17.757686135453923
 10
47.50754108418715
 20
18.0414857378946
 10
46.8847612430804
 20
18.380209230025937
 10
46.32579445825931
 20
18.775357471377973
 10
45.8291916047069
 20
19.22843132148075
 10
45.39350355740618
 20
19.7409316398643
 10
45.01728119134016
 20
20.314359286058668
 10
44.69907538149185
 20
20.95021511959389
 10
44.43743700284426
 20
21.650000000000002
 10
44.3230530254875
 20
22.011231872194188
 10
44.236582892724606
 20
22.305382275559996
 10
44.12817098687162
 20
22.838040543637984
 10
44.09662262672716
 20
23.149349342265918
 10
44.07377493706779
 20
23.53917853989698
 10
44.054824624366304
 20
24.04392860348905
 10
44.04530995514753
 20
24.350774105944797
 10
44.03496839509553
 20
24.700000000000003
 10
44.02227355168032
 20
25.400409396610563
 10
44.02856947001677
 20
26.03901453550369
 10
44.055396767271354
 20
26.62968495617745
 10
44.10429606061055
 20
27.186290198129893
 10
44.27447310420869
 20
28.252783303863097
 10
44.55142553814297
 20
29.34945016868778
 10
44.79683663211374
 20
30.09878809858775
 10
45.092051408320714
 20
30.833323858898474
 10
45.436258357995996
 20
31.552220527299212
 10
45.8286459723717
 20
32.25464118146923
 10
46.26840274267994
 20
32.9397488990878
 10
46.75471716015281
 20
33.60670675783418
 10
47.28677771602242
 20
34.25467783538764
 10
47.86377290152088
 20
34.882825209427445
 10
48.484891207880295
 20
35.490311957632855
 10
49.14932112633278
 20
36.07630115768313
 10
49.85625114811043
 20
36.63995588725756
 10
50.604869764445354
 20
37.18043922403538
 10
51.394365466569674
 20
37.69691424569588
 10
52.22392674571548
 20
38.188544029918305
 10
53.092742093114886
 20
38.65449165438193
 10
54.0
 20
39.09392019676602
 10
54.52860169181505
 20
39.32296457727454
 10
55.16451213747778
 20
39.576568420085565
 10
56.58316377273455
 20
40.09645404647894
 10
57.2783572035227
 20
40.33223560699321
 10
57.90576387054679
 20
40.53157618367382
 10
58.421609894403865
 20
40.679225664986724
 10
58.62401832783136
 20
40.728900585025904
 10
58.78212139569099
 20
40.75993393939789
 10
59.214242791381984
 20
40.827839158546716
 10
59.143396505346175
 20
39.23891957927336
 10
59.11105323172511
 20
38.58753855633844
 10
59.07536175237218
 20
37.98855763337203
 10
59.040657300583504
 20
37.508432049780914
 10
59.02502997043079
 20
37.333707272565704
 10
59.01127510965519
 20
37.213617044971855
 10
58.96457637002418
 20
36.960928918002054
 10
58.874394497237745
 20
36.801390699065244
 10
58.68108415324623
 20
36.674802914649526
 10
58.52711663640806
 20
36.6050530999146
 10
58.325
 20
36.52096609124299
 10
58.08232421875
 20
36.416162561414325
 10
57.88359375
 20
36.32024809359365
 10
57.74931640625
 20
36.243835221886755
 10
57.7
 20
36.19753648039946
 10
57.732333979984126
 20
36.15687829223502
 10
57.820372044297336
 20
36.09582336274382
 10
57.95066837948089
 20
36.02263864940237
 10
58.109777172076036
 20
35.94559110968716
 10
58.51955434415206
 20
35.76080735111764
 10
58.18477717207603
 20
35.4837225818595
 10
58.076707187411934
 20
35.40732286746704
 10
57.896976973230885
 20
35.29595730657672
 10
57.65516276402774
 20
35.15493007164067
 10
57.36084079429734
 20
34.989545335111046
 10
56.652978511234124
 20
34.606920047079626
 10
55.85
 20
34.190514822099566
 10
55.18310747972198
 20
33.84628257284877
 10
54.567409722675364
 20
33.51669875796971
 10
54.00036856775925
 20
33.19966086984145
 10
53.479445853872754
 20
32.89306640084304
 10
53.002103419914974
 20
32.59481284335354
 10
52.56580310478503
 20
32.302797689752
 10
51.80617618660506
 20
31.729072563729055
 10
51.18025981052569
 20
31.15507096180668
 10
50.667748687739795
 20
30.56397282301733
 10
50.248337529440235
 20
29.938958086393473
 10
49.901721046819866
 20
29.26320669096757
 10
49.63435003449706
 20
28.5880814309584
 10
49.465645413413505
 20
27.939085985480787
 10
49.37826806657762
 20
27.223849220004674
 10
49.359658646942684
 20
26.812524362726535
 10
49.35487887699782
 20
26.35
 10
49.36491784979209
 20
25.876443957714542
 10
49.39377483252798
 20
25.46052153383741
 10
49.443912605739364
 20
25.09341243116428
 10
49.51779394996013
 20
24.766296352490826
 10
49.74663847356537
 20
24.196762078325673
 10
50.10001064761479
 20
23.68135633370737
 10
50.330349946101954
 20
23.45157508996696
 10
50.618320899290154
 20
23.241713550713488
 10
50.947610967770146
 20
23.057815048141972
 10
51.30190761213271
 20
22.905922914447412
 10
51.6648982929686
 20
22.79208048182482
 10
52.02027047086861
 20
22.722331082469204
 10
52.351711606423486
 20
22.70271804857557
 10
52.64290916022401
 20
22.73928471233893
 10
52.789571476486806
 20
22.79254198363175
 10
52.86611402237672
 20
22.914568799168723
 10
52.885212271819505
 20
23.0282240824128
 10
52.89532684713427
 20
23.191295707378767
 10
52.89930650447609
 20
23.41452499262023
 10
52.900000000000006
 20
23.70865325669081
 10
52.900000000000006
 20
24.61349610773864
 10
52.47823981986145
 20
24.58174805386932
 10
52.0564796397229
 20
24.55
 10
51.23438911378605
 20
25.85
 10
50.9147015590384
 20
26.359010482724226
 10
50.6519813247528
 20
26.78392763865653
 10
50.550476646248654
 20
26.95096951958803
 10
50.47340503001847
 20
27.080330029436332
 10
50.42416355344841
 20
27.166456488406368
 10
50.40614929392461
 20
27.203796216703065
 10
50.449306120330576
 20
27.2333691819879
 10
50.57538273214294
 20
27.29723587519667
 10
50.77548345263759
 20
27.391404401445772
 10
51.040712605090356
 20
27.511882865851614
 10
51.36217451277712
 20
27.654679373530595
 10
51.73097349897374
 20
27.815802029599123
 10
52.575
 20
28.177058207370422
 10
53.63538791232193
 20
28.62507606981721
 10
54.58346579276059
 20
29.025019585390556
 10
55.425389976030765
 20
29.379357927894574
 10
56.16731679684721
 20
29.690560271133396
 10
56.815402589924695
 20
29.96109578891114
 10
57.37580368997799
 20
30.193433655031935
 10
57.85467643172187
 20
30.390043043299904
 10
58.258177149871095
 20
30.553393127519165
 10
58.59246217914044
 20
30.68595308149385
 10
58.863687854244674
 20
30.79019207902808
 10
59.078010509898554
 20
30.868579293925976
 10
59.24158648081686
 20
30.923583899991666
 10
59.36057210171436
 20
30.95767507102927
 10
59.44112370730582
 20
30.97332198084292
 10
59.5115502114297
 20
30.959159712014824
 10
59.55351848083093
 20
30.823972229187575
 10
59.57624572327408
 20
30.69506119094337
 10
59.602010273854326
 20
30.51069418709823
 10
59.63221855980323
 20
30.25993789186674
 10
59.668277008352355
 20
29.93185897946348
 10
59.71159204673325
 20
29.515524124103038
 10
59.76357010217748
 20
29.0
 10
59.791055069109355
 20
28.735156250000003
 10
59.825302595072166
 20
28.420625000000005
 10
59.86194690705462
 20
28.095781250000005
 10
59.89662223204544
 20
27.8
 10
59.92393420659335
 20
27.542321473168364
 10
59.940529792122376
 20
27.32122276149807
 10
59.94510520293411
 20
27.160234168226033
 10
59.936356653330144
 20
27.082885996589177
 10
59.850847093719665
 20
27.031574507564706
 10
59.64641975451366
 20
26.94147787190065
 10
59.353691270016434
 20
26.82529925749015
 10
59.003278274532285
 20
26.695741832226375
 10
58.108612320085
 20
26.375711671274395
 10
58.057169009691464
 20
25.9628558356372
 10
58.050804330864075
 20
25.8904494397828
 10
58.04241212975842
 20
25.76052239287297
 10
58.03212988528624
 20
25.576285631737502
 10
58.020095076359276
 20
25.340950093206192
 10
58.00644518188928
 20
25.05772671410884
 10
57.991317680788
 20
24.729826431275228
 10
57.957179774338556
 20
23.952838901718426
 10
57.91878118830491
 20
23.035674999174148
 10
57.87722175398104
 20
22.00402221828075
 10
57.8336013026609
 20
20.88356805367658
 10
57.78901966563847
 20
19.700000000000003
 10
57.74423798709969
 20
18.52342790015061
 10
57.700044211050894
 20
17.42302434005594
 10
57.65757836851661
 20
16.423070928896244
 10
57.617980490521354
 20
15.547849275851796
 10
57.59961329792103
 20
15.164600861491618
 10
57.58239060808966
 20
14.821640990102848
 10
57.56645492490531
 20
14.52200486283302
 10
57.55194875224604
 20
14.268727680829667
 10
57.53901459398993
 20
14.064844645240317
 10
57.527794954015036
 20
13.913390957212508
 10
57.51843233619942
 20
13.81740181789377
 10
57.51106924442115
 20
13.779912428431636
 10
57.45766423534503
 20
13.759380251995399
 10
57.357528409504496
 20
13.75528683409696
 10
57.22499063937844
 20
13.767153472035883
 10
57.07437979744573
 20
13.794501463111727
 10
56.826368409916086
 20
13.841217875091683
 10
56.68782291995752
 20
13.812183529453687
 10
56.61094826134457
 20
13.669242385749474
 10
56.58070153559724
 20
13.54313300198245
 10
56.54794936785177
 20
13.374238403530775
 10
56.5163517197484
 20
13.228928648409841
 10
56.48221823263923
 20
13.109932531037165
 10
56.44965625204278
 20
13.029529749028601
 10
56.42277312347758
 20
13.0
 10
56.343769760884385
 20
13.0433984375
 10
56.16929625199386
 20
13.1615625
 10
55.925133703009465
 20
13.3364453125
 10
55.637063220134635
 20
13.55
 10
55.34819489748056
 20
13.763554687500001
 10
55.101860012463604
 20
13.938437500000001
 10
54.92417144624489
 20
14.056601562500001
 10
54.84124207998557
 20
14.100000000000001
 10
54.76962629235609
 20
14.071846008113349
 10
54.622742024386916
 20
13.995189099511078
 10
54.42199750077926
 20
13.881736874779719
 10
54.18880094623435
 20
13.743196934505796
 10
53.60143974596008
 20
13.386393869011602
 10
53.18509520314258
 20
13.618196934505796
 10
53.019354251355104
 20
13.701066482385349
 10
52.879179135949855
 20
13.753373139310918
 10
52.77858875081638
 20
13.771042460207477
 10
52.73160198984425
 20
13.75
 10
52.70225416810107
 20
13.679609375000004
 10
52.64980824364958
 20
13.561875000000004
 10
52.581689047936855
 20
13.413203125000003
 10
52.50532141240995
 20
13.25
 10
52.316189505456464
 20
12.850000000000001
  0
LWPOLYLINE
  5
34
330
17
100
AcDbEntity
  8
C00_ED1C24
100
AcDbPolyline
 90
261
 70
1
 10
64.1611105314235
 20
14.082022782523701
 10
64.1327977970671
 20
14.13967254020535
 10
64.07453130984564
 20
14.267880012321989
 10
63.98986401544791
 20
14.45851732476652
 10
63.88234885956268
 20
14.703456603431844
 10
63.75553878787874
 20
14.994569974210863
 10
63.61298674608484
 20
15.323729562996482
 10
63.29486853492231
 20
16.063675898159115
 10
62.97522413869647
 20
16.802372181067682
 10
62.83088336267614
 20
17.13006667148127
 10
62.701706570838326
 20
17.419241533009867
 10
62.591326040273586
 20
17.66183386951007
 10
62.503374048072516
 20
17.84978078483849
 10
62.4414828713257
 20
17.975019382851723
 10
62.409284787123696
 20
18.02948676740638
 10
62.35202992579997
 20
18.02074629344737
 10
62.2539890851817
 20
17.938188757702765
 10
62.12890320690192
 20
17.795674864036567
 10
61.99051323259362
 20
17.607065316312788
 10
61.853804360747326
 20
17.411980302223704
 10
61.733295741646245
 20
17.251835188255928
 10
61.64202924461245
 20
17.14318344646499
 10
61.59304673896804
 20
17.10257854890641
 10
61.55964557383628
 20
17.12662739637485
 10
61.51080351879236
 20
17.194013079162428
 10
61.45308307383628
 20
17.29440335357086
 10
61.393046738968046
 20
17.41746597590186
 10
61.24036414494055
 20
17.683459739769358
 10
61.07230266563653
 20
17.841166044310288
 10
60.89189566544931
 20
17.888797456357043
 10
60.70217650877223
 20
17.824566542742016
 10
60.59424042223567
 20
17.767197117763587
 10
60.52389603243787
 20
17.76688641905861
 10
60.47385547961265
 20
17.83309815403697
 10
60.426830903993846
 20
17.975296030108552
 10
60.40580871732388
 20
18.12733516317052
 10
60.38851596141953
 20
18.409165500714302
 10
60.37485635818874
 20
18.805192637923962
 10
60.36473362953946
 20
19.29982216998359
 10
60.35805149737964
 20
19.877459692077252
 10
60.354713683617234
 20
20.52251079938903
 10
60.35768589891644
 20
21.952476150403236
 10
60.37288005070068
 20
23.464962984498825
 10
60.39952591423353
 20
24.935216063148403
 10
60.41690254267556
 20
25.615518932141132
 10
60.436853264778584
 20
26.23848014782459
 10
60.45928180245056
 20
26.788505305382856
 10
60.48409187759944
 20
27.25
 10
60.560964258976014
 20
28.402302655402877
 10
60.65414780041143
 20
29.687926170835247
 10
60.759955014497656
 20
31.062307215717997
 10
60.874698413826664
 20
32.48088245947202
 10
60.99469051099041
 20
33.899088571518206
 10
61.11624381858087
 20
35.27236222127745
 10
61.23567084919001
 20
36.55614007817063
 10
61.34928411540979
 20
37.70585881161865
 10
61.599863890844944
 20
40.150000000000006
 10
61.924931945422465
 20
40.432361865982
 10
62.08039152601288
 20
40.565476010517976
 10
62.26337163529475
 20
40.7191843959488
 10
62.45104604207372
 20
40.87445875916152
 10
62.62058851515542
 20
41.01227083704319
 10
62.99117703031083
 20
41.30981794212238
 10
63.229368473894965
 20
40.841134883302566
 10
63.46755991747912
 20
40.37245182448274
 10
64.33925004453795
 20
41.63725205813612
 10
65.21094017159677
 20
42.90205229178951
 10
65.69796999761193
 20
42.376026145894755
 10
66.18499982362708
 20
41.85
 10
66.67093482768685
 20
42.325
 10
66.86616173345062
 20
42.50943359375
 10
67.0385011081479
 20
42.66046875000001
 10
67.16928550541158
 20
42.76251953125001
 10
67.23984747887458
 20
42.800000000000004
 10
67.26758665659133
 20
42.74673828125
 10
67.28177433276377
 20
42.60171875
 10
67.281550560246
 20
42.387089843750005
 10
67.26605539189214
 20
42.125
 10
67.2514046377358
 20
41.950627441406255
 10
67.23146011333233
 20
41.712988281250006
 10
67.2071071527992
 20
41.422644042968756
 10
67.17923109025384
 20
41.09015625000001
 10
67.11645099559641
 20
40.34099609375001
 10
67.05020250229977
 20
39.550000000000004
 10
66.97743628303351
 20
38.68618482190519
 10
66.89690990479544
 20
37.73875488154801
 10
66.8184163820176
 20
36.8224835698194
 10
66.7829922584363
 20
36.41189908434421
 10
66.75174872913206
 20
36.05214427761025
 10
66.7001805402133
 20
35.42918005167156
 10
66.66279941932518
 20
34.91417748473875
 10
66.65052714358518
 20
34.71387704523316
 10
66.6431193958839
 20
34.560625286679375
 10
66.64101542989837
 20
34.46110829781083
 10
66.64465449930562
 20
34.42201216736098
 10
66.6718608218314
 20
34.423973516830074
 10
66.73527616781013
 20
34.44347083902563
 10
66.95169688789888
 20
34.52656835696106
 10
67.25584257511674
 20
34.65429463189717
 10
67.6096391450086
 20
34.809639574563874
 10
68.31388859499371
 20
35.135145106008686
 10
68.58819330617672
 20
35.271285516246586
 10
68.7598525622132
 20
35.3670042371347
 10
68.87952929666282
 20
35.50480015058633
 10
68.92207077263052
 20
35.646959013825395
 10
68.95751933633969
 20
35.87583226859887
 10
68.98920374922496
 20
36.21982525530092
 10
69.02045277272101
 20
36.70734331432571
 10
69.03695425139641
 20
37.01380091483231
 10
69.0545951682625
 20
37.36679178606742
 10
69.0737916184986
 20
37.76986659558029
 10
69.09495969728405
 20
38.226576010920205
 10
69.14572286228325
 20
39.3195382941801
 10
69.1694895644036
 20
39.82365785638808
 10
69.19134712791487
 20
40.28218170320781
 10
69.21067113904985
 20
40.682093837809084
 10
69.22683718404133
 20
41.01037826336168
 10
69.23922084912213
 20
41.25401898303539
 10
69.24719772052504
 20
41.400000000000006
 10
69.25869352186069
 20
41.627988281250005
 10
69.2700469228811
 20
41.91609375
 10
69.27994893895576
 20
42.22740234375001
 10
69.28709058545418
 20
42.525000000000006
 10
69.3
 20
43.2
 10
69.72500000000001
 20
43.2009768915704
 10
70.0464109261219
 20
43.23039585985618
 10
70.36555935085883
 20
43.31356663959049
 10
70.67463068518028
 20
43.445066236488174
 10
70.96581034005568
 20
43.61947165626405
 10
71.23128372645449
 20
43.83135990463294
 10
71.46323625534617
 20
44.07530798730967
 10
71.65385333770017
 20
44.345892910009084
 10
71.79532038448592
 20
44.637691678446
 10
71.90436335009532
 20
44.9244964126988
 10
72.13656916547703
 20
44.673942191449285
 10
72.24334914197644
 20
44.571382079123644
 10
72.36243257609922
 20
44.477352115306736
 10
72.47928942131708
 20
44.40226701094227
 10
72.57938963110169
 20
44.356541476973966
 10
72.83870632359793
 20
44.35182769800922
 10
73.1271185658716
 20
44.474422408703084
 10
73.41463570839188
 20
44.70588843307807
 10
73.67126710162803
 20
45.02778859515668
 10
73.78718756411402
 20
45.20838230839158
 10
73.8747220559051
 20
45.34187567105453
 10
73.93873427082505
 20
45.43288960305588
 10
73.98408790269765
 20
45.48604502430594
 10
74.03827419259589
 20
45.49726401419354
 10
74.07619047619002
 20
45.4125
 10
74.1101180604695
 20
45.34413556676237
 10
74.16641355161204
 20
45.25963927576879
 10
74.23724784278858
 20
45.1697503900983
 10
74.3147918271701
 20
45.08520817282991
 10
74.41782862326039
 20
44.9957616017915
 10
74.50784321904536
 20
44.95478626998196
 10
74.60034827801225
 20
44.95917239714371
 10
74.7108564636483
 20
45.00581020301918
 10
74.79320151982775
 20
45.04606211087738
 10
74.86492475571275
 20
45.07405214341114
 10
74.91832087384199
 20
45.087244162541445
 10
74.9456845767542
 20
45.08310203018928
 10
74.94615382649792
 20
44.99528819502985
 10
74.92632247312875
 20
44.780661221368106
 10
74.8896690511961
 20
44.47147914456963
 10
74.83967209524933
 20
44.1
 10
74.80137794828232
 20
43.81464359137025
 10
74.7606832690099
 20
43.48350013918182
 10
74.67382561698781
 20
42.703210302451225
 10
74.5825657460612
 20
41.797846886452724
 10
74.4903702631082
 20
40.80612628783084
 10
74.31703888863558
 20
38.71847912929504
 10
74.24283621087224
 20
37.69998536267016
 10
74.18156434859505
 20
36.75
 10
74.1600689938934
 20
36.349120909891724
 10
74.14056168465534
 20
35.90549383205814
 10
74.10741416411422
 20
34.901069207404724
 10
74.08192771006024
 20
33.758873114419146
 10
74.06390824558197
 20
32.50105254148078
 10
74.05316169376798
 20
31.14975447696902
 10
74.04949397770685
 20
29.72712590926325
 10
74.06261874519741
 20
26.756465217787223
 10
74.10172993276221
 20
23.7662463740878
 10
74.13054524179387
 20
22.319170116102775
 10
74.1652749251098
 20
20.933645285200058
 10
74.20572490579858
 20
19.631818869759037
 10
74.25170110694874
 20
18.435837858159093
 10
74.30300945164889
 20
17.36784923877962
 10
74.33060252879538
 20
16.888773010041117
 10
74.35945586298759
 20
16.45
 10
74.41590877043042
 20
15.65
 10
72.97133233764909
 20
17.149733672893934
 10
71.52675590486776
 20
18.649467345787865
 10
71.46337795243387
 20
18.324733672893935
 10
71.43419721763357
 20
18.174973801465587
 10
71.40159577509402
 20
18.00726551641259
 10
71.36955455147046
 20
17.842107891376784
 10
71.34205447341809
 20
17.7
 10
71.30628178981102
 20
17.571672998130232
 10
71.25599991417565
 20
17.478666864616926
 10
71.19249531816149
 20
17.42266627186577
 10
71.1170544734181
 20
17.405355892282454
 10
70.97722941616124
 20
17.44449334020734
 10
70.72000975156658
 20
17.547096447848972
 10
70.38204882954315
 20
17.697579277707344
 10
70.0
 20
17.880355892282456
 10
69.05
 20
18.35
 10
68.96882518245091
 20
23.597841484215678
 10
68.9517185540305
 20
24.65282246159441
 10
68.93421246328505
 20
25.63857399504821
 10
68.91680068362969
 20
26.53341090491192
 10
68.89997698847955
 20
27.315648011520405
 10
68.88423515124981
 20
27.96360013520851
 10
68.87692423354733
 20
28.230442709812067
 10
68.87006894535561
 20
28.455582096311094
 10
68.86373100835156
 20
28.636307647247456
 10
68.85797214421207
 20
28.76990871516301
 10
68.85285407461404
 20
28.853674652599608
 10
68.84843852123436
 20
28.884894812099105
 10
68.81393432687598
 20
28.884299260097148
 10
68.73027115129696
 20
28.867365554959143
 10
68.60296077747219
 20
28.835635451256298
 10
68.43751498837656
 20
28.79065070355982
 10
68.01426429627234
 20
28.667084294470797
 10
67.50461333878344
 20
28.509000364261738
 10
66.2
 20
28.093894072756644
 10
66.2
 20
22.046947036378324
 10
66.19960822268763
 20
21.304311384788658
 10
66.19842973514523
 20
20.611595343437973
 10
66.19645980396491
 20
19.96852189475552
 10
66.19369369573882
 20
19.37481402117054
 10
66.19012667705901
 20
18.830194705112287
 10
66.18575401451764
 20
18.334386929010005
 10
66.18057097470678
 20
17.887113675292944
 10
66.17457282421859
 20
17.488097926390346
 10
66.16775482964512
 20
17.13706266473146
 10
66.16011225757853
 20
16.833730872745534
 10
66.1516403746109
 20
16.57782553286182
 10
66.14233444733435
 20
16.369069627509557
 10
66.132189742341
 20
16.207186139117997
 10
66.12120152622293
 20
16.091898050116384
 10
66.10936506557228
 20
16.022928342933973
 10
66.09667562698115
 20
16.0
 10
66.0177830788816
 20
16.01964808596154
 10
65.87935738851667
 20
16.073145349718196
 10
65.70091257517615
 20
16.15232130007805
 10
65.5019626581498
 20
16.249005445849175
 10
65.30740068248846
 20
16.339597697789166
 10
65.14090323425071
 20
16.402186808509803
 10
65.0201596442379
 20
16.431135549600423
 10
64.96285924325139
 20
16.420806692650356
 10
64.94706777762562
 20
16.38213272153908
 10
64.92033771535486
 20
16.30127212750299
 10
64.83983363128016
 20
16.032878593798994
 10
64.73289065183079
 20
15.655401137823608
 10
64.6110524378103
 20
15.208614805862068
 10
64.50392325261237
 20
14.811628887195463
 10
64.41939252632342
 20
14.508011890712432
 10
64.35343052190319
 20
14.287673914713944
 10
64.30200750231141
 20
14.140525057500973
 10
64.26109373050782
 20
14.056475417374493
 10
64.22665946945216
 20
14.025435092635473
  0
LWPOLYLINE
  5
35
330
17
100
AcDbEntity
  8
C00_ED1C24
100
AcDbPolyline
 90
221
 70
1
 10
82.37865883061602
 20
16.6
 10
82.29358309519112
 20
16.778723144531252
 10
82.18837507066455
 20
16.99970703125
 10
81.93416349454978
 20
17.53359375
 10
81.6492267827586
 20
18.131933593750002
 10
81.36676761577787
 20
18.725
 10
81.10841550683868
 20
19.258886718750002
 10
80.88911682436847
 20
19.696093750000003
 10
80.80135563158471
 20
19.86434326171875
 10
80.73204953164876
 20
19.991503906250003
 10
80.68409576997078
 20
20.071936035156252
 10
80.660391591961
 20
20.1
 10
80.60679821167646
 20
20.043421946874766
 10
80.49891660050015
 20
19.889372792325865
 10
80.35241272671418
 20
19.661380043593486
 10
80.18295255860069
 20
19.382971207917834
 10
79.75697358684342
 20
18.665942415835662
 10
78.9748782505312
 20
20.30207292174248
 10
78.66246803091411
 20
20.947879479792974
 10
78.38999657203001
 20
21.496782544808998
 10
78.277892822008
 20
21.716750450977987
 10
78.18675969514341
 20
21.890718704147044
 10
78.12025916909431
 20
22.01142937773573
 10
78.08205322151876
 20
22.071624545163605
 10
78.01920015144847
 20
22.11888568132907
 10
77.94488747683155
 20
22.126408364788496
 10
77.77160674059174
 20
22.03090993480488
 10
77.58165786606712
 20
21.802472377644033
 10
77.39448770652545
 20
21.45843881573724
 10
77.2172215858199
 20
21.066877631474473
 10
77.15683731969189
 20
21.508438815737236
 10
77.1332478486884
 20
21.704525430289785
 10
77.10977186874335
 20
21.94490948018849
 10
77.06393247737351
 20
22.54063047966638
 10
77.02086333627228
 20
23.259723001454965
 10
76.9821086361296
 20
24.066308232838292
 10
76.92371932147947
 20
25.798441573525366
 10
76.90717308835185
 20
26.652232057397214
 10
76.90111805894242
 20
27.450000000000003
 10
76.94983276919939
 20
30.45620357810528
 10
77.0157223931796
 20
32.03061464476501
 10
77.11296473056133
 20
33.70870647135831
 10
77.17420204197316
 20
34.59979077311338
 10
77.24430818196986
 20
35.53258498903182
 10
77.32362670062957
 20
36.51235236050698
 10
77.41250114803049
 20
37.54435612893218
 10
77.51127507425072
 20
38.63385953570076
 10
77.62029202936847
 20
39.78612582220603
 10
77.73989556346187
 20
41.00641822984134
 10
77.8704292266091
 20
42.300000000000004
 10
77.93925594010038
 20
42.97781235585128
 10
78.00126031504922
 20
43.59840446476264
 10
78.0567811329458
 20
44.166546740911166
 10
78.10615717528029
 20
44.687009598473956
 10
78.18783005922363
 20
45.603978714550685
 10
78.24898921880056
 20
46.38747512640951
 10
78.29234490593244
 20
47.07566214746715
 10
78.32060737254055
 20
47.70670309114031
 10
78.34269365187086
 20
48.95
 10
78.34295763906145
 20
49.49535121175189
 10
78.33939319929289
 20
49.95453394656879
 10
78.33163142659362
 20
50.33439415927524
 10
78.31930341499208
 20
50.641777804695764
 10
78.3020402585167
 20
50.883530837654895
 10
78.27947305119591
 20
51.06649921297715
 10
78.25123288705815
 20
51.19752888548706
 10
78.21695086013186
 20
51.28346581000916
 10
78.04311399210863
 20
51.49155852601537
 10
77.79088069339586
 20
51.64554589919518
 10
77.46190358568478
 20
51.74585680143971
 10
77.05783529066666
 20
51.792920104640096
 10
76.58032843003272
 20
51.78716468068747
 10
76.03103562547425
 20
51.72901940147295
 10
75.41160949868248
 20
51.618913138887656
 10
74.72370267134865
 20
51.457274764822735
 10
73.96896776516402
 20
51.2445331511693
 10
73.14905740181985
 20
50.98111716981848
 10
72.26562420300736
 20
50.66745569266141
 10
71.32032079041784
 20
50.303977591589216
 10
70.31479978574252
 20
49.891111738493024
 10
69.25071381067265
 20
49.42928700526395
 10
68.12971548689947
 20
48.91893226379314
 10
66.95345743611425
 20
48.36047638597171
 10
66.19496654099801
 20
47.99688086292895
 10
65.86322215804853
 20
47.84041126381548
 10
65.57382812185857
 20
47.70575591198213
 10
65.3347966601934
 20
47.59661141168502
 10
65.15414000081839
 20
47.516674367180286
 10
65.03987037149882
 20
47.46964138272405
 10
65.0
 20
47.459209062572455
 10
65.01100436034237
 20
47.49001435935279
 10
65.04254317299824
 20
47.561169568878505
 10
65.15837854502314
 20
47.806168202307504
 10
65.32981489561998
 20
48.15748191514234
 10
65.53916100433405
 20
48.57838765966588
 10
66.0384137779157
 20
49.48102912171254
 10
66.60049106313835
 20
50.339701744075875
 10
67.1831712100006
 20
51.09488239449467
 10
67.46904309092115
 20
51.41506225139323
 10
67.74423256850108
 20
51.68704794070771
 10
68.05638973621275
 20
51.92826290243566
 10
68.49989157767126
 20
52.203161319611254
 10
69.06834095072091
 20
52.509663552571794
 10
69.75534071320602
 20
52.84568996165461
 10
70.55449372297089
 20
53.20916090719702
 10
71.45940283785984
 20
53.59799674953634
 10
72.4636709157172
 20
54.01011784900991
 10
73.56090081438727
 20
54.44344456595503
 10
74.74469539171436
 20
54.89589726070904
 10
76.00865750554279
 20
55.36539629360925
 10
77.34639001371687
 20
55.849862024992994
 10
78.75149577408092
 20
56.34721481519758
 10
80.21757764447926
 20
56.85537502456034
 10
81.7382384827562
 20
57.37226301341859
 10
83.30708114675605
 20
57.895799142109645
 10
84.91770849432311
 20
58.423903770970846
 10
88.23872867153618
 20
59.48549997055293
 10
91.65012187714993
 20
60.54041449486342
 10
95.10071097391885
 20
61.57201022660089
 10
98.53931882459747
 20
62.563650048463906
 10
101.91476829194032
 20
63.498696843151045
 10
103.56281577647161
 20
63.93979875614697
 10
105.17588223870187
 20
64.36051349336088
 10
106.74757053647546
 20
64.75876141513012
 10
108.27148352763668
 20
65.13246288179201
 10
109.74122407002983
 20
65.47953825368384
 10
111.15039502149924
 20
65.79790789114297
 10
112.04002647615256
 20
65.99261138204268
 10
112.43262567344318
 20
66.07758640677001
 10
112.77762094509484
 20
66.15158175748705
 10
113.06541761189632
 20
66.21255103904737
 10
113.28642099463644
 20
66.25844785630451
 10
113.43103641410399
 20
66.28722581411205
 10
113.48966919108776
 20
66.29683851732354
 10
113.45799492312297
 20
66.2662705898705
 10
113.32715459925434
 20
66.18537815571949
 10
113.11808131554947
 20
66.0664659023705
 10
112.85170816807593
 20
65.92183851732352
 10
112.34373340512671
 20
65.60211979772602
 10
111.97683853554919
 20
65.2671026350657
 10
111.85232586189626
 20
65.10082921730651
 10
111.77031892293198
 20
64.9390976844451
 10
111.73322963910493
 20
64.78469686836924
 10
111.7434699308637
 20
64.64041560096678
 10
111.75130602405736
 20
64.52091971533146
 10
111.68435751556471
 20
64.42552102175888
 10
111.51210485245294
 20
64.32983972359939
 10
111.2040284817892
 20
64.20949602420335
 10
110.81587050906549
 20
64.0414063227081
 10
110.42954940192674
 20
63.82354142613213
 10
110.0526074278371
 20
63.562664614947415
 10
109.69258685426075
 20
63.265539169625946
 10
109.05347897850447
 20
62.58959549846065
 10
108.78947621125289
 20
62.2243038335608
 10
108.57256391437119
 20
61.84981665641212
 10
108.43018285208338
 20
61.66511412353077
 10
108.28226675460279
 20
61.58288698903413
 10
108.03519476534198
 20
61.49200099557196
 10
107.65296274863412
 20
61.380899932948104
 10
107.39991043759167
 20
61.31415743501423
 10
107.09956656881239
 20
61.238027590966375
 10
106.74743062533794
 20
61.15106587453001
 10
106.33900209020996
 20
61.051827759430616
 10
105.8697804464701
 20
60.93886871939367
 10
105.33526517716001
 20
60.81074422814466
 10
103.40433051680589
 20
60.341062430138734
 10
101.56967151229156
 20
59.880003093697866
 10
99.83209343011285
 20
59.42783601161554
 10
98.19240153676549
 20
58.98483097668521
 10
96.65140109874528
 20
58.55125778170037
 10
95.20989738254801
 20
58.127386219454486
 10
93.86869565466944
 20
57.713486082741035
 10
92.62860118160536
 20
57.30982716435349
 10
91.49041922985154
 20
56.916679257085335
 10
90.45495506590376
 20
56.534312153730035
 10
89.52301395625778
 20
56.162995647081075
 10
88.69540116740943
 20
55.80299952993192
 10
87.97292196585443
 20
55.45459359507605
 10
87.35638161808859
 20
55.11804763530694
 10
86.84658539060769
 20
54.793631443418064
 10
86.4443385499075
 20
54.481614812202906
 10
86.18764216740317
 20
54.19743826482044
 10
85.94037659381029
 20
53.804163701643056
 10
85.70260417552973
 20
53.3021607152445
 10
85.47438725896237
 20
52.69179889819855
 10
85.25578819050907
 20
51.97344784307896
 10
85.04686931657072
 20
51.1474771424595
 10
84.84769298354819
 20
50.21425638891393
 10
84.65832153784235
 20
49.17415517501602
 10
84.4788173258541
 20
48.02754309333953
 10
84.30924269398429
 20
46.77478973645822
 10
84.14965998863381
 20
45.41626469694586
 10
84.00013155620353
 20
43.95233756737621
 10
83.86071974309432
 20
42.38337794032304
 10
83.73148689570706
 20
40.7097554083601
 10
83.61249536044264
 20
38.93183956406117
 10
83.5038074837019
 20
37.050000000000004
 10
83.45089559201767
 20
35.95660325084483
 10
83.40455581718446
 20
34.78559349115149
 10
83.36482062591959
 20
33.55199352426064
 10
83.33172248494043
 20
32.27082615351292
 10
83.26634975822779
 20
26.97093869876648
 10
83.26692386943736
 20
25.677276358844235
 10
83.27432983123673
 20
24.42618343510904
 10
83.28860011034322
 20
23.232682730901537
 10
83.3097671734742
 20
22.11179704956239
 10
83.33786348734701
 20
21.078549194432245
 10
83.37292151867898
 20
20.147961968851753
 10
83.41497373418748
 20
19.33505817616157
 10
83.46405260058987
 20
18.654860619702344
 10
83.53275200487417
 20
17.85972123940469
 10
83.2413760024371
 20
18.089843199390636
 10
83.12964745805614
 20
18.18051864845268
 10
83.04720690051633
 20
18.237918184082496
 10
82.9877752078367
 20
18.24447892742679
 10
82.94507325803637
 20
18.182637999632263
 10
82.91282192913441
 20
18.034832521845615
 10
82.88474209914988
 20
17.783499615213557
 10
82.85455464610186
 20
17.411076400882784
 10
82.81598044800944
 20
16.900000000000002
 10
82.73563408324033
 20
15.850000000000001
  0
LWPOLYLINE
  5
36
330
17
100
AcDbEntity
  8
C00_ED1C24
100
AcDbPolyline
 90
297
 70
1
 10
94.275
 20
18.06353718688072
 10
94.14485391883363
 20
18.122726722364902
 10
94.11944752002134
 20
18.222818729654193
 10
94.20796778848963
 20
18.40488470634215
 10
94.29782135574354
 20
18.539492776208608
 10
94.41960170916502
 20
18.709996150022313
 10
94.66343646934406
 20
19.059210659241934
 10
94.91825495915262
 20
19.44955668538818
 10
95.45115995895101
 20
20.334120357541032
 10
95.99895037114558
 20
21.32464130464185
 10
96.54225985832173
 20
22.382073664851625
 10
97.06172208306486
 20
23.467371576331338
 10
97.5379707079604
 20
24.541489177241985
 10
97.95163939559372
 20
25.565380605744544
 10
98.28336180855023
 20
26.5
 10
98.3957781250263
 20
26.864264242635183
 10
98.51509733110015
 20
27.280681019840525
 10
98.74752402290238
 20
28.162193566440003
 10
98.8471713140613
 20
28.573400030073294
 10
98.9268011056791
 20
28.928980416755067
 10
98.9796833004711
 20
29.20199007360489
 10
98.99908780115253
 20
29.36548434774235
 10
98.98762485873293
 20
29.4794991756607
 10
98.93419662965822
 20
29.53726340818619
 10
98.81209419037855
 20
29.54941559878409
 10
98.59460861734404
 20
29.52659430091967
 10
98.44638832864092
 20
29.5060193850823
 10
98.33910656398741
 20
29.497963841316995
 10
98.27015658078346
 20
29.514703787619496
 10
98.23693163642899
 20
29.568515341985545
 10
98.23682498832393
 20
29.671674622410876
 10
98.26722989386822
 20
29.836457746891238
 10
98.32553961046177
 20
30.075140833422367
 10
98.40914739550453
 20
30.400000000000002
 10
98.4440346800296
 20
30.544734614324323
 10
98.47268812789315
 20
30.680082574118266
 10
98.4921449373262
 20
30.790885054613305
 10
98.49944230655973
 20
30.861983231040906
 10
98.47814561568991
 20
30.909189752057802
 10
98.41689212343117
 20
31.000999403002115
 10
98.31998177312576
 20
31.13198693992083
 10
98.19171450811594
 20
31.296727118860932
 10
97.85830900735202
 20
31.70576442699327
 10
97.45107516787746
 20
32.184709375775036
 10
97.0036167577219
 20
32.70449071815673
 10
96.6298601022061
 20
33.146109434493695
 10
96.32646904633114
 20
33.51390004755335
 10
96.09010743509815
 20
33.81219708010311
 10
95.91743911350827
 20
34.045335054910396
 10
95.80512792656258
 20
34.21764849474262
 10
95.74983771926222
 20
34.3334719223672
 10
95.7482323366083
 20
34.397139860551555
 10
95.80202103776766
 20
34.42411953957388
 10
95.93695013331417
 20
34.47032787912519
 10
96.14400643174618
 20
34.53324914882639
 10
96.41417674156203
 20
34.61036761829838
 10
96.73844787126006
 20
34.69916755716207
 10
97.10780662933863
 20
34.797133235038345
 10
97.94573426463074
 20
35.010498886312305
 10
98.30561181579321
 20
35.10003254474571
 10
98.6231231693611
 20
35.17963787485105
 10
99.14193416059516
 20
35.312958021737735
 10
99.52394099209715
 20
35.41824827029271
 10
99.79091741763129
 20
35.5032975638363
 10
99.96463719096175
 20
35.57589484568884
 10
100.06687406585277
 20
35.6438290591707
 10
100.14399413537326
 20
35.796864054303676
 10
100.18814644772988
 20
36.05633553949096
 10
100.23379142047652
 20
36.39443432824555
 10
100.28045375948453
 20
36.803868127272125
 10
100.32765817062517
 20
37.27734464327537
 10
100.37492935976977
 20
37.807571582959966
 10
100.42179203278961
 20
38.38725665303061
 10
100.51239065394029
 20
39.66583201114876
 10
100.59565168104763
 20
41.05473237126729
 10
100.66777276108206
 20
42.49561938702369
 10
100.72495154101401
 20
43.93015471205543
 10
100.76338566781392
 20
45.300000000000004
 10
100.77558862726453
 20
46.35615687031708
 10
100.77239346783587
 20
47.519125750328904
 10
100.7559647501735
 20
48.71466136661394
 10
100.72846703492299
 20
49.86851844575064
 10
100.69206488272988
 20
50.90645171431746
 10
100.67120106798158
 20
51.35874527169294
 10
100.64892285423974
 20
51.754215898892866
 10
100.62550081158501
 20
52.083582936739546
 10
100.60120551009813
 20
52.3375657260553
 10
100.57630751985974
 20
52.50688360766243
 10
100.55107741095058
 20
52.58225592238323
 10
100.4707428564273
 20
52.58254682285996
 10
100.27192173754234
 20
52.559396883865276
 10
99.97799303335577
 20
52.51666698273043
 10
99.61233572292761
 20
52.45821799678665
 10
98.75935119958673
 20
52.309606279797315
 10
97.9
 20
52.1444487515472
 10
97.74117476119743
 20
52.14774601776094
 10
97.52862632845763
 20
52.221599712526405
 10
97.23926473148903
 20
52.37653509470889
 10
96.85000000000001
 20
52.62307742317371
 10
96.58705461368164
 20
52.79815243583921
 10
96.3884320718301
 20
52.936218178649646
 10
96.2442882185519
 20
53.04913034471137
 10
96.14477889795364
 20
53.14874462713073
 10
96.0402872312232
 20
53.35550231346776
 10
95.99620382449127
 20
53.6513367825115
 10
95.95197872641435
 20
53.93022732348142
 10
95.88002313694848
 20
54.180014056756484
 10
95.77583806266492
 20
54.406334256009224
 10
95.63492451013488
 20
54.61482519491214
 10
95.45278348592963
 20
54.81112414713777
 10
95.22491599662038
 20
55.000868386358604
 10
94.9468230487784
 20
55.189695186247185
 10
94.61400564897491
 20
55.38324182047601
 10
94.41319726461063
 20
55.50066928852117
 10
94.26155864093882
 20
55.60432643316258
 10
94.17383082000275
 20
55.6829855657719
 10
94.16475484384576
 20
55.72541899772079
 10
94.26268013555429
 20
55.76914099538229
 10
94.44780985598392
 20
55.83857996431494
 10
94.70986810379826
 20
55.93050265313971
 10
95.03857897766093
 20
56.041675810477614
 10
95.42366657623555
 20
56.16886618494962
 10
95.85485499818573
 20
56.30884052517673
 10
96.81443070686728
 20
56.61420809738017
 10
98.83465234593653
 20
57.23608777017168
 10
99.73088385494214
 20
57.50086784869554
 10
100.11456412713535
 20
57.610401568662965
 10
100.44158620934034
 20
57.700386740595356
 10
102.26317005213247
 20
58.17279564678491
 10
103.99404669958905
 20
58.59003830675213
 10
105.62123473993128
 20
58.949703950927606
 10
107.13175276138031
 20
59.24938180974195
 10
108.5126193521573
 20
59.48666111362576
 10
109.15037666986291
 20
59.58114794197827
 10
109.75085310048343
 20
59.659131093009634
 10
110.31242596754653
 20
59.72030922052366
 10
110.83347259457986
 20
59.76438097832418
 10
111.31237030511105
 20
59.79104502021502
 10
111.74749642266775
 20
59.800000000000004
 10
112.42148142122406
 20
59.76917030216563
 10
113.12428855069632
 20
59.6792555279205
 10
113.84332618993645
 20
59.534117156151595
 10
114.56600271779631
 20
59.33761666574588
 10
115.27972651312777
 20
59.09361553559032
 10
115.97190595478273
 20
58.8059752445719
 10
116.62994942161305
 20
58.47855727157757
 10
117.2412652924706
 20
58.11522309549432
 10
117.78422241179456
 20
57.723940222629324
 10
118.31763469364064
 20
57.266259063118795
 10
118.83349226165942
 20
56.75198350826906
 10
119.32378523950149
 20
56.190917449386426
 10
119.78050375081742
 20
55.5928647777772
 10
120.19563791925779
 20
54.9676293847477
 10
120.5611778684732
 20
54.32501516160424
 10
120.86911372211421
 20
53.67482599965313
 10
121.12607282822438
 20
53.012865165674334
 10
121.34296503807354
 20
52.333613638128874
 10
121.51998939355309
 20
51.64069016444325
 10
121.65734493655438
 20
50.93771349204398
 10
121.8138457526877
 20
49.51607554081055
 10
121.81405982160447
 20
48.09764976384063
 10
121.7560569305851
 20
47.39868830927077
 10
121.65957947843573
 20
46.7113861405463
 10
121.52482650704772
 20
46.039362005093764
 10
121.35199705831245
 20
45.38623465033964
 10
121.1412901741213
 20
44.75562282371045
 10
120.89290489636564
 20
44.15114527263271
 10
120.60704026693683
 20
43.576420744532925
 10
120.28389532772627
 20
43.03506798683759
 10
120.06279496645178
 20
42.73045605150414
 10
119.76105296510393
 20
42.36074029226709
 10
119.03885203712389
 20
41.55633548530579
 10
118.6799971079596
 20
41.186815529193375
 10
118.36370853365771
 20
40.882529932401
 10
118.12078831295217
 20
40.67606324073457
 10
118.03646695980238
 20
40.61969465488794
 10
117.98203844457692
 20
40.6
 10
117.9177579469377
 20
40.57855452661046
 10
117.91923309307583
 20
40.50690987717045
 10
117.99568695861174
 20
40.37410370777286
 10
118.1563426191659
 20
40.16917367451059
 10
118.41042315035874
 20
39.88115743347653
 10
118.7671516278107
 20
39.4990926407636
 10
118.98689105751525
 20
39.26936630505658
 10
119.23575112714225
 20
39.01201695246468
 10
119.51488472114426
 20
38.7256742899995
 10
119.82544472397382
 20
38.40896802467267
 10
120.15764256802193
 20
38.06987453548471
 10
120.52074525107574
 20
37.6971908110534
 10
121.32885535406149
 20
36.86250897019274
 10
122.22815547265313
 20
35.92783512955463
 10
123.19702604657276
 20
34.91608191660299
 10
127.33582168997273
 20
30.55652789093992
 10
128.3282511363635
 20
29.50306722837969
 10
129.26053367641475
 20
28.510002958289554
 10
130.11104974984855
 20
27.60024770813344
 10
130.49888924899705
 20
27.18377116161312
 10
130.858179796387
 20
26.79671410537528
 10
131.1862189469836
 20
26.441940617852918
 10
131.48030425575215
 20
26.12231477747902
 10
131.7377332776579
 20
25.840700662686572
 10
131.95580356766612
 20
25.59996235190858
 10
132.13181268074206
 20
25.402963923578028
 10
132.26305817185096
 20
25.252569456127905
 10
132.34683759595814
 20
25.151643027991206
 10
132.3804485080288
 20
25.103048717600927
 10
132.33926044232174
 20
25.081849363668837
 10
132.20460618687486
 20
25.087509986745587
 10
131.9975306828851
 20
25.117815653995788
 10
131.73907887154948
 20
25.17055143258406
 10
131.0672607270414
 20
25.323793913340864
 10
130.4978493477184
 20
24.689144663066145
 10
129.9284379683954
 20
24.054495412791425
 10
129.1892189841977
 20
24.64260316530348
 10
128.87805335618802
 20
24.893504974849005
 10
128.57727503643557
 20
25.141905000127117
 10
128.32117837841048
 20
25.359128479833764
 10
128.14405773558295
 20
25.516500652664902
 10
127.83811547116589
 20
25.802290387514258
 10
127.60998057164188
 20
25.396379108597785
 10
127.47285352568748
 20
25.168528832113026
 10
127.35601787666616
 20
25.053685572996542
 10
127.20514914123694
 20
25.022143845548936
 10
126.96592283605892
 20
25.044198164070806
 10
126.76221427532627
 20
25.06711502892965
 10
126.51502600350221
 20
25.08979321452201
 10
126.25555962652469
 20
25.1096153961786
 10
126.0150167503316
 20
25.12396424923013
 10
125.48003350066318
 20
25.150000000000002
 10
125.23171078795757
 20
24.483241426127268
 10
124.98338807525195
 20
23.816482852254538
 10
124.516694037626
 20
23.760441522015334
 10
124.29181582868699
 20
23.733866206026374
 10
124.02451915666742
 20
23.702935254759254
 10
123.74827708220133
 20
23.671490017092594
 10
123.4965626659227
 20
23.643371841905015
 10
122.94312533184537
 20
23.582343492033885
 10
121.95801717016104
 20
25.06093452825203
 10
121.01861199317679
 20
26.437987366390757
 10
119.9880568897561
 20
27.890195231146862
 10
117.78176411298502
 20
30.852907046173634
 10
116.67016004432446
 20
32.279826499275515
 10
115.59567325860712
 20
33.6147319846572
 10
115.08236972258493
 20
34.234619411770346
 10
114.5903705581779
 20
34.815831253734295
 10
114.12368411567911
 20
35.353143479476
 10
113.6863187453817
 20
35.84133205792241
 10
113.23808644771367
 20
36.33266411584483
 10
112.50156949022522
 20
35.77152517280598
 10
112.13953095967753
 20
35.51509836857893
 10
111.70355002162108
 20
35.23795220156043
 10
110.69228714185809
 20
34.66522751360037
 10
109.63283328868866
 20
34.140802577828396
 10
109.13661363387416
 20
33.924031101045
 10
108.69024089986522
 20
33.7521288631471
 10
107.93048179973044
 20
33.48488712740309
 10
107.86621258719975
 20
32.067443563701545
 10
107.78606344590597
 20
30.924338676985975
 10
107.64852312459564
 20
29.732277859923585
 10
107.45638319333077
 20
28.50431855908203
 10
107.21243522217326
 20
27.25351822102897
 10
106.91947078118507
 20
25.99293429233205
 10
106.58028144042815
 20
24.73562421955893
 10
106.19765876996446
 20
23.494645449277265
 10
105.77439433985592
 20
22.28305542805471
 10
105.26700427149831
 20
20.916110856109412
 10
104.40850213574916
 20
20.42230494501631
 10
104.06924388460281
 20
20.23385598612318
 10
103.78015375237632
 20
20.0857898489091
 10
103.57186227789896
 20
19.992942827594323
 10
103.47500000000001
 20
19.9701512163991
 10
103.44587890625002
 20
20.025311421904824
 10
103.42203125
 20
20.14470944606293
 10
103.40591796875
 20
20.31076597614872
 10
103.4
 20
20.505901699437494
 10
103.39737727409234
 20
20.69775080520278
 10
103.39023618870014
 20
20.854858624209765
 10
103.37966738231972
 20
20.96101255597124
 10
103.36676149344731
 20
21.0
 10
103.27327757468915
 20
20.981846866384082
 10
103.09267763473731
 20
20.93024941172529
 10
102.83688121489874
 20
20.84950055530707
 10
102.51780785648033
 20
20.74389321641288
 10
102.14737710078902
 20
20.61772031432616
 10
101.73750848913168
 20
20.47527476833036
 10
100.84713586314666
 20
20.15873742174533
 10
99.94204630898055
 20
19.828624530925367
 10
99.11759615708868
 20
19.51927945013807
 10
98.76540971026287
 20
19.383127136715295
 10
98.46914173792635
 20
19.26504553365103
 10
98.24071178138603
 20
19.169327560228723
 10
98.09203938194884
 20
19.10026613573183
 10
97.00190657711418
 20
18.61427587032749
 10
95.89436857861264
 20
18.250161047013258
 10
95.38469161606422
 20
18.127555321470055
 10
94.93140613629198
 20
18.05191653084553
 10
94.55475973302693
 20
18.02874403327174
  0
LWPOLYLINE
  5
37
330
17
100
AcDbEntity
  8
C00_ED1C24
100
AcDbPolyline
 90
98
 70
1
 10
145.99819060977708
 20
23.299076917986863
 10
146.33040164976993
 20
23.52204847569825
 10
146.63451780832864
 20
23.835995307933747
 10
146.9091492986443
 20
24.237700324222764
 10
147.15290633390802
 20
24.723946434094714
 10
147.36439912731086
 20
25.291516547079
 10
147.54223789204394
 20
25.937193572705038
 10
147.68503284129832
 20
26.657760420502235
 10
147.79139418826512
 20
27.450000000000003
 10
147.8158253412794
 20
27.7008837890625
 10
147.84467467975855
 20
28.0316015625
 10
147.87687766641542
 20
28.4280029296875
 10
147.9113697639629
 20
28.8759375
 10
147.98296314258116
 20
29.8698046875
 10
148.05093851731633
 20
30.900000000000002
 10
148.14731701635367
 20
32.37289363253729
 10
148.25507459118498
 20
33.89803774051041
 10
148.37394388928612
 20
35.47268883253919
 10
148.50365755813314
 20
37.09410341724345
 10
148.6439482452019
 20
38.75953800324303
 10
148.79454859796837
 20
40.46624909915775
 10
149.12560889049826
 20
43.99252685521193
 10
149.49469961553032
 20
47.65098875436462
 10
149.89968195287216
 20
51.41968686557445
 10
150.3384170823313
 20
55.27667325780003
 10
150.8087661837153
 20
59.2
 10
150.91646700557047
 20
60.080135166484936
 10
151.01722516956625
 20
60.911724037363975
 10
151.11104132810064
 20
61.69477266434958
 10
151.19791613357165
 20
62.42928709915419
 10
151.2778502383773
 20
63.115273393490256
 10
151.35084429491565
 20
63.752737599070215
 10
151.41689895558468
 20
64.34168576760652
 10
151.47601487278246
 20
64.88212395081163
 10
151.52819269890693
 20
65.37405820039797
 10
151.5734330863562
 20
65.817494568078
 10
151.61173668752824
 20
66.21243910556417
 10
151.64310415482106
 20
66.5588978645689
 10
151.6675361406327
 20
66.85687689680468
 10
151.6850332973612
 20
67.10638225398392
 10
151.69559627740455
 20
67.3074199878191
 10
151.69922573316077
 20
67.45999615002263
 10
151.68868174289497
 20
67.79025970679582
 10
151.64542484010497
 20
68.03555781838908
 10
151.55350587949698
 20
68.2501523509088
 10
151.39697571577713
 20
68.48830517046143
 10
151.0976402660052
 20
68.83548366078362
 10
150.7755597617492
 20
69.0846639171771
 10
150.43367777137328
 20
69.23581343379719
 10
150.07493786324153
 20
69.28889970479926
 10
149.702283605718
 20
69.24389022433868
 10
149.31865856716686
 20
69.10075248657081
 10
148.9270063159522
 20
68.85945398565099
 10
148.5302704204381
 20
68.51996221573458
 10
148.1830397218831
 20
68.14363856673141
 10
147.94811638853153
 20
67.7615916653774
 10
147.8567650939608
 20
67.53396190322357
 10
147.77428477287543
 20
67.2635492177677
 10
147.69427346933696
 20
66.93656957227172
 10
147.61032922740688
 20
66.53923892999751
 10
147.50633901583393
 20
65.9894670979497
 10
147.39526254360536
 20
65.33941387602479
 10
147.27768941516527
 20
64.59488117384375
 10
147.15420923495782
 20
63.761670901027514
 10
147.02541160742717
 20
62.845584967197055
 10
146.89188613701748
 20
61.85242528197332
 10
146.75422242817288
 20
60.78799375497726
 10
146.61301008533755
 20
59.65809229582983
 10
146.46883871295557
 20
58.468522814151996
 10
146.32229791547118
 20
57.2250872195647
 10
146.17397729732846
 20
55.933587421688905
 10
146.0244664629716
 20
54.599825330145556
 10
145.72423256339195
 20
51.82872190454003
 10
145.42631305228548
 20
48.95819221971577
 10
144.85628453770477
 20
43.10451518028157
 10
144.59360920533692
 20
40.214198379606906
 10
144.35211560365497
 20
37.41011642758405
 10
144.13652056821215
 20
34.73868460118064
 10
144.0399090239408
 20
33.46721725913861
 10
143.95154093456165
 20
32.2463181773643
 10
143.87200590451886
 20
31.081789265478676
 10
143.80189353825662
 20
29.97943243310268
 10
143.74179344021906
 20
28.945049589857277
 10
143.6922952148503
 20
27.984442645363416
 10
143.6573346793104
 20
27.189774309138045
 10
143.63681770533242
 20
26.54002532843056
 10
143.6320058348382
 20
26.011938096655733
 10
143.6441606097495
 20
25.58225500722834
 10
143.67454357198812
 20
25.227718453563163
 10
143.72441626347592
 20
24.92507082907497
 10
143.88767700188606
 20
24.38241194128865
 10
144.06518923358044
 20
24.065163643504004
 10
144.34126605631218
 20
23.725614984842817
 10
144.65566428448787
 20
23.42870102956533
 10
144.9481407325142
 20
23.239356841931794
 10
145.22411602021438
 20
23.139805845561952
 10
145.4596386153053
 20
23.114785289706315
 10
145.7019247383164
 20
23.166980528977188
  0
LWPOLYLINE
  5
38
330
17
100
AcDbEntity
  8
C00_ED1C24
100
AcDbPolyline
 90
176
 70
1
 10
86.40045504346254
 20
23.61430111958157
 10
86.40268595448082
 20
23.78534721599863
 10
86.40879060058384
 20
24.07542600166306
 10
86.41851706892658
 20
24.47638204761284
 10
86.43161344666397
 20
24.98005992488595
 10
86.44782782095099
 20
25.57830420452037
 10
86.46690827894258
 20
26.262959457554086
 10
86.48860290779372
 20
27.025870255025072
 10
86.51265979465936
 20
27.85888116797132
 10
86.53882702669443
 20
28.753836767430798
 10
86.56685269105395
 20
29.702581624441496
 10
86.62747166536603
 20
31.72881739526848
 10
86.69250141483528
 20
33.87234504875611
 10
86.75992663670137
 20
36.06792115320824
 10
86.82773202820395
 20
38.25030227692872
 10
86.8939022865827
 20
40.35424498822141
 10
86.92574445873805
 20
41.356413366802286
 10
86.95642210907731
 20
42.31450585539015
 10
86.98568332475544
 20
43.220367025023
 10
87.0132761929274
 20
44.0658414467388
 10
87.03894880074817
 20
44.842773691575545
 10
87.06244923537268
 20
45.543008330571205
 10
87.08352558395592
 20
46.15838993476377
 10
87.10192593365282
 20
46.680763075191216
 10
87.11739837161835
 20
47.10197232289153
 10
87.12969098500746
 20
47.41386224890269
 10
87.13855186097513
 20
47.60827742426267
 10
87.14372908667629
 20
47.67706242000946
 10
87.23250487692896
 20
47.71321371802543
 10
87.33801270527749
 20
47.74841861656379
 10
87.48998815278159
 20
47.79674417667256
 10
87.69272196719687
 20
47.85946626976434
 10
87.95050489627891
 20
47.93786076725175
 10
88.26762768778329
 20
48.0332035405474
 10
88.64838108946559
 20
48.146770461063895
 10
89.09705584908141
 20
48.27983740021386
 10
89.61794271438634
 20
48.433680229409894
 10
90.21533243313596
 20
48.60957482006462
 10
90.89351575308586
 20
48.80879704359065
 10
91.65678342199163
 20
49.03262277140059
 10
92.50942618760885
 20
49.282327874907054
 10
93.45573479769311
 20
49.559188225522654
 10
94.5
 20
49.86447969466
 10
95.04921172748568
 20
50.02490009348227
 10
95.53875859855285
 20
50.16765594270832
 10
95.97198417593442
 20
50.29366546710802
 10
96.35223202236337
 20
50.40384689145126
 10
96.68284570057263
 20
50.499118440507914
 10
96.96716877329517
 20
50.580398339047875
 10
97.20854480326393
 20
50.64860481184101
 10
97.41031735321188
 20
50.70465608365721
 10
97.7084262639771
 20
50.78396592343835
 10
97.88824400745446
 20
50.825673656550336
 10
97.97651908550755
 20
50.83712508115223
 10
98.0
 20
50.8256659954031
 10
97.9867333984375
 20
50.77998767903924
 10
97.9487109375
 20
50.667508902657666
 10
97.8885986328125
 20
50.49568719923797
 10
97.80906250000001
 20
50.27198010175976
 10
97.60238281250001
 20
49.69873985654616
 10
97.35000000000001
 20
49.00744843085366
 10
97.0976171875
 20
48.312136724082556
 10
96.8909375
 20
47.727950169001495
 10
96.8114013671875
 20
47.49669509331012
 10
96.7512890625
 20
47.316220829499734
 10
96.71326660156251
 20
47.19419388555649
 10
96.7
 20
47.13828076946655
 10
96.73591470080663
 20
47.08261445545668
 10
96.83370225250783
 20
47.00380868186001
 10
96.9784278290256
 20
46.912349004318486
 10
97.15515660428196
 20
46.81872097847404
 10
97.32145502803371
 20
46.737673401499535
 10
97.43920953303159
 20
46.67026259894106
 10
97.50696436540949
 20
46.60303499470274
 10
97.52326377130133
 20
46.5225370126887
 10
97.48665199684103
 20
46.415315076803076
 10
97.39567328816251
 20
46.26791561094998
 10
97.24887189139969
 20
46.06688503903354
 10
97.04479205268647
 20
45.798769784957884
 10
96.62489144485744
 20
45.24753956991575
 10
94.10106305546037
 20
44.552285777144995
 10
93.11818785723555
 20
44.274163706662215
 10
92.68615839710998
 20
44.146519566991365
 10
92.30773892269626
 20
44.030854963295695
 10
91.9934328537849
 20
43.930446099771316
 10
91.75374361016638
 20
43.848569180614355
 10
91.5991746116312
 20
43.788500410020916
 10
91.54022927796984
 20
43.753515992187126
 10
91.52520493789044
 20
43.68512928308878
 10
91.50621328464545
 20
43.55732768751514
 10
91.4840146771906
 20
43.37883899318956
 10
91.45936947448153
 20
43.15839098783538
 10
91.40578071912354
 20
42.62652819493464
 10
91.35152989021691
 20
42.03156161059969
 10
91.3026998594071
 20
41.44331353661731
 10
91.26537349833956
 20
40.931606274774296
 10
91.25292509134835
 20
40.72627491771341
 10
91.24563367865974
 20
40.56626212685741
 10
91.24425961922944
 20
40.460295689929644
 10
91.24956327201312
 20
40.41710339465345
 10
91.30819738602
 20
40.420380087938184
 10
91.45805571101363
 20
40.44795991398618
 10
91.68905400823711
 20
40.49748570530434
 10
91.99110803893358
 20
40.566600294399535
 10
92.35413356434611
 20
40.652946513778666
 10
92.76804634571786
 20
40.75416719594861
 10
93.70819672131141
 20
40.99180327868851
 10
94.64678038545267
 20
41.2306362149257
 10
95.05885693446635
 20
41.333259644944576
 10
95.41945289372826
 20
41.4214618759971
 10
95.71856546245303
 20
41.492823527908385
 10
95.94619183985533
 20
41.54492522050351
 10
96.09232922514977
 20
41.57534757360757
 10
96.14697481755101
 20
41.58167120704568
 10
96.14328537340316
 20
41.543673387427226
 10
96.12223286925784
 20
41.447069183684974
 10
96.08553733464102
 20
41.29834591912907
 10
96.03491879907864
 20
41.103990917069666
 10
95.89879284322092
 20
40.60433499368095
 10
95.72761523789227
 20
40.0
 10
95.60001218518582
 20
39.5497847096986
 10
95.49884972734988
 20
39.17356588911304
 10
95.42137483581931
 20
38.85632811902389
 10
95.36483448202898
 20
38.583055980211704
 10
95.30354527340853
 20
38.10834691954048
 10
95.29295787296748
 20
37.62931535334386
 10
95.30464398601023
 20
36.80863070668772
 10
93.87732199300513
 20
36.35997698248466
 10
93.27491215643221
 20
36.17180108597623
 10
92.68981040638461
 20
35.99110046363456
 10
92.18889741602521
 20
35.83840673253383
 10
91.990911916092
 20
35.77897858153449
 10
91.83905385851692
 20
35.7342515097482
 10
91.22810771703382
 20
35.5571797612148
 10
91.16450861956456
 20
34.4535898806074
 10
91.1397783990114
 20
33.975770216027804
 10
91.11945817091915
 20
33.49058577742842
 10
91.10564970252037
 20
33.05475592026668
 10
91.10045476104766
 20
32.725
 10
91.1011733015616
 20
32.48988514879883
 10
91.1125819811781
 20
32.31648262172067
 10
91.14797496096801
 20
32.19812626781811
 10
91.22064640200225
 20
32.12814993614373
 10
91.34389046535168
 20
32.0998874757501
 10
91.5310013120872
 20
32.10667273568983
 10
91.79527310327968
 20
32.141839565015474
 10
92.15
 20
32.19872181277963
 10
92.4184765625
 20
32.24062364102503
 10
92.7059375
 20
32.28285124374151
 10
92.97792968750001
 20
32.32048638728823
 10
93.2
 20
32.348610838024335
 10
93.80023566432617
 20
32.423807321003714
 10
94.46111434384471
 20
32.51382227044515
 10
95.04803010119892
 20
32.59968307367534
 10
95.27168752864043
 20
32.6351267290008
 10
95.42637699903207
 20
32.662417118020976
 10
95.70275399806414
 20
32.716495932606676
 10
95.67637699903207
 20
29.436297156179922
 10
95.65
 20
26.156098379753168
 10
93.95
 20
25.638743121810524
 10
93.551357421875
 20
25.51798375999361
 10
93.068984375
 20
25.372784581329764
 10
92.521337890625
 20
25.20865038014733
 10
91.92687500000001
 20
25.031085950774646
 10
90.671328125
 20
24.6576855847719
 10
89.45
 20
24.296621837948262
 10
88.35294921875001
 20
23.9727015095797
 10
87.86588134765626
 20
23.82832419651075
 10
87.43578125
 20
23.700434213627908
 10
87.07464599609375
 20
23.592605633013086
 10
86.79447265625001
 20
23.508412526748202
 10
86.60725830078125
 20
23.451428966915163
 10
86.525
 20
23.42522902559589
 10
86.47263710438123
 20
23.4218579102675
 10
86.43340974305967
 20
23.4537879609031
 10
86.40884127107391
 20
23.51870656738151
  0
LWPOLYLINE
  5
39
330
17
100
AcDbEntity
  8
C00_ED1C24
100
AcDbPolyline
 90
259
 70
1
 10
10.703512923998304
 20
35.511891893201685
 10
10.715457563065609
 20
35.614833087794466
 10
10.745383226981305
 20
35.793024493627996
 10
10.78877477926397
 20
36.021426625947946
 10
10.841117083432179
 20
36.275
 10
10.97520831886775
 20
36.9
 10
10.712604159433875
 20
36.89782520404099
 10
10.624134749672598
 20
36.8933950780081
 10
10.47255395065369
 20
36.88154273153481
 10
10.266116584124832
 20
36.86307955705957
 10
10.013077471833702
 20
36.838816947020845
 10
9.40021329695533
 20
36.776138990006714
 10
8.700000000000001
 20
36.7
 10
8.015163935049342
 20
36.62386100999329
 10
7.444168461173786
 20
36.56118305297916
 10
7.219999721346868
 20
36.536920442940435
 10
7.046657659837962
 20
36.5184572684652
 10
6.931597786830147
 20
36.50660492199191
 10
6.882275612506501
 20
36.502174795959014
 10
6.8262537485192505
 20
36.55985458525926
 10
6.723783050348352
 20
36.718511196752885
 10
6.589446929156885
 20
36.95387918582997
 10
6.437828796107926
 20
37.241693107880586
 10
6.061106367202848
 20
37.983386215761186
 10
5.105553183601424
 20
38.15081839512444
 10
4.717027605877603
 20
38.21984667246633
 10
4.3655370682200845
 20
38.28402361481595
 10
4.08971379919302
 20
38.33618470962123
 10
3.9281900273605643
 20
38.369165444330115
 10
3.8275138844815912
 20
38.42785097127362
 10
3.662993443072664
 20
38.56836810887156
 10
3.4417691101736194
 20
38.78311460478361
 10
3.170981292824292
 20
39.06448820666948
 10
2.8577703980645195
 20
39.40488666218885
 10
2.5092768329341357
 20
39.79670771900141
 10
2.132641004472978
 20
40.232349124766856
 10
1.7350033197208816
 20
40.704208627144865
 10
1.6798289676757838
 20
40.81109660866781
 10
1.6244963042883092
 20
40.988132185842126
 10
1.5754343251398493
 20
41.21070598366781
 10
1.539072025811796
 20
41.454208627144865
 10
1.48704975806201
 20
41.804954575383306
 10
1.3848407588517462
 20
42.059439612739155
 10
1.2938921944911295
 20
42.18466383801144
 10
1.165168098716027
 20
42.32671829337349
 10
0.9902588553433161
 20
42.49923479809543
 10
0.7607548481898747
 20
42.715845171447405
 10
0.4458392446584222
 20
43.02172550009757
 10
0.2517769176337704
 20
43.2376083976887
 10
0.17201484383970223
 20
43.37187342235295
 10
0.2
 20
43.43290013222245
 10
0.2648024875649553
 20
43.45072675384846
 10
0.39227992202145373
 20
43.48193245651957
 10
0.5748497610119447
 20
43.52479205407193
 10
0.8049294621788772
 20
43.57758036034168
 10
1.3772882816118641
 20
43.70604235437785
 10
2.048696041460008
 20
43.85351694931717
 10
5.065052364394895
 20
44.57079789204806
 10
6.523343110956722
 20
44.9636417262689
 10
7.943930933736633
 20
45.37748168699688
 10
9.323482347350998
 20
45.810963187684685
 10
10.658663866416187
 20
46.262731641784995
 10
11.946142005548571
 20
46.731432462750476
 10
13.18258327936452
 20
47.21571106403381
 10
14.364654202480406
 20
47.71421285908767
 10
15.4890212895126
 20
48.22558326136472
 10
16.552351055077466
 20
48.74846768431764
 10
17.551310013791383
 20
49.281511541399105
 10
18.48256468027072
 20
49.82336024606179
 10
19.342781569131844
 20
50.37265921175837
 10
20.12862719499113
 20
50.92805385194151
 10
20.836768072464942
 20
51.4881895800639
 10
21.611535506757807
 20
52.20390525884441
 10
22.2755813324498
 20
52.95100618756629
 10
22.82486341938411
 20
53.72087491501116
 10
23.255339637403925
 20
54.5048939899606
 10
23.562967856352444
 20
55.2944459611962
 10
23.743705946072858
 20
56.08091337749956
 10
23.793511776408355
 20
56.85567878765228
 10
23.70834321720213
 20
57.610124740435936
 10
23.58626953610068
 20
58.03372392219606
 10
23.484004514838226
 20
58.21269849266808
 10
23.32890745305433
 20
58.39560551927004
 10
23.101968410713777
 20
58.60180685430342
 10
22.784177447781346
 20
58.850664350069685
 10
22.356524624221827
 20
59.16153985887033
 10
22.095559408445904
 20
59.346284947002744
 10
21.8
 20
59.55379523300681
 10
20.65408860989375
 20
60.388944615210704
 10
19.654083587401054
 20
61.19020019836121
 10
18.788231644155495
 20
61.97081916214524
 10
18.04477949179065
 20
62.744058686249694
 10
17.411973841940103
 20
63.523175950361484
 10
16.878061406237435
 20
64.3214281341675
 10
16.43128889631623
 20
65.15207241735466
 10
16.05990302381006
 20
66.02836597960986
 10
15.851253547347484
 20
66.67833521916484
 10
15.689150941189038
 20
67.37790384483503
 10
15.57447198154545
 20
68.1112835711052
 10
15.508093444627443
 20
68.8626861124601
 10
15.490892106645742
 20
69.6163231833845
 10
15.523744743811072
 20
70.35640649836314
 10
15.607528132334156
 20
71.0671477718808
 10
15.74311904842572
 20
71.73275871842223
 10
16.11444304709599
 20
72.89667488455999
 10
16.6315579793527
 20
74.03215251416819
 10
17.296323538442127
 20
75.14143688861911
 10
18.11059941761056
 20
76.22677328928505
 10
19.07624531010428
 20
77.29040699753827
 10
20.19512090916957
 20
78.33458329475104
 10
21.46908590805272
 20
79.36154746229565
 10
22.900000000000002
 20
80.37354478154437
 10
24.3828817968748
 20
81.30488225649589
 10
26.016343173693823
 20
82.226002273565
 10
27.791743743106682
 20
83.133054846682
 10
29.700443117762987
 20
84.02218998977719
 10
31.73380091031234
 20
84.88955771678084
 10
33.883176733404355
 20
85.73130804162325
 10
36.139930199688635
 20
86.54359097823473
 10
38.4954209218148
 20
87.32255654054556
 10
39.14128371839382
 20
87.5235798429177
 10
39.87732689923991
 20
87.74645288110665
 10
40.685527198473714
 20
87.98620171363052
 10
41.54786135021589
 20
88.23785239900738
 10
45.17807116468124
 20
89.26399483940611
 10
46.04072559077499
 20
89.500545666819
 10
46.849374274101
 20
89.71915469819332
 10
47.58599394877993
 20
89.91484799204716
 10
48.232561348932414
 20
90.08265160689858
 10
48.77105320867911
 20
90.21759160126565
 10
49.18344626214067
 20
90.31469403366647
 10
49.45171724343774
 20
90.36898496261908
 10
49.526174686437294
 20
90.37852175658922
 10
49.55784288669097
 20
90.37549044664159
 10
49.558611115023695
 20
90.31299214572539
 10
49.52915605404249
 20
90.17437027640227
 10
49.474648426500934
 20
89.98012404709249
 10
49.400258955152644
 20
89.75075266621621
 10
49.32250215772229
 20
89.51809326733986
 10
49.258826068076104
 20
89.31489451377243
 10
49.21580168318003
 20
89.163022908548
 10
49.20000000000002
 20
89.0843449547007
 10
49.25917968750001
 20
89.05159539025831
 10
49.42031250000001
 20
89.02477633044333
 10
49.658789062500006
 20
89.00665534408185
 10
49.95
 20
89.0
 10
50.7
 20
89.0
 10
50.7
 20
88.60000000000001
 10
50.707509229397886
 20
88.39020295281202
 10
50.73877461172769
 20
88.26972643905223
 10
50.80690268819365
 20
88.21553825885559
 10
50.925000000000004
 20
88.20460621235702
 10
51.022243652343754
 20
88.20826394571141
 10
51.213574218750004
 20
88.21695841921985
 10
51.48760986328126
 20
88.23012163694618
 10
51.832968750000006
 20
88.24718560295422
 10
52.23826904296875
 20
88.26758232130781
 10
52.692128906250005
 20
88.29074379607079
 10
53.7
 20
88.3430890310802
 10
54.69214305186795
 20
88.39329616827966
 10
55.12756918289387
 20
88.41395172890151
 10
55.50847933170642
 20
88.43103280795329
 10
55.82430920909958
 20
88.44408254824637
 10
56.06449452586735
 20
88.45264409259211
 10
56.21847099280373
 20
88.45626058380192
 10
56.2756743207027
 20
88.45447516468715
 10
56.24867199107951
 20
88.44012901338861
 10
56.161312626170094
 20
88.40774608556453
 10
56.01995364784944
 20
88.35939369030244
 10
55.830952477992554
 20
88.2971391366899
 10
55.335453251170094
 20
88.13919279076363
 10
54.725674320702694
 20
87.95044552048606
 10
52.37851242078281
 20
87.21245804992225
 10
50.11403058505917
 20
86.4582789503184
 10
47.93020343998107
 20
85.6871260786206
 10
45.825005611997845
 20
84.89821729177486
 10
43.796411727558805
 20
84.09077044672728
 10
41.84239641311328
 20
83.26400340042387
 10
39.96093429511056
 20
82.41713400981074
 10
38.15
 20
81.54938013183391
 10
36.99990009591743
 20
80.96719780490626
 10
35.91237385512385
 20
80.38910642739323
 10
34.887384761214435
 20
79.81507641809499
 10
33.92489629778436
 20
79.24507819581174
 10
33.024871948428796
 20
78.67908217934367
 10
32.187275196742924
 20
78.11705878749095
 10
31.41206952632193
 20
77.55897843905377
 10
30.699218420760978
 20
77.00481155283231
 10
30.048685363655256
 20
76.45452854762677
 10
29.46043383859994
 20
75.9080998422373
 10
28.9344273291902
 20
75.36549585546413
 10
28.470629319021224
 20
74.82668700610742
 10
28.069003291688183
 20
74.29164371296734
 10
27.729512730786254
 20
73.7603363948441
 10
27.45212111991062
 20
73.23273547053788
 10
27.236791942656453
 20
72.70881135884883
 10
27.149505633137565
 20
72.41164826094618
 10
27.081525795620426
 20
72.0760441991681
 10
27.005588844525
 20
71.33557321347737
 10
27.013187705237407
 20
70.57951846076018
 10
27.108528993624873
 20
69.9
 10
27.27180913044072
 20
69.36792391672556
 10
27.51802261464839
 20
68.8339256141151
 10
27.849267385965646
 20
68.29551278516156
 10
28.26764138411024
 20
67.75019312285787
 10
28.775242548799934
 20
67.19547432019694
 10
29.37416881975248
 20
66.6288640701717
 10
30.06651813668563
 20
66.04787006577507
 10
30.854388439317145
 20
65.45
 10
31.629967639197528
 20
64.88029405659107
 10
32.33505571548949
 20
64.34708619632184
 10
32.973891920341075
 20
63.845294546792694
 10
33.55071550590034
 20
63.36983723560399
 10
34.069765724315324
 20
62.91563239035609
 10
34.53528182773408
 20
62.47759813864935
 10
34.951503068304646
 20
62.05065260808415
 10
35.32266869817508
 20
61.62971392626084
 10
35.946790134407706
 20
60.78552961924135
 10
36.44156015361635
 20
59.9043902383938
 10
36.84089277298537
 20
58.945640804521084
 10
37.17870200969916
 20
57.868626338426104
 10
37.26460122125457
 20
57.4265952187492
 10
37.32304243885244
 20
56.84870770981689
 10
37.354484494758964
 20
56.17622226652512
 10
37.35938622124038
 20
55.45039734376984
 10
37.291404014992764
 20
54.00376287945255
 10
37.219437746796174
 20
53.36547024768244
 10
37.12276647823936
 20
52.83887195603261
 10
36.70960326643544
 20
51.394040091491036
 10
36.17521218566979
 20
50.045150595803285
 10
35.50608771958674
 20
48.774318366879555
 10
35.11677999319002
 20
48.16258463305113
 10
34.68872435183056
 20
47.56365830263004
 10
34.2202326059639
 20
46.97530373785505
 10
33.70961656604557
 20
46.395285300964936
 10
33.15518804253111
 20
45.821367354198486
 10
32.55525884587605
 20
45.251314259794455
 10
31.908140786535938
 20
44.68289037999163
 10
31.212145674966305
 20
44.11386007702878
 10
30.46558532162269
 20
43.54198771314469
 10
29.66677153696063
 20
42.965037650578125
 10
28.826998021848333
 20
42.393658310440834
 10
27.938848332450995
 20
41.82503316467466
 10
26.04224004236578
 20
40.70741148558396
 10
24.02658588983414
 20
39.63490467196263
 10
21.941525097985235
 20
38.63024478246724
 10
19.836696889948215
 20
37.716163875754376
 10
17.76174048885223
 20
36.91539401048063
 10
16.75097647313499
 20
36.56460448671362
 10
15.766295117826441
 20
36.250667245302594
 10
14.813901325817731
 20
35.97642379357965
 10
13.9
 20
35.74471563887685
 10
12.825048650754502
 20
35.54238413976205
 10
12.288473588119793
 20
35.47229270306887
 10
11.7887958844495
 20
35.42556124978372
 10
11.353238252972915
 20
35.40417261103051
 10
11.009023406919326
 20
35.41010961793316
 10
10.783374059518025
 20
35.44535510161558
 10
10.723518545696137
 20
35.47458815697543
  0
LWPOLYLINE
  5
3A
330
17
100
AcDbEntity
  8
C00_ED1C24
100
AcDbPolyline
 90
56
 70
1
 10
110.66693638457456
 20
42.347547156594786
 10
111.48967202456235
 20
43.06444528169672
 10
112.2214317937083
 20
43.82520386940512
 10
112.86123327192693
 20
44.62812735369198
 10
113.40809403913279
 20
45.471520168529274
 10
113.8610316752404
 20
46.353686747888986
 10
114.2190637601643
 20
47.272931525743104
 10
114.48120787381902
 20
48.2275589360636
 10
114.64648159611907
 20
49.21587341282247
 10
114.67392118055254
 20
49.64259395643186
 10
114.6579418321034
 20
50.064333008190026
 10
114.60018545834231
 20
50.478946748845004
 10
114.50229396683991
 20
50.88429135914484
 10
114.19267326089376
 20
51.6585979116712
 10
113.74221497483015
 20
52.37010211175342
 10
113.16405436921427
 20
53.00165340537579
 10
112.4713267046113
 20
53.53610123852262
 10
111.67716724158645
 20
53.956295057178195
 10
111.24615535459243
 20
54.11818716294186
 10
110.79471124070488
 20
54.24508430732682
 10
110.48506102729083
 20
54.299826218890246
 10
110.08984040312282
 20
54.34327378549538
 10
109.1857012761593
 20
54.392714532285574
 10
108.74828945018102
 20
54.396922036698044
 10
108.36832056708316
 20
54.38626384460704
 10
108.08154796527435
 20
54.35984711812627
 10
107.92372498316318
 20
54.31677901936943
 10
107.89060702045704
 20
54.26891742800716
 10
107.86745847138462
 20
54.1650629875393
 10
107.85437328917007
 20
53.99230897981061
 10
107.85144542703752
 20
53.737748686665846
 10
107.85876883821109
 20
53.38847538994976
 10
107.87643747591495
 20
52.931582371507105
 10
107.90454529337323
 20
52.35416291318265
 10
107.94318624381006
 20
51.643310296821134
 10
107.97580398897716
 20
51.04276935145384
 10
108.01269472658336
 20
50.328642158133555
 10
108.05258903147899
 20
49.52756143487458
 10
108.09421747851437
 20
48.66615989969121
 10
108.1775990984058
 20
46.86892526560855
 10
108.21681342096254
 20
45.98635760273786
 10
108.25268418506039
 20
45.150000000000006
 10
108.28641535828027
 20
44.363900367496385
 10
108.31949755195701
 20
43.62537349012955
 10
108.35109130657197
 20
42.95095239811555
 10
108.38035716260644
 20
42.3571701216704
 10
108.40645566054177
 20
41.86055969101016
 10
108.42854734085927
 20
41.477654136350864
 10
108.44579274404028
 20
41.224986487908545
 10
108.4573524105661
 20
41.11908977589924
 10
108.53102226457862
 20
41.08381924706861
 10
108.69487329696875
 20
41.12046614022718
 10
108.93274751036746
 20
41.22004713029715
 10
109.22848690740577
 20
41.3735788922007
 10
109.56593349071463
 20
41.57207810086005
 10
109.92892926292507
 20
41.80656143119737
  0
LWPOLYLINE
  5
3B
330
17
100
AcDbEntity
  8
C00_ED1C24
100
AcDbPolyline
 90
190
 70
1
 10
173.35754506999712
 20
48.00845732895343
 10
173.41537542752118
 20
48.222341567670725
 10
173.48535727756024
 20
48.47750989389949
 10
173.65106352528306
 20
49.07344747753099
 10
173.83323995336525
 20
49.71976741712719
 10
174.01046270200655
 20
50.3399670499673
 10
174.41677693793557
 20
51.75
 10
175.07111671784514
 20
52.41212618596146
 10
175.71523196477173
 20
53.12947922903498
 10
175.97697664601642
 20
53.47434905860236
 10
176.19576034478027
 20
53.80549079484938
 10
176.36951879531188
 20
54.1195117137705
 10
176.49618773185995
 20
54.413019091360134
 10
176.57370288867313
 20
54.682620203612714
 10
176.60000000000002
 20
54.924922326522676
 10
176.57205783806936
 20
55.02860949135821
 10
176.49597769419873
 20
55.16671823921733
 10
176.3833790812702
 20
55.321228071057014
 10
176.24588151216582
 20
55.47411848783421
 10
175.8917630243316
 20
55.82823697566843
 10
176.63107581363707
 20
56.78911848783421
 10
177.23027047501077
 20
57.58733558192044
 10
177.76524199240998
 20
58.34017586212574
 10
178.2330522137119
 20
59.042621751567154
 10
178.63076298679368
 20
59.689655673361706
 10
178.95543615953255
 20
60.27626005062643
 10
179.20413357980564
 20
60.79741730647838
 10
179.37391709549016
 20
61.24810986403456
 10
179.46184855446327
 20
61.62332014641203
 10
179.45930501679493
 20
61.998473103566454
 10
179.33858761368518
 20
62.27336827767829
 10
179.10417318411572
 20
62.442409349553984
 10
178.76053856706838
 20
62.5
 10
178.42107713413677
 20
62.5
 10
179.13042568583236
 20
63.675000000000004
 10
179.94600766929656
 20
65.14526737645882
 10
180.65287818700426
 20
66.67573165107912
 10
181.2544605674455
 20
68.27458010015987
 10
181.75417813911037
 20
69.95
 10
182.04007873386269
 20
71.16569799160538
 10
182.2778406060648
 20
72.4343404360491
 10
182.46498240258023
 20
73.7263196795398
 10
182.59902277027248
 20
75.0120280682861
 10
182.67748035600502
 20
76.26185794849664
 10
182.6978738066414
 20
77.44620166638005
 10
182.6577217690451
 20
78.53545156814496
 10
182.55454289007963
 20
79.5
 10
182.39569160985354
 20
80.36944307152606
 10
182.18958067550207
 20
81.20666581794764
 10
181.93890336575487
 20
82.00837422117206
 10
181.64635295934153
 20
82.77127426310673
 10
181.31462273499167
 20
83.49207192565898
 10
180.94640597143487
 20
84.16747319073617
 10
180.54439594740077
 20
84.79418404024568
 10
180.11128594161897
 20
85.36891045609487
 10
179.64976923281907
 20
85.8883584201911
 10
179.16253909973068
 20
86.34923391444171
 10
178.6522888210834
 20
86.74824292075408
 10
178.12171167560686
 20
87.08209142103559
 10
177.57350094203068
 20
87.34748539719355
 10
177.01034989908442
 20
87.54113083113538
 10
176.43495182549773
 20
87.65973370476841
 10
175.8500000000002
 20
87.7
 10
175.19606253675065
 20
87.65349112533957
 10
174.54833062021265
 20
87.51152314402137
 10
173.90072146144786
 20
87.27043402004006
 10
173.24715227151805
 20
86.9265617173903
 10
172.58154026148492
 20
86.47624420006676
 10
171.89780264241014
 20
85.91581943206408
 10
171.1898566253555
 20
85.24162537737695
 10
170.45161942138267
 20
84.45
 10
170.18549294634818
 20
84.15
 10
170.24474840720424
 20
84.97094799695347
 10
170.32141265835892
 20
85.6231309288836
 10
170.45775227537962
 20
86.26308413095674
 10
170.656210346846
 20
86.89602168519265
 10
170.91922996133772
 20
87.52715767361104
 10
171.2492542074345
 20
88.16170617823168
 10
171.64872617371594
 20
88.8048812810743
 10
172.12008894876178
 20
89.46189706415863
 10
172.66578562115163
 20
90.13796760950443
 10
172.92616026668884
 20
90.44816102145334
 10
173.2032307762133
 20
90.78417890899121
 10
173.463882302919
 20
91.10553766641651
 10
173.675
 20
91.3717536880277
 10
173.93554195737542
 20
91.76697555512222
 10
174.07291485034443
 20
92.11137787981085
 10
174.09524555583812
 20
92.39460353929783
 10
174.01066095078747
 20
92.60629541078744
 10
173.82728791212355
 20
92.73609637148391
 10
173.55325331677744
 20
92.77364929859148
 10
173.1966840416802
 20
92.70859706931441
 10
172.76570696376282
 20
92.53058256085694
 10
172.65159171084107
 20
92.47788331346497
 10
172.55104056494582
 20
92.44182781624576
 10
172.47493281303846
 20
92.42563378226447
 10
172.4341477420805
 20
92.43251892458622
 10
172.43891794769104
 20
92.49309481998343
 10
172.4868468399058
 20
92.62308848001945
 10
172.5698699273113
 20
92.80339076994588
 10
172.67992271849388
 20
93.0148925550143
 10
172.75465236684192
 20
93.15197907985176
 10
172.8550352463384
 20
93.33707880513766
 10
173.1152011810906
 20
93.81874968803545
 10
173.42530148737862
 20
94.39476886566909
 10
173.7502171298304
 20
95.0
 10
174.0358085808687
 20
95.5304054054524
 10
174.29492101522217
 20
96.00538152051233
 10
174.53105050727606
 20
96.4295370261607
 10
174.74769313141567
 20
96.8074806033784
 10
175.1365020734928
 20
97.44316669644539
 10
175.4893164365355
 20
97.94930924756052
 10
175.83410481562566
 20
98.36277770457099
 10
176.1988358058452
 20
98.720441515324
 10
176.61147800227602
 20
99.05917012766675
 10
177.10000000000002
 20
99.41583298944644
 10
178.01901048579253
 20
100.01627769779756
 10
178.98361927434786
 20
100.55729267349827
 10
179.97634714488566
 20
101.0325182579602
 10
180.97971487662565
 20
101.43559479259507
 10
181.9762432487874
 20
101.76016261881452
 10
182.9484530405906
 20
101.99986207803023
 10
183.87886503125492
 20
102.14833351165387
 10
184.75
 20
102.19921726109712
 10
185.49593807332798
 20
102.15938981764705
 10
186.29957141057534
 20
102.0441286978835
 10
187.1413859386158
 20
101.85968924298672
 10
188.00186758432298
 20
101.61232679413708
 10
188.8615022745705
 20
101.30829669251487
 10
189.7007759362321
 20
100.9538542793004
 10
190.50017449618136
 20
100.55525489567401
 10
191.24018388129196
 20
100.118753882816
 10
191.59877418778052
 20
99.87416403002139
 10
191.9910036331018
 20
99.58291805072241
 10
192.81379014711524
 20
98.91405430316084
 10
193.583363837078
 20
98.21935582123042
 10
193.90907725233586
 20
97.89581642397036
 10
194.17454511673566
 20
97.60601578603026
 10
195.0261266689572
 20
96.52668255123241
 10
195.7689345375201
 20
95.39971341019613
 10
196.40575030925484
 20
94.21774753273813
 10
196.93935557099195
 20
92.97342408867515
 10
197.37253190956196
 20
91.65938224782386
 10
197.70806091179537
 20
90.26826118000102
 10
197.94872416452276
 20
88.79270005502333
 10
198.0973032545746
 20
87.2253380427075
 10
198.1444559798961
 20
86.02957970281015
 10
198.13322899107618
 20
84.82672385487992
 10
198.06362703407424
 20
83.6167856709875
 10
197.93565485484964
 20
82.3997803232036
 10
197.74931719936177
 20
81.17572298359893
 10
197.50461881357
 20
79.9446288242442
 10
197.20156444343374
 20
78.70651301721014
 10
196.84015883491236
 20
77.46139073456743
 10
196.42040673396522
 20
76.2092771483868
 10
195.94231288655175
 20
74.95018743073895
 10
195.4058820386313
 20
73.68413675369459
 10
194.81111893616324
 20
72.41114028932444
 10
194.15802832510698
 20
71.13121320969918
 10
193.4466149514219
 20
69.84437068688956
 10
192.6768835610674
 20
68.55062789296626
 10
191.84883890000282
 20
67.25
 10
191.13053007803686
 20
66.1893656468978
 10
190.33790318071235
 20
65.07726673801025
 10
189.48680060967413
 20
63.9337933993457
 10
188.59306476656707
 20
62.77903575691246
 10
186.7410628707258
 20
60.516028064773224
 10
185.81448162128132
 20
59.44795826708388
 10
184.90863670634738
 20
58.448964669659155
 10
184.08364794168563
 20
57.565750721618315
 10
183.30481684833066
 20
56.74129648413501
 10
182.56331313876274
 20
55.9665837597277
 10
181.8503065254622
 20
55.23259435091481
 10
180.47446343758443
 20
53.850712690146096
 10
179.10664528453978
 20
52.52350592197643
 10
178.24886909573607
 20
51.71138575512687
 10
177.30851908314077
 20
50.831779177019854
 10
176.34383817147904
 20
49.93792842349494
 10
175.41306928547607
 20
49.08307573039166
 10
174.9786027660732
 20
48.686911855198005
 10
174.57445534985698
 20
48.32046333354959
 10
174.20790740241802
 20
47.99038544492637
 10
173.88623928934695
 20
47.703333468808275
 10
173.61673137623444
 20
47.46596268467526
 10
173.40666402867114
 20
47.28492837200727
 10
173.26331761224768
 20
47.16688581028424
 10
173.19397249255468
 20
47.11849027898612
 10
173.18119173172738
 20
47.17896592158394
 10
173.20777172449024
 20
47.3669203399958
 10
173.26834524564592
 20
47.65315149039465
  0
LWPOLYLINE
  5
3C
330
17
100
AcDbEntity
  8
C00_ED1C24
100
AcDbPolyline
 90
485
 70
1
 10
42.63035382719423
 20
48.970615584378585
 10
42.614430042197775
 20
49.08458469989941
 10
42.59999520574355
 20
49.26390000200659
 10
42.58733516505781
 20
49.49941753118292
 10
42.57673576736683
 20
49.78199332791121
 10
42.562862289874204
 20
50.451743885954876
 10
42.56066155107581
 20
51.2
 10
42.63674699802662
 20
53.18703333081225
 10
42.74072198448654
 20
54.25938633579256
 10
42.81435304779083
 20
54.85023639711467
 10
42.904379064222084
 20
55.490855297253674
 10
43.01227446358835
 20
56.19123288590625
 10
43.139513675697685
 20
56.961359012769094
 10
43.28757113035815
 20
57.811223527538885
 10
43.457921257377805
 20
58.750816279912314
 10
43.6520384865647
 20
59.790127119586074
 10
43.87139724772688
 20
60.939145896256846
 10
44.117471970672426
 20
62.207862459621325
 10
44.39173708520937
 20
63.60626665937619
 10
44.567827448185724
 20
64.5036495490428
 10
44.72680233719793
 20
65.32142603819551
 10
44.86945581292967
 20
66.06459324745343
 10
44.99658193606464
 20
66.73814829743566
 10
45.10897476728654
 20
67.34708830876127
 10
45.20742836727905
 20
67.89641040204941
 10
45.29273679672586
 20
68.39111169791914
 10
45.36569411631068
 20
68.8361893169896
 10
45.42709438671717
 20
69.23664037987986
 10
45.477731668629055
 20
69.59746200720903
 10
45.54989350970371
 20
70.22020543766052
 10
45.588532125004186
 20
70.7443965732969
 10
45.6
 20
71.21001237907095
 10
45.595384402242885
 20
71.57414360880831
 10
45.578092123889306
 20
71.85750455687875
 10
45.5429549373159
 20
72.06868733601769
 10
45.4848046148993
 20
72.21628405896053
 10
45.39847292901618
 20
72.30888683844267
 10
45.278791652043154
 20
72.35508778719952
 10
45.12059255635688
 20
72.3634790179665
 10
44.918707414334
 20
72.342652643479
 10
44.65977399324953
 20
72.29047047722793
 10
44.33812076312462
 20
72.19925950608989
 10
43.95122834194988
 20
72.06802565813359
 10
43.496577347715906
 20
71.8957748614277
 10
42.97164839841333
 20
71.68151304404091
 10
42.373922112032744
 20
71.42424613404191
 10
41.70087910656476
 20
71.12298005949938
 10
40.95
 20
70.77672074848202
 10
40.30903584985015
 20
70.47212777198057
 10
39.54955762504808
 20
70.1024984383462
 10
38.71346009865561
 20
69.68895229516437
 10
37.842638043734524
 20
69.25260889002051
 10
36.978986233346625
 20
68.81458777050005
 10
36.1643994405537
 20
68.39600848418846
 10
35.44077243841757
 20
68.01799057867115
 10
35.126160975427595
 20
67.8507920023308
 10
34.85
 20
67.70165360153358
 10
34.3311081560552
 20
67.41948457382763
 10
33.878044127264786
 20
67.17507556934517
 10
33.491842840900816
 20
66.9689647208915
 10
33.17353922423536
 20
66.80169016127195
 10
32.92416820454049
 20
66.67379002329184
 10
32.744764709088265
 20
66.58580243975646
 10
32.636363665150746
 20
66.53826554347114
 10
32.6
 20
66.5317174672412
 10
32.64684405650535
 20
66.58375991622334
 10
32.78110046725514
 20
66.71653115501418
 10
32.993355594099974
 20
66.92110302925593
 10
33.274195798890446
 20
67.18854738459083
 10
33.61420744347715
 20
67.50993606666114
 10
34.00397688971069
 20
67.87634092110905
 10
34.434090499441666
 20
68.27883379357681
 10
34.89513463452067
 20
68.70848652970665
 10
35.355496399825206
 20
69.13796049993451
 10
35.78365431819298
 20
69.53994102419513
 10
36.17033187841491
 20
69.905535872379
 10
36.506252569281926
 20
70.22585281437662
 10
36.78213987958495
 20
70.49199962007843
 10
36.988717298114906
 20
70.69508405937493
 10
37.11670831366271
 20
70.8262139021566
 10
37.1568364150193
 20
70.8764969183139
 10
37.10385807101703
 20
70.88018461207531
 10
36.977238828396004
 20
70.87020255833382
 10
36.79178110676915
 20
70.84865431901616
 10
36.5622873257494
 20
70.81764345604908
 10
36.030401263982924
 20
70.73564810687358
 10
35.5
 20
70.6410450062212
 10
35.37453482659491
 20
70.62242014095939
 10
35.3447779295926
 20
70.64341860614469
 10
35.41763206779399
 20
70.71960644765934
 10
35.6
 20
70.8665497113856
 10
35.893404720772324
 20
71.11028915081964
 10
36.22775979647678
 20
71.41146717618625
 10
36.95446229378565
 20
72.12008572521931
 10
37.65039005413364
 20
72.86029883948912
 10
37.94627670863701
 20
73.20097007140166
 10
38.185825639727796
 20
73.5
 10
38.656922813509716
 20
74.18543365933124
 10
39.104115141453335
 20
74.94430919926397
 10
39.47281821087438
 20
75.67684908077686
 10
39.61067864467511
 20
76.0020626686817
 10
39.708447609088594
 20
76.2832757648486
 10
39.801070776276106
 20
76.53624201588867
 10
39.95413363889575
 20
76.72334438479476
 10
40.080998266109425
 20
76.81547014099677
 10
40.256174789321314
 20
76.91905815972433
 10
40.49073053257812
 20
77.04341785199715
 10
40.795732819926585
 20
77.1978586288349
 10
41.33937450987538
 20
77.46141232624093
 10
41.99867664343921
 20
77.76533632544347
 10
42.7610084115236
 20
78.10456135884203
 10
43.613739005034056
 20
78.47401815883616
 10
44.5442376148761
 20
78.86863745782539
 10
45.53987343195524
 20
79.28334998820924
 10
46.588015647176995
 20
79.71308648238727
 10
47.67603345144687
 20
80.15277767275899
 10
52.174244377117894
 20
81.90970404417358
 10
53.272177990211105
 20
82.32312970150683
 10
54.33420233778551
 20
82.71609444943097
 10
55.34768661074664
 20
83.08352902034555
 10
56.300000000000004
 20
83.42036414665012
 10
60.216828183859704
 20
84.76405201157505
 10
64.02913260425838
 20
86.02733013010709
 10
67.75343262736956
 20
87.21514014779898
 10
71.40624761936674
 20
88.33242371020343
 10
75.00409694642343
 20
89.38412246287318
 10
78.56349997471315
 20
90.37517805136096
 10
82.10097607040942
 20
91.3105321212195
 10
85.6330445996857
 20
92.1951263180015
 10
88.53549103106877
 20
92.88151805564658
 10
91.4614115612931
 20
93.533983337724
 10
94.39246235107657
 20
94.14994834800336
 10
97.31029956113701
 20
94.7268392702543
 10
100.19657935219232
 20
95.26208228824642
 10
103.0329578849603
 20
95.75310358574932
 10
105.80109132015886
 20
96.19732934653261
 10
108.48263581850583
 20
96.59218575436593
 10
111.05924754071907
 20
96.93509899301888
 10
113.51258264751645
 20
97.22349524626108
 10
114.68728902035852
 20
97.34644518578114
 10
115.82429729961582
 20
97.45480069786213
 10
116.92131450537808
 20
97.54824005547522
 10
117.97604765773504
 20
97.62644153159164
 10
118.98620377677642
 20
97.68908339918258
 10
119.94948988259196
 20
97.73584393121925
 10
120.86361299527138
 20
97.76640140067283
 10
121.72628013490444
 20
97.78043408051454
 10
122.53519832158085
 20
97.77762024371557
 10
123.28807457539034
 20
97.75763816324715
 10
123.98261591642266
 20
97.72016611208045
 10
124.61652936476753
 20
97.66488236318668
 10
126.10185665664613
 20
97.46500189357774
 10
127.56093948728481
 20
97.18884691427095
 10
128.96852244980718
 20
96.8448784984228
 10
130.2993501373368
 20
96.44155771918975
 10
131.52816714299732
 20
95.98734564972825
 10
132.62971805991228
 20
95.49070336319483
 10
133.12487642044132
 20
95.22911497388753
 10
133.5787474812053
 20
94.96009193274593
 10
133.98817431634473
 20
94.68469187391456
 10
134.35
 20
94.40397243153801
 10
134.75462245111567
 20
94.04638889056983
 10
135.1166791915463
 20
93.68836071317295
 10
135.43648959594958
 20
93.32853783288267
 10
135.71437303898324
 20
92.96557018323425
 10
135.950648895305
 20
92.59810769776298
 10
136.1456365395725
 20
92.22480031000414
 10
136.29965534644353
 20
91.84429795349301
 10
136.41302469057575
 20
91.45525056176488
 10
136.48606394662687
 20
91.05630806835502
 10
136.51909248925463
 20
90.64612040679872
 10
136.51242969311667
 20
90.22333751063125
 10
136.46639493287077
 20
89.7866093133879
 10
136.3813075831746
 20
89.33458574860396
 10
136.25748701868588
 20
88.8659167498147
 10
136.09525261406228
 20
88.3792522505554
 10
135.89492374396156
 20
87.87324218436135
 10
135.60885619616434
 20
87.27099679892031
 10
135.27029782017206
 20
86.6862199445157
 10
134.88034812465978
 20
86.11967384837946
 10
134.4401066183026
 20
85.5721207377436
 10
133.95067280977557
 20
85.04432283984005
 10
133.4131462077538
 20
84.53704238190079
 10
132.82862632091238
 20
84.05104159115778
 10
132.19821265792635
 20
83.587082694843
 10
131.52300472747083
 20
83.14592792018841
 10
130.80410203822086
 20
82.72833949442598
 10
130.04260409885157
 20
82.33507964478767
 10
129.239610418038
 20
81.96691059850545
 10
128.39622050445524
 20
81.62459458281128
 10
127.51353386677839
 20
81.30889382493714
 10
126.59265001368252
 20
81.020570552115
 10
125.63466845384269
 20
80.76038699157681
 10
125.25637570650495
 20
80.66969224157887
 10
124.82840640848258
 20
80.57456626459565
 10
123.93291079924315
 20
80.39207688654754
 10
123.5201208074557
 20
80.31524161391981
 10
123.16712690384281
 20
80.25503137118108
 10
122.90129724811932
 20
80.21671022254989
 10
122.75
 20
80.20554223224484
 10
122.7574658203125
 20
80.22052419572684
 10
122.8176953125
 20
80.26155888716626
 10
122.92556152343751
 20
80.325813400924
 10
123.07593750000001
 20
80.41045483136092
 10
123.4837109375
 20
80.62956681971579
 10
124.0
 20
80.89623160711785
 10
124.53218032128623
 20
81.17603907426906
 10
124.74898784423526
 20
81.29744772082631
 10
124.92826697265356
 20
81.4036554151845
 10
125.06651272949017
 20
81.49250898670354
 10
125.16022013769411
 20
81.5618552647433
 10
125.20588422021437
 20
81.60954107866367
 10
125.2
 20
81.63341325782454
 10
125.11163928151066
 20
81.66264556363305
 10
124.98193806780208
 20
81.70424521524868
 10
124.82834277151336
 20
81.75266829104211
 10
124.66829980528367
 20
81.80237086938406
 10
124.52280010943242
 20
81.85072535150978
 10
124.40880282655041
 20
81.89547786829857
 10
124.33770667268374
 20
81.93164509258733
 10
124.32091036387851
 20
81.95424369721292
 10
124.36035235665877
 20
81.97361570301335
 10
124.46007060728486
 20
82.01581279478461
 10
124.61338330279614
 20
82.07818636269103
 10
124.8136086302319
 20
82.15808779689695
 10
125.32806992903417
 20
82.35987982486463
 10
125.95000000000624
 20
82.6000000000024
 10
126.57226218314307
 20
82.84045228730595
 10
127.08762774774046
 20
83.04314858107158
 10
127.28847660754494
 20
83.12367354764815
 10
127.44250408406425
 20
83.18676189656485
 10
127.54301110108163
 20
83.22974775472984
 10
127.58329858238031
 20
83.24996524905134
 10
127.58195830719019
 20
83.28780840429266
 10
127.54983402258131
 20
83.36237167778177
 10
127.49243866819833
 20
83.46287390938122
 10
127.41528518368591
 20
83.5785339389536
 10
127.20875208543399
 20
83.86858292928824
 10
128.079376042717
 20
84.1104892091873
 10
128.95000000000002
 20
84.35239548908638
 10
129.0
 20
85.10119774454319
 10
129.01708235570766
 20
85.34763761372908
 10
129.03367076986413
 20
85.53341844468719
 10
129.05382187671535
 20
85.66755873534825
 10
129.08159231050726
 20
85.75907698364303
 10
129.17621769589675
 20
85.85032134485672
 10
129.35
 20
85.87929951177426
 10
129.5380848613028
 20
85.90029874019079
 10
129.67586673604103
 20
85.92500815916867
 10
129.76519444745412
 20
85.95865314551321
 10
129.80791681878137
 20
86.00645907602969
 10
129.8058826732622
 20
86.0736513275234
 10
129.760940834136
 20
86.16545527679965
 10
129.6749401246421
 20
86.28709630066375
 10
129.5497293680199
 20
86.44379977592098
 10
129.185358910355
 20
86.8884659003284
 10
129.6176794551775
 20
87.10830837036883
 10
130.25779023335974
 20
87.47059111516725
 10
130.8404495716905
 20
87.87529409612266
 10
131.36127001886805
 20
88.31731310019498
 10
131.81586412359067
 20
88.79154391434416
 10
132.1998444345566
 20
89.29288232553013
 10
132.50882350046416
 20
89.81622412071282
 10
132.73841387001158
 20
90.35646508685217
 10
132.88422809189717
 20
90.90850101090811
 10
132.92867313277767
 20
91.2917049675638
 10
132.9155710175097
 20
91.65162736534923
 10
132.84360043137184
 20
91.98898009858667
 10
132.71144005964265
 20
92.30447506159842
 10
132.51776858760076
 20
92.59882414870678
 10
132.26126470052472
 20
92.87273925423405
 10
131.94060708369307
 20
93.1269322725025
 10
131.55447442238443
 20
93.36211509783443
 10
131.1015454018774
 20
93.57899962455214
 10
130.5804987074505
 20
93.77829774697793
 10
129.9900130243823
 20
93.96072135943406
 10
129.32876703795145
 20
94.12698235624285
 10
128.59543943343647
 20
94.27779263172658
 10
127.78870889611596
 20
94.41386408020756
 10
126.9072541112685
 20
94.53590859600807
 10
125.94975376417266
 20
94.6446380734504
 10
123.90490630224218
 20
94.82236391114306
 10
121.9342015603566
 20
94.92974655791672
 10
120.05816811246348
 20
94.9675733677954
 10
118.29733453251039
 20
94.93663169480314
 10
117.46653287236997
 20
94.8956187253629
 10
116.67222939444491
 20
94.83770889296395
 10
115.91699017047864
 20
94.76300061685926
 10
115.20338127221463
 20
94.67159231630185
 10
114.53396877139629
 20
94.56358241054474
 10
113.9113187397671
 20
94.4390693188409
 10
113.3379972490705
 20
94.29815146044335
 10
112.81657037104992
 20
94.1409272546051
 10
112.35809311674318
 20
93.97107780800202
 10
111.96962169987496
 20
93.7868195483362
 10
111.64119272047144
 20
93.57787058053802
 10
111.36284277855871
 20
93.33394900953789
 10
111.12460847416291
 20
93.0447729402662
 10
110.91652640731019
 20
92.70006047765334
 10
110.72863317802663
 20
92.28952972662971
 10
110.55096538633839
 20
91.8028987921257
 10
110.36856497596068
 20
91.21600009598419
 10
110.1978437506683
 20
90.58495774373452
 10
110.03861911676186
 20
89.90800374883786
 10
109.89070848054205
 20
89.18337012475534
 10
109.75392924830948
 20
88.4092888849481
 10
109.6280988263648
 20
87.58399204287726
 10
109.51303462100869
 20
86.70571161200398
 10
109.40855403854175
 20
85.77267960578939
 10
109.31447448526467
 20
84.78312803769462
 10
109.23061336747806
 20
83.73528892118082
 10
109.15678809148258
 20
82.62739426970913
 10
109.0928160635789
 20
81.45767609674067
 10
109.03851469006761
 20
80.2243664157366
 10
108.99370137724941
 20
78.92569724015802
 10
108.95819353142493
 20
77.5599005834661
 10
108.9318085588948
 20
76.12520845912198
 10
108.86890103095526
 20
71.90041691824393
 10
108.33409953628819
 20
71.73183559804951
 10
107.79929804162111
 20
71.56325427785508
 10
107.51917713469912
 20
71.83162713892754
 10
107.28940477612136
 20
72.0255032708332
 10
107.12020780670515
 20
72.07961777755978
 10
106.97070121761115
 20
71.98933018023835
 10
106.80000000000001
 20
71.75
 10
106.708212116099
 20
71.6141015625
 10
106.61819943161373
 20
71.5028125
 10
106.5403024259935
 20
71.4276171875
 10
106.48486157868763
 20
71.4
 10
106.41208320099513
 20
71.42367187500001
 10
106.28698004828256
 20
71.48812500000001
 10
106.12710226610062
 20
71.583515625
 10
105.95
 20
71.7
 10
105.77367725968226
 20
71.816484375
 10
105.61592194869131
 20
71.911875
 10
105.49396005334141
 20
71.976328125
 10
105.42501755994681
 20
72.0
 10
105.37024804667195
 20
71.94279296875
 10
105.28687594867776
 20
71.78703125
 10
105.18623353777328
 20
71.55650390625
 10
105.0796530857675
 20
71.275
 10
104.82323599820364
 20
70.55
 10
104.07167880486469
 20
70.57750639435415
 10
103.6871645060756
 20
70.58049200034992
 10
103.36914627532315
 20
70.55487607427911
 10
103.08373949572884
 20
70.49590895541698
 10
102.7970595504142
 20
70.39884098303881
 10
102.58968140414795
 20
70.32307129196843
 10
102.41170250231153
 20
70.26917661272532
 10
102.28206684972288
 20
70.24214092674546
 10
102.2197184512
 20
70.24694821546491
 10
102.21614354432397
 20
70.28603047504575
 10
102.21547793951048
 20
70.39057975738157
 10
102.21757162359798
 20
70.55678850474382
 10
102.22227458342492
 20
70.78084915940394
 10
102.22943680582975
 20
71.05895416363335
 10
102.2389082776509
 20
71.3872959597035
 10
102.25053898572683
 20
71.76206698988582
 10
102.26417891689597
 20
72.17945969645174
 10
102.2968863958677
 20
73.1268799078202
 10
102.33583060927367
 20
74.19909613198033
 10
102.37981145182142
 20
75.36564790710366
 10
102.42762881821854
 20
76.59607477136167
 10
102.52997270139109
 20
79.12671191996778
 10
102.58209900758168
 20
80.36600128065885
 10
102.63326141645186
 20
81.5473238831706
 10
102.68225982270924
 20
82.64021926567455
 10
102.72789412106138
 20
83.61422696634217
 10
102.74907469686909
 20
84.04712904166595
 10
102.76896420621583
 20
84.43888652334498
 10
102.78741263594003
 20
84.78569185365066
 10
102.80426997288015
 20
85.08373747485446
 10
102.83365784732227
 20
85.55296889916926
 10
102.86331899988151
 20
85.93698286146466
 10
102.89700034550853
 20
86.25689074641967
 10
102.93844879915395
 20
86.5338039387133
 10
103.05963469030257
 20
87.04309178403254
 10
103.14686595770705
 20
87.31768920641615
 10
103.25685199293248
 20
87.63373747485446
 10
103.38027494773563
 20
87.98042543514076
 10
103.4878538835555
 20
88.2860243260708
 10
103.6577685171497
 20
88.79315123511415
 10
103.77117353152371
 20
89.19351087248852
 10
103.83264656448621
 20
89.52549590869796
 10
103.84676525384582
 20
89.82749901424651
 10
103.8181072374112
 20
90.13791285963822
 10
103.75125015299099
 20
90.49513011537712
 10
103.65077163839383
 20
90.93754345196726
 10
103.57365129565235
 20
91.26054870815685
 10
103.50518239368027
 20
91.52606693442699
 10
103.44269646073458
 20
91.74103706149324
 10
103.38352502507226
 20
91.91239802007118
 10
103.26445175862565
 20
92.15204815462428
 10
103.1266148203963
 20
92.30052878381079
 10
103.01194227576435
 20
92.37797971697175
 10
102.88717452001538
 20
92.44140533024442
 10
102.76737300390879
 20
92.48426047434756
 10
102.66759917820403
 20
92.5
 10
102.57197405401591
 20
92.48952678285197
 10
102.40007068229457
 20
92.45927264638881
 10
102.15923869252713
 20
92.41098586308198
 10
101.85682771420073
 20
92.3464147054029
 10
101.50018737680249
 20
92.26730744582302
 10
101.09666730981955
 20
92.17541235681375
 10
100.17838650504807
 20
91.96025178039285
 10
99.16078233578332
 20
91.71491915591167
 10
98.10265183792238
 20
91.45340066314172
 10
97.06279204736225
 20
91.18968248185445
 10
96.10000000000001
 20
90.93775079182136
 10
94.33630994988317
 20
90.45549072544173
 10
92.44595962916945
 20
89.91685635478939
 10
90.44657095441862
 20
89.32772502876558
 10
88.35576584219052
 20
88.6939740962716
 10
86.19116620904498
 20
88.02148090620874
 10
83.9703939715418
 20
87.31612280747824
 10
79.43081934970178
 20
85.83032127961953
 10
74.87801730914906
 20
84.28358830390567
 10
72.64071079825497
 20
83.50206589535628
 10
70.45296318236217
 20
82.72294267154693
 10
68.33239637803044
 20
81.95209598137892
 10
66.29663230181963
 20
81.19540317375352
 10
64.36329287028954
 20
80.45874159757201
 10
62.550000000000004
 20
79.74798860173567
 10
61.48628095527954
 20
79.32261098804291
 10
60.51289569648339
 20
78.92941785116861
 10
59.62579842563803
 20
78.56648176351182
 10
58.820943344769944
 20
78.23187529747163
 10
58.0942846559056
 20
77.92367102544709
 10
57.44177656107148
 20
77.63994151983728
 10
56.85937326229407
 20
77.37875935304126
 10
56.343028961599835
 20
77.13819709745812
 10
55.88869786101527
 20
76.91632732548688
 10
55.492334162566834
 20
76.71122260952664
 10
55.14989206828102
 20
76.52095552197648
 10
54.85732578018431
 20
76.34359863523544
 10
54.61058950030317
 20
76.1772245217026
 10
54.405637430664086
 20
76.01990575377702
 10
54.10490273021799
 20
75.72472454434394
 10
53.943704461550276
 20
75.50129779042534
 10
53.78510321113263
 20
75.22550752306319
 10
53.629400341878885
 20
74.8986639657067
 10
53.47689721670289
 20
74.52207734180516
 10
53.32789519851847
 20
74.09705787480782
 10
53.18269565023947
 20
73.62491578816392
 10
53.041599934779725
 20
73.10696130532271
 10
52.90490941505308
 20
72.54450464973345
 10
52.77292545397338
 20
71.93885604484541
 10
52.645949414454456
 20
71.29132571410781
 10
52.40822655175429
 20
69.87586076888101
 10
52.1941517302633
 20
68.30859160164707
 10
52.0061358532922
 20
66.60000000000001
 10
51.87441172700713
 20
65.15237527387289
 10
51.756369896046365
 20
63.642347926650736
 10
51.56601751993615
 20
60.52817616889832
 10
51.444447524638356
 20
57.44366632669674
 10
51.41238366969311
 20
55.97071637391315
 10
51.40102870982976
 20
54.575
 10
51.400000000000006
 20
52.300000000000004
 10
50.51213203435597
 20
52.300000000000004
 10
49.62426406871193
 20
52.300000000000004
 10
49.5
 20
52.0
 10
49.3962146499074
 20
51.8030682635702
 10
49.268050183938364
 20
51.7183175369776
 10
49.072216690639365
 20
51.736908041896214
 10
48.93539596141191
 20
51.78219382544533
 10
48.7654242585569
 20
51.85
 10
48.45154547247868
 20
51.96388216535151
 10
48.24543266556557
 20
51.98256124227687
 10
48.10847386198364
 20
51.89870125923285
 10
48.00205708589894
 20
51.70496624467619
 10
47.80156928258101
 20
51.36862419877233
 10
47.49408106485871
 20
51.02141158990669
 10
47.12958696213145
 20
50.71216783813894
 10
46.75808150379862
 20
50.489732363528766
 10
46.52127022375436
 20
50.403704828402795
 10
46.24171618827692
 20
50.34594195198359
 10
45.89697963822589
 20
50.31319024046706
 10
45.464620814460886
 20
50.302196200049096
 10
44.57924162892178
 20
50.300000000000004
 10
43.964620814460886
 20
49.71081578061351
 10
43.70075299552304
 20
49.461120642445685
 10
43.43664880098619
 20
49.21680186802779
 10
43.20296386637003
 20
49.0058939459974
 10
43.03035382719423
 20
48.85643136499209
 10
42.71070765438846
 20
48.59123116875716
  0
LWPOLYLINE
  5
3D
330
17
100
AcDbEntity
  8
C00_ED1C24
100
AcDbPolyline
 90
395
 70
1
 10
57.25187856292353
 20
56.300000000000004
 10
57.28876207975647
 20
56.99145532765648
 10
57.3291292161649
 20
57.80895083605534
 10
57.409974184924955
 20
59.583428798889315
 10
57.44528193588494
 20
60.421094455228996
 10
57.47373314363714
 20
61.146166696120176
 10
57.484579718592876
 20
61.44783703607017
 10
57.49274276748573
 20
61.69898712251515
 10
57.49789916022872
 20
61.89215965557413
 10
57.49972576673488
 20
62.019897335366174
 10
57.5
 20
62.489794670732344
 10
57.153211863089645
 20
62.34489733536617
 10
56.9822179164993
 20
62.27625783054064
 10
56.85044465329677
 20
62.23307571857931
 10
56.752830655174435
 20
62.21842213764721
 10
56.684314503824716
 20
62.23536822590936
 10
56.63983478094001
 20
62.2869851215308
 10
56.614330068212716
 20
62.376343962676536
 10
56.60273894733525
 20
62.50651588751161
 10
56.6
 20
62.68057203420105
 10
56.58695009755906
 20
62.92336068502622
 10
56.54436692682415
 20
63.12960765917683
 10
56.46710029267717
 20
63.316193812289285
 10
56.35
 20
63.5
 10
56.225378133368885
 20
63.694839677736816
 10
56.14894722966123
 20
63.892871615419594
 10
56.11054271112296
 20
64.13286754600672
 10
56.1
 20
64.45359920245656
 10
56.1
 20
65.0683424733152
 10
55.7
 20
65.18818538829589
 10
55.54481717928536
 20
65.24031937222554
 10
55.41798276644847
 20
65.29367653995727
 10
55.33256783544987
 20
65.34199532269392
 10
55.301643460250105
 20
65.3790141516383
 10
55.33204503393586
 20
65.40455227904194
 10
55.41853862451497
 20
65.45017989257254
 10
55.55507442729994
 20
65.51333933288348
 10
55.735602637603264
 20
65.59147294062808
 10
56.204437062014975
 20
65.78243202103178
 10
56.776643460250106
 20
66.0025958590105
 10
58.25
 20
66.55519171802096
 10
58.314369047423114
 20
68.3025958590105
 10
58.34311180897135
 20
68.90538675079407
 10
58.38531422784722
 20
69.55040622611929
 10
58.499037312600144
 20
70.85767926079149
 10
58.565027615986374
 20
71.46520698683682
 10
58.63341685171856
 20
72.00551162982056
 10
58.70143983855127
 20
72.4512302730919
 10
58.766331395239106
 20
72.775
 10
58.784502309462
 20
72.86236328125
 10
58.793060886711835
 20
72.93390624999999
 10
58.79157176464591
 20
72.98224609374999
 10
58.77959958092151
 20
73.0
 10
58.69483884265372
 20
72.97687220612421
 10
58.49516306217756
 20
72.9139004901258
 10
58.210405384980255
 20
72.82070235044814
 10
57.870398956549025
 20
72.70689528553463
 10
57.530609497030156
 20
72.5984621082469
 10
57.24644257677245
 20
72.51989584081765
 10
57.04764111656691
 20
72.4785792957469
 10
56.96394803720452
 20
72.48189528553462
 10
56.94306583238512
 20
72.5622140692276
 10
56.91528408009367
 20
72.7305585966711
 10
56.884226327548824
 20
72.96229071656299
 10
56.853516121969236
 20
73.23277227760106
 10
56.829266242084785
 20
73.45532999530586
 10
56.805207612581306
 20
73.62702815337009
 10
56.73557906280901
 20
73.85956976178223
 10
56.60046038883585
 20
74.01384504524839
 10
56.35568150684533
 20
74.17330194617944
 10
56.15764251679453
 20
74.30977705716955
 10
56.00168555322669
 20
74.45567521167087
 10
55.88449862055387
 20
74.61469366402619
 10
55.80276972318815
 20
74.79052966857839
 10
55.73357715873825
 20
74.95172216981769
 10
55.63845554882984
 20
75.12488042943193
 10
55.5299452734927
 20
75.28922011639995
 10
55.42058671275661
 20
75.42395689970054
 10
55.32455435483429
 20
75.53320969096046
 10
55.252328295079174
 20
75.62816227088709
 10
55.210907324232146
 20
75.6986276120801
 10
55.207290233034115
 20
75.73441868713914
 10
55.2799466004121
 20
75.77807925457694
 10
55.43668740931412
 20
75.85919043615596
 10
55.66811993635807
 20
75.97341786416419
 10
55.96485145816188
 20
76.11642717088958
 10
56.31748925134348
 20
76.28388398862012
 10
56.716640592520775
 20
76.47145394964376
 10
57.61691302533417
 20
76.88959583072229
 10
59.56234063809791
 20
77.77652513306737
 10
60.457212243934976
 20
78.17596267094147
 10
60.852312964880035
 20
78.3495043745618
 10
61.2
 20
78.49981554435496
 10
62.052938178459456
 20
78.85805764159457
 10
62.855461417332975
 20
79.18169151156566
 10
63.6036083941785
 20
79.4693286814889
 10
64.29341778655397
 20
79.71958067858496
 10
64.92092827201733
 20
79.93105903007455
 10
65.4821785281265
 20
80.10237526317832
 10
65.97320723243942
 20
80.23214090511698
 10
66.39005306251404
 20
80.31896748311118
 10
66.8368706872112
 20
80.36843006703621
 10
67.28346977172491
 20
80.36528688393447
 10
67.72708052614507
 20
80.31168493955114
 10
68.16493316056155
 20
80.20977123963138
 10
68.59425788506421
 20
80.0616927899204
 10
69.01228490974296
 20
79.86959659616336
 10
69.41624444468766
 20
79.63562966410545
 10
69.80336669998822
 20
79.36193899949185
 10
70.17088188573449
 20
79.05067160806774
 10
70.51602021201636
 20
78.70397449557831
 10
70.8360118889237
 20
78.32399466776873
 10
71.1280871265464
 20
77.9128791303842
 10
71.38947613497436
 20
77.47277488916987
 10
71.61740912429742
 20
77.00582894987093
 10
71.8091163046055
 20
76.51418831823258
 10
71.96182788598844
 20
76.0
 10
72.05306254594088
 20
75.48165662293385
 10
72.0940375363961
 20
74.87418401673716
 10
72.08741139041959
 20
74.2036511487279
 10
72.03584264107683
 20
73.4961269862241
 10
71.9419898214333
 20
72.77768049654377
 10
71.80851146455448
 20
72.07438064700492
 10
71.63806610350585
 20
71.41229640492556
 10
71.4333122713529
 20
70.8174967376237
 10
71.16787273222883
 20
70.15400237484481
 10
72.70893636611441
 20
68.68114809651615
 10
73.01600249819636
 20
68.38696351487168
 10
73.28232681893647
 20
68.13198321411825
 10
73.51086783906712
 20
67.91590697149739
 10
73.70458406932066
 20
67.73843456425064
 10
73.86643402042947
 20
67.59926576961955
 10
73.99937620312589
 20
67.49810036484564
 10
74.10636912814228
 20
67.43463812717044
 10
74.19037130621102
 20
67.40857883383552
 10
74.25434124806445
 20
67.41962226208238
 10
74.30123746443493
 20
67.46746818915258
 10
74.3556427636565
 20
67.67236664872911
 10
74.37725528973463
 20
68.0208724304974
 10
74.3897431285282
 20
68.51058375238976
 10
74.39285476077767
 20
68.60847411599215
 10
74.39780717805364
 20
68.7479010591607
 10
74.41280308644824
 20
69.14092740478218
 10
74.4338682912381
 20
69.66878823042614
 10
74.46014022994942
 20
70.31060897726451
 10
74.49075634010832
 20
71.04551508646915
 10
74.524854059241
 20
71.85263199921201
 10
74.6000440745322
 20
73.60000000000001
 10
74.7894451453058
 20
77.95
 10
75.09654423275896
 20
78.73609994342229
 10
75.26851231891254
 20
79.21542916871503
 10
75.3683062563234
 20
79.6760722689387
 10
75.40023451965337
 20
79.96382692792193
 10
75.42503516628132
 20
80.32423854256467
 10
75.44634683636849
 20
80.78308327517584
 10
75.4678081700761
 20
81.36613728806435
 10
75.48733694535723
 20
81.8882606314283
 10
75.50661211907372
 20
82.30720713467664
 10
75.52695599446584
 20
82.63439757482924
 10
75.54969087477383
 20
82.8812527289059
 10
75.57613906323799
 20
83.05919337392649
 10
75.60762286309857
 20
83.17964028691082
 10
75.69098650997005
 20
83.29373602485009
 10
75.73035198221349
 20
83.30908151276127
 10
75.82147735771947
 20
83.3413673826796
 10
75.96099683405735
 20
83.38948220437544
 10
76.14554460879653
 20
83.45231454761908
 10
76.37175487950634
 20
83.52875298218086
 10
76.63626184375619
 20
83.61768607783111
 10
77.26670264315347
 20
83.82859053147827
 10
78.00994058754335
 20
84.07613646672311
 10
78.83904925748082
 20
84.35143244172825
 10
80.64717309621855
 20
84.94970874366965
 10
82.47566280380656
 20
85.55228790260307
 10
83.33022880980691
 20
85.83296244884822
 10
84.10910702468482
 20
86.08803838382912
 10
84.78537102899529
 20
86.30862426570832
 10
85.33209440329328
 20
86.48582865264842
 10
85.54846384811104
 20
86.5553842099421
 10
85.72235072813382
 20
86.61076010281198
 10
85.85038924093097
 20
86.65084490102836
 10
85.92921358407187
 20
86.67452717436157
 10
86.02710033833374
 20
86.65984414689046
 10
86.05587399710727
 20
86.58817838151427
 10
86.07267500946102
 20
86.45033504754952
 10
86.07860874975884
 20
86.22884309437512
 10
86.0747805923646
 20
85.90623147136998
 10
86.06229591164215
 20
85.46502912791298
 10
86.04226008195536
 20
84.88776501338306
 10
86.01104476535285
 20
84.1681227643356
 10
85.97496543868799
 20
83.56723674278771
 10
85.95649807331839
 20
83.33096071867926
 10
85.93849026751666
 20
83.14793383306953
 10
85.92150054197728
 20
83.02600944649977
 10
85.90608741739476
 20
82.97304091951125
 10
85.82908232688948
 20
82.93555400949397
 10
85.63556825882507
 20
82.85800038161211
 10
85.33848106676089
 20
82.74512225806825
 10
84.9507566042563
 20
82.60166186106491
 10
84.48533072487064
 20
82.43236141280465
 10
83.95513928216323
 20
82.24196313549004
 10
83.37311812969345
 20
82.03520925132361
 10
82.75220312102064
 20
81.81684198250792
 10
81.93863050662969
 20
81.53018230952883
 10
81.26741192472937
 20
81.28905706158135
 10
80.7272788702818
 20
81.08891753444112
 10
80.30696283824909
 20
80.92521502388381
 10
79.99519532359334
 20
80.79340082568505
 10
79.78070782127666
 20
80.68892623562051
 10
79.65223182626117
 20
80.60724254946584
 10
79.59849883350898
 20
80.54380106299668
 10
79.57894394156978
 20
80.46567752026407
 10
79.55673776939575
 20
80.33638539325558
 10
79.50698208713409
 20
79.95486777980724
 10
79.45445279230569
 20
79.46039300944416
 10
79.40437089049227
 20
78.9141058689588
 10
79.36195738727554
 20
78.37715114514364
 10
79.3324332882372
 20
77.91067362479116
 10
79.32413632952921
 20
77.72297156178608
 10
79.32101959895896
 20
77.57581809469384
 10
79.32373572222416
 20
77.47685632186351
 10
79.33293732502253
 20
77.43372934164415
 10
79.39675172547555
 20
77.43829945371813
 10
79.55847886079619
 20
77.47256429449165
 10
79.80727160465368
 20
77.53362864806515
 10
80.1322828307173
 20
77.61859729853902
 10
80.52266541265635
 20
77.7245750300137
 10
80.96757222414007
 20
77.84866662658959
 10
81.97757003041869
 20
78.13961055144674
 10
82.98853404025479
 20
78.43485551701781
 10
83.43457327100701
 20
78.56398806106411
 10
83.82645418593803
 20
78.67663559948748
 10
84.1532794352649
 20
78.76967934744034
 10
84.40415166920464
 20
78.8400005200751
 10
84.56817353797429
 20
78.88448033254419
 10
84.63444769179085
 20
78.9
 10
84.64772672113126
 20
78.8547750592165
 10
84.65660738709974
 20
78.72687186544624
 10
84.66143502098892
 20
78.52794786155962
 10
84.66255495409142
 20
78.26966049042709
 10
84.65505304310683
 20
77.62162541790576
 10
84.63686430448698
 20
76.87602619084551
 10
84.61075138857278
 20
76.12612235220953
 10
84.57947694570524
 20
75.46517344496108
 10
84.5627674798955
 20
75.19720069778317
 10
84.5458036262253
 20
74.98643901206336
 10
84.52893071598723
 20
74.84454583067203
 10
84.51249408047393
 20
74.7831785964796
 10
84.44687393169123
 20
74.75110307746134
 10
84.28307255078991
 20
74.68512196480295
 10
84.03201032364693
 20
74.58925768167079
 10
83.70460763613922
 20
74.46753265123124
 10
83.31178487414373
 20
74.32396929665067
 10
82.8644624235374
 20
74.16259004109547
 10
81.85000000000001
 20
73.80247351972659
 10
80.83543801718902
 20
73.44216182219178
 10
80.38799888015683
 20
73.2805538143728
 10
79.99502172735711
 20
73.13668779180225
 10
79.66743211977756
 20
73.01459632294227
 10
79.41615561840588
 20
72.91831197625498
 10
79.25211778422978
 20
72.85186732020252
 10
79.18624417823695
 20
72.81929492324699
 10
79.17025128608086
 20
72.76342576921643
 10
79.14938094917393
 20
72.63184717866673
 10
79.12454703135094
 20
72.43540045376957
 10
79.09666339644663
 20
72.18492689669664
 10
79.03540243073311
 20
71.56526449471009
 10
78.97290896271147
 20
70.85959039008046
 10
78.91649390305976
 20
70.15463500018113
 10
78.87346816245608
 20
69.53712874238548
 10
78.85926094638414
 20
69.2882722934557
 10
78.85114265157848
 20
69.09380203406687
 10
78.85002714187388
 20
68.96455926639064
 10
78.85682828110508
 20
68.9113852925987
 10
78.92878818563791
 20
68.92449713405124
 10
79.12063308183424
 20
68.97707100270469
 10
79.4192464450658
 20
69.06507156479822
 10
79.8115117507043
 20
69.18446348657099
 10
80.28431247412145
 20
69.3312114342622
 10
80.82453209068899
 20
69.50128007411102
 10
81.41905407577863
 20
69.69063407235662
 10
82.05476190476209
 20
69.89523809523816
 10
82.69078442208074
 20
70.09955900239882
 10
83.28620831297317
 20
70.28810158286066
 10
83.82785381400689
 20
70.45688739693115
 10
84.30254116174942
 20
70.60193800491778
 10
84.69709059276826
 20
70.71927496712803
 10
84.99832234363096
 20
70.80491984386938
 10
85.193056650905
 20
70.85489419544935
 10
85.26811375115794
 20
70.86521958217537
 10
85.2752594213454
 20
70.82954385888954
 10
85.27535762044134
 20
70.74767770856944
 10
85.2562816437389
 20
70.46643733686982
 10
85.21462589781083
 20
70.0636248871631
 10
85.15413045941739
 20
69.58136677953591
 10
85.11622369063288
 20
69.30041406534265
 10
85.07222556167314
 20
68.973362785061
 10
84.97227673335425
 20
68.22817292066989
 10
84.86692699471337
 20
67.44021397523737
 10
84.76881936600314
 20
66.70390273763819
 10
84.54997758743185
 20
65.05780547527637
 10
81.49998879371593
 20
64.11844859195918
 10
80.88636713546846
 20
63.92885164948029
 10
80.31208871903186
 20
63.75023465908372
 10
79.78985281575315
 20
63.58663130477711
 10
79.33235869697934
 20
63.44207527056806
 10
78.95230563405744
 20
63.32060024046424
 10
78.66239289833446
 20
63.22623989847325
 10
78.47531976115742
 20
63.163027928602745
 10
78.40378549387331
 20
63.134998014860344
 10
78.39540584979036
 20
63.10256192994229
 10
78.40675326009605
 20
63.04684135627403
 10
78.43536678729036
 20
62.975651869429655
 10
78.47878549387332
 20
62.896809044983264
 10
78.52585081383032
 20
62.818516154994946
 10
78.56439323882529
 20
62.74882401444728
 10
78.59043541787595
 20
62.695319513298145
 10
78.60000000000001
 20
62.665589541505405
 10
78.57769011727659
 20
62.65672036541879
 10
78.51374935291616
 20
62.645717220040005
 10
78.27890848214331
 20
62.61905285592074
 10
77.9313439933995
 20
62.58908411817728
 10
77.50692249240274
 20
62.55929867583931
 10
77.14789189483942
 20
62.53739418783596
 10
76.86938801399613
 20
62.52481178426985
 10
76.65213135669123
 20
62.52422976661817
 10
76.47684242974313
 20
62.538326436358105
 10
76.17504979419088
 20
62.62126904392159
 10
76.00998709922351
 20
62.69547158469952
 10
75.80977416188648
 20
62.79506601877782
 10
75.57144628129451
 20
62.91346616617424
 10
75.36908262439748
 20
63.010425643015985
 10
75.2240755251514
 20
63.07593880304419
 10
75.15781731751231
 20
63.1
 10
75.1337988374357
 20
63.0520472544596
 10
75.10380089739441
 20
62.921482848285244
 10
75.07165079612042
 20
62.7282475271472
 10
75.04117583234581
 20
62.49228203671572
 10
75.01361467456476
 20
62.26576436065594
 10
74.9793199300468
 20
62.09245160080409
 10
74.92365785237088
 20
61.9608092038111
 10
74.831994695116
 20
61.85930261632792
 10
74.6896967118611
 20
61.776397285005494
 10
74.48213015618518
 20
61.700558656494756
 10
74.19466128166718
 20
61.62025217744666
 10
73.8126563418861
 20
61.52394329451213
 10
73.17531268377222
 20
61.365169318751875
 10
72.51155826124668
 20
62.05758465937594
 10
72.3741711743342
 20
62.20151947418449
 10
72.20534990020735
 20
62.37940991149973
 10
71.78935852820634
 20
62.820015438726905
 10
71.29549162103515
 20
63.34531681121071
 10
70.75565665448539
 20
63.92122959910435
 10
69.66571244641621
 20
65.08855170173412
 10
69.17941815647988
 20
65.61179215677669
 10
68.77478571033114
 20
66.04930630784203
 10
68.31472131804767
 20
66.54861261568406
 10
67.68236065902384
 20
65.89271744834893
 10
66.90717202813168
 20
65.18654848892939
 10
66.07213987117152
 20
64.60541365236514
 10
65.20686046631833
 20
64.16705857294332
 10
64.77212688286156
 20
64.00696895287555
 10
64.34093009174715
 20
63.88922888495107
 10
63.82060969120878
 20
63.772786281800656
 10
63.7588267645313
 20
61.91139314090033
 10
63.73024961331165
 20
61.10777017916012
 10
63.69811249625871
 20
60.295690485139474
 10
63.66635054651813
 20
59.56986383377417
 10
63.65183998849798
 20
59.26889220375471
 10
63.63889889723555
 20
59.025000000000006
 10
63.5807539566173
 20
58.0
 10
62.83233245531457
 20
58.0
 10
62.083910954011834
 20
58.0
 10
61.92341829877903
 20
57.59142544404216
 10
61.76292564354624
 20
57.18285088808432
 10
61.306462821773124
 20
57.24521295337613
 10
61.10752764800653
 20
57.2737003800887
 10
60.903304703895856
 20
57.30516507955507
 10
60.71779511328054
 20
57.33578373656691
 10
60.575
 20
57.36173303591588
 10
60.41810830290103
 20
57.383706261159524
 10
60.33623515813425
 20
57.34400494218271
 10
60.30499443430035
 20
57.203855108066584
 10
60.300000000000004
 20
56.92448278789229
 10
60.300000000000004
 20
56.43307452262075
 10
59.519040825426195
 20
56.47828355215079
 10
59.09905817020186
 20
56.49357920699313
 10
58.798388172212896
 20
56.475010701173495
 10
58.55179450083059
 20
56.41296892006499
 10
58.294040825426194
 20
56.29784474904073
 10
58.095919035981034
 20
56.181737001306075
 10
57.88472800658462
 20
56.032408295142325
 10
57.685728724180684
 20
55.869111243217674
 10
57.52418217571293
 20
55.711098458200325
 10
57.19836435142586
 20
55.35
  0
LWPOLYLINE
  5
3E
330
17
100
AcDbEntity
  8
C00_ED1C24
100
AcDbPolyline
 90
185
 70
1
 10
86.80000000000001
 20
66.7565283723337
 10
86.80223734959856
 20
66.80951891703383
 10
86.8087806366556
 20
66.92311975516533
 10
86.81937671856318
 20
67.09368876347322
 10
86.83377245271336
 20
67.31758381870252
 10
86.85171469649822
 20
67.59116279759824
 10
86.87295030730982
 20
67.91078357690543
 10
86.92428905958151
 20
68.67358204373424
 10
86.98576356866494
 20
69.57684223314911
 10
87.05534869369662
 20
70.5914271591102
 10
87.13101929381307
 20
71.68819983557768
 10
87.21075022815083
 20
72.83802327651172
 10
87.37429253603631
 20
75.18027450762014
 10
87.45405362785706
 20
76.31442832571484
 10
87.5297744904452
 20
77.38508496411677
 10
87.59942998293724
 20
78.36310743678608
 10
87.66099496446968
 20
79.21935875768294
 10
87.68811065710621
 20
79.59271492807926
 10
87.71244429417905
 20
79.92470194076753
 10
87.73374273308025
 20
80.21167767249277
 10
87.75175283120187
 20
80.45
 10
87.82745897913811
 20
81.3159131031955
 10
87.91005361294806
 20
82.02693113260398
 10
87.95376624701315
 20
82.3231183750874
 10
87.99899956449563
 20
82.57909850566327
 10
88.04568641937851
 20
82.7943770765113
 10
88.09375966564478
 20
82.96845963981123
 10
88.13935559687123
 20
83.1356603111774
 10
88.1864706128135
 20
83.35329860240716
 10
88.28208545000433
 20
83.91846956394961
 10
88.37425927953495
 20
84.62113556342287
 10
88.45664720372301
 20
85.41845963981123
 10
88.5262185310919
 20
86.13496522464102
 10
88.59273745450048
 20
86.73191229083508
 10
88.62249582972312
 20
86.96607533672201
 10
88.64866338195982
 20
87.146977501684
 10
88.67029753721198
 20
87.26682836863235
 10
88.68645572148098
 20
87.31783752047839
 10
88.75126632508584
 20
87.34503605100981
 10
88.9123397108747
 20
87.39664499371193
 10
89.15895626364272
 20
87.46965884104257
 10
89.48039636818504
 20
87.56107208545953
 10
89.8659404092968
 20
87.66787921942061
 10
90.30486877177312
 20
87.78707473538361
 10
91.30000000000001
 20
88.05060888314665
 10
91.87666398975976
 20
88.20137008418052
 10
92.53917749988462
 20
88.3752473299739
 10
93.26413534164293
 20
88.56605889941935
 10
94.0281323263031
 20
88.76762307140945
 10
95.57962296940244
 20
89.178282338594
 10
96.32030625037838
 20
89.37501399157362
 10
97.00640791932966
 20
89.55777136266826
 10
98.24355717630768
 20
89.88479295075723
 10
98.79315821569683
 20
90.02782377110097
 10
99.27871301187209
 20
90.15259533778381
 10
99.68667367697293
 20
90.25565319741044
 10
100.00349232313886
 20
90.33354289658556
 10
100.21562106250937
 20
90.38280998191384
 10
100.30951200722396
 20
90.4
 10
100.34979410912366
 20
90.38435401511005
 10
100.3761712144593
 20
90.32873087050139
 10
100.38794109411063
 20
90.2201027812659
 10
100.38440151895742
 20
90.0454419624954
 10
100.36485025987942
 20
89.7917206292818
 10
100.32858508775638
 20
89.44591099671689
 10
100.2749037734681
 20
88.99498527989257
 10
100.2031040878943
 20
88.42591569390066
 10
99.95
 20
86.45183138780129
 10
96.95
 20
85.62220525145595
 10
95.75951171875
 20
85.29539201467144
 10
95.21998291015626
 20
85.14901048779555
 10
94.73578125
 20
85.01884074030652
 10
94.32054443359375
 20
84.90852906098628
 10
93.98791015625001
 20
84.82172173861677
 10
93.75151611328126
 20
84.76206506197995
 10
93.625
 20
84.73320531985776
 10
93.46123578101336
 20
84.69270097611432
 10
93.36149340273653
 20
84.63506528473928
 10
93.31132546588215
 20
84.54617722153468
 10
93.29628457116286
 20
84.41191576230247
 10
93.29372613852145
 20
84.3327861901704
 10
93.28783638124908
 20
84.20770631392159
 10
93.2675804503507
 20
83.84530717825987
 10
93.2385518935462
 20
83.37594141368938
 10
93.20378582591407
 20
82.85083207858219
 10
93.17152720473001
 20
82.34417525820277
 10
93.14932585360096
 20
81.9250514891782
 10
93.13917418710223
 20
81.63701050692444
 10
93.13923961514402
 20
81.55575535315411
 10
93.14306461980914
 20
81.52360204685746
 10
93.20334398892714
 20
81.53025656987789
 10
93.36520924619036
 20
81.56022576903064
 10
93.61756454721487
 20
81.61115465870051
 10
93.94931404761675
 20
81.68068825327234
 10
94.34936190301205
 20
81.76647156713092
 10
94.80661226901685
 20
81.86614961466107
 10
95.84833715531927
 20
82.09776996827527
 10
96.90119605869624
 20
82.3316045977809
 10
97.3714958234258
 20
82.43387784242633
 10
97.78880967312112
 20
82.52309492818087
 10
98.14146301498599
 20
82.59678577093
 10
98.41778125622417
 20
82.65248028655922
 10
98.60608980403944
 20
82.68770839095406
 10
98.69471406563561
 20
82.7
 10
98.77707024722639
 20
82.64062962213659
 10
98.79139358104425
 20
82.53930899273038
 10
98.78606790511884
 20
82.36613570782838
 10
98.75978384063148
 20
82.10303799604594
 10
98.71123200876349
 20
81.73194408599846
 10
98.63910303069616
 20
81.23478220630133
 10
98.54208752761082
 20
80.59348058556992
 10
98.41436799247386
 20
79.77355330977029
 10
98.35646930935819
 20
79.4134650430352
 10
98.30449669967535
 20
79.09828603189892
 10
98.25991417627355
 20
78.8367605324782
 10
98.22418575200102
 20
78.63763280088978
 10
98.19877543970595
 20
78.50964709325042
 10
98.18514725223659
 20
78.46154766567686
 10
98.12534317137151
 20
78.44025600547377
 10
97.96759142298063
 20
78.38910212871913
 10
97.7226353860491
 20
78.3114430846897
 10
97.40121843956207
 20
78.21063592266223
 10
97.01408396250469
 20
78.09003769191347
 10
96.5719753338621
 20
77.95300544172017
 10
95.56580913776195
 20
77.64306708010696
 10
94.55473052273665
 20
77.33040141652084
 10
94.10686439320038
 20
77.19017268740633
 10
93.7121120189732
 20
77.06534511337534
 10
93.38147212754878
 20
76.95941750940123
 10
93.1259434464207
 20
76.87588869045737
 10
92.95652470308264
 20
76.81825747151711
 10
92.8842146250282
 20
76.79002266755381
 10
92.85969659825983
 20
76.73521621270054
 10
92.82896807478664
 20
76.60391894724971
 10
92.79326051750905
 20
76.40701686893722
 10
92.75380538932744
 20
76.15539597549895
 10
92.66857827185372
 20
75.53154173418856
 10
92.58313842556865
 20
74.8194442052056
 10
92.50733755367534
 20
74.10619137043713
 10
92.45102735937698
 20
73.47887121177018
 10
92.43325992357687
 20
73.22465088031448
 10
92.42405954587667
 20
73.02457171109182
 10
92.42465768917678
 20
72.88951970183805
 10
92.43628581637759
 20
72.83038085028909
 10
92.51760077343296
 20
72.8236643979154
 10
92.69324069178408
 20
72.85113922003418
 10
92.93735556933716
 20
72.90763415837661
 10
93.22409540399838
 20
72.98797805467377
 10
94.08860972188134
 20
73.24647437798498
 10
95.04362420572035
 20
73.52721959353006
 10
96.97959716093757
 20
74.08553401391383
 10
97.83777737715137
 20
74.32814187504854
 10
98.21255817659234
 20
74.43266067441635
 10
98.54090124899233
 20
74.52307594100914
 10
98.81513295340356
 20
74.59720259084538
 10
99.02757964887824
 20
74.65285553994362
 10
99.17056769446862
 20
74.68784970432232
 10
99.23642344922689
 20
74.7
 10
99.31129432355195
 20
74.67338131996623
 10
99.34960786167531
 20
74.57276685324325
 10
99.35589736691762
 20
74.36701895989866
 10
99.33469614259951
 20
74.025
 10
99.32155782591644
 20
73.85181430737225
 10
99.30474328846837
 20
73.61757673914727
 10
99.28494643988243
 20
73.33261030981242
 10
99.26286118978581
 20
73.00723803385515
 10
99.21460112356911
 20
72.27656800002282
 10
99.1655143668355
 20
71.50815075354943
 10
99.05000000000001
 20
69.66630150709886
 10
93.2
 20
68.1986938827418
 10
92.01924560546875
 20
67.90250583736157
 10
90.90685546875001
 20
67.62352726489893
 10
89.88795166015626
 20
67.36805429329989
 10
88.98765625000001
 20
67.14238305051055
 10
88.58983734130861
 20
67.04269061740263
 10
88.23109130859376
 20
66.9528096644769
 10
87.91455841064453
 20
66.87352720772662
 10
87.64337890625
 20
66.80563026314505
 10
87.42069305419922
 20
66.74990584672543
 10
87.24964111328126
 20
66.70714097446101
 10
87.13336334228516
 20
66.67812266234507
 10
87.075
 20
66.66363792637087
 10
86.94187535566192
 20
66.63851802217859
 10
86.85736142725504
 20
66.6437030261365
 10
86.81291678522065
 20
66.68207809170231
  0
LWPOLYLINE
  5
3F
330
17
100
AcDbEntity
  8
C00_ED1C24
100
AcDbPolyline
 90
41
 70
1
 10
64.69169540433215
 20
70.2605653283555
 10
65.38328199997251
 20
70.68047112421185
 10
66.01230483588598
 20
71.145108859847
 10
66.57156913392167
 20
71.64570274501742
 10
67.05388011592868
 20
72.17347698947952
 10
67.45204300375609
 20
72.71965580298978
 10
67.75886301925301
 20
73.27546339530464
 10
67.96714538426852
 20
73.83212397618053
 10
68.06969532065173
 20
74.38086175537391
 10
68.08646596824033
 20
74.686257076288
 10
68.06731908793344
 20
74.91007734666667
 10
68.00277683327583
 20
75.0990743825555
 10
67.88336135781223
 20
75.3
 10
67.57376389102514
 20
75.64680791237504
 10
67.38456650516946
 20
75.77623008557195
 10
67.16376365344343
 20
75.87964520371102
 10
66.90485056267538
 20
75.95953886699418
 10
66.60132245969363
 20
76.01839667562334
 10
66.2466745713265
 20
76.05870422980043
 10
65.83440212440227
 20
76.08294712972736
 10
65.44417666502262
 20
76.09782139161848
 10
65.15294256530899
 20
76.09812320033267
 10
64.942448928261
 20
76.06878268915736
 10
64.79444485687834
 20
75.99472999138004
 10
64.69067945416064
 20
75.86089524028817
 10
64.61290182310758
 20
75.65220856916923
 10
64.54286106671877
 20
75.35360011131068
 10
64.4623062879939
 20
74.95
 10
64.3471921086566
 20
74.29457916645532
 10
64.23435259366718
 20
73.51671581601597
 10
64.04107033500856
 20
71.85235850312532
 10
63.97341398047767
 20
71.09521301000999
 10
63.94962901953585
 20
70.76369353195207
 10
63.93360506857129
 20
70.47432193867199
 10
63.92614127690514
 20
70.23518250950325
 10
63.92803679385855
 20
70.05435952377934
 10
63.94009076875267
 20
69.93993726083376
 10
63.96310235090863
 20
69.9
 10
64.0423383881485
 20
69.92845085794056
 10
64.206120549176
 20
70.00591606520443
 10
64.43054187442571
 20
70.12056457195496
  0
ENDSEC
  0
SECTION
  2
OBJECTS
  0
DICTIONARY
  5
A
330
0
100
AcDbDictionary
281
1
  3
ACAD_COLOR
350
B
  3
ACAD_GROUP
350
C
  3
ACAD_LAYOUT
350
D
  3
ACAD_MATERIAL
350
E
  3
ACAD_MLEADERSTYLE
350
F
  3
ACAD_MLINESTYLE
350
10
  3
ACAD_PLOTSETTINGS
350
11
  3
ACAD_PLOTSTYLENAME
350
12
  3
ACAD_SCALELIST
350
14
  3
ACAD_TABLESTYLE
350
15
  3
ACAD_VISUALSTYLE
350
16
  3
EZDXF_META
350
2D
  0
DICTIONARY
  5
B
330
A
100
AcDbDictionary
281
1
  0
DICTIONARY
  5
C
330
A
100
AcDbDictionary
281
1
  0
DICTIONARY
  5
D
330
A
100
AcDbDictionary
281
1
  3
Model
350
1A
  3
Layout1
350
1E
  0
DICTIONARY
  5
E
330
A
100
AcDbDictionary
281
1
  3
ByBlock
350
1F
  3
ByLayer
350
20
  3
Global
350
21
  0
DICTIONARY
  5
F
330
A
100
AcDbDictionary
281
1
  3
Standard
350
2C
  0
DICTIONARY
  5
10
330
A
100
AcDbDictionary
281
1
  3
Standard
350
22
  0
DICTIONARY
  5
11
330
A
100
AcDbDictionary
281
1
  0
ACDBDICTIONARYWDFLT
  5
12
330
A
100
AcDbDictionary
281
1
  3
Normal
350
13
100
AcDbDictionaryWithDefault
340
13
  0
ACDBPLACEHOLDER
  5
13
330
12
  0
DICTIONARY
  5
14
330
A
100
AcDbDictionary
281
1
  0
DICTIONARY
  5
15
330
A
100
AcDbDictionary
281
1
  0
DICTIONARY
  5
16
330
A
100
AcDbDictionary
281
1
  0
LAYOUT
  5
1A
330
D
100
AcDbPlotSettings
  1

  4
A3
  6

 40
7.5
 41
20.0
 42
7.5
 43
20.0
 44
420.0
 45
297.0
 46
0.0
 47
0.0
 48
0.0
 49
0.0
140
0.0
141
0.0
142
1.0
143
1.0
 70
1024
 72
1
 73
0
 74
5
  7

 75
16
 76
0
 77
2
 78
300
147
1.0
148
0.0
149
0.0
100
AcDbLayout
  1
Model
 70
1
 71
0
 10
0.0
 20
0.0
 11
420.0
 21
297.0
 12
0.0
 22
0.0
 32
0.0
 14
1e+20
 24
1e+20
 34
1e+20
 15
-1e+20
 25
-1e+20
 35
-1e+20
146
0.0
 13
0.0
 23
0.0
 33
0.0
 16
1.0
 26
0.0
 36
0.0
 17
0.0
 27
1.0
 37
0.0
 76
1
330
17
  0
LAYOUT
  5
1E
330
D
100
AcDbPlotSettings
  1

  4
A3
  6

 40
7.5
 41
20.0
 42
7.5
 43
20.0
 44
420.0
 45
297.0
 46
0.0
 47
0.0
 48
0.0
 49
0.0
140
0.0
141
0.0
142
1.0
143
1.0
 70
0
 72
1
 73
0
 74
5
  7

 75
16
 76
0
 77
2
 78
300
147
1.0
148
0.0
149
0.0
100
AcDbLayout
  1
Layout1
 70
1
 71
1
 10
0.0
 20
0.0
 11
420.0
 21
297.0
 12
0.0
 22
0.0
 32
0.0
 14
1e+20
 24
1e+20
 34
1e+20
 15
-1e+20
 25
-1e+20
 35
-1e+20
146
0.0
 13
0.0
 23
0.0
 33
0.0
 16
1.0
 26
0.0
 36
0.0
 17
0.0
 27
1.0
 37
0.0
 76
1
330
1B
  0
MATERIAL
  5
1F
102
{ACAD_REACTORS
330
E
102
}
330
E
100
AcDbMaterial
  1
ByBlock
  2

 70
0
 40
1.0
 71
1
 41
1.0
 91
-1023410177
 42
1.0
 72
1
  3

 73
1
 74
1
 75
1
 44
0.5
 73
0
 45
1.0
 46
1.0
 77
1
  4

 78
1
 79
1
170
1
 48
1.0
171
1
  6

172
1
173
1
174
1
140
1.0
141
1.0
175
1
  7

176
1
177
1
178
1
143
1.0
179
1
  8

270
1
271
1
272
1
145
1.0
146
1.0
273
1
  9

274
1
275
1
276
1
 42
1.0
 72
1
  3

 73
1
 74
1
 75
1
 94
63
  0
MATERIAL
  5
20
102
{ACAD_REACTORS
330
E
102
}
330
E
100
AcDbMaterial
  1
ByLayer
  2

 70
0
 40
1.0
 71
1
 41
1.0
 91
-1023410177
 42
1.0
 72
1
  3

 73
1
 74
1
 75
1
 44
0.5
 73
0
 45
1.0
 46
1.0
 77
1
  4

 78
1
 79
1
170
1
 48
1.0
171
1
  6

172
1
173
1
174
1
140
1.0
141
1.0
175
1
  7

176
1
177
1
178
1
143
1.0
179
1
  8

270
1
271
1
272
1
145
1.0
146
1.0
273
1
  9

274
1
275
1
276
1
 42
1.0
 72
1
  3

 73
1
 74
1
 75
1
 94
63
  0
MATERIAL
  5
21
102
{ACAD_REACTORS
330
E
102
}
330
E
100
AcDbMaterial
  1
Global
  2

 70
0
 40
1.0
 71
1
 41
1.0
 91
-1023410177
 42
1.0
 72
1
  3

 73
1
 74
1
 75
1
 44
0.5
 73
0
 45
1.0
 46
1.0
 77
1
  4

 78
1
 79
1
170
1
 48
1.0
171
1
  6

172
1
173
1
174
1
140
1.0
141
1.0
175
1
  7

176
1
177
1
178
1
143
1.0
179
1
  8

270
1
271
1
272
1
145
1.0
146
1.0
273
1
  9

274
1
275
1
276
1
 42
1.0
 72
1
  3

 73
1
 74
1
 75
1
 94
63
  0
MLINESTYLE
  5
22
102
{ACAD_REACTORS
330
10
102
}
330
10
100
AcDbMlineStyle
  2
Standard
 70
0
  3

 62
256
 51
90.0
 52
90.0
 71
2
 49
0.5
 62
256
  6
BYLAYER
 49
-0.5
 62
256
  6
BYLAYER
  0
MLEADERSTYLE
  5
2C
102
{ACAD_REACTORS
330
F
102
}
330
F
100
AcDbMLeaderStyle
179
2
170
2
171
1
172
0
 90
2
 40
0.0
 41
0.0
173
1
 91
-1056964608
 92
-2
290
1
 42
2.0
291
1
 43
8.0
  3
Standard
 44
4.0
300

342
29
174
1
175
1
176
0
178
1
 93
-1056964608
 45
4.0
292
0
297
0
 46
4.0
 94
-1056964608
 47
1.0
 49
1.0
140
1.0
294
1
141
0.0
177
0
142
1.0
295
0
296
0
143
3.75
271
0
272
9
273
9
  0
DICTIONARY
  5
2D
330
A
100
AcDbDictionary
280
1
281
1
  3
CREATED_BY_EZDXF
350
2E
  3
WRITTEN_BY_EZDXF
350
42
  0
DICTIONARYVAR
  5
2E
330
2D
100
DictionaryVariables
280
0
  1
1.4.4 @ 2026-09-13T15:57:47.241782+00:00
  0
DICTIONARYVAR
  5
42
330
2D
100
DictionaryVariables
280
0
  1
1.4.4 @ 2026-09-13T15:57:47.303096+00:00
  0
ENDSEC
  0
EOF
