0
SECTION
2
ENTITIES
0
LWPOLYLINE
8
SF2_DEBOSS
100
AcDbEntity
100
AcDbPolyline
90
415
70
1
10
-45.3456
20
44.5094
10
-44.4424
20
43.7326
10
-44.4139
20
43.6432
10
-44.5579
20
43.5294
10
-44.8414
20
43.5789
10
-46.3192
20
44.1009
10
-46.4811
20
44.1918
10
-46.5771
20
44.4032
10
-46.3090
20
44.3172
10
-47.6812
20
44.7926
10
-47.9124
20
46.4108
10
-48.1894
20
49.6726
10
-48.5676
20
49.6821
10
-48.6331
20
49.7342
10
-48.4935
20
50.3370
10
-48.5585
20
50.3425
10
-48.5296
20
50.4508
10
-48.9093
20
50.2809
10
-49.0151
20
50.2758
10
-49.0384
20
50.3128
10
-48.9871
20
50.9607
10
-49.6492
20
50.9945
10
-49.6614
20
51.0638
10
-49.5419
20
51.3863
10
-48.7968
20
52.8577
10
-47.8967
20
53.8589
10
-47.7199
20
56.4881
10
-47.7322
20
56.3766
10
-48.8089
20
55.2474
10
-50.3262
20
53.5229
10
-52.2151
20
51.1656
10
-52.2369
20
51.8539
10
-52.2765
20
51.8869
10
-52.8034
20
51.7660
10
-52.3957
20
52.6472
10
-52.2188
20
53.1670
10
-51.9893
20
53.4938
10
-53.3459
20
51.8431
10
-53.4380
20
52.5241
10
-53.9260
20
52.4080
10
-53.2727
20
53.7323
10
-53.8536
20
53.6981
10
-53.1434
20
55.9611
10
-52.8117
20
56.7489
10
-51.9345
20
58.4745
10
-51.3421
20
59.8367
10
-50.7128
20
60.6307
10
-49.3551
20
61.9230
10
-47.4360
20
63.4775
10
-45.9041
20
64.5952
10
-46.4343
20
64.2449
10
-46.9802
20
63.9621
10
-48.3018
20
63.5107
10
-49.9463
20
63.1139
10
-51.1831
20
63.0042
10
-51.0806
20
63.7113
10
-50.5192
20
63.8571
10
-51.4059
20
63.7083
10
-52.1550
20
63.6719
10
-52.3338
20
63.7315
10
-52.2932
20
63.9809
10
-52.3348
20
63.8577
10
-52.4001
20
63.8146
10
-53.4038
20
63.6802
10
-53.5462
20
63.8054
10
-53.7996
20
64.3583
10
-53.1598
20
64.4649
10
-54.5712
20
64.3113
10
-55.0520
20
65.1786
10
-55.3228
20
65.2260
10
-55.0848
20
65.1558
10
-55.0117
20
65.0870
10
-54.8760
20
64.7315
10
-55.2640
20
64.7889
10
-55.5269
20
65.0102
10
-55.7187
20
65.2785
10
-55.5008
20
65.2572
10
-56.3008
20
65.4044
10
-56.5856
20
65.6468
10
-57.5849
20
66.7716
10
-57.7899
20
67.5651
10
-58.5000
20
68.3335
10
-58.4457
20
68.3797
10
-55.6351
20
69.0355
10
-53.1418
20
69.7616
10
-51.6063
20
70.3005
10
-49.5319
20
71.1753
10
-47.7792
20
72.1108
10
-46.8155
20
72.7576
10
-45.9472
20
73.5046
10
-45.5584
20
73.9421
10
-45.2368
20
74.3928
10
-44.9848
20
74.8519
10
-44.8047
20
75.3141
10
-44.6988
20
75.7746
10
-44.6697
20
76.2282
10
-44.7910
20
76.9180
10
-45.0746
20
77.2506
10
-47.0933
20
78.7661
10
-48.0356
20
79.6759
10
-48.4061
20
80.1320
10
-48.7187
20
80.5994
10
-49.1977
20
81.5988
10
-49.4148
20
82.3890
10
-49.5208
20
83.2583
10
-49.5116
20
84.1329
10
-49.3832
20
84.9387
10
-49.1658
20
85.6202
10
-48.8630
20
86.2850
10
-48.4738
20
86.9345
10
-47.9970
20
87.5700
10
-47.4316
20
88.1927
10
-46.7765
20
88.8041
10
-46.0306
20
89.4054
10
-45.1928
20
89.9979
10
-43.3682
20
91.0825
10
-42.3287
20
91.6136
10
-40.0207
20
92.6420
10
-37.4409
20
93.6104
10
-36.0618
20
94.0665
10
-30.7393
20
95.5843
10
-29.5848
20
95.8540
10
-29.7943
20
95.0980
10
-28.9990
20
95.0486
10
-29.0335
20
95.0628
10
-28.4717
20
95.2093
10
-28.6028
20
94.7312
10
-28.6529
20
94.6383
10
-28.7595
20
94.5839
10
-25.6515
20
94.7292
10
-27.9333
20
94.0020
10
-29.2591
20
93.5605
10
-29.8241
20
93.3609
10
-27.7830
20
94.0017
10
-27.0837
20
93.9836
10
-24.5444
20
94.0925
10
-27.8303
20
93.0186
10
-30.5321
20
92.0495
10
-32.9701
20
91.0642
10
-35.1345
20
90.0670
10
-37.0153
20
89.0622
10
-38.6765
20
88.0031
10
-40.0843
20
86.8770
10
-40.7747
20
86.1494
10
-41.0465
20
85.7908
10
-41.4450
20
85.0807
10
-41.6523
20
84.3764
10
-41.6709
20
83.6731
10
-41.6104
20
83.3202
10
-41.3513
20
82.6091
10
-41.0520
20
82.1161
10
-40.6058
20
81.6203
10
-39.9283
20
81.0409
10
-37.6427
20
79.2779
10
-36.7319
20
78.3369
10
-36.3943
20
77.8640
10
-36.1218
20
77.3726
10
-35.9042
20
76.8500
10
-35.6439
20
75.8681
10
-35.5659
20
74.9631
10
-35.6152
20
73.9986
10
-35.7893
20
73.0219
10
-36.1963
20
71.8192
10
-36.7550
20
70.7306
10
-37.3713
20
69.8613
10
-37.7964
20
69.5672
10
-38.7905
20
69.0459
10
-39.6546
20
68.5686
10
-40.5760
20
68.0353
10
-41.5428
20
67.4536
10
-42.5431
20
66.8306
10
-43.5817
20
66.1624
10
-39.7685
20
68.4997
10
-38.0782
20
69.4146
10
-36.9843
20
69.9389
10
-36.4208
20
69.7488
10
-36.0541
20
69.7081
10
-35.2021
20
69.7896
10
-34.1959
20
70.0876
10
-32.2481
20
70.9657
10
-32.2215
20
70.8764
10
-32.3756
20
70.0107
10
-32.3498
20
69.8923
10
-30.1980
20
70.7851
10
-27.0188
20
72.0205
10
-23.7452
20
73.1387
10
-21.4949
20
73.8397
10
-26.9107
20
71.2473
10
-29.3094
20
70.0549
10
-30.5359
20
69.4139
10
-28.7878
20
70.2622
10
-27.3537
20
70.8381
10
-22.7800
20
72.4558
10
-20.9809
20
73.0426
10
-20.4057
20
73.1840
10
-26.7096
20
70.1760
10
-30.7056
20
68.1076
10
-35.4693
20
65.4658
10
-38.2926
20
63.7621
10
-39.7479
20
62.8014
10
-41.0214
20
61.8377
10
-41.4665
20
61.4030
10
-41.6207
20
61.1790
10
-41.7506
20
60.8021
10
-41.9552
20
59.8641
10
-42.2405
20
57.7818
10
-42.6744
20
57.5125
10
-39.8422
20
59.1438
10
-38.0058
20
60.1285
10
-37.9601
20
60.1414
10
-38.9102
20
58.6642
10
-39.1008
20
58.2786
10
-37.1862
20
59.3566
10
-37.0205
20
59.4232
10
-36.9961
20
59.3223
10
-36.7703
20
60.4869
10
-36.6353
20
60.8582
10
-35.9607
20
61.4640
10
-35.4408
20
62.0639
10
-34.9514
20
62.8906
10
-34.5420
20
63.7831
10
-34.1164
20
62.7231
10
-33.8049
20
62.2430
10
-33.4014
20
63.2105
10
-33.1414
20
62.4082
10
-32.7823
20
61.7252
10
-32.5128
20
61.4695
10
-32.3712
20
61.4045
10
-32.0321
20
61.3826
10
-32.2280
20
60.9288
10
-32.3899
20
60.5216
10
-32.5251
20
60.1103
10
-32.6636
20
59.5390
10
-32.3723
20
60.5622
10
-31.7682
20
61.8244
10
-30.9145
20
62.9954
10
-29.8239
20
64.0620
10
-28.5095
20
65.0108
10
-26.9839
20
65.8288
10
-25.0644
20
66.5538
10
-24.3950
20
66.7570
10
-23.9310
20
66.8440
10
-23.9713
20
65.9397
10
-22.9085
20
66.1863
10
-22.8810
20
65.2148
10
-22.9372
20
64.0310
10
-23.0436
20
63.8686
10
-23.6465
20
63.4915
10
-23.2074
20
63.2438
10
-23.7103
20
62.8901
10
-26.5218
20
61.3494
10
-27.0444
20
60.9590
10
-27.7141
20
60.2954
10
-28.0483
20
59.8391
10
-28.4041
20
59.2260
10
-29.0917
20
58.8840
10
-25.0074
20
60.6176
10
-23.7981
20
61.0742
10
-23.7569
20
61.0659
10
-23.7190
20
60.9113
10
-23.5577
20
59.4420
10
-23.6096
20
60.0889
10
-23.1025
20
60.3306
10
-23.1349
20
59.6733
10
-22.5342
20
66.4471
10
-21.7196
20
67.1262
10
-21.4407
20
66.5774
10
-20.4199
20
68.0584
10
-19.8496
20
67.4425
10
-19.2320
20
67.9987
10
-19.2368
20
67.3638
10
-18.7019
20
66.8289
10
-18.3127
20
67.2062
10
-18.1071
20
67.3384
10
-18.2822
20
64.7955
10
-18.3879
20
63.7773
10
-18.4459
20
63.5890
10
-18.2720
20
63.7274
10
-18.2077
20
64.1460
10
-18.0258
20
68.2329
10
-17.5888
20
68.2507
10
-17.0505
20
68.4785
10
-16.7592
20
68.7454
10
-16.5009
20
69.2426
10
-16.3025
20
69.0358
10
-16.1057
20
68.9100
10
-15.9539
20
68.9073
10
-15.7850
20
68.9790
10
-15.6167
20
69.1146
10
-15.2515
20
69.5779
10
-15.0293
20
69.2843
10
-14.9224
20
69.2629
10
-14.7202
20
69.3354
10
-14.8438
20
68.2624
10
-14.5555
20
68.4209
10
-14.1991
20
68.9410
10
-13.9067
20
68.6708
10
-13.6503
20
68.6660
10
-13.5915
20
68.6005
10
-13.9097
20
65.5761
10
-14.0121
20
64.1016
10
-14.0603
20
62.4511
10
-14.0451
20
55.8657
10
-13.8890
20
51.5151
10
-14.1051
20
51.6734
10
-15.0690
20
52.7017
10
-15.1137
20
53.4654
10
-15.0804
20
52.8277
10
-15.0304
20
52.1024
10
-15.8907
20
52.9956
10
-15.7138
20
52.7213
10
-15.7330
20
52.5549
10
-15.8195
20
52.4854
10
-16.8793
20
52.9825
10
-17.0168
20
53.0848
10
-16.9234
20
53.1390
10
-17.1944
20
53.2132
10
-18.1722
20
53.6833
10
-18.2600
20
58.9320
10
-18.2600
20
58.8819
10
-18.6406
20
58.7727
10
-18.6693
20
53.3977
10
-18.7209
20
51.6785
10
-19.4662
20
51.9403
10
-19.8674
20
50.5047
10
-19.9623
20
50.6353
10
-20.5613
20
51.9865
10
-20.6444
20
52.3012
10
-20.9962
20
51.1513
10
-21.7407
20
52.8039
10
-22.0383
20
52.6587
10
-22.0867
20
53.4916
10
-22.5382
20
52.9529
10
-22.8431
20
53.3854
10
-22.9487
20
53.4132
10
-23.1230
20
53.3421
10
-23.1935
20
53.3806
10
-23.2434
20
53.7179
10
-23.2632
20
54.9553
10
-23.2153
20
58.2966
10
-23.2854
20
57.8587
10
-23.4389
20
57.6688
10
-23.4957
20
57.1876
10
-23.7613
20
50.4550
10
-23.8350
20
50.3372
10
-24.2494
20
50.4066
10
-24.3311
20
50.3754
10
-24.4414
20
49.9068
10
-25.1932
20
50.4841
10
-25.3659
20
50.5595
10
-25.5547
20
50.4882
10
-26.1001
20
50.1291
10
-26.4230
20
50.3452
10
-26.5254
20
50.3587
10
-26.6061
20
50.2838
10
-26.8354
20
49.8483
10
-26.8668
20
50.9899
10
-27.2172
20
50.7771
10
-27.5580
20
50.9613
10
-27.7265
20
50.9900
10
-27.9697
20
50.4630
10
-27.9792
20
53.1426
10
-27.9792
20
52.4830
10
-28.7696
20
52.5695
10
-29.7555
20
52.9131
10
-30.3088
20
53.2747
10
-30.1301
20
53.2519
10
-30.7852
20
53.5026
10
-31.4771
20
53.9323
10
-32.0230
20
54.4977
10
-32.4295
20
55.2057
10
-32.7003
20
55.9991
10
-32.7926
20
56.6687
10
-32.8949
20
53.2782
10
-33.0002
20
46.6383
10
-33.0232
20
46.4762
10
-33.0940
20
46.3623
10
-33.2610
20
46.2911
10
-33.6757
20
46.3334
10
-34.1187
20
46.6049
10
-34.4216
20
46.9011
10
-34.2631
20
46.9754
10
-34.6032
20
46.9129
10
-34.7896
20
46.9500
10
-35.1504
20
47.1196
10
-35.5299
20
47.5138
10
-35.9110
20
48.0800
10
-35.9063
20
47.9955
10
-36.0766
20
48.0054
10
-36.4380
20
47.8735
10
-36.4635
20
48.2005
10
-36.4043
20
48.3195
10
-36.5951
20
48.2975
10
-37.0985
20
48.6771
10
-37.4869
20
48.4808
10
-37.5756
20
48.4938
10
-37.6905
20
50.7916
10
-37.6358
20
53.3969
10
-37.3389
20
56.9143
10
-37.0009
20
59.2948
10
-37.9900
20
57.5893
10
-37.5750
20
56.4361
10
-37.8331
20
55.2980
10
-40.3872
20
53.7004
10
-41.6309
20
52.8389
10
-42.3723
20
52.2565
10
-42.4290
20
51.5665
10
-42.4208
20
49.5275
10
-42.2521
20
43.7101
10
-43.0651
20
43.0000
10
-43.5628
20
43.3557
10
-44.0217
20
43.7411
10
-44.0144
20
43.7811
10
-44.2371
20
43.5879
10
-45.3392
20
44.5166
0
LWPOLYLINE
8
SF2_DEBOSS
100
AcDbEntity
100
AcDbPolyline
90
3
70
1
10
-45.7020
20
44.1113
10
-45.6981
20
44.1100
10
-45.6391
20
44.1816
0
LWPOLYLINE
8
SF2_DEBOSS
100
AcDbEntity
100
AcDbPolyline
90
3
70
1
10
-43.6167
20
44.1284
10
-43.3714
20
44.3501
10
-43.8612
20
43.9151
0
LWPOLYLINE
8
SF2_DEBOSS
100
AcDbEntity
100
AcDbPolyline
90
3
70
1
10
-43.5652
20
52.1287
10
-43.5653
20
52.1193
10
-43.5589
20
52.2957
0
LWPOLYLINE
8
SF2_DEBOSS
100
AcDbEntity
100
AcDbPolyline
90
3
70
1
10
-39.0893
20
58.0217
10
-39.0249
20
57.8410
10
-38.9302
20
57.6047
0
LWPOLYLINE
8
SF2_DEBOSS
100
AcDbEntity
100
AcDbPolyline
90
3
70
1
10
-29.6853
20
53.1714
10
-28.7257
20
53.1389
10
-28.1219
20
53.1565
0
LWPOLYLINE
8
SF2_DEBOSS
100
AcDbEntity
100
AcDbPolyline
90
3
70
1
10
-50.8107
20
54.8950
10
-50.3429
20
55.4228
10
-51.3034
20
54.3258
0
LWPOLYLINE
8
SF2_DEBOSS
100
AcDbEntity
100
AcDbPolyline
90
3
70
1
10
-47.8619
20
57.9329
10
-47.8350
20
57.9575
10
-47.8562
20
57.9383
0
LWPOLYLINE
8
SF2_DEBOSS
100
AcDbEntity
100
AcDbPolyline
90
4
70
1
10
-47.5812
20
58.1600
10
-47.6303
20
58.1356
10
-47.7226
20
58.0590
10
-47.7997
20
57.9894
0
LWPOLYLINE
8
SF2_DEBOSS
100
AcDbEntity
100
AcDbPolyline
90
3
70
1
10
-47.5498
20
58.1150
10
-47.5741
20
57.7661
10
-47.5992
20
57.5601
0
LWPOLYLINE
8
SF2_DEBOSS
100
AcDbEntity
100
AcDbPolyline
90
3
70
1
10
-32.6941
20
59.3814
10
-32.7181
20
59.2573
10
-32.7379
20
59.1068
0
LWPOLYLINE
8
SF2_DEBOSS
100
AcDbEntity
100
AcDbPolyline
90
3
70
1
10
-34.1618
20
47.0577
10
-34.2577
20
46.9787
10
-34.2171
20
47.0038
0
LWPOLYLINE
8
SF2_DEBOSS
100
AcDbEntity
100
AcDbPolyline
90
7
70
1
10
-34.0987
20
47.2010
10
-34.0738
20
48.3800
10
-34.0092
20
53.8966
10
-33.9035
20
56.5528
10
-34.0067
20
54.3376
10
-34.0795
20
48.5908
10
-34.1435
20
47.0834
0
LWPOLYLINE
8
SF2_DEBOSS
100
AcDbEntity
100
AcDbPolyline
90
3
70
1
10
-33.4746
20
60.2260
10
-33.5581
20
59.7200
10
-33.3894
20
60.6903
0
LWPOLYLINE
8
SF2_DEBOSS
100
AcDbEntity
100
AcDbPolyline
90
3
70
1
10
-33.3893
20
60.6908
10
-33.2945
20
61.1734
10
-33.3823
20
60.7293
0
LWPOLYLINE
8
SF2_DEBOSS
100
AcDbEntity
100
AcDbPolyline
90
3
70
1
10
-33.2748
20
61.2733
10
-33.2750
20
61.2723
10
-33.1520
20
61.8623
0
LWPOLYLINE
8
SF2_DEBOSS
100
AcDbEntity
100
AcDbPolyline
90
3
70
1
10
-33.2580
20
62.0094
10
-33.5938
20
62.0682
10
-33.3981
20
61.9979
0
LWPOLYLINE
8
SF2_DEBOSS
100
AcDbEntity
100
AcDbPolyline
90
6
70
1
10
-24.0064
20
65.2810
10
-24.0771
20
64.5799
10
-24.2050
20
64.4374
10
-24.0757
20
64.5801
10
-24.0461
20
64.7278
10
-24.0304
20
64.8645
0
LWPOLYLINE
8
SF2_DEBOSS
100
AcDbEntity
100
AcDbPolyline
90
3
70
1
10
-24.2433
20
64.4123
10
-24.7887
20
64.1601
10
-24.8175
20
64.1330
0
LWPOLYLINE
8
SF2_DEBOSS
100
AcDbEntity
100
AcDbPolyline
90
4
70
1
10
-24.6708
20
64.0306
10
-24.7986
20
64.1092
10
-24.8175
20
64.1330
10
-24.7986
20
64.1092
0
LWPOLYLINE
8
SF2_DEBOSS
100
AcDbEntity
100
AcDbPolyline
90
3
70
1
10
-26.2912
20
62.7563
10
-26.3328
20
62.7340
10
-25.9007
20
62.9579
0
LWPOLYLINE
8
SF2_DEBOSS
100
AcDbEntity
100
AcDbPolyline
90
3
70
1
10
-26.6517
20
62.5633
10
-26.7024
20
62.5350
10
-26.5347
20
62.6259
0
LWPOLYLINE
8
SF2_DEBOSS
100
AcDbEntity
100
AcDbPolyline
90
3
70
1
10
-26.9837
20
62.3777
10
-27.0046
20
62.3654
10
-26.9650
20
62.3881
0
LWPOLYLINE
8
SF2_DEBOSS
100
AcDbEntity
100
AcDbPolyline
90
3
70
1
10
-28.2684
20
61.5167
10
-28.3039
20
61.4841
10
-28.2295
20
61.5460
0
LWPOLYLINE
8
SF2_DEBOSS
100
AcDbEntity
100
AcDbPolyline
90
3
70
1
10
-29.0151
20
60.7150
10
-28.5501
20
61.2562
10
-28.4787
20
61.3238
0
LWPOLYLINE
8
SF2_DEBOSS
100
AcDbEntity
100
AcDbPolyline
90
3
70
1
10
-29.1805
20
60.4686
10
-29.1811
20
60.4674
10
-29.1769
20
60.4739
0
LWPOLYLINE
8
SF2_DEBOSS
100
AcDbEntity
100
AcDbPolyline
90
3
70
1
10
-29.6140
20
59.3878
10
-29.5329
20
59.6955
10
-29.6635
20
59.0946
0
LWPOLYLINE
8
SF2_DEBOSS
100
AcDbEntity
100
AcDbPolyline
90
3
70
1
10
-29.6899
20
58.8789
10
-29.6900
20
58.8771
10
-29.6896
20
58.8817
0
LWPOLYLINE
8
SF2_DEBOSS
100
AcDbEntity
100
AcDbPolyline
90
4
70
1
10
-29.3231
20
56.8861
10
-29.4773
20
57.1262
10
-29.6549
20
57.6568
10
-29.4742
20
57.1065
0
LWPOLYLINE
8
SF2_DEBOSS
100
AcDbEntity
100
AcDbPolyline
90
5
70
1
10
-28.9147
20
56.5199
10
-29.0978
20
56.6460
10
-29.3060
20
56.8613
10
-29.1325
20
56.6702
10
-28.9638
20
56.5474
0
LWPOLYLINE
8
SF2_DEBOSS
100
AcDbEntity
100
AcDbPolyline
90
10
70
1
10
-27.6926
20
56.2844
10
-27.6307
20
56.5178
10
-27.6279
20
57.3505
10
-28.1218
20
57.3134
10
-28.7173
20
58.2563
10
-28.6179
20
57.9656
10
-28.5545
20
57.1304
10
-28.4680
20
56.7960
10
-28.2356
20
56.2614
10
-27.9489
20
56.2318
0
LWPOLYLINE
8
SF2_DEBOSS
100
AcDbEntity
100
AcDbPolyline
90
3
70
1
10
-25.0957
20
51.0000
10
-25.0181
20
50.9931
10
-25.1838
20
51.0160
0
LWPOLYLINE
8
SF2_DEBOSS
100
AcDbEntity
100
AcDbPolyline
90
3
70
1
10
-24.8957
20
51.4420
10
-24.9118
20
51.1743
10
-24.8865
20
51.6151
0
LWPOLYLINE
8
SF2_DEBOSS
100
AcDbEntity
100
AcDbPolyline
90
3
70
1
10
-24.8424
20
52.5551
10
-24.7654
20
54.4737
10
-24.8863
20
51.6199
0
LWPOLYLINE
8
SF2_DEBOSS
100
AcDbEntity
100
AcDbPolyline
90
3
70
1
10
-24.5783
20
58.3823
10
-24.6060
20
58.1604
10
-24.5783
20
58.3823
0
LWPOLYLINE
8
SF2_DEBOSS
100
AcDbEntity
100
AcDbPolyline
90
15
70
1
10
-37.8354
20
65.3367
10
-39.7625
20
64.1438
10
-40.8234
20
63.4459
10
-41.2768
20
63.1326
10
-41.6743
20
62.8459
10
-42.0126
20
62.5878
10
-42.2884
20
62.3607
10
-42.4983
20
62.1665
10
-42.6390
20
62.0075
10
-42.7401
20
61.8335
10
-42.5015
20
62.1547
10
-42.2105
20
62.4219
10
-40.8967
20
63.3904
10
-38.3949
20
64.9872
10
-35.4877
20
66.7085
0
LWPOLYLINE
8
SF2_DEBOSS
100
AcDbEntity
100
AcDbPolyline
90
3
70
1
10
-43.0987
20
60.4808
10
-43.2976
20
59.0077
10
-43.0139
20
60.9198
0
LWPOLYLINE
8
SF2_DEBOSS
100
AcDbEntity
100
AcDbPolyline
90
3
70
1
10
-43.3624
20
58.4003
10
-43.4423
20
57.5335
10
-43.3020
20
58.9693
0
LWPOLYLINE
8
SF2_DEBOSS
100
AcDbEntity
100
AcDbPolyline
90
3
70
1
10
-43.4682
20
57.0622
10
-43.4656
20
57.0629
10
-43.4686
20
57.0657
0
LWPOLYLINE
8
SF2_DEBOSS
100
AcDbEntity
100
AcDbPolyline
90
3
70
1
10
-52.3097
20
64.5431
10
-52.3803
20
64.5404
10
-52.3810
20
64.5403
0
LWPOLYLINE
8
SF2_DEBOSS
100
AcDbEntity
100
AcDbPolyline
90
4
70
1
10
-52.2641
20
64.5435
10
-52.2004
20
64.4566
10
-52.2091
20
64.3841
10
-52.1748
20
64.5442
0
LWPOLYLINE
8
SF2_DEBOSS
100
AcDbEntity
100
AcDbPolyline
90
3
70
1
10
-28.9116
20
94.6916
10
-28.9116
20
94.6915
10
-28.9160
20
94.8144
0
LWPOLYLINE
8
SF2_DEBOSS
100
AcDbEntity
100
AcDbPolyline
90
3
70
1
10
-28.8933
20
94.6211
10
-28.8931
20
94.6209
10
-28.9049
20
94.6657
0
LWPOLYLINE
8
SF2_DEBOSS
100
AcDbEntity
100
AcDbPolyline
90
3
70
1
10
-42.5276
20
85.8170
10
-42.6537
20
85.5102
10
-42.5022
20
85.8653
0
LWPOLYLINE
8
SF2_DEBOSS
100
AcDbEntity
100
AcDbPolyline
90
3
70
1
10
-42.3652
20
86.1259
10
-42.4657
20
85.9347
10
-42.2861
20
86.2495
0
LWPOLYLINE
8
SF2_DEBOSS
100
AcDbEntity
100
AcDbPolyline
90
7
70
1
10
-40.8391
20
87.8455
10
-41.3517
20
87.3834
10
-41.6597
20
87.0657
10
-41.9312
20
86.7502
10
-42.1664
20
86.4369
10
-42.2614
20
86.2882
10
-41.6682
20
87.0495
0
LWPOLYLINE
8
SF2_DEBOSS
100
AcDbEntity
100
AcDbPolyline
90
3
70
1
10
-40.6264
20
88.0255
10
-40.8292
20
87.8539
10
-40.4217
20
88.1846
0
LWPOLYLINE
8
SF2_DEBOSS
100
AcDbEntity
100
AcDbPolyline
90
3
70
1
10
-40.2090
20
88.3500
10
-40.2618
20
88.3089
10
-40.0857
20
88.4387
0
LWPOLYLINE
8
SF2_DEBOSS
100
AcDbEntity
100
AcDbPolyline
90
3
70
1
10
-37.5741
20
90.0070
10
-38.0024
20
89.7672
10
-37.4571
20
90.0692
0
LWPOLYLINE
8
SF2_DEBOSS
100
AcDbEntity
100
AcDbPolyline
90
3
70
1
10
-36.9374
20
90.3455
10
-37.1582
20
90.2281
10
-36.5422
20
90.5455
0
LWPOLYLINE
8
SF2_DEBOSS
100
AcDbEntity
100
AcDbPolyline
90
5
70
1
10
-48.2006
20
64.5517
10
-46.3455
20
65.3004
10
-48.2013
20
64.5533
10
-49.9136
20
64.0074
10
-48.7866
20
64.3482
0
LWPOLYLINE
8
SF2_DEBOSS
100
AcDbEntity
100
AcDbPolyline
90
4
70
1
10
-16.8033
20
53.4416
10
-16.8141
20
53.3859
10
-16.8297
20
53.3053
10
-16.8294
20
53.3063
0
LWPOLYLINE
8
SF2_DEBOSS
100
AcDbEntity
100
AcDbPolyline
90
3
70
1
10
-16.7250
20
53.8432
10
-16.3731
20
53.4964
10
-16.7220
20
53.8586
0
LWPOLYLINE
8
SF2_DEBOSS
100
AcDbEntity
100
AcDbPolyline
90
3
70
1
10
-19.4787
20
64.4989
10
-19.5565
20
63.5656
10
-19.4225
20
65.1568
0
LWPOLYLINE
8
SF2_DEBOSS
100
AcDbEntity
100
AcDbPolyline
90
3
70
1
10
-20.5639
20
52.5540
10
-20.5744
20
52.5311
10
-20.5868
20
52.4937
0
LWPOLYLINE
8
SF2_DEBOSS
100
AcDbEntity
100
AcDbPolyline
90
13
70
1
10
-19.9013
20
52.3074
10
-19.8642
20
52.7955
10
-19.8597
20
52.9730
10
-19.8557
20
53.1785
10
-19.8522
20
53.4121
10
-19.8492
20
53.6740
10
-19.8466
20
53.9643
10
-19.8445
20
54.2831
10
-19.8429
20
54.6307
10
-19.8417
20
55.0072
10
-19.8410
20
55.4127
10
-19.8408
20
55.8478
10
-19.8557
20
53.1786
0
LWPOLYLINE
8
SF2_DEBOSS
100
AcDbEntity
100
AcDbPolyline
90
3
70
1
10
-19.8408
20
59.3883
10
-19.8408
20
59.3876
10
-19.3468
20
59.5455
0
LWPOLYLINE
8
SF2_DEBOSS
100
AcDbEntity
100
AcDbPolyline
90
3
70
1
10
-18.2876
20
59.8331
10
-18.3064
20
59.8511
10
-18.2843
20
59.7766
0
LWPOLYLINE
8
SF2_DEBOSS
100
AcDbEntity
100
AcDbPolyline
90
3
70
1
10
-15.0895
20
65.5925
10
-15.2111
20
63.3739
10
-15.2320
20
62.2866
0
LWPOLYLINE
8
SF2_DEBOSS
100
AcDbEntity
100
AcDbPolyline
90
240
70
1
10
-18.1480
20
81.4107
10
-17.8069
20
80.9404
10
-18.0501
20
80.6621
10
-18.5908
20
80.2889
10
-19.2456
20
79.9327
10
-20.1336
20
79.6279
10
-20.2106
20
76.2542
10
-21.1697
20
76.2542
10
-21.3190
20
75.8872
10
-21.4309
20
75.7969
10
-22.1828
20
75.9132
10
-22.1828
20
75.3622
10
-22.8616
20
75.4211
10
-23.1498
20
75.3828
10
-23.5000
20
75.1537
10
-23.9390
20
74.7026
10
-23.8643
20
76.0113
10
-24.1744
20
76.0054
10
-24.4697
20
75.9016
10
-24.8259
20
75.6506
10
-25.1112
20
75.3467
10
-24.9346
20
79.5270
10
-25.3150
20
79.3767
10
-25.4383
20
79.4082
10
-25.4942
20
79.9016
10
-25.7257
20
80.3485
10
-25.7543
20
81.0367
10
-26.2218
20
81.2186
10
-24.4955
20
81.9073
10
-24.4163
20
83.6610
10
-24.2014
20
85.5080
10
-24.2574
20
85.6601
10
-25.2485
20
85.3773
10
-25.3822
20
86.1840
10
-25.8119
20
86.5330
10
-25.9262
20
86.7243
10
-25.9080
20
86.5488
10
-26.2959
20
85.5160
10
-26.5298
20
84.5790
10
-26.9226
20
82.0506
10
-27.2028
20
78.5596
10
-27.4064
20
72.9169
10
-28.3661
20
72.8935
10
-28.4524
20
72.8412
10
-28.6186
20
72.5642
10
-29.2077
20
72.7881
10
-29.5399
20
72.3085
10
-29.9358
20
71.9523
10
-30.2690
20
71.8009
10
-31.3809
20
71.7523
10
-31.9465
20
71.2458
10
-32.4355
20
70.9264
10
-32.5225
20
71.3864
10
-32.5460
20
72.3455
10
-33.5937
20
71.3894
10
-33.6585
20
71.7833
10
-33.6803
20
72.4788
10
-33.6370
20
74.0803
10
-33.4803
20
75.4291
10
-33.2560
20
76.7877
10
-32.0392
20
83.2428
10
-31.9314
20
84.0531
10
-31.9088
20
84.3600
10
-31.9033
20
84.7312
10
-31.9229
20
84.5068
10
-32.0045
20
84.4116
10
-34.3389
20
83.3567
10
-38.3315
20
81.3063
10
-35.6334
20
83.8908
10
-39.5135
20
81.8935
10
-36.8690
20
84.4079
10
-36.8455
20
84.4374
10
-37.9065
20
84.3009
10
-36.9640
20
85.1655
10
-36.2430
20
85.9734
10
-35.7054
20
86.8191
10
-35.2973
20
87.7511
10
-35.2077
20
87.8607
10
-34.3966
20
88.2928
10
-31.9373
20
89.3596
10
-28.0529
20
90.8973
10
-25.6372
20
91.7818
10
-21.1119
20
93.3081
10
-14.6860
20
95.2735
10
-10.5308
20
96.4014
10
-6.7635
20
97.3213
10
-1.6258
20
98.4017
10
1.7248
20
99.0026
10
4.9155
20
99.4938
10
7.8606
20
99.8635
10
9.8564
20
100.0536
10
12.1646
20
100.1813
10
13.5841
20
100.1762
10
14.3619
20
100.1219
10
16.0858
20
99.8432
10
17.6892
20
99.4056
10
19.0536
20
98.8489
10
19.6092
20
98.5383
10
20.0413
20
98.2277
10
19.9872
20
98.2938
10
20.5861
20
97.9883
10
21.0716
20
97.6505
10
21.5363
20
97.2370
10
21.9267
20
96.8010
10
22.3030
20
96.1338
10
22.4354
20
95.6162
10
22.4425
20
95.0714
10
22.3251
20
94.4576
10
22.0896
20
93.7669
10
21.5420
20
92.7922
10
21.0487
20
92.1947
10
20.4552
20
91.6409
10
19.3817
20
90.8962
10
18.0946
20
90.2598
10
17.1214
20
89.8985
10
16.2792
20
89.6544
10
14.4012
20
89.2543
10
14.3564
20
89.2760
10
15.9497
20
90.1187
10
15.2890
20
90.2741
10
15.9902
20
90.5243
10
14.7365
20
90.1713
10
13.2734
20
89.9083
10
14.7069
20
90.7215
10
14.1888
20
90.9234
10
16.0989
20
91.6820
10
15.8796
20
92.0442
10
16.8991
20
92.3275
10
16.9762
20
93.1511
10
17.0316
20
93.2045
10
17.4014
20
93.2959
10
17.3739
20
93.3890
10
17.0369
20
93.8123
10
17.6648
20
94.1532
10
18.3109
20
94.6489
10
18.8019
20
95.2201
10
18.9828
20
95.5265
10
19.1172
20
95.8428
10
19.2286
20
96.3904
10
19.1788
20
96.7987
10
18.9880
20
97.1557
10
18.7609
20
97.3771
10
18.7754
20
97.3462
10
18.7135
20
97.3420
10
18.0201
20
97.5098
10
17.2289
20
97.6292
10
15.1352
20
97.8225
10
12.6214
20
97.9070
10
10.8669
20
97.8252
10
9.7208
20
97.6829
10
8.5160
20
97.3988
10
7.9209
20
97.1238
10
7.5747
20
96.7528
10
7.4178
20
96.4747
10
7.1361
20
95.7319
10
6.8969
20
94.7387
10
6.7000
20
93.4931
10
6.5450
20
91.9928
10
6.4315
20
90.2360
10
6.3016
20
84.4219
10
5.6631
20
84.2868
10
5.2477
20
84.5593
10
4.8651
20
84.0998
10
4.2539
20
84.4429
10
3.8899
20
83.6022
10
3.0469
20
83.6106
10
2.3865
20
83.4053
10
2.3544
20
83.4240
10
2.4322
20
84.1709
10
2.6974
20
84.2490
10
1.9216
20
84.2491
10
1.3610
20
84.0818
10
1.2465
20
84.0917
10
1.4303
20
89.2679
10
1.6254
20
93.2552
10
1.7404
20
93.9029
10
2.1930
20
95.3563
10
2.1845
20
95.7149
10
2.0278
20
96.4248
10
1.9433
20
96.3452
10
1.7727
20
96.2913
10
0.7766
20
96.0470
10
-0.5190
20
95.7118
10
0.1538
20
95.8592
10
0.1740
20
95.6607
10
0.0946
20
94.9239
10
1.3172
20
95.2188
10
1.0587
20
92.9233
10
-2.7882
20
91.9126
10
-2.8571
20
91.6248
10
-2.8614
20
90.9230
10
-0.9774
20
91.3322
10
-0.8153
20
91.3600
10
-0.7670
20
91.3252
10
-0.8056
20
90.7932
10
-1.1118
20
88.8847
10
-0.8513
20
90.4672
10
0.0945
20
90.6806
10
0.3752
20
90.7032
10
0.4046
20
90.6112
10
0.3629
20
90.2335
10
0.0386
20
88.2886
10
-0.2561
20
88.1570
10
-3.0663
20
87.2825
10
-3.3051
20
85.9303
10
-3.7002
20
85.7688
10
-0.9053
20
86.5724
10
-0.4543
20
86.6604
10
-0.4281
20
86.4811
10
-0.6072
20
83.7288
10
-3.5034
20
83.0022
10
-0.6072
20
83.7262
10
-0.4666
20
85.7457
10
0.0952
20
85.9450
10
0.6765
20
86.0852
10
0.5909
20
84.5952
10
0.4357
20
83.1002
10
-3.0609
20
82.1979
10
-6.6635
20
81.3480
10
-6.6886
20
81.6077
10
-6.6435
20
82.2082
10
-5.3013
20
82.5513
10
-7.7460
20
81.9591
10
-7.7796
20
82.0252
10
-7.7259
20
82.8641
10
-7.8960
20
81.1872
10
-8.0233
20
80.3885
10
-11.5369
20
79.2834
10
-11.5781
20
79.2262
10
-11.4686
20
79.0678
10
-11.6073
20
78.9776
10
-12.7244
20
78.9190
10
-13.4789
20
79.2402
10
-13.5799
20
78.5545
10
-14.5262
20
78.2721
10
-14.6750
20
78.3529
10
-14.9359
20
78.6148
10
-15.2656
20
78.9880
10
-15.2109
20
79.0050
10
-15.7568
20
78.8685
0
LWPOLYLINE
8
SF2_DEBOSS
100
AcDbEntity
100
AcDbPolyline
90
3
70
1
10
-21.3744
20
76.8982
10
-21.3403
20
77.4984
10
-21.3744
20
76.8982
0
LWPOLYLINE
8
SF2_DEBOSS
100
AcDbEntity
100
AcDbPolyline
90
3
70
1
10
-20.6771
20
80.4152
10
-20.6770
20
80.4153
10
-20.9293
20
80.3464
0
LWPOLYLINE
8
SF2_DEBOSS
100
AcDbEntity
100
AcDbPolyline
90
3
70
1
10
-20.4228
20
80.5088
10
-20.4227
20
80.5089
10
-20.5342
20
80.4678
0
LWPOLYLINE
8
SF2_DEBOSS
100
AcDbEntity
100
AcDbPolyline
90
3
70
1
10
-19.9163
20
80.7653
10
-19.9162
20
80.7654
10
-20.0865
20
80.6791
0
LWPOLYLINE
8
SF2_DEBOSS
100
AcDbEntity
100
AcDbPolyline
90
5
70
1
10
-19.4268
20
81.1057
10
-18.9712
20
81.5198
10
-18.6027
20
81.9034
10
-19.4268
20
81.1059
10
-19.7591
20
80.8746
0
LWPOLYLINE
8
SF2_DEBOSS
100
AcDbEntity
100
AcDbPolyline
90
3
70
1
10
-23.2953
20
75.9670
10
-23.2953
20
75.9808
10
-23.5240
20
75.9940
0
LWPOLYLINE
8
SF2_DEBOSS
100
AcDbEntity
100
AcDbPolyline
90
3
70
1
10
-23.2952
20
76.2707
10
-23.2953
20
76.2685
10
-23.2953
20
76.2616
0
LWPOLYLINE
8
SF2_DEBOSS
100
AcDbEntity
100
AcDbPolyline
90
3
70
1
10
-23.2749
20
76.5103
10
-23.2923
20
76.4321
10
-23.2924
20
76.4295
0
LWPOLYLINE
8
SF2_DEBOSS
100
AcDbEntity
100
AcDbPolyline
90
3
70
1
10
-23.2339
20
76.5336
10
-23.2740
20
76.5141
10
-23.2742
20
76.5136
0
LWPOLYLINE
8
SF2_DEBOSS
100
AcDbEntity
100
AcDbPolyline
90
3
70
1
10
-23.1342
20
76.5245
10
-23.2261
20
76.5374
10
-23.2261
20
76.5374
0
LWPOLYLINE
8
SF2_DEBOSS
100
AcDbEntity
100
AcDbPolyline
90
8
70
1
10
-32.1872
20
85.3074
10
-32.1093
20
85.3041
10
-32.3010
20
85.2958
10
-32.4526
20
85.2653
10
-32.6409
20
85.2119
10
-32.7877
20
85.1621
10
-32.4525
20
85.2653
10
-32.3010
20
85.2958
0
LWPOLYLINE
8
SF2_DEBOSS
100
AcDbEntity
100
AcDbPolyline
90
3
70
1
10
-32.0646
20
85.2932
10
-32.0901
20
85.3031
10
-32.0962
20
85.3034
0
LWPOLYLINE
8
SF2_DEBOSS
100
AcDbEntity
100
AcDbPolyline
90
3
70
1
10
-32.0161
20
85.2718
10
-32.0200
20
85.2760
10
-32.0218
20
85.2767
0
LWPOLYLINE
8
SF2_DEBOSS
100
AcDbEntity
100
AcDbPolyline
90
3
70
1
10
-34.6848
20
84.3504
10
-33.7871
20
84.7597
10
-33.4403
20
84.9090
0
LWPOLYLINE
8
SF2_DEBOSS
100
AcDbEntity
100
AcDbPolyline
90
3
70
1
10
-32.8673
20
85.1351
10
-32.8674
20
85.1350
10
-32.8985
20
85.1232
0
LWPOLYLINE
8
SF2_DEBOSS
100
AcDbEntity
100
AcDbPolyline
90
3
70
1
10
-24.1784
20
85.6703
10
-24.1902
20
85.6549
10
-24.1791
20
85.6295
0
LWPOLYLINE
8
SF2_DEBOSS
100
AcDbEntity
100
AcDbPolyline
90
3
70
1
10
20.1840
20
98.1043
10
20.1719
20
98.1145
10
20.1972
20
98.0921
0
LWPOLYLINE
8
SF2_DEBOSS
100
AcDbEntity
100
AcDbPolyline
90
7
70
1
10
20.6969
20
97.5830
10
20.9980
20
97.1553
10
21.1571
20
96.8256
10
21.1288
20
96.9159
10
20.9014
20
97.3364
10
20.5865
20
97.7320
10
20.3620
20
97.9397
0
LWPOLYLINE
8
SF2_DEBOSS
100
AcDbEntity
100
AcDbPolyline
90
3
70
1
10
20.8077
20
94.0571
10
20.9653
20
94.3889
10
20.9653
20
94.3889
0
LWPOLYLINE
8
SF2_DEBOSS
100
AcDbEntity
100
AcDbPolyline
90
3
70
1
10
20.6517
20
93.7782
10
20.7460
20
93.9467
10
20.6230
20
93.7342
0
LWPOLYLINE
8
SF2_DEBOSS
100
AcDbEntity
100
AcDbPolyline
90
3
70
1
10
20.4596
20
93.4845
10
20.5390
20
93.6058
10
20.4112
20
93.4201
0
LWPOLYLINE
8
SF2_DEBOSS
100
AcDbEntity
100
AcDbPolyline
90
3
70
1
10
20.2446
20
93.1990
10
20.3120
20
93.2885
10
20.1718
20
93.1140
0
LWPOLYLINE
8
SF2_DEBOSS
100
AcDbEntity
100
AcDbPolyline
90
3
70
1
10
20.0072
20
92.9221
10
20.0619
20
92.9859
10
19.9025
20
92.8140
0
LWPOLYLINE
8
SF2_DEBOSS
100
AcDbEntity
100
AcDbPolyline
90
3
70
1
10
19.7477
20
92.6541
10
19.7881
20
92.6959
10
19.6987
20
92.6115
0
LWPOLYLINE
8
SF2_DEBOSS
100
AcDbEntity
100
AcDbPolyline
90
3
70
1
10
19.1642
20
92.1463
10
19.1676
20
92.1492
10
19.1507
20
92.1368
0
LWPOLYLINE
8
SF2_DEBOSS
100
AcDbEntity
100
AcDbPolyline
90
3
70
1
10
18.4978
20
91.6782
10
18.5617
20
91.7231
10
18.4600
20
91.6566
0
LWPOLYLINE
8
SF2_DEBOSS
100
AcDbEntity
100
AcDbPolyline
90
3
70
1
10
17.7519
20
91.2526
10
17.8223
20
91.2927
10
17.6807
20
91.2196
0
LWPOLYLINE
8
SF2_DEBOSS
100
AcDbEntity
100
AcDbPolyline
90
3
70
1
10
16.9300
20
90.8721
10
16.9720
20
90.8915
10
16.8597
20
90.8460
0
LWPOLYLINE
8
SF2_DEBOSS
100
AcDbEntity
100
AcDbPolyline
90
3
70
1
10
18.3683
20
97.6293
10
18.4645
20
97.5780
10
18.4240
20
97.6026
0
LWPOLYLINE
8
SF2_DEBOSS
100
AcDbEntity
100
AcDbPolyline
90
3
70
1
10
18.0114
20
97.7860
10
18.3117
20
97.6564
10
18.1588
20
97.7296
0
LWPOLYLINE
8
SF2_DEBOSS
100
AcDbEntity
100
AcDbPolyline
90
3
70
1
10
16.5773
20
98.1580
10
16.6993
20
98.1372
10
16.6915
20
98.1388
0
LWPOLYLINE
8
SF2_DEBOSS
100
AcDbEntity
100
AcDbPolyline
90
3
70
1
10
13.8165
20
98.4646
10
14.0299
20
98.4503
10
13.9452
20
98.4576
0
LWPOLYLINE
8
SF2_DEBOSS
100
AcDbEntity
100
AcDbPolyline
90
7
70
1
10
11.6930
20
98.5426
10
10.1756
20
98.5005
10
9.2683
20
98.4229
10
8.6971
20
98.3446
10
9.6954
20
98.4564
10
11.0101
20
98.5195
10
13.4433
20
98.4850
0
LWPOLYLINE
8
SF2_DEBOSS
100
AcDbEntity
100
AcDbPolyline
90
3
70
1
10
8.4466
20
98.3037
10
8.4676
20
98.3076
10
8.4586
20
98.3061
0
LWPOLYLINE
8
SF2_DEBOSS
100
AcDbEntity
100
AcDbPolyline
90
3
70
1
10
6.9479
20
97.8454
10
6.9766
20
97.8605
10
6.9572
20
97.8513
0
LWPOLYLINE
8
SF2_DEBOSS
100
AcDbEntity
100
AcDbPolyline
90
3
70
1
10
6.7495
20
97.7155
10
6.8094
20
97.7573
10
6.7649
20
97.7290
0
LWPOLYLINE
8
SF2_DEBOSS
100
AcDbEntity
100
AcDbPolyline
90
3
70
1
10
6.5879
20
97.5692
10
6.6575
20
97.6348
10
6.6019
20
97.5861
0
LWPOLYLINE
8
SF2_DEBOSS
100
AcDbEntity
100
AcDbPolyline
90
3
70
1
10
6.4518
20
97.3994
10
6.5216
20
97.4888
10
6.4624
20
97.4168
0
LWPOLYLINE
8
SF2_DEBOSS
100
AcDbEntity
100
AcDbPolyline
90
3
70
1
10
6.3338
20
97.2002
10
6.3988
20
97.3114
10
6.3406
20
97.2150
0
LWPOLYLINE
8
SF2_DEBOSS
100
AcDbEntity
100
AcDbPolyline
90
3
70
1
10
6.2274
20
96.9661
10
6.2805
20
97.0838
10
6.2306
20
96.9746
0
LWPOLYLINE
8
SF2_DEBOSS
100
AcDbEntity
100
AcDbPolyline
90
3
70
1
10
5.4215
20
92.7785
10
5.4577
20
93.1590
10
5.4577
20
93.1590
0
LWPOLYLINE
8
SF2_DEBOSS
100
AcDbEntity
100
AcDbPolyline
90
3
70
1
10
5.4026
20
92.5797
10
5.3167
20
91.4150
10
5.4026
20
92.5797
0
LWPOLYLINE
8
SF2_DEBOSS
100
AcDbEntity
100
AcDbPolyline
90
3
70
1
10
5.3102
20
91.3175
10
5.3102
20
91.3175
10
5.3167
20
91.4150
0
LWPOLYLINE
8
SF2_DEBOSS
100
AcDbEntity
100
AcDbPolyline
90
3
70
1
10
5.3102
20
91.3175
10
5.3012
20
91.1515
10
5.3102
20
91.3175
0
LWPOLYLINE
8
SF2_DEBOSS
100
AcDbEntity
100
AcDbPolyline
90
3
70
1
10
5.1417
20
85.0369
10
5.1417
20
85.0369
10
4.8462
20
84.9437
0
LWPOLYLINE
8
SF2_DEBOSS
100
AcDbEntity
100
AcDbPolyline
90
3
70
1
10
4.3514
20
84.9966
10
4.3514
20
84.9966
10
4.4890
20
84.8648
0
LWPOLYLINE
8
SF2_DEBOSS
100
AcDbEntity
100
AcDbPolyline
90
5
70
1
10
3.1253
20
85.0952
10
3.0444
20
84.9705
10
2.9855
20
84.8355
10
2.9231
20
84.6707
10
2.8623
20
84.4989
0
LWPOLYLINE
8
SF2_DEBOSS
100
AcDbEntity
100
AcDbPolyline
90
3
70
1
10
-0.0788
20
93.5686
10
-3.1332
20
92.7177
10
-3.7853
20
92.5500
0
LWPOLYLINE
8
SF2_DEBOSS
100
AcDbEntity
100
AcDbPolyline
90
4
70
1
10
-3.9687
20
92.4278
10
-3.9928
20
92.0306
10
-4.0403
20
91.2897
10
-4.0161
20
91.6282
0
LWPOLYLINE
8
SF2_DEBOSS
100
AcDbEntity
100
AcDbPolyline
90
3
70
1
10
-4.0556
20
90.6724
10
-4.0668
20
90.6805
10
-4.0657
20
90.6712
0
LWPOLYLINE
8
SF2_DEBOSS
100
AcDbEntity
100
AcDbPolyline
90
3
70
1
10
-1.1140
20
88.8783
10
-1.7993
20
88.6609
10
-2.6472
20
88.3992
0
LWPOLYLINE
8
SF2_DEBOSS
100
AcDbEntity
100
AcDbPolyline
90
3
70
1
10
-4.2167
20
87.9000
10
-4.2705
20
87.6755
10
-4.3258
20
87.2928
0
LWPOLYLINE
8
SF2_DEBOSS
100
AcDbEntity
100
AcDbPolyline
90
3
70
1
10
-4.3458
20
87.1443
10
-4.3292
20
87.2681
10
-4.3435
20
87.1629
0
LWPOLYLINE
8
SF2_DEBOSS
100
AcDbEntity
100
AcDbPolyline
90
3
70
1
10
-4.4864
20
85.6160
10
-4.4656
20
85.5802
10
-4.4864
20
85.6177
0
LWPOLYLINE
8
SF2_DEBOSS
100
AcDbEntity
100
AcDbPolyline
90
28
70
1
10
-8.7680
20
83.4955
10
-7.6820
20
83.7876
10
-7.6746
20
83.6214
10
-7.1780
20
90.5496
10
-6.9118
20
92.0734
10
-6.6852
20
94.0302
10
-8.1363
20
93.4733
10
-8.1788
20
93.4776
10
-8.2127
20
93.6808
10
-8.2884
20
93.6869
10
-8.2153
20
93.6365
10
-8.2020
20
93.4261
10
-8.2921
20
91.5641
10
-8.2187
20
92.7257
10
-7.0433
20
93.1012
10
-7.1844
20
90.8799
10
-10.7952
20
89.5732
10
-10.8618
20
89.4950
10
-10.9285
20
89.0448
10
-10.9705
20
88.5841
10
-9.0475
20
89.1351
10
-9.0399
20
88.2019
10
-7.9332
20
88.5298
10
-7.9029
20
88.2274
10
-8.0231
20
86.1049
10
-11.1692
20
84.9605
10
-11.3202
20
83.6190
10
-8.6765
20
84.4308
0
LWPOLYLINE
8
SF2_DEBOSS
100
AcDbEntity
100
AcDbPolyline
90
3
70
1
10
-31.5396
20
72.4155
10
-31.5304
20
72.4164
10
-31.5300
20
72.4165
0
LWPOLYLINE
8
SF2_DEBOSS
100
AcDbEntity
100
AcDbPolyline
90
3
70
1
10
-31.4124
20
72.4403
10
-31.3642
20
72.4501
10
-31.3631
20
72.4505
0
LWPOLYLINE
8
SF2_DEBOSS
100
AcDbEntity
100
AcDbPolyline
90
5
70
1
10
-30.7931
20
72.8123
10
-30.4957
20
73.2125
10
-30.7931
20
72.8123
10
-31.2240
20
72.5010
10
-31.0065
20
72.6312
0
LWPOLYLINE
8
SF2_DEBOSS
100
AcDbEntity
100
AcDbPolyline
90
3
70
1
10
-29.6186
20
73.3853
10
-29.5459
20
73.5609
10
-29.5459
20
73.5609
0
LWPOLYLINE
8
SF2_DEBOSS
100
AcDbEntity
100
AcDbPolyline
90
8
70
1
10
-28.4090
20
78.3785
10
-28.2975
20
80.2018
10
-28.1513
20
81.9335
10
-28.2975
20
80.2018
10
-28.4090
20
78.3785
10
-28.4801
20
76.5725
10
-28.4989
20
75.7101
10
-28.5056
20
74.8929
0
LWPOLYLINE
8
SF2_DEBOSS
100
AcDbEntity
100
AcDbPolyline
90
3
70
1
10
-27.9159
20
83.8515
10
-27.9371
20
83.6958
10
-27.8680
20
84.1362
0
LWPOLYLINE
8
SF2_DEBOSS
100
AcDbEntity
100
AcDbPolyline
90
3
70
1
10
-27.6251
20
85.4140
10
-27.3988
20
86.2534
10
-27.7536
20
84.7977
0
LWPOLYLINE
8
SF2_DEBOSS
100
AcDbEntity
100
AcDbPolyline
90
3
70
1
10
-27.3774
20
86.3230
10
-27.3774
20
86.3230
10
-27.3988
20
86.2534
0
LWPOLYLINE
8
SF2_DEBOSS
100
AcDbEntity
100
AcDbPolyline
90
3
70
1
10
-27.1097
20
86.9837
10
-27.1013
20
86.9984
10
-27.1097
20
86.9837
0
LWPOLYLINE
8
SF2_DEBOSS
100
AcDbEntity
100
AcDbPolyline
90
3
70
1
10
-25.6120
20
88.1036
10
-25.7007
20
88.0603
10
-25.4802
20
88.1650
0
LWPOLYLINE
8
SF2_DEBOSS
100
AcDbEntity
100
AcDbPolyline
90
3
70
1
10
-24.9687
20
88.3974
10
-25.1438
20
88.3188
10
-24.8201
20
88.4620
0
LWPOLYLINE
8
SF2_DEBOSS
100
AcDbEntity
100
AcDbPolyline
90
3
70
1
10
-24.1612
20
88.7439
10
-24.4057
20
88.6402
10
-23.8488
20
88.8738
0
LWPOLYLINE
8
SF2_DEBOSS
100
AcDbEntity
100
AcDbPolyline
90
4
70
1
10
-22.6007
20
89.3826
10
-23.1706
20
89.1523
10
-23.4526
20
89.0369
10
-23.1706
20
89.1523
0
LWPOLYLINE
8
SF2_DEBOSS
100
AcDbEntity
100
AcDbPolyline
90
3
70
1
10
1.5693
20
97.0887
10
1.5108
20
97.0979
10
1.6244
20
97.0689
0
LWPOLYLINE
8
SF2_DEBOSS
100
AcDbEntity
100
AcDbPolyline
90
3
70
1
10
1.8666
20
96.8815
10
1.7796
20
96.9811
10
1.6728
20
97.0466
0
LWPOLYLINE
8
SF2_DEBOSS
100
AcDbEntity
100
AcDbPolyline
90
3
70
1
10
-3.5984
20
94.8992
10
-5.1448
20
94.4939
10
-5.3928
20
94.4271
0
LWPOLYLINE
8
SF2_DEBOSS
100
AcDbEntity
100
AcDbPolyline
90
3
70
1
10
-8.3314
20
91.5061
10
-9.1348
20
91.2033
10
-9.7711
20
90.9761
0
LWPOLYLINE
8
SF2_DEBOSS
100
AcDbEntity
100
AcDbPolyline
90
3
70
1
10
-11.9828
20
90.1132
10
-12.0496
20
89.7527
10
-12.0906
20
89.3513
0
LWPOLYLINE
8
SF2_DEBOSS
100
AcDbEntity
100
AcDbPolyline
90
3
70
1
10
-12.1515
20
88.2766
10
-12.1069
20
88.2808
10
-12.1573
20
88.3152
0
LWPOLYLINE
8
SF2_DEBOSS
100
AcDbEntity
100
AcDbPolyline
90
5
70
1
10
-9.1189
20
86.7247
10
-9.4002
20
86.6112
10
-10.2787
20
86.2922
10
-9.0970
20
86.7089
10
-9.0919
20
86.9366
0
LWPOLYLINE
8
SF2_DEBOSS
100
AcDbEntity
100
AcDbPolyline
90
6
70
1
10
-11.2414
20
85.9504
10
-12.1028
20
85.6329
10
-12.2374
20
85.5749
10
-12.2590
20
85.4651
10
-12.2866
20
85.2330
10
-12.2042
20
85.5868
0
LWPOLYLINE
8
SF2_DEBOSS
100
AcDbEntity
100
AcDbPolyline
90
4
70
1
10
-12.4113
20
83.7852
10
-12.3710
20
84.2571
10
-12.3320
20
84.7699
10
-12.3623
20
84.4275
0
LWPOLYLINE
8
SF2_DEBOSS
100
AcDbEntity
100
AcDbPolyline
90
3
70
1
10
-12.4303
20
83.2868
10
-12.3948
20
83.2951
10
-12.4332
20
83.3097
0
LWPOLYLINE
8
SF2_DEBOSS
100
AcDbEntity
100
AcDbPolyline
90
3
70
1
10
-13.4309
20
79.5549
10
-13.7915
20
79.5528
10
-13.2207
20
79.5677
0
LWPOLYLINE
8
SF2_DEBOSS
100
AcDbEntity
100
AcDbPolyline
90
5
70
1
10
-13.2207
20
79.5677
10
-12.7687
20
79.6027
10
-12.6312
20
79.6183
10
-12.5937
20
79.6247
10
-12.5807
20
79.6299
0
LWPOLYLINE
8
SF2_DEBOSS
100
AcDbEntity
100
AcDbPolyline
90
10
70
1
10
-12.6955
20
79.9048
10
-9.0970
20
81.0305
10
-9.0943
20
81.0509
10
-9.0970
20
81.0306
10
-11.5782
20
80.2650
10
-11.8840
20
80.1692
10
-12.1519
20
80.0845
10
-12.3744
20
80.0134
10
-12.5441
20
79.9582
10
-12.6537
20
79.9212
0
LWPOLYLINE
8
SF2_DEBOSS
100
AcDbEntity
100
AcDbPolyline
90
4
70
1
10
-14.6942
20
79.3265
10
-14.7868
20
79.1578
10
-14.8644
20
79.1126
10
-14.7177
20
79.1582
0
LWPOLYLINE
8
SF2_DEBOSS
100
AcDbEntity
100
AcDbPolyline
90
4
70
1
10
-14.6551
20
79.6002
10
-14.6101
20
79.8562
10
-14.6277
20
79.7797
10
-14.6465
20
79.6666
0
LWPOLYLINE
8
SF2_DEBOSS
100
AcDbEntity
100
AcDbPolyline
90
5
70
1
10
-14.2300
20
79.7135
10
-14.3539
20
79.7751
10
-14.4723
20
79.8318
10
-14.5573
20
79.8702
10
-14.6015
20
79.8733
0
LWPOLYLINE
8
SF2_DEBOSS
100
AcDbEntity
100
AcDbPolyline
90
3
70
1
10
-14.1019
20
79.6498
10
-14.1014
20
79.6496
10
-14.1354
20
79.6665
0
LWPOLYLINE
8
SF2_DEBOSS
100
AcDbEntity
100
AcDbPolyline
90
3
70
1
10
-14.0035
20
79.6053
10
-14.0033
20
79.6052
10
-14.0158
20
79.6109
0
LWPOLYLINE
8
SF2_DEBOSS
100
AcDbEntity
100
AcDbPolyline
90
3
70
1
10
-13.8251
20
79.5556
10
-13.8241
20
79.5555
10
-13.8774
20
79.5701
0
LWPOLYLINE
8
SF2_DEBOSS
100
AcDbEntity
100
AcDbPolyline
90
4
70
1
10
-8.2913
20
93.6865
10
-9.8261
20
93.1898
10
-10.3266
20
93.0253
10
-11.2577
20
92.7182
0
LWPOLYLINE
8
SF2_DEBOSS
100
AcDbEntity
100
AcDbPolyline
90
39
70
1
10
-14.4135
20
91.4445
10
-14.7402
20
91.2678
10
-18.5640
20
89.8986
10
-18.9631
20
89.9670
10
-19.1753
20
89.9968
10
-19.5486
20
89.9945
10
-19.7601
20
89.9622
10
-20.0056
20
89.9085
10
-20.2931
20
89.8307
10
-20.6204
20
89.7293
10
-20.9180
20
89.6282
10
-19.7295
20
89.9659
10
-19.2065
20
89.9930
10
-18.6904
20
89.9020
10
-17.9577
20
89.5658
10
-17.5159
20
89.2233
10
-17.1286
20
88.8005
10
-17.4680
20
89.2522
10
-16.7478
20
88.8710
10
-16.4803
20
88.6619
10
-15.9955
20
88.1502
10
-15.6110
20
87.5564
10
-15.4688
20
87.2445
10
-15.3667
20
86.9311
10
-15.2778
20
86.2637
10
-15.2969
20
85.4605
10
-15.4154
20
84.6242
10
-15.8012
20
83.3680
10
-15.1576
20
82.7435
10
-15.0777
20
82.5837
10
-15.0887
20
82.4747
10
-15.0531
20
82.7654
10
-14.8117
20
88.5789
10
-14.5312
20
89.3198
10
-14.4728
20
89.5895
10
-14.3799
20
91.3216
10
-14.3511
20
91.5703
10
-14.2852
20
91.7058
10
-14.3656
20
91.6261
0
LWPOLYLINE
8
SF2_DEBOSS
100
AcDbEntity
100
AcDbPolyline
90
3
70
1
10
-16.9993
20
88.6284
10
-17.1224
20
88.7922
10
-16.9698
20
88.5774
0
LWPOLYLINE
8
SF2_DEBOSS
100
AcDbEntity
100
AcDbPolyline
90
4
70
1
10
-16.4673
20
87.4372
10
-16.4139
20
87.1337
10
-16.3953
20
86.8578
10
-16.4139
20
87.1337
0
LWPOLYLINE
8
SF2_DEBOSS
100
AcDbEntity
100
AcDbPolyline
90
3
70
1
10
-16.3899
20
86.7780
10
-16.3899
20
86.7780
10
-16.3900
20
86.7623
0
LWPOLYLINE
8
SF2_DEBOSS
100
AcDbEntity
100
AcDbPolyline
90
3
70
1
10
-16.6568
20
84.7511
10
-16.6568
20
84.7511
10
-16.6934
20
84.6450
0
LWPOLYLINE
8
SF2_DEBOSS
100
AcDbEntity
100
AcDbPolyline
90
3
70
1
10
-16.4610
20
83.5641
10
-16.9321
20
84.0144
10
-16.9321
20
84.0144
0
LWPOLYLINE
8
SF2_DEBOSS
100
AcDbEntity
100
AcDbPolyline
90
3
70
1
10
-16.0299
20
83.1520
10
-15.6941
20
82.8305
10
-15.6284
20
82.7684
0
LWPOLYLINE
8
SF2_DEBOSS
100
AcDbEntity
100
AcDbPolyline
90
3
70
1
10
-20.9621
20
89.6132
10
-20.9849
20
89.6054
10
-21.2703
20
89.5014
0
LWPOLYLINE
8
SF2_DEBOSS
100
AcDbEntity
100
AcDbPolyline
90
3
70
1
10
-21.3694
20
89.4652
10
-21.3844
20
89.4598
10
-21.6605
20
89.3533
0
LWPOLYLINE
8
SF2_DEBOSS
100
AcDbEntity
100
AcDbPolyline
90
3
70
1
10
-21.8075
20
89.2966
10
-21.8164
20
89.2932
10
-22.1122
20
89.1738
0
LWPOLYLINE
8
SF2_DEBOSS
100
AcDbEntity
100
AcDbPolyline
90
3
70
1
10
-22.2741
20
89.1084
10
-22.2785
20
89.1066
10
-22.7683
20
88.9008
0
LWPOLYLINE
8
SF2_DEBOSS
100
AcDbEntity
100
AcDbPolyline
90
3
70
1
10
-24.7789
20
87.9978
10
-24.8662
20
87.9580
10
-24.8662
20
87.9580
0
LWPOLYLINE
8
SF2_DEBOSS
100
AcDbEntity
100
AcDbPolyline
90
7
70
1
10
-25.0247
20
87.8844
10
-26.2770
20
87.2817
10
-26.2751
20
87.2607
10
-26.2514
20
87.2195
10
-26.2099
20
87.1639
10
-26.0476
20
86.9597
10
-26.2770
20
87.2817
0
LWPOLYLINE
8
SF2_DEBOSS
100
AcDbEntity
100
AcDbPolyline
90
11
70
1
10
-18.8062
20
86.1679
10
-18.7363
20
86.6680
10
-18.7475
20
86.7990
10
-18.7922
20
86.9213
10
-19.0180
20
86.8559
10
-19.5426
20
86.8517
10
-19.9537
20
84.7098
10
-20.0685
20
84.5076
10
-19.6233
20
84.8877
10
-19.3409
20
85.1968
10
-18.9281
20
85.8420
0
LWPOLYLINE
8
SF2_DEBOSS
100
AcDbEntity
100
AcDbPolyline
90
3
70
1
10
-19.1155
20
87.2844
10
-19.0014
20
87.1911
10
-19.0365
20
87.2304
0
LWPOLYLINE
8
SF2_DEBOSS
100
AcDbEntity
100
AcDbPolyline
90
3
70
1
10
-19.1333
20
87.2966
10
-19.2765
20
87.3667
10
-19.3815
20
87.3991
0
LWPOLYLINE
8
SF2_DEBOSS
100
AcDbEntity
100
AcDbPolyline
90
3
70
1
10
-19.4122
20
87.4086
10
-19.6058
20
87.4479
10
-19.6304
20
87.4507
0
LWPOLYLINE
8
SF2_DEBOSS
100
AcDbEntity
100
AcDbPolyline
90
3
70
1
10
-20.5750
20
87.4764
10
-20.3195
20
87.4945
10
-20.5894
20
87.4713
0
LWPOLYLINE
8
SF2_DEBOSS
100
AcDbEntity
100
AcDbPolyline
90
3
70
1
10
-20.8258
20
86.9819
10
-20.7513
20
87.2840
10
-20.8900
20
86.6415
0
LWPOLYLINE
8
SF2_DEBOSS
100
AcDbEntity
100
AcDbPolyline
90
4
70
1
10
-20.8903
20
86.6395
10
-20.9256
20
86.4387
10
-20.9917
20
85.9832
10
-21.0259
20
85.6888
0
LWPOLYLINE
8
SF2_DEBOSS
100
AcDbEntity
100
AcDbPolyline
90
3
70
1
10
-21.1537
20
84.4367
10
-21.1364
20
84.6556
10
-21.1445
20
84.5654
0
LWPOLYLINE
8
SF2_DEBOSS
100
AcDbEntity
100
AcDbPolyline
90
3
70
1
10
-21.1722
20
84.0619
10
-21.1505
20
83.8656
10
-21.1565
20
84.3973
0
LWPOLYLINE
8
SF2_DEBOSS
100
AcDbEntity
100
AcDbPolyline
90
3
70
1
10
-20.7239
20
84.0768
10
-20.6518
20
84.1206
10
-20.8129
20
84.0291
0
LWPOLYLINE
8
SF2_DEBOSS
100
AcDbEntity
100
AcDbPolyline
90
5
70
1
10
-10.7277
20
53.2953
10
-10.8786
20
53.4344
10
-11.3886
20
54.6735
10
-10.9174
20
53.8102
10
-10.7145
20
53.3620
0
LWPOLYLINE
8
SF2_DEBOSS
100
AcDbEntity
100
AcDbPolyline
90
35
70
1
10
-6.8428
20
56.9823
10
-6.7725
20
57.0042
10
-7.9406
20
56.6548
10
-8.0086
20
56.7095
10
-7.5783
20
70.8542
10
-1.2358
20
72.7044
10
-1.7017
20
71.3600
10
-1.5947
20
71.6484
10
-0.0690
20
72.0761
10
-0.8707
20
69.8785
10
-0.3409
20
69.5797
10
-0.8155
20
68.9554
10
-1.0736
20
68.7884
10
-3.8860
20
67.9659
10
-4.0022
20
66.8724
10
-2.3070
20
67.2854
10
-2.6811
20
65.8952
10
-2.5561
20
66.3382
10
-1.1945
20
66.6440
10
-1.6697
20
64.7192
10
-1.6856
20
63.9343
10
-1.8059
20
63.8542
10
-4.0311
20
63.0947
10
-4.0815
20
62.9523
10
-4.1175
20
62.0428
10
-4.2129
20
61.8915
10
-4.4215
20
61.8263
10
-2.5670
20
62.0948
10
-2.5979
20
58.2537
10
-2.6553
20
58.2363
10
-2.5979
20
58.2537
10
-2.5668
20
61.3037
10
-1.4407
20
61.3880
10
-1.4269
20
57.6120
10
-6.8428
20
56.0077
0
LWPOLYLINE
8
SF2_DEBOSS
100
AcDbEntity
100
AcDbPolyline
90
5
70
1
10
-1.9832
20
70.5387
10
-1.9621
20
70.5061
10
-1.9049
20
70.4600
10
-1.8201
20
70.4064
10
-1.7167
20
70.3516
0
LWPOLYLINE
8
SF2_DEBOSS
100
AcDbEntity
100
AcDbPolyline
90
3
70
1
10
-1.5107
20
70.2254
10
-1.5107
20
70.2254
10
-1.5223
20
70.2368
0
LWPOLYLINE
8
SF2_DEBOSS
100
AcDbEntity
100
AcDbPolyline
90
3
70
1
10
-1.5011
20
70.1782
10
-1.5011
20
70.1783
10
-1.5085
20
70.2144
0
LWPOLYLINE
8
SF2_DEBOSS
100
AcDbEntity
100
AcDbPolyline
90
3
70
1
10
-1.5013
20
70.1778
10
-1.6618
20
69.9114
10
-2.0264
20
69.4326
0
LWPOLYLINE
8
SF2_DEBOSS
100
AcDbEntity
100
AcDbPolyline
90
3
70
1
10
-4.9898
20
68.5655
10
-5.0515
20
68.2085
10
-5.1351
20
67.3028
0
LWPOLYLINE
8
SF2_DEBOSS
100
AcDbEntity
100
AcDbPolyline
90
3
70
1
10
-5.1395
20
66.6090
10
-5.1744
20
66.6035
10
-5.1221
20
66.6087
0
LWPOLYLINE
8
SF2_DEBOSS
100
AcDbEntity
100
AcDbPolyline
90
5
70
1
10
-5.1913
20
61.7503
10
-5.1191
20
61.7338
10
-5.0096
20
61.7378
10
-4.8549
20
61.7584
10
-4.6928
20
61.7844
0
LWPOLYLINE
8
SF2_DEBOSS
100
AcDbEntity
100
AcDbPolyline
90
3
70
1
10
-2.8001
20
64.4908
10
-2.7975
20
64.4916
10
-2.8029
20
64.6840
0
LWPOLYLINE
8
SF2_DEBOSS
100
AcDbEntity
100
AcDbPolyline
90
73
70
1
10
-11.9033
20
53.8683
10
-12.9207
20
55.8900
10
-13.0657
20
55.8384
10
-13.1769
20
55.7047
10
-13.3903
20
55.2740
10
-13.4800
20
56.1369
10
-13.5621
20
58.0443
10
-13.5082
20
61.6932
10
-13.3280
20
64.3173
10
-12.7862
20
70.0991
10
-12.7313
20
71.5995
10
-12.7572
20
72.7489
10
-12.8172
20
72.6546
10
-14.1591
20
72.3309
10
-15.8995
20
71.7030
10
-18.1183
20
70.7172
10
-19.4594
20
70.0479
10
-18.7059
20
71.5836
10
-20.5434
20
70.7266
10
-19.9354
20
71.9104
10
-19.2652
20
72.8553
10
-18.7539
20
73.3432
10
-18.1614
20
73.6837
10
-16.7615
20
74.3209
10
-14.8379
20
75.0808
10
-9.8247
20
76.8372
10
-2.9195
20
78.9896
10
2.9794
20
80.6223
10
5.6524
20
81.2775
10
7.8128
20
81.7504
10
7.8471
20
81.7560
10
7.1762
20
81.3492
10
6.9614
20
81.1531
10
6.8405
20
80.9611
10
6.8293
20
80.7162
10
6.5531
20
80.5511
10
7.8301
20
80.9103
10
9.0407
20
81.1724
10
8.3622
20
80.7833
10
8.1111
20
80.5744
10
7.9607
20
80.3646
10
7.9121
20
80.0146
10
7.3569
20
79.7712
10
6.9864
20
79.5595
10
6.6690
20
79.3061
10
6.3963
20
79.0031
10
6.0511
20
78.4613
10
5.8348
20
78.2967
10
-0.1619
20
76.7906
10
-3.2205
20
75.8649
10
-4.7119
20
75.3207
10
-5.8640
20
74.8113
10
-6.6651
20
74.3416
10
-6.9983
20
74.0531
10
-7.2448
20
73.6530
10
-7.3812
20
73.3183
10
-7.7590
20
71.9043
10
-8.0851
20
69.9097
10
-8.3536
20
67.3782
10
-8.6122
20
63.2436
10
-8.7093
20
59.6260
10
-8.6746
20
55.2744
10
-8.5250
20
52.7566
10
-8.8778
20
53.0078
10
-9.0384
20
51.5812
10
-9.8649
20
53.3739
10
-9.9172
20
53.5749
10
-10.0116
20
53.6215
10
-10.0555
20
53.4987
10
-10.1593
20
52.2195
10
-10.9607
20
53.9028
10
-11.1120
20
54.2154
10
-11.3743
20
54.7079
0
LWPOLYLINE
8
SF2_DEBOSS
100
AcDbEntity
100
AcDbPolyline
90
3
70
1
10
-12.7849
20
72.9154
10
-12.7938
20
72.9379
10
-12.7828
20
72.9059
0
LWPOLYLINE
8
SF2_DEBOSS
100
AcDbEntity
100
AcDbPolyline
90
3
70
1
10
-12.8049
20
72.9657
10
-12.8119
20
72.9741
10
-12.8026
20
72.9600
0
LWPOLYLINE
8
SF2_DEBOSS
100
AcDbEntity
100
AcDbPolyline
90
3
70
1
10
-12.9067
20
73.0876
10
-12.9081
20
73.0884
10
-12.9051
20
73.0856
0
LWPOLYLINE
8
SF2_DEBOSS
100
AcDbEntity
100
AcDbPolyline
90
3
70
1
10
-13.0544
20
73.1777
10
-13.0750
20
73.1840
10
-13.0477
20
73.1736
0
LWPOLYLINE
8
SF2_DEBOSS
100
AcDbEntity
100
AcDbPolyline
90
3
70
1
10
-13.2470
20
73.2365
10
-13.4188
20
73.2565
10
-13.1784
20
73.2155
0
LWPOLYLINE
8
SF2_DEBOSS
100
AcDbEntity
100
AcDbPolyline
90
3
70
1
10
-13.4392
20
73.2588
10
-13.7632
20
73.2606
10
-13.7983
20
73.2569
0
LWPOLYLINE
8
SF2_DEBOSS
100
AcDbEntity
100
AcDbPolyline
90
3
70
1
10
-14.0848
20
73.2266
10
-14.1613
20
73.2130
10
-13.8170
20
73.2549
0
LWPOLYLINE
8
SF2_DEBOSS
100
AcDbEntity
100
AcDbPolyline
90
3
70
1
10
-14.4475
20
73.1621
10
-14.4988
20
73.1501
10
-14.3976
20
73.1710
0
LWPOLYLINE
8
SF2_DEBOSS
100
AcDbEntity
100
AcDbPolyline
90
3
70
1
10
-16.0508
20
72.6898
10
-16.8429
20
72.3922
10
-17.4505
20
72.1423
0
LWPOLYLINE
8
SF2_DEBOSS
100
AcDbEntity
100
AcDbPolyline
90
4
70
1
10
6.5089
20
80.5339
10
6.0554
20
80.3079
10
5.6228
20
79.9800
10
6.0350
20
80.2894
0
LWPOLYLINE
8
SF2_DEBOSS
100
AcDbEntity
100
AcDbPolyline
90
3
70
1
10
4.7982
20
78.9960
10
4.7982
20
78.9960
10
4.7988
20
78.9963
0
LWPOLYLINE
8
SF2_DEBOSS
100
AcDbEntity
100
AcDbPolyline
90
3
70
1
10
4.7778
20
78.9885
10
4.1058
20
78.7941
10
3.0728
20
78.5439
0
LWPOLYLINE
8
SF2_DEBOSS
100
AcDbEntity
100
AcDbPolyline
90
17
70
1
10
-7.6999
20
75.0543
10
-7.9878
20
74.8382
10
-8.1381
20
74.6718
10
-8.2829
20
74.4416
10
-8.4221
20
74.1477
10
-8.5557
20
73.7903
10
-8.6837
20
73.3697
10
-8.8060
20
72.8861
10
-8.9227
20
72.3397
10
-9.0335
20
71.7307
10
-9.1386
20
71.0594
10
-9.2379
20
70.3259
10
-9.3065
20
69.7422
10
-9.0335
20
71.7307
10
-8.6837
20
73.3697
10
-8.2829
20
74.4416
10
-7.9878
20
74.8382
0
LWPOLYLINE
8
SF2_DEBOSS
100
AcDbEntity
100
AcDbPolyline
90
3
70
1
10
-9.8102
20
61.8339
10
-9.8135
20
61.5740
10
-9.8102
20
61.8354
0
LWPOLYLINE
8
SF2_DEBOSS
100
AcDbEntity
100
AcDbPolyline
90
3
70
1
10
-9.8485
20
58.7308
10
-9.8485
20
58.6174
10
-9.8485
20
58.7316
0
LWPOLYLINE
8
SF2_DEBOSS
100
AcDbEntity
100
AcDbPolyline
90
3
70
1
10
-9.8482
20
57.9734
10
-9.8456
20
57.5292
10
-9.8482
20
57.9823
0
LWPOLYLINE
8
SF2_DEBOSS
100
AcDbEntity
100
AcDbPolyline
90
3
70
1
10
-9.8439
20
57.2409
10
-9.8366
20
56.6366
10
-9.8439
20
57.2557
0
LWPOLYLINE
8
SF2_DEBOSS
100
AcDbEntity
100
AcDbPolyline
90
3
70
1
10
-9.8355
20
56.5421
10
-9.8248
20
55.9783
10
-9.8357
20
56.5597
0
LWPOLYLINE
8
SF2_DEBOSS
100
AcDbEntity
100
AcDbPolyline
90
3
70
1
10
-9.8231
20
55.8858
10
-9.8127
20
55.5017
10
-9.8234
20
55.9015
0
LWPOLYLINE
8
SF2_DEBOSS
100
AcDbEntity
100
AcDbPolyline
90
3
70
1
10
-9.8067
20
55.2808
10
-9.8010
20
55.1308
10
-9.8069
20
55.2889
0
LWPOLYLINE
8
SF2_DEBOSS
100
AcDbEntity
100
AcDbPolyline
90
3
70
1
10
-9.7918
20
53.4746
10
-9.6944
20
53.3905
10
-9.6950
20
53.3982
0
LWPOLYLINE
8
SF2_DEBOSS
100
AcDbEntity
100
AcDbPolyline
90
106
70
1
10
24.2550
20
52.4956
10
18.7600
20
50.9665
10
17.0202
20
50.4050
10
15.0818
20
49.6833
10
15.0598
20
49.7147
10
15.1993
20
49.8779
10
16.6617
20
51.3054
10
13.7960
20
50.2541
10
15.5815
20
52.0229
10
15.6070
20
52.0796
10
15.5380
20
52.1176
10
15.1983
20
52.1611
10
15.1700
20
52.2742
10
15.8217
20
53.0825
10
16.6688
20
53.9506
10
19.0055
20
54.5583
10
20.2413
20
54.9992
10
20.9317
20
55.3872
10
21.1252
20
55.6465
10
21.2222
20
55.8885
10
21.4078
20
56.7603
10
21.6190
20
58.4426
10
22.6940
20
69.6814
10
23.6402
20
78.2655
10
23.7696
20
79.9142
10
23.7195
20
81.2135
10
23.6608
20
81.0636
10
22.3388
20
80.7458
10
20.6151
20
80.1431
10
19.3821
20
79.6360
10
17.5334
20
78.7842
10
17.4553
20
78.7991
10
17.5395
20
78.9591
10
18.4419
20
80.3791
10
16.5115
20
79.5139
10
16.3220
20
79.4555
10
16.3270
20
79.4926
10
17.4254
20
81.2632
10
18.9582
20
83.1797
10
19.4714
20
83.4930
10
21.1586
20
84.1598
10
24.8022
20
85.3847
10
27.5393
20
86.1845
10
30.4466
20
86.9517
10
33.4590
20
87.6702
10
36.5112
20
88.3233
10
41.0213
20
89.1449
10
43.3502
20
89.4727
10
43.3808
20
89.4565
10
43.3496
20
89.4217
10
42.5739
20
88.9463
10
42.1407
20
88.4766
10
41.9533
20
88.3598
10
42.1790
20
88.4731
10
42.8180
20
88.6069
10
44.4830
20
88.8289
10
43.6809
20
88.3073
10
43.1800
20
87.7756
10
41.3143
20
87.1326
10
39.7628
20
85.7299
10
39.7544
20
85.2612
10
39.6819
20
85.1615
10
38.2292
20
84.9414
10
36.6032
20
84.5239
10
36.0475
20
84.2898
10
35.8179
20
84.1335
10
35.6564
20
83.9351
10
35.5352
20
83.6465
10
35.1519
20
81.7331
10
34.7534
20
78.9761
10
34.2426
20
74.6903
10
33.8576
20
70.9416
10
33.4515
20
66.3291
10
33.2206
20
63.0495
10
33.1033
20
60.4473
10
33.1390
20
58.4078
10
33.9990
20
58.4955
10
35.1683
20
58.6877
10
41.1114
20
59.8275
10
43.3167
20
60.1279
10
44.0080
20
60.1704
10
43.9246
20
60.0989
10
43.0108
20
59.8581
10
41.5968
20
59.3549
10
40.2816
20
58.7856
10
40.3195
20
58.5099
10
40.3574
20
58.2341
10
40.3101
20
58.7584
10
40.5497
20
58.8863
10
43.0678
20
59.3358
10
45.2372
20
59.5668
10
43.1464
20
58.9015
10
41.7066
20
58.3145
10
41.4375
20
58.1777
10
41.4684
20
57.5948
10
40.6308
20
57.1136
10
40.4778
20
57.1844
10
41.0283
20
56.8907
10
40.2959
20
56.7631
10
41.0518
20
56.8734
10
42.0660
20
56.3316
10
42.1418
20
56.2487
10
42.0977
20
56.2287
10
38.3748
20
55.6173
10
33.8463
20
54.7404
10
28.0819
20
53.4560
0
LWPOLYLINE
8
SF2_DEBOSS
100
AcDbEntity
100
AcDbPolyline
90
4
70
1
10
17.5512
20
51.5835
10
17.2761
20
51.5003
10
16.9091
20
51.3847
10
17.2211
20
51.4821
0
LWPOLYLINE
8
SF2_DEBOSS
100
AcDbEntity
100
AcDbPolyline
90
3
70
1
10
26.7479
20
54.0196
10
26.0909
20
53.8579
10
28.5111
20
54.4293
0
LWPOLYLINE
8
SF2_DEBOSS
100
AcDbEntity
100
AcDbPolyline
90
7
70
1
10
33.4982
20
55.5221
10
37.0624
20
56.2218
10
35.2716
20
55.8838
10
33.9233
20
55.6140
10
32.5330
20
55.3249
10
31.1105
20
55.0187
10
28.8144
20
54.4998
0
LWPOLYLINE
8
SF2_DEBOSS
100
AcDbEntity
100
AcDbPolyline
90
4
70
1
10
37.8805
20
56.3696
10
37.8027
20
56.3563
10
37.4672
20
56.2954
10
37.8231
20
56.3596
0
LWPOLYLINE
8
SF2_DEBOSS
100
AcDbEntity
100
AcDbPolyline
90
3
70
1
10
23.5767
20
81.5735
10
23.4374
20
81.6620
10
23.6513
20
81.4585
0
LWPOLYLINE
8
SF2_DEBOSS
100
AcDbEntity
100
AcDbPolyline
90
3
70
1
10
23.3954
20
81.6795
10
23.3730
20
81.6889
10
23.3181
20
81.7024
0
LWPOLYLINE
8
SF2_DEBOSS
100
AcDbEntity
100
AcDbPolyline
90
5
70
1
10
22.5735
20
81.7052
10
22.2747
20
81.6537
10
21.7149
20
81.5243
10
22.5951
20
81.6986
10
23.0585
20
81.7412
0
LWPOLYLINE
8
SF2_DEBOSS
100
AcDbEntity
100
AcDbPolyline
90
3
70
1
10
41.1361
20
88.0519
10
41.1413
20
88.0537
10
41.1431
20
88.0544
0
LWPOLYLINE
8
SF2_DEBOSS
100
AcDbEntity
100
AcDbPolyline
90
4
70
1
10
39.4191
20
87.0212
10
40.1746
20
87.7171
10
40.8685
20
87.9587
10
40.1746
20
87.7171
0
LWPOLYLINE
8
SF2_DEBOSS
100
AcDbEntity
100
AcDbPolyline
90
6
70
1
10
38.5618
20
85.8387
10
38.2505
20
85.7499
10
38.5004
20
85.7958
10
38.5618
20
85.8387
10
38.5980
20
85.9212
10
38.6279
20
86.0773
0
LWPOLYLINE
8
SF2_DEBOSS
100
AcDbEntity
100
AcDbPolyline
90
3
70
1
10
36.4492
20
85.4464
10
36.4492
20
85.4464
10
36.4588
20
85.4483
0
LWPOLYLINE
8
SF2_DEBOSS
100
AcDbEntity
100
AcDbPolyline
90
4
70
1
10
35.3536
20
85.1354
10
35.6723
20
85.2451
10
36.3369
20
85.4198
10
35.6723
20
85.2451
0
LWPOLYLINE
8
SF2_DEBOSS
100
AcDbEntity
100
AcDbPolyline
90
3
70
1
10
35.0842
20
85.0206
10
35.0842
20
85.0206
10
35.3096
20
85.1166
0
LWPOLYLINE
8
SF2_DEBOSS
100
AcDbEntity
100
AcDbPolyline
90
3
70
1
10
34.6118
20
84.6822
10
34.5738
20
84.6278
10
34.7012
20
84.7779
0
LWPOLYLINE
8
SF2_DEBOSS
100
AcDbEntity
100
AcDbPolyline
90
7
70
1
10
34.3633
20
84.1281
10
34.3108
20
83.9119
10
34.2555
20
83.6576
10
34.1977
20
83.3669
10
34.1218
20
82.9516
10
34.3706
20
84.1445
10
34.5351
20
84.5725
0
LWPOLYLINE
8
SF2_DEBOSS
100
AcDbEntity
100
AcDbPolyline
90
5
70
1
10
32.7921
20
72.3141
10
32.4108
20
68.1544
10
32.2877
20
66.6108
10
32.7641
20
72.0028
10
33.1236
20
75.4557
0
LWPOLYLINE
8
SF2_DEBOSS
100
AcDbEntity
100
AcDbPolyline
90
3
70
1
10
32.0234
20
62.2201
10
32.0107
20
61.4665
10
32.0083
20
60.9715
0
LWPOLYLINE
8
SF2_DEBOSS
100
AcDbEntity
100
AcDbPolyline
90
4
70
1
10
32.0073
20
60.5314
10
32.0270
20
59.2307
10
32.0376
20
59.0810
10
32.0569
20
58.9285
0
LWPOLYLINE
8
SF2_DEBOSS
100
AcDbEntity
100
AcDbPolyline
90
3
70
1
10
32.6402
20
58.4283
10
32.4148
20
58.4860
10
32.2813
20
58.5338
0
LWPOLYLINE
8
SF2_DEBOSS
100
AcDbEntity
100
AcDbPolyline
90
21
70
1
10
27.9450
20
59.1582
10
28.4299
20
65.6330
10
28.9280
20
70.8389
10
30.1675
20
81.7066
10
30.2187
20
82.4370
10
30.1492
20
82.8629
10
29.8333
20
82.6894
10
29.3782
20
82.2695
10
29.2306
20
82.0581
10
29.1114
20
81.7626
10
28.8253
20
80.4241
10
28.4384
20
77.7040
10
27.7431
20
71.6358
10
26.9226
20
62.7667
10
26.6438
20
58.2240
10
26.6505
20
57.1059
10
26.7729
20
56.5329
10
27.0753
20
56.7115
10
27.4141
20
57.1305
10
27.6807
20
57.7475
10
27.7848
20
58.1256
0
LWPOLYLINE
8
SF2_DEBOSS
100
AcDbEntity
100
AcDbPolyline
90
3
70
1
10
29.4777
20
83.4768
10
29.4708
20
83.4778
10
29.5116
20
83.4618
0
LWPOLYLINE
8
SF2_DEBOSS
100
AcDbEntity
100
AcDbPolyline
90
3
70
1
10
29.2677
20
83.5078
10
29.2538
20
83.5062
10
29.3556
20
83.4948
0
LWPOLYLINE
8
SF2_DEBOSS
100
AcDbEntity
100
AcDbPolyline
90
4
70
1
10
28.5897
20
83.2513
10
28.8134
20
83.3903
10
29.2017
20
83.4999
10
28.8249
20
83.3977
0
LWPOLYLINE
8
SF2_DEBOSS
100
AcDbEntity
100
AcDbPolyline
90
3
70
1
10
27.8738
20
82.1306
10
27.9280
20
82.3462
10
27.8247
20
81.8979
0
LWPOLYLINE
8
SF2_DEBOSS
100
AcDbEntity
100
AcDbPolyline
90
4
70
1
10
27.6988
20
81.1954
10
27.6299
20
80.7595
10
27.5576
20
80.2717
10
27.6299
20
80.7595
0
LWPOLYLINE
8
SF2_DEBOSS
100
AcDbEntity
100
AcDbPolyline
90
3
70
1
10
27.4822
20
79.7353
10
27.4040
20
79.1538
10
27.5576
20
80.2717
0
LWPOLYLINE
8
SF2_DEBOSS
100
AcDbEntity
100
AcDbPolyline
90
3
70
1
10
27.3234
20
78.5306
10
27.2407
20
77.8690
10
27.4040
20
79.1538
0
LWPOLYLINE
8
SF2_DEBOSS
100
AcDbEntity
100
AcDbPolyline
90
4
70
1
10
27.0705
20
76.4445
10
26.9837
20
75.6884
10
26.8962
20
74.9074
10
26.9837
20
75.6884
0
LWPOLYLINE
8
SF2_DEBOSS
100
AcDbEntity
100
AcDbPolyline
90
4
70
1
10
25.5307
20
59.3242
10
25.5102
20
58.8589
10
25.5090
20
58.8216
10
25.5102
20
58.8589
0
LWPOLYLINE
8
SF2_DEBOSS
100
AcDbEntity
100
AcDbPolyline
90
3
70
1
10
26.4276
20
56.4877
10
26.4509
20
56.4852
10
26.4122
20
56.4932
0
LWPOLYLINE
8
SF2_DEBOSS
100
AcDbEntity
100
AcDbPolyline
90
112
70
1
10
15.7366
20
56.2373
10
14.5873
20
56.1270
10
14.4928
20
56.1559
10
14.0662
20
56.7864
10
14.4279
20
56.8660
10
13.3821
20
56.7468
10
11.6519
20
59.2690
10
9.7093
20
61.8391
10
8.4908
20
63.3249
10
7.8701
20
62.9032
10
7.1136
20
62.4772
10
6.3365
20
62.1117
10
5.7627
20
61.9001
10
5.6331
20
60.0890
10
5.4651
20
58.9905
10
5.2244
20
57.8575
10
4.6785
20
55.9751
10
4.3172
20
54.9875
10
4.0898
20
54.5196
10
3.1107
20
53.9533
10
3.0829
20
54.5656
10
2.8993
20
54.5513
10
0.5678
20
53.7328
10
-0.9293
20
53.0810
10
-1.8239
20
52.8556
10
-2.2355
20
52.8766
10
-2.3426
20
52.8967
10
-2.3659
20
52.9516
10
-2.0169
20
53.5247
10
-1.7971
20
53.7832
10
-1.2999
20
54.0638
10
-1.8064
20
53.8380
10
-2.7533
20
53.5530
10
-3.2392
20
53.4952
10
-3.4792
20
53.5502
10
-3.4422
20
53.7154
10
-3.0264
20
54.3271
10
-2.3936
20
55.4249
10
-1.7714
20
56.6795
10
-1.0561
20
58.4551
10
-0.7260
20
59.6690
10
-0.6438
20
60.1996
10
-0.7465
20
60.2405
10
-1.0235
20
60.2104
10
-1.0833
20
60.2517
10
-0.9421
20
61.0366
10
-2.3403
20
62.7363
10
-2.5404
20
63.0788
10
-0.3298
20
63.6767
10
-0.0717
20
63.7690
10
0.0333
20
63.8984
10
0.1685
20
65.0756
10
0.2977
20
66.9768
10
0.4031
20
70.0808
10
0.3430
20
72.9869
10
0.2883
20
72.9227
10
-0.1174
20
72.8317
10
-0.3311
20
72.8736
10
-1.2101
20
73.4377
10
-0.8635
20
73.5500
10
-1.3736
20
73.4718
10
-2.0493
20
73.8526
10
-2.3082
20
74.0578
10
-2.4633
20
74.6616
10
-2.6068
20
74.9162
10
-2.8468
20
75.1422
10
-3.4675
20
75.5665
10
-0.2086
20
76.6060
10
2.2875
20
77.2437
10
4.9331
20
77.7687
10
5.9869
20
77.9055
10
6.8271
20
77.9521
10
7.6332
20
77.8814
10
8.4773
20
77.6814
10
9.3005
20
77.3701
10
10.0437
20
76.9657
10
10.3616
20
76.7366
10
10.9759
20
76.1675
10
11.5304
20
75.4889
10
11.9547
20
74.8043
10
11.5520
20
75.4615
10
11.2265
20
75.8872
10
10.8921
20
76.2672
10
10.3866
20
76.7439
10
11.1876
20
76.3234
10
11.9779
20
75.6487
10
12.4771
20
75.1117
10
12.8530
20
74.6045
10
13.1676
20
74.0322
10
13.4237
20
73.4351
10
13.6209
20
72.8154
10
13.7586
20
72.1756
10
13.8366
20
71.5180
10
13.8544
20
70.8450
10
13.7080
20
69.4624
10
13.3578
20
68.2541
10
13.1925
20
67.9050
10
12.7683
20
67.2475
10
11.5914
20
65.9922
10
16.2035
20
61.1712
10
20.0635
20
57.0038
10
19.2476
20
57.1244
10
18.5971
20
56.4099
10
17.6342
20
57.1839
10
17.9650
20
57.5727
10
17.4720
20
57.0232
10
16.5330
20
57.7853
10
17.1981
20
57.2134
10
17.1860
20
57.0810
10
17.1273
20
57.0249
10
16.9531
20
56.9937
10
15.9989
20
57.0517
0
LWPOLYLINE
8
SF2_DEBOSS
100
AcDbEntity
100
AcDbPolyline
90
4
70
1
10
15.2143
20
57.6474
10
15.1807
20
57.6494
10
14.8675
20
57.6647
10
15.1807
20
57.6494
0
LWPOLYLINE
8
SF2_DEBOSS
100
AcDbEntity
100
AcDbPolyline
90
3
70
1
10
16.2481
20
58.0466
10
16.2481
20
58.0466
10
16.1464
20
57.8656
0
LWPOLYLINE
8
SF2_DEBOSS
100
AcDbEntity
100
AcDbPolyline
90
3
70
1
10
16.5303
20
57.7876
10
16.4876
20
57.8256
10
16.5227
20
57.7941
0
LWPOLYLINE
8
SF2_DEBOSS
100
AcDbEntity
100
AcDbPolyline
90
3
70
1
10
6.2085
20
63.2354
10
5.8951
20
63.0803
10
6.2049
20
63.2334
0
LWPOLYLINE
8
SF2_DEBOSS
100
AcDbEntity
100
AcDbPolyline
90
8
70
1
10
7.0475
20
63.7266
10
7.2561
20
63.8740
10
7.5586
20
64.0992
10
7.6982
20
64.1929
10
8.2331
20
63.6216
10
7.6998
20
64.2121
10
7.0566
20
63.7334
10
6.2399
20
63.2531
0
LWPOLYLINE
8
SF2_DEBOSS
100
AcDbEntity
100
AcDbPolyline
90
3
70
1
10
-1.1102
20
54.1495
10
0.4346
20
54.7371
10
1.3816
20
55.0707
0
LWPOLYLINE
8
SF2_DEBOSS
100
AcDbEntity
100
AcDbPolyline
90
7
70
1
10
1.9431
20
54.8313
10
1.9836
20
54.6319
10
2.0403
20
54.6452
10
2.1622
20
54.6996
10
2.3315
20
54.7863
10
2.5301
20
54.8966
10
1.9836
20
54.6319
0
LWPOLYLINE
8
SF2_DEBOSS
100
AcDbEntity
100
AcDbPolyline
90
4
70
1
10
0.3003
20
73.5877
10
0.3105
20
73.3004
10
0.3372
20
73.0942
10
0.3152
20
73.4342
0
LWPOLYLINE
8
SF2_DEBOSS
100
AcDbEntity
100
AcDbPolyline
90
3
70
1
10
12.0408
20
74.6441
10
12.0007
20
74.7186
10
12.1129
20
74.4817
0
LWPOLYLINE
8
SF2_DEBOSS
100
AcDbEntity
100
AcDbPolyline
90
3
70
1
10
12.2245
20
74.2304
10
12.1914
20
74.3049
10
12.2811
20
74.0740
0
LWPOLYLINE
8
SF2_DEBOSS
100
AcDbEntity
100
AcDbPolyline
90
3
70
1
10
12.3800
20
73.8004
10
12.3376
20
73.9177
10
12.4237
20
73.6479
0
LWPOLYLINE
8
SF2_DEBOSS
100
AcDbEntity
100
AcDbPolyline
90
3
70
1
10
12.5071
20
73.3572
10
12.4630
20
73.5109
10
12.5352
20
73.2284
0
LWPOLYLINE
8
SF2_DEBOSS
100
AcDbEntity
100
AcDbPolyline
90
3
70
1
10
12.6059
20
72.9039
10
12.5662
20
73.0862
10
12.6209
20
72.8062
0
LWPOLYLINE
8
SF2_DEBOSS
100
AcDbEntity
100
AcDbPolyline
90
3
70
1
10
12.7198
20
71.9410
10
12.6764
20
72.4436
10
12.6339
20
72.7213
0
LWPOLYLINE
8
SF2_DEBOSS
100
AcDbEntity
100
AcDbPolyline
90
3
70
1
10
12.7326
20
71.5144
10
12.7209
20
71.9039
10
12.7210
20
71.1435
0
LWPOLYLINE
8
SF2_DEBOSS
100
AcDbEntity
100
AcDbPolyline
90
3
70
1
10
12.7182
20
71.0517
10
12.7189
20
71.0745
10
12.7075
20
70.9373
0
LWPOLYLINE
8
SF2_DEBOSS
100
AcDbEntity
100
AcDbPolyline
90
3
70
1
10
12.6755
20
70.5943
10
12.6795
20
70.6370
10
12.6576
20
70.4813
0
LWPOLYLINE
8
SF2_DEBOSS
100
AcDbEntity
100
AcDbPolyline
90
3
70
1
10
12.6045
20
70.1454
10
12.6144
20
70.2080
10
12.5818
20
70.0453
0
LWPOLYLINE
8
SF2_DEBOSS
100
AcDbEntity
100
AcDbPolyline
90
3
70
1
10
12.5052
20
69.7081
10
12.5237
20
69.7895
10
12.4804
20
69.6258
0
LWPOLYLINE
8
SF2_DEBOSS
100
AcDbEntity
100
AcDbPolyline
90
3
70
1
10
12.3776
20
69.2854
10
12.4070
20
69.3827
10
12.3538
20
69.2236
0
LWPOLYLINE
8
SF2_DEBOSS
100
AcDbEntity
100
AcDbPolyline
90
3
70
1
10
12.2218
20
68.8805
10
12.2628
20
68.9872
10
12.2024
20
68.8401
0
LWPOLYLINE
8
SF2_DEBOSS
100
AcDbEntity
100
AcDbPolyline
90
3
70
1
10
12.0376
20
68.4964
10
12.0855
20
68.5964
10
12.0262
20
68.4771
0
LWPOLYLINE
8
SF2_DEBOSS
100
AcDbEntity
100
AcDbPolyline
90
14
70
1
10
10.4406
20
66.6561
10
10.4854
20
66.5783
10
10.5795
20
66.4583
10
10.7282
20
66.2897
10
10.9371
20
66.0660
10
11.0657
20
65.9315
10
11.2195
20
65.7726
10
10.4406
20
66.6561
10
10.4398
20
66.6980
10
10.4774
20
66.7106
10
10.5093
20
66.7221
10
10.5586
20
66.7551
10
10.6264
20
66.8127
10
10.4398
20
66.6980
0
LWPOLYLINE
8
SF2_DEBOSS
100
AcDbEntity
100
AcDbPolyline
90
3
70
1
10
13.5308
20
63.3827
10
15.8689
20
60.9198
10
11.5567
20
65.4277
0
LWPOLYLINE
8
SF2_DEBOSS
100
AcDbEntity
100
AcDbPolyline
90
3
70
1
10
15.9559
20
60.8282
10
15.9543
20
60.8299
10
16.1869
20
60.5830
0
LWPOLYLINE
8
SF2_DEBOSS
100
AcDbEntity
100
AcDbPolyline
90
3
70
1
10
18.6938
20
57.6443
10
18.8880
20
57.6233
10
18.9078
20
57.6366
0
LWPOLYLINE
8
SF2_DEBOSS
100
AcDbEntity
100
AcDbPolyline
90
4
70
1
10
18.1780
20
57.7504
10
18.2903
20
57.7318
10
18.1388
20
57.7664
10
17.9706
20
57.5790
0
LWPOLYLINE
8
SF2_DEBOSS
100
AcDbEntity
100
AcDbPolyline
90
15
70
1
10
8.4400
20
72.7320
10
8.2587
20
73.1854
10
7.9950
20
73.6019
10
7.5666
20
74.0411
10
6.5286
20
74.1292
10
5.6881
20
74.1101
10
5.6926
20
73.1672
10
5.9685
20
67.5681
10
6.6761
20
68.1535
10
7.1046
20
68.5989
10
7.4792
20
69.0690
10
8.0646
20
70.0794
10
8.4277
20
71.1765
10
8.5244
20
71.7552
10
8.5312
20
72.2519
0
LWPOLYLINE
8
SF2_DEBOSS
100
AcDbEntity
100
AcDbPolyline
90
3
70
1
10
6.7859
20
74.5307
10
6.6715
20
74.5736
10
6.8025
20
74.5219
0
LWPOLYLINE
8
SF2_DEBOSS
100
AcDbEntity
100
AcDbPolyline
90
3
70
1
10
6.5672
20
74.6128
10
6.5336
20
74.6254
10
6.2656
20
74.7004
0
LWPOLYLINE
8
SF2_DEBOSS
100
AcDbEntity
100
AcDbPolyline
90
3
70
1
10
5.0711
20
74.7886
10
4.5883
20
74.7417
10
5.4810
20
74.7778
0
LWPOLYLINE
8
SF2_DEBOSS
100
AcDbEntity
100
AcDbPolyline
90
3
70
1
10
5.0398
20
67.0153
10
5.0644
20
67.0256
10
5.0382
20
67.0150
0
LWPOLYLINE
8
SF2_DEBOSS
100
AcDbEntity
100
AcDbPolyline
90
3
70
1
10
5.3204
20
67.1475
10
5.1465
20
67.0600
10
5.3851
20
67.1828
0
LWPOLYLINE
8
SF2_DEBOSS
100
AcDbEntity
100
AcDbPolyline
90
95
70
1
10
54.2788
20
100.8708
10
53.7640
20
101.3202
10
54.4090
20
100.9667
10
55.1778
20
100.4105
10
55.8959
20
99.7625
10
56.5181
20
99.0637
10
57.0598
20
98.2677
10
57.5471
20
97.3337
10
58.0915
20
95.8071
10
58.3291
20
94.7121
10
58.4655
20
93.5604
10
58.4788
20
91.7360
10
58.3592
20
90.4615
10
58.1407
20
89.1728
10
57.6392
20
87.3074
10
56.8865
20
85.3904
10
56.0775
20
83.7464
10
55.5283
20
82.7741
10
54.2518
20
80.8007
10
52.7191
20
78.7615
10
50.9069
20
76.6236
10
49.4699
20
75.1257
10
46.2293
20
71.9414
10
43.9239
20
69.8811
10
44.4510
20
71.9265
10
45.9350
20
73.3787
10
42.8038
20
70.5271
10
42.8474
20
70.8402
10
43.5198
20
73.2389
10
44.2800
20
74.0466
10
44.5614
20
74.4424
10
44.7373
20
74.7981
10
44.7817
20
75.1585
10
44.3834
20
75.6267
10
45.7542
20
77.5087
10
46.1771
20
78.2310
10
46.4222
20
78.8000
10
46.4722
20
79.2393
10
46.4015
20
79.4003
10
46.2642
20
79.4992
10
45.8643
20
79.5330
10
46.7571
20
81.0818
10
47.1710
20
81.9778
10
47.5232
20
82.9140
10
47.8158
20
83.8949
10
48.1224
20
85.3495
10
48.3104
20
86.8587
10
48.3683
20
88.2839
10
48.2844
20
89.4864
10
48.0707
20
90.4857
10
47.9240
20
90.9551
10
47.5584
20
91.8238
10
47.3428
20
92.2192
10
46.8539
20
92.9226
10
46.1882
20
93.5828
10
45.5353
20
93.6659
10
45.0632
20
93.6244
10
44.5757
20
93.4941
10
44.0662
20
93.2738
10
43.4199
20
92.8349
10
42.2038
20
91.6417
10
42.2936
20
92.5762
10
42.3940
20
93.0092
10
42.5945
20
93.5608
10
42.7529
20
93.7791
10
42.0449
20
93.2429
10
41.0424
20
92.2090
10
41.1219
20
93.0715
10
41.3180
20
93.8168
10
41.4720
20
94.1863
10
41.8991
20
94.9344
10
43.2380
20
96.6687
10
43.3315
20
97.0362
10
43.2820
20
97.1601
10
43.1746
20
97.2361
10
43.0142
20
97.2581
10
42.4274
20
97.0638
10
42.3589
20
97.0584
10
42.3617
20
97.0938
10
43.5867
20
99.3986
10
43.9412
20
99.9921
10
44.3496
20
100.5305
10
44.8048
20
100.9382
10
45.6289
20
101.4986
10
46.7749
20
102.0936
10
47.9458
20
102.5197
10
49.0598
20
102.7469
10
49.5698
20
102.7767
10
50.0066
20
102.7534
10
50.9700
20
102.5779
10
51.9771
20
102.2551
10
52.4685
20
102.0476
10
53.5798
20
101.4154
10
54.2912
20
100.8533
10
54.8640
20
100.3251
0
LWPOLYLINE
8
SF2_DEBOSS
100
AcDbEntity
100
AcDbPolyline
90
5
70
1
10
44.6028
20
94.2707
10
45.2644
20
94.1143
10
45.5535
20
93.9913
10
45.3680
20
94.0811
10
45.0383
20
94.1945
0
LWPOLYLINE
8
SF2_DEBOSS
100
AcDbEntity
100
AcDbPolyline
90
3
70
1
10
44.3589
20
94.2875
10
44.3589
20
94.2875
10
44.3589
20
94.2875
0
LWPOLYLINE
8
SF2_DEBOSS
100
AcDbEntity
100
AcDbPolyline
90
3
70
1
10
43.8709
20
94.2321
10
44.1012
20
94.2692
10
43.3748
20
94.0945
0
LWPOLYLINE
8
SF2_DEBOSS
100
AcDbEntity
100
AcDbPolyline
90
3
70
1
10
43.2176
20
94.0360
10
43.2048
20
94.0292
10
43.2905
20
94.0631
0
LWPOLYLINE
8
SF2_DEBOSS
100
AcDbEntity
100
AcDbPolyline
90
4
70
1
10
49.5547
20
77.0454
10
49.1797
20
76.6440
10
48.6479
20
76.0821
10
49.1435
20
76.5972
0
LWPOLYLINE
8
SF2_DEBOSS
100
AcDbEntity
100
AcDbPolyline
90
3
70
1
10
51.0276
20
78.7281
10
51.6456
20
79.4789
10
51.7412
20
79.6001
0
LWPOLYLINE
8
SF2_DEBOSS
100
AcDbEntity
100
AcDbPolyline
90
3
70
1
10
52.3250
20
80.3489
10
51.9678
20
79.8874
10
52.1603
20
80.1314
0
LWPOLYLINE
8
SF2_DEBOSS
100
AcDbEntity
100
AcDbPolyline
90
3
70
1
10
52.8291
20
81.0253
10
52.3658
20
80.4028
10
52.6487
20
80.7764
0
LWPOLYLINE
8
SF2_DEBOSS
100
AcDbEntity
100
AcDbPolyline
90
3
70
1
10
53.2501
20
81.6152
10
52.8605
20
81.0686
10
53.1113
20
81.4145
0
LWPOLYLINE
8
SF2_DEBOSS
100
AcDbEntity
100
AcDbPolyline
90
3
70
1
10
53.6686
20
82.2291
10
53.3815
20
81.8052
10
53.5484
20
82.0464
0
LWPOLYLINE
8
SF2_DEBOSS
100
AcDbEntity
100
AcDbPolyline
90
4
70
1
10
55.3011
20
85.0234
10
54.6617
20
83.8331
10
53.7747
20
82.3903
10
54.7115
20
83.9111
0
LWPOLYLINE
8
SF2_DEBOSS
100
AcDbEntity
100
AcDbPolyline
90
3
70
1
10
55.7836
20
86.0272
10
55.5019
20
85.4242
10
55.6613
20
85.7427
0
LWPOLYLINE
8
SF2_DEBOSS
100
AcDbEntity
100
AcDbPolyline
90
3
70
1
10
56.1817
20
86.9539
10
56.3085
20
87.3112
10
55.9531
20
86.4217
0
LWPOLYLINE
8
SF2_DEBOSS
100
AcDbEntity
100
AcDbPolyline
90
3
70
1
10
56.6363
20
88.2560
10
56.5103
20
87.8802
10
56.6098
20
88.1609
0
LWPOLYLINE
8
SF2_DEBOSS
100
AcDbEntity
100
AcDbPolyline
90
3
70
1
10
56.9504
20
89.3903
10
56.9426
20
89.3585
10
56.9475
20
89.3763
0
LWPOLYLINE
8
SF2_DEBOSS
100
AcDbEntity
100
AcDbPolyline
90
3
70
1
10
57.4098
20
93.0518
10
57.4088
20
92.9364
10
57.4103
20
92.9843
0
LWPOLYLINE
8
SF2_DEBOSS
100
AcDbEntity
100
AcDbPolyline
90
7
70
1
10
57.1536
20
95.8169
10
56.9815
20
96.5177
10
57.1567
20
95.7912
10
57.2977
20
94.9273
10
57.4071
20
93.4407
10
57.3273
20
94.7127
10
57.2524
20
95.2703
0
LWPOLYLINE
8
SF2_DEBOSS
100
AcDbEntity
100
AcDbPolyline
90
3
70
1
10
56.7717
20
97.1779
10
56.9096
20
96.7596
10
56.8324
20
97.0189
0
LWPOLYLINE
8
SF2_DEBOSS
100
AcDbEntity
100
AcDbPolyline
90
3
70
1
10
56.5395
20
97.7648
10
56.6117
20
97.5966
10
56.5822
20
97.6737
0
LWPOLYLINE
8
SF2_DEBOSS
100
AcDbEntity
100
AcDbPolyline
90
3
70
1
10
56.2595
20
98.3537
10
56.2919
20
98.2936
10
56.2854
20
98.3074
0
LWPOLYLINE
8
SF2_DEBOSS
100
AcDbEntity
100
AcDbPolyline
90
4
70
1
10
55.5865
20
99.4555
10
55.9597
20
98.8892
10
55.5722
20
99.4786
10
55.1080
20
100.0619
0
ENDSEC
0
EOF
